<svg width="798" height="817" viewBox="0 0 798 817" fill="none" xmlns="http://www.w3.org/2000/svg">
<g clip-path="url(#clip0_567_26889)">
<path fill-rule="evenodd" clip-rule="evenodd" d="M450.733 811.053C564.101 815.08 704.202 838.619 772.238 752.325C839.429 667.102 756.029 551.824 737.982 446.715C724.7 369.357 726.018 293.154 682.017 226.864C622.484 137.174 559.253 38.5737 450.733 13.958C321.145 -15.4366 167.054 -2.00993 74.4708 89.0535C-17.4268 179.443 -4.42034 321.843 10.7537 446.715C23.8853 554.779 66.1038 658.85 152.394 730.305C233.443 797.421 343.318 807.237 450.733 811.053Z" fill="#2A2A2A"/>
<mask id="mask0_567_26889" style="mask-type:alpha" maskUnits="userSpaceOnUse" x="0" y="0" width="798" height="817">
<path fill-rule="evenodd" clip-rule="evenodd" d="M450.733 811.053C564.101 815.08 704.202 838.619 772.238 752.325C839.429 667.102 756.029 551.824 737.982 446.715C724.7 369.357 726.018 293.154 682.017 226.864C622.484 137.174 559.253 38.5737 450.733 13.958C321.145 -15.4366 167.054 -2.00993 74.4708 89.0535C-17.4268 179.443 -4.42034 321.843 10.7537 446.715C23.8853 554.779 66.1038 658.85 152.394 730.305C233.443 797.421 343.318 807.237 450.733 811.053Z" fill="#2A2A2A"/>
</mask>
<g mask="url(#mask0_567_26889)">
<path d="M196 1V68.4595" stroke="#3E3E3E" stroke-width="9"/>
<ellipse cx="196" cy="112" rx="38" ry="28" fill="#898989"/>
<path d="M256 119C261.523 119 266.116 114.453 264.722 109.109C263.83 105.689 262.475 102.335 260.672 99.1005C257.154 92.7915 251.998 87.0591 245.497 82.2304C238.997 77.4018 231.281 73.5715 222.788 70.9583C214.295 68.345 205.193 67 196 67C186.807 67 177.705 68.345 169.212 70.9583C160.719 73.5715 153.003 77.4018 146.503 82.2304C140.002 87.0591 134.846 92.7915 131.328 99.1005C129.525 102.335 128.17 105.689 127.278 109.109C125.884 114.454 130.477 119 136 119L196 119H256Z" fill="#3E3E3E"/>
<ellipse cx="489" cy="743" rx="318" ry="80" fill="#161616"/>
<ellipse cx="439.5" cy="737.5" rx="236.5" ry="60.5" fill="#202020"/>
</g>
<rect x="69.6406" y="564.385" width="267.621" height="209.05" rx="22" fill="#F5EAB8"/>
<path d="M188.337 610.661C188.802 610.134 189.529 609.905 190.199 610.117C191.311 610.469 191.734 611.812 190.959 612.683C188.258 615.72 184.777 618.521 181.476 620.583C180.8 621.005 179.976 620.901 179.448 620.303C178.706 619.464 178.837 617.994 179.807 617.434C182.992 615.594 186.106 613.192 188.337 610.661ZM202.855 612.849C201.998 612.285 201.911 611.047 202.698 610.389C203.181 609.986 203.864 609.923 204.405 610.245C207.905 612.327 211.912 615.161 214.584 617.486C215.34 618.143 215.313 619.299 214.57 619.97C213.865 620.607 212.78 620.563 212.084 619.915C209.723 617.717 206.177 615.035 202.855 612.849ZM202.469 623.426C199.506 620.962 194.785 621.052 191.884 623.589C188.233 626.782 183.651 629.923 178.944 632.335C178.223 632.705 177.37 632.454 176.921 631.78C176.356 630.93 176.582 629.648 177.494 629.188C184.056 625.881 190.306 620.965 193.989 616.438C194.727 615.531 195.813 614.95 196.983 614.95C198.039 614.95 199.035 615.422 199.75 616.199C204.276 621.113 210.701 625.629 216.832 628.488C217.862 628.968 218.168 630.384 217.544 631.333C217.085 632.031 216.204 632.295 215.457 631.921C211.088 629.737 206.366 626.668 202.469 623.426ZM184.045 633.331C184.045 630.017 186.731 627.331 190.045 627.331H204.143C207.457 627.331 210.143 630.017 210.143 633.331V641.052C210.143 642.04 209.342 642.842 208.353 642.842C207.365 642.842 206.563 642.04 206.563 641.052V636.461C206.563 633.148 203.877 630.461 200.563 630.461H193.484C190.17 630.461 187.484 633.148 187.484 636.461V641.309C187.484 642.259 186.714 643.029 185.764 643.029C184.815 643.029 184.045 642.259 184.045 641.309V633.331ZM185.694 639.875C185.694 639.011 186.395 638.31 187.259 638.31H206.882C207.747 638.31 208.448 639.011 208.448 639.875C208.448 640.74 207.747 641.44 206.882 641.44H187.259C186.395 641.44 185.694 640.74 185.694 639.875ZM195.116 601.814C195.116 600.812 195.928 600 196.929 600C197.931 600 198.743 600.812 198.743 601.814V604.307C198.743 605.308 197.931 606.12 196.929 606.12C195.928 606.12 195.116 605.308 195.116 604.307V601.814ZM177.355 608.596C177.355 606.248 179.259 604.345 181.607 604.345H212.44C214.788 604.345 216.692 606.248 216.692 608.596V611.058C216.692 612.046 215.89 612.848 214.902 612.848C213.913 612.848 213.111 612.046 213.111 611.058V610.185C213.111 608.714 211.919 607.522 210.448 607.522H183.505C182.034 607.522 180.842 608.714 180.842 610.185V611.105C180.842 612.068 180.061 612.848 179.099 612.848C178.136 612.848 177.355 612.068 177.355 611.105V608.596Z" fill="#343434"/>
<path d="M188.006 662.044C186.729 662.044 185.694 663.079 185.694 664.356C185.694 665.634 186.729 666.669 188.006 666.669H206.653C207.93 666.669 208.966 665.634 208.966 664.356C208.966 663.079 207.93 662.044 206.653 662.044H188.006ZM188.006 654.615C186.729 654.615 185.694 655.651 185.694 656.928C185.694 658.205 186.729 659.241 188.006 659.241H206.653C207.93 659.241 208.966 658.205 208.966 656.928C208.966 655.651 207.93 654.615 206.653 654.615H188.006ZM182.208 657.719C182.208 654.405 184.894 651.719 188.208 651.719H206.546C209.86 651.719 212.546 654.405 212.546 657.719V663.612C212.546 666.926 209.86 669.612 206.546 669.612H188.208C184.894 669.612 182.208 666.926 182.208 663.612V657.719ZM184.846 675.195C184.846 674.331 185.547 673.63 186.411 673.63H211.546C212.411 673.63 213.111 674.331 213.111 675.195C213.111 676.06 212.411 676.76 211.546 676.76H186.411C185.547 676.76 184.846 676.06 184.846 675.195ZM212.216 674.191C212.216 673.881 212.467 673.63 212.777 673.63H214.243C215.078 673.63 215.773 674.353 215.608 675.172C214.713 685.684 213.818 689.749 212.358 691.244C211.463 692.131 210.52 692.458 209.154 692.505C208.089 692.627 206.241 692.607 204.228 692.508C203.7 692.482 203.287 692.136 203.175 691.619C202.981 690.723 203.706 689.545 204.621 689.589C205.994 689.655 207.138 689.655 207.694 689.655C208.495 689.655 208.966 689.608 209.39 689.141C210.52 688.113 211.415 684.142 212.216 674.191ZM187.695 669.295C188.141 668.641 188.956 668.332 189.711 668.571C190.78 668.91 191.243 670.164 190.593 671.078C187.492 675.436 183.274 679.385 179.139 682.215C178.527 682.634 177.78 682.597 177.25 682.079C176.447 681.294 176.459 679.747 177.402 679.139C181.4 676.56 185.127 673.061 187.695 669.295ZM192.871 675.811C193.287 675.098 194.134 674.741 194.923 674.983C195.952 675.299 196.44 676.475 195.883 677.397C192.619 682.798 187.929 687.496 183.137 690.821C182.503 691.261 181.713 691.217 181.157 690.683C180.351 689.908 180.387 688.434 181.325 687.825C185.949 684.823 190.1 680.552 192.871 675.811ZM202.786 676.262C203.102 675.439 203.969 674.954 204.826 675.158C205.807 675.39 206.375 676.42 206.005 677.358C203.699 683.2 200.222 688.275 196.251 691.883C195.672 692.409 194.839 692.424 194.228 691.935C193.396 691.27 193.297 689.906 194.093 689.199C197.8 685.911 200.835 681.348 202.786 676.262Z" fill="#343434"/>
<path d="M203.407 700.718C203.407 699.794 204.156 699.046 205.079 699.046C206.003 699.046 206.752 699.794 206.752 700.718V729.937C206.752 730.861 206.003 731.609 205.079 731.609C204.156 731.609 203.407 730.861 203.407 729.937V700.718ZM189.264 719.913C188.882 719.05 189.283 718.042 190.154 717.678L212.479 708.354C213.301 708.011 214.247 708.388 214.607 709.204C214.976 710.04 214.588 711.017 213.746 711.373L191.457 720.781C190.611 721.138 189.636 720.752 189.264 719.913ZM193.655 705.133C193.655 704.197 194.415 703.437 195.351 703.437C196.288 703.437 197.047 704.197 197.047 705.133V734.693C197.047 737.262 197.612 737.823 200.769 737.823C202.323 737.823 210.238 737.823 212.122 737.823C214.456 737.823 215.162 736.933 215.524 733.467C215.629 732.457 216.831 731.852 217.789 732.187C218.429 732.411 218.863 733.013 218.789 733.687C218.179 739.2 216.892 741 212.263 741C210.991 741 201.852 741 200.675 741C195.257 741 193.655 739.739 193.655 734.646V705.133ZM213.347 708.316C213.347 708.254 213.297 708.203 213.235 708.203C213.13 708.203 213.082 708.071 213.163 708.004L213.771 707.502C214.149 707.184 214.669 707.095 215.132 707.268L216.322 707.714C216.643 707.834 216.827 708.17 216.754 708.505C216.744 708.552 216.739 708.602 216.739 708.651C216.738 717.399 216.597 724.373 216.268 726.19C215.985 728.059 215.09 728.946 213.724 729.273C212.768 729.519 211.466 729.58 210.338 729.595C209.739 729.603 209.237 729.173 209.11 728.587C208.912 727.67 209.632 726.601 210.57 726.607C211.017 726.61 211.395 726.61 211.604 726.61C212.31 726.61 212.782 726.423 213.017 725.349C213.299 724.139 213.347 717.554 213.347 708.316ZM175.424 711.964C175.424 711.048 176.167 710.305 177.083 710.305H188.746C189.662 710.305 190.405 711.048 190.405 711.964C190.405 712.88 189.662 713.622 188.746 713.622H177.083C176.167 713.622 175.424 712.88 175.424 711.964ZM181.501 701.279C181.501 700.355 182.25 699.606 183.173 699.606C184.097 699.606 184.846 700.355 184.846 701.279V728.255C184.846 729.179 184.097 729.927 183.173 729.927C182.25 729.927 181.501 729.179 181.501 728.255V701.279ZM175.715 732.891C175.324 731.936 175.803 730.847 176.767 730.475C180.03 729.216 184.235 727.463 188.461 725.673C189.38 725.284 190.429 725.812 190.663 726.782C190.842 727.526 190.475 728.293 189.782 728.618C185.766 730.5 181.642 732.352 178.11 733.874C177.177 734.276 176.099 733.831 175.715 732.891Z" fill="#343434"/>
<path d="M70 587C70 574.297 80.2975 564 93 564H143V773H92C79.8497 773 70 763.15 70 751V587Z" fill="#E1D6A4"/>
<rect x="55.8906" y="531" width="295.106" height="42.128" rx="14" fill="#AB8636"/>
<path d="M126 531H70C62.268 531 56 537.268 56 545V559C56 566.732 62.268 573 70 573H126V531Z" fill="#977222"/>
<rect x="299" y="490.018" width="40.8052" height="204.536" rx="9" transform="rotate(90 299 490.018)" fill="#D4383D"/>
<path d="M299 513.48L299 518.823C299 525.45 293.627 530.823 287 530.823L106.464 530.823C99.8365 530.823 94.4639 525.45 94.4639 518.823L94.4639 513.48L299 513.48Z" fill="#B61A1F"/>
<rect x="291.859" y="495.629" width="29.5838" height="110.684" rx="7" transform="rotate(90 291.859 495.629)" fill="white" fill-opacity="0.6"/>
<rect x="284.797" y="499.199" width="22.4429" height="2.44326" rx="1.22163" transform="rotate(90 284.797 499.199)" fill="#980A0A"/>
<rect x="190.578" y="499.199" width="22.4429" height="2.44326" rx="1.22163" transform="rotate(90 190.578 499.199)" fill="#980A0A"/>
<circle cx="133.224" cy="510.421" r="14.7919" transform="rotate(90 133.224 510.421)" fill="#FF6A6F"/>
<circle cx="133.482" cy="510.676" r="11.9865" transform="rotate(90 133.482 510.676)" fill="#980A0A"/>
<rect x="297.594" y="414.527" width="40.8052" height="204.536" rx="9" transform="rotate(90 297.594 414.527)" fill="#D4383D"/>
<path d="M297.531 438.268L297.531 443.61C297.531 450.237 292.158 455.61 285.531 455.609L104.995 455.604C98.3672 455.603 92.9948 450.231 92.995 443.603L92.9952 438.261L297.531 438.268Z" fill="#B61A1F"/>
<rect x="290.453" y="420.139" width="29.5838" height="110.684" rx="7" transform="rotate(90 290.453 420.139)" fill="white" fill-opacity="0.6"/>
<rect x="283.391" y="423.709" width="22.4429" height="2.44326" rx="1.22163" transform="rotate(90 283.391 423.709)" fill="#980A0A"/>
<rect x="189.172" y="423.709" width="22.4429" height="2.44326" rx="1.22163" transform="rotate(90 189.172 423.709)" fill="#980A0A"/>
<circle cx="131.817" cy="434.931" r="14.7919" transform="rotate(90 131.817 434.931)" fill="#FF6A6F"/>
<circle cx="132.076" cy="435.186" r="11.9865" transform="rotate(90 132.076 435.186)" fill="#980A0A"/>
<rect x="299" y="490.018" width="204.536" height="34.1744" rx="9" transform="rotate(-180 299 490.018)" fill="#B59040"/>
<path d="M299 479.816C299 485.45 294.433 490.018 288.799 490.018L104.665 490.018C99.0312 490.018 94.4639 485.45 94.4639 479.816L299 479.816Z" fill="#977222"/>
<path fill-rule="evenodd" clip-rule="evenodd" d="M277.664 484.916L245.879 484.916C243.67 484.916 241.879 483.125 241.879 480.916L241.879 465.453C241.879 463.244 243.67 461.453 245.879 461.453L277.664 461.453C279.873 461.453 281.664 463.244 281.664 465.453L281.664 466.044C281.664 467.064 281.154 467.574 280.644 467.574C272.993 467.574 272.738 478.795 280.644 478.795C281.207 478.795 281.664 479.252 281.664 479.815L281.664 480.326L281.664 480.916C281.664 483.125 279.873 484.916 277.664 484.916Z" fill="white"/>
<rect x="122.516" y="484.916" width="4.08052" height="23.463" rx="2.04026" transform="rotate(-180 122.516 484.916)" fill="#F5EAB8"/>
<rect x="264.32" y="479.783" width="2.64943" height="12.7173" rx="1.32472" transform="rotate(-180 264.32 479.783)" fill="#B5B5B5"/>
<rect x="257.961" y="479.783" width="2.64943" height="12.7173" rx="1.32472" transform="rotate(-180 257.961 479.783)" fill="#B5B5B5"/>
<rect x="251.602" y="479.783" width="2.64943" height="12.7173" rx="1.32472" transform="rotate(-180 251.602 479.783)" fill="#B5B5B5"/>
<path d="M157.82 353.684H230.684L223.034 414.161H166.564L157.82 353.684Z" fill="#484848"/>
<path d="M229.958 360.24C190.632 361.139 179.569 396.561 178.953 414.16H223.305C225.153 400.056 229.071 369.526 229.958 360.24Z" fill="#161616"/>
<rect x="151.266" y="340.566" width="85.9795" height="14.5728" rx="7.2864" fill="#161616"/>
<path d="M120.577 308.498C136.333 312.446 146.926 336.044 171.574 340.551C171.632 340.562 171.688 340.567 171.748 340.567H215.584C215.699 340.567 215.804 340.547 215.912 340.507C234.294 333.867 240.123 323.251 265.858 315.344C266.825 315.047 266.813 313.652 265.834 313.398C236.747 305.836 227.648 311.648 220.371 318.479C219.477 319.319 218.62 318.417 219.332 317.418C234.124 296.645 225.678 276.036 243.558 261.888C244.42 261.205 243.814 259.689 242.741 259.931C216.966 265.745 206.505 282.465 198.623 314.336C206.029 279.069 192.951 272.821 208.301 235.774C208.702 234.806 207.518 233.901 206.692 234.544C188.713 248.524 174.968 256.879 181.814 305.199C181.977 306.352 180.454 306.827 180.021 305.746C171.09 283.447 172.287 269.177 150.145 251.992C149.199 251.257 147.689 252.871 148.315 253.892C160.439 273.684 145.764 293.088 178.221 327.816C159.732 308.033 139.678 299.04 119.825 304.674C118.647 305.009 119.389 308.2 120.577 308.498Z" fill="#484848"/>
<path d="M128.49 312.134C146.876 324.732 147.712 334.682 172.801 341.984C172.891 342.01 172.982 342.024 173.076 342.024H208.99C209.142 342.024 209.284 341.987 209.421 341.921C233.813 329.977 234.734 318.413 259.191 313.565C260.209 313.363 260.324 311.946 259.327 311.658C237.958 305.488 224.377 314.18 214.752 321.996C213.802 322.768 212.174 321.175 212.778 320.109C222.881 302.281 217.201 282.048 227.687 268.947C228.427 268.022 227.251 266.122 226.199 266.667C208.349 275.917 201.202 292.312 195.121 318.786C201.181 287.714 185.649 273.514 205.287 238.366C205.816 237.418 204.678 236.35 203.799 236.987C188.064 248.394 176.137 260.498 181.137 301.814C181.278 302.98 179.599 303.468 179.144 302.386C171.528 284.308 169.054 277.008 155.6 263.826C154.806 263.048 153.167 264.122 153.406 265.208C156.294 278.328 150.339 295.781 178.336 330.728C161.101 310.871 153.372 309.669 129.031 310.245C128.045 310.268 127.677 311.577 128.49 312.134Z" fill="#161616"/>
<path d="M389 751.5L556 359M556 359L712.5 751.5M556 359V700" stroke="#CA2E33" stroke-width="21" stroke-linecap="round" stroke-linejoin="round"/>
<path d="M389 751.5L556 359M556 359L712.5 751.5M556 359V700" stroke="#C02429" stroke-width="12" stroke-linecap="round" stroke-linejoin="round"/>
<rect x="389.5" y="110.5" width="323" height="453" rx="26.5" fill="#F5EAB8" stroke="#AC1015" stroke-width="11"/>
<path d="M683.5 117.5H461.5C486.5 285 636.5 447.5 706.5 453C706.667 407.833 706.4 160.7 706 141.5C705.6 122.3 690.833 117.5 683.5 117.5Z" fill="#FFF4CE"/>
<path d="M655.607 497.482H662.002L653.045 527.381H659.157L668.114 497.482H674.502L675.998 492.501H657.103L655.607 497.482ZM644.102 497.482C646.269 497.482 646.883 498.577 646.141 501.07L645.111 504.507C644.278 507.298 642.619 508.197 640.34 508.197H637.947L641.158 497.482H644.102ZM645.09 527.381C644.864 526.083 645.182 524.837 645.69 523.147L647.299 517.767C648.386 514.128 648.181 511.488 645.464 510.343C648.527 509.197 650.511 506.855 651.583 503.267L652.402 500.526C654.012 495.146 652.085 492.501 645.746 492.501H636.521L626.068 527.387H632.18L636.436 513.185H638.547C641.328 513.185 642.189 514.381 641.222 517.621L639.577 523.102C638.723 525.944 638.787 526.488 638.85 527.387H645.076L645.09 527.381ZM606.085 519.007C604.413 524.59 606.735 527.78 612.741 527.78C618.748 527.78 622.976 524.59 624.649 519.007L630.084 500.868C631.757 495.286 629.434 492.096 623.428 492.096C617.421 492.096 613.193 495.286 611.52 500.868L606.085 519.007ZM617.739 500.52C618.487 498.026 619.99 497.083 621.938 497.083C623.887 497.083 624.825 498.032 624.077 500.52L618.43 519.355C617.682 521.849 616.179 522.792 614.231 522.792C612.283 522.792 611.344 521.843 612.092 519.355L617.739 500.52ZM600.029 497.482H610.087L611.584 492.501H595.413L584.96 527.387H591.072L595.385 512.982H603.276L604.772 508.001H596.881L600.029 497.488V497.482ZM574.393 527.381H580.506L590.966 492.501H584.854L574.4 527.387L574.393 527.381ZM569.015 497.482H579.574L581.071 492.501H564.399L553.945 527.387H570.617L572.114 522.406H561.554L564.618 512.191H573.01L574.506 507.21H566.114L569.029 497.494L569.015 497.482ZM542.779 492.501H534.274L523.82 527.387H529.156L536.547 502.716L533.709 527.387H539.49L551.214 502.368L543.718 527.387H549.499L559.952 492.501H551.447L539.857 517.267L542.779 492.501Z" fill="#343434"/>
<mask id="mask1_567_26889" style="mask-type:luminance" maskUnits="userSpaceOnUse" x="429" y="492" width="96" height="36">
<path d="M484.289 527.88L490.917 505.696H520.746L518.275 513.962H496.825L500.071 515.646L496.415 527.88H484.289ZM429 527.88L439.722 492H524.847L522.376 500.266H488.178V493.778L486.237 500.26L477.986 527.88H465.859L474.118 500.266H464.066L467.313 501.949L459.563 527.886H447.43L455.681 500.266H445.63L448.877 501.949L441.126 527.886H429V527.88Z" fill="white"/>
</mask>
<g mask="url(#mask1_567_26889)">
<path d="M524.847 492H429V527.88H524.847V492Z" fill="#343434"/>
</g>
<rect x="429" y="137" width="54" height="58" rx="5" fill="#CA2E33"/>
<path d="M433 184.064V153C435.56 183.836 451.186 191.777 459.316 191.995H460C459.779 192.001 459.551 192.002 459.316 191.995H438.927C434.185 191.995 433 186.708 433 184.064Z" fill="#B61A1F"/>
<rect x="452" y="130" width="8" height="15" rx="3" fill="#ACACAC"/>
<rect x="502" y="170" width="43" height="47" rx="5" fill="#DE4247"/>
<path d="M506 207.302V185C507.991 207.139 520.145 212.84 526.468 212.997H527C526.828 213.001 526.65 213.001 526.468 212.997H510.61C506.922 212.997 506 209.2 506 207.302Z" fill="#CA2E33"/>
<rect x="520" y="163" width="8" height="15" rx="3" fill="#ACACAC"/>
<rect x="436" y="215" width="43" height="46" rx="5" fill="#CA2E33"/>
<path d="M440 252.302V230C441.991 252.139 454.145 257.84 460.468 257.997H461C460.828 258.001 460.65 258.001 460.468 257.997H444.61C440.922 257.997 440 254.2 440 252.302Z" fill="#B61A1F"/>
<rect x="453" y="208" width="8" height="15" rx="3" fill="#ACACAC"/>
<rect x="429" y="404" width="27" height="51" rx="5" fill="#A17C2C"/>
<rect x="473" y="375" width="27" height="80" rx="5" fill="#AB8636"/>
<rect x="473" y="375" width="19" height="80" rx="5" fill="#A17C2C"/>
<rect x="517" y="346" width="27" height="109" rx="5" fill="#AB8636"/>
<rect x="517" y="346" width="15" height="109" rx="5" fill="#A17C2C"/>
<rect x="561" y="316" width="27" height="139" rx="5" fill="#AB8636"/>
<rect x="561" y="316" width="12" height="139" rx="5" fill="#A17C2C"/>
<rect x="605" y="287" width="27" height="168" rx="5" fill="#B59040"/>
<rect x="605" y="287" width="10" height="168" rx="5" fill="#AB8636"/>
<rect x="649" y="258" width="27" height="197" rx="5" fill="#BF9A4A"/>
<path d="M432 371L474.218 306.535L500 325L561.358 247.95L588 266.5L670.5 175" stroke="url(#paint0_linear_567_26889)" stroke-width="10" stroke-linecap="round" stroke-linejoin="round"/>
</g>
<defs>
<linearGradient id="paint0_linear_567_26889" x1="427" y1="375.5" x2="678" y2="175" gradientUnits="userSpaceOnUse">
<stop stop-color="#AB8636"/>
<stop offset="1" stop-color="#C9A454"/>
</linearGradient>
<clipPath id="clip0_567_26889">
<rect width="798" height="817" fill="white"/>
</clipPath>
</defs>
</svg>
