<svg width="828" height="557" viewBox="0 0 828 557" fill="none" xmlns="http://www.w3.org/2000/svg">
<g clip-path="url(#clip0_567_26606)">
<path fill-rule="evenodd" clip-rule="evenodd" d="M68.5501 202.422C104.867 119.619 173.097 45.7338 266.966 17.8277C349.027 -6.56804 425.373 52.3137 509.139 71.4409C595.181 91.0878 700.734 67.8796 756.99 129.72C817.252 195.964 820.454 295.772 785.738 375.499C753.652 449.189 669.23 488.549 587.79 518.302C519.06 543.413 447.982 529.516 373.917 525.956C264.075 520.676 129.859 568.348 58.6154 492.866C-13.7959 416.147 27.475 296.073 68.5501 202.422Z" fill="#2A2A2A"/>
<path d="M790.668 290.791C790.668 362.106 748.628 426.779 680.436 473.667C612.249 520.551 517.994 549.582 413.834 549.582C309.674 549.582 215.419 520.551 147.232 473.667C79.0396 426.779 37 362.106 37 290.791C37 219.476 79.0396 154.802 147.232 107.915C215.419 61.0307 309.674 32 413.834 32C517.994 32 612.249 61.0307 680.436 107.915C748.628 154.802 790.668 219.476 790.668 290.791Z" stroke="#474747" stroke-width="2"/>
<path d="M400.096 31.8398C6.80023 60.4252 92.674 553.103 400.096 549.32" stroke="#474747" stroke-width="2"/>
<path d="M413.834 31.8398C807.129 60.4252 721.256 553.103 413.834 549.32" stroke="#474747" stroke-width="2"/>
<path d="M402.386 32.2617C302.201 92.3751 262.442 438.185 403.5 549.5" stroke="#474747" stroke-width="2"/>
<path d="M188.854 87.3301C294.189 101.623 602.639 101.791 664.008 97.419" stroke="#474747" stroke-width="2"/>
<path d="M158.508 477.438C270.696 491.743 599.214 491.911 664.576 487.535" stroke="#474747" stroke-width="2"/>
<path d="M72.6387 184.855C225.692 199.161 673.874 199.329 763.044 194.953" stroke="#474747" stroke-width="2"/>
<path d="M61.1914 379.91C216.783 394.215 672.397 394.384 763.047 390.008" stroke="#474747" stroke-width="2"/>
<path d="M36 282.383C203.522 296.688 694.068 296.856 791.668 292.481" stroke="#474747" stroke-width="2"/>
<path d="M413.834 32.2617C514.019 92.3751 553.558 438.185 412.5 549.5" stroke="#474747" stroke-width="2"/>
<path d="M158 162.5C158 162.5 221.5 219.5 331 219.5C160 124.5 380.5 104 380.5 104" stroke="#141414" stroke-width="8" stroke-linecap="round" stroke-dasharray="25 15"/>
<path d="M476.5 155.001C473 123.001 484.5 75.001 379 102.501C275 45.0012 193 98.0013 159 158.001C44.5002 210.501 101.499 306.001 151.999 321.501C128.498 409.002 144.999 409.002 239 388.501C216.5 493.001 373.5 550.501 559.5 427.501C606.283 396.564 726.999 226.501 632 201" stroke="#AB8636" stroke-width="3" stroke-dasharray="25 15"/>
<path d="M191.37 111.629C191.37 135.821 170.311 161.95 161.25 172.073C159.05 174.531 155.32 174.531 153.119 172.073C144.059 161.95 123 135.821 123 111.629C123 101.119 126.602 91.039 133.013 83.6071C139.423 76.1752 148.118 72 157.185 72C166.251 72 174.946 76.1752 181.357 83.6071C187.768 91.039 191.37 101.119 191.37 111.629Z" fill="#F5EAB8"/>
<path d="M157.984 163.988C164.824 164.672 175.389 140.373 180.982 126.699C176.216 131.879 168.549 142.235 157.365 148.449C147.691 153.824 151.768 163.366 157.984 163.988Z" fill="#D7CC9A"/>
<path d="M157.807 125.452C165.359 125.452 171.481 119.052 171.481 111.157C171.481 103.262 165.359 96.8613 157.807 96.8613C150.255 96.8613 144.133 103.262 144.133 111.157C144.133 119.052 150.255 125.452 157.807 125.452Z" fill="#343434"/>
<path d="M403.981 63.1049C403.981 78.627 391.306 95.3153 384.621 103.038C382.461 105.532 378.739 105.532 376.58 103.038C369.894 95.3153 357.219 78.627 357.219 63.1049C357.219 55.9163 359.682 49.022 364.067 43.9388C368.452 38.8557 374.399 36 380.6 36C386.801 36 392.748 38.8557 397.133 43.9388C401.518 49.022 403.981 55.9163 403.981 63.1049Z" fill="#F5EAB8"/>
<path d="M381.147 98.9171C385.825 99.3849 393.051 82.7654 396.877 73.4124C393.617 76.9558 388.373 84.0389 380.723 88.2892C374.107 91.9653 376.896 98.4919 381.147 98.9171Z" fill="#D7CC9A"/>
<path d="M381.024 72.5592C386.19 72.5592 390.377 68.1816 390.377 62.7816C390.377 57.3815 386.19 53.0039 381.024 53.0039C375.859 53.0039 371.672 57.3815 371.672 62.7816C371.672 68.1816 375.859 72.5592 381.024 72.5592Z" fill="#343434"/>
<path d="M357.036 176.003C357.036 192.822 343.128 210.92 336.052 219.04C333.884 221.527 330.152 221.527 327.985 219.04C320.909 210.92 307 192.822 307 176.003C307 168.311 309.636 160.934 314.328 155.495C319.019 150.056 325.383 147 332.018 147C338.653 147 345.017 150.056 349.709 155.495C354.401 160.934 357.036 168.311 357.036 176.003Z" fill="#F5EAB8"/>
<path d="M332.603 214.322C337.609 214.822 345.341 197.039 349.434 187.032C345.946 190.823 340.335 198.402 332.15 202.95C325.071 206.883 328.054 213.867 332.603 214.322Z" fill="#D7CC9A"/>
<path d="M332.472 186.12C337.999 186.12 342.479 181.436 342.479 175.657C342.479 169.879 337.999 165.195 332.472 165.195C326.945 165.195 322.465 169.879 322.465 175.657C322.465 181.436 326.945 186.12 332.472 186.12Z" fill="#343434"/>
<path d="M418.055 541.517V544.017H420.555H542.765H545.265V541.517V54.0729C545.265 48.2631 538.944 44.6594 533.944 47.6189L447.736 98.6506C429.338 109.541 418.055 129.333 418.055 150.713V541.517Z" fill="#CA2E33" stroke="#AC1415" stroke-width="5"/>
<path d="M777.041 541.516V544.016H774.541H652.331H649.831V541.516V9.18258C649.831 3.24131 656.41 -0.341106 661.401 2.88277L749.37 59.711C766.621 70.8556 777.041 89.9912 777.041 110.529V541.516Z" fill="#CA2E33" stroke="#AC1415" stroke-width="5"/>
<mask id="mask0_567_26606" style="mask-type:alpha" maskUnits="userSpaceOnUse" x="664" y="31" width="95" height="485">
<path d="M756.629 95.664V514.124H666.025V37.7256C666.025 33.7448 670.451 31.3603 673.775 33.55L750.33 83.9722C754.262 86.5622 756.629 90.9554 756.629 95.664Z" fill="#B61A1F" stroke="#AC1015" stroke-width="3"/>
</mask>
<g mask="url(#mask0_567_26606)">
<rect x="-1.5" y="1.5" width="87.6038" height="14.7255" rx="1.5" transform="matrix(-1 0 0 1 753.629 158.434)" fill="#B61A1F" stroke="#AC1015" stroke-width="3"/>
<rect x="-1.5" y="1.5" width="87.6038" height="14.7255" rx="1.5" transform="matrix(-1 0 0 1 753.629 186.795)" fill="#B61A1F" stroke="#AC1015" stroke-width="3"/>
<rect x="-1.5" y="1.5" width="87.6038" height="14.7255" rx="1.5" transform="matrix(-1 0 0 1 753.629 215.156)" fill="#B61A1F" stroke="#AC1015" stroke-width="3"/>
<rect x="-1.5" y="1.5" width="87.6038" height="14.7255" rx="1.5" transform="matrix(-1 0 0 1 753.629 243.518)" fill="#B61A1F" stroke="#AC1015" stroke-width="3"/>
<rect x="-1.5" y="1.5" width="87.6038" height="14.7255" rx="1.5" transform="matrix(-1 0 0 1 753.629 271.877)" fill="#B61A1F" stroke="#AC1015" stroke-width="3"/>
<rect x="-1.5" y="1.5" width="87.6038" height="14.7255" rx="1.5" transform="matrix(-1 0 0 1 753.629 300.238)" fill="#B61A1F" stroke="#AC1015" stroke-width="3"/>
<rect x="-1.5" y="1.5" width="87.6038" height="14.7255" rx="1.5" transform="matrix(-1 0 0 1 753.629 328.598)" fill="#B61A1F" stroke="#AC1015" stroke-width="3"/>
<rect x="-1.5" y="1.5" width="87.6038" height="14.7255" rx="1.5" transform="matrix(-1 0 0 1 753.629 356.961)" fill="#B61A1F" stroke="#AC1015" stroke-width="3"/>
<rect x="-1.5" y="1.5" width="87.6038" height="14.7255" rx="1.5" transform="matrix(-1 0 0 1 753.629 385.318)" fill="#B61A1F" stroke="#AC1015" stroke-width="3"/>
<rect x="-1.5" y="1.5" width="87.6038" height="14.7255" rx="1.5" transform="matrix(-1 0 0 1 753.629 413.68)" fill="#B61A1F" stroke="#AC1015" stroke-width="3"/>
<rect x="-1.5" y="1.5" width="87.6038" height="14.7255" rx="1.5" transform="matrix(-1 0 0 1 753.629 442.037)" fill="#B61A1F" stroke="#AC1015" stroke-width="3"/>
<rect x="-1.5" y="1.5" width="87.6038" height="14.7255" rx="1.5" transform="matrix(-1 0 0 1 753.629 470.4)" fill="#B61A1F" stroke="#AC1015" stroke-width="3"/>
<path d="M695.065 49.3886C692.316 47.5008 689.059 46.4902 685.724 46.4902H669.025C668.196 46.4902 667.525 47.1618 667.525 47.9902V59.7157C667.525 60.5442 668.196 61.2157 669.025 61.2157H710.676C711.167 61.2157 711.364 60.5816 710.959 60.3036L695.065 49.3886Z" fill="#B61A1F" stroke="#AC1015" stroke-width="3"/>
<path d="M737.012 78.8589C734.016 76.2738 730.19 74.8516 726.233 74.8516H669.026C668.197 74.8516 667.526 75.5231 667.526 76.3516V88.0771C667.526 88.9055 668.197 89.5771 669.026 89.5771H748.089C748.553 89.5771 748.767 89.0012 748.416 88.6985L737.012 78.8589Z" fill="#B61A1F" stroke="#AC1015" stroke-width="3"/>
<rect x="-1.5" y="1.5" width="87.6038" height="14.7255" rx="1.5" transform="matrix(-1 0 0 1 753.629 101.713)" fill="#B61A1F" stroke="#AC1015" stroke-width="3"/>
<rect x="-1.5" y="1.5" width="87.6038" height="14.7255" rx="1.5" transform="matrix(-1 0 0 1 753.629 130.072)" fill="#B61A1F" stroke="#AC1015" stroke-width="3"/>
</g>
<path d="M756.886 77.7504C760.39 191.123 719.505 422.226 681.198 537.139C680.505 539.219 682.206 541.253 684.387 541.027C710.07 538.374 756.615 534.135 776.131 534.418C777.848 534.443 779.265 533.215 779.264 531.497C779.242 482.063 778.749 212.384 779.807 131.375C779.807 99.9069 772.669 87.6829 762.126 75.6639C760.276 73.5541 756.799 74.9453 756.886 77.7504Z" fill="#2A2A2A" fill-opacity="0.15"/>
<mask id="mask1_567_26606" style="mask-type:alpha" maskUnits="userSpaceOnUse" x="435" y="78" width="95" height="494">
<path d="M437.408 137.073V570.489H528.012V84.5898C528.012 80.7244 523.813 78.3209 520.48 80.2782L444.319 125.001C440.038 127.515 437.408 132.108 437.408 137.073Z" fill="#C5C5C5" stroke="#A20A0B" stroke-width="3"/>
</mask>
<g mask="url(#mask1_567_26606)">
<rect x="438.908" y="215.771" width="87.6038" height="14.7255" rx="1.5" fill="#B61A1F" stroke="#AC1015" stroke-width="3"/>
<rect x="438.908" y="244.133" width="87.6038" height="14.7255" rx="1.5" fill="#B61A1F" stroke="#AC1015" stroke-width="3"/>
<rect x="438.908" y="272.494" width="87.6038" height="14.7255" rx="1.5" fill="#B61A1F" stroke="#AC1015" stroke-width="3"/>
<rect x="438.908" y="300.855" width="87.6038" height="14.7255" rx="1.5" fill="#B61A1F" stroke="#AC1015" stroke-width="3"/>
<rect x="438.908" y="329.215" width="87.6038" height="14.7255" rx="1.5" fill="#B61A1F" stroke="#AC1015" stroke-width="3"/>
<rect x="438.908" y="357.576" width="87.6038" height="14.7255" rx="1.5" fill="#B61A1F" stroke="#AC1015" stroke-width="3"/>
<rect x="438.908" y="385.936" width="87.6038" height="14.7255" rx="1.5" fill="#B61A1F" stroke="#AC1015" stroke-width="3"/>
<rect x="438.908" y="414.299" width="87.6038" height="14.7255" rx="1.5" fill="#B61A1F" stroke="#AC1015" stroke-width="3"/>
<rect x="438.908" y="442.656" width="87.6038" height="14.7255" rx="1.5" fill="#B61A1F" stroke="#AC1015" stroke-width="3"/>
<rect x="438.908" y="471.018" width="87.6038" height="14.7255" rx="1.5" fill="#B61A1F" stroke="#AC1015" stroke-width="3"/>
<path d="M482.847 105.175C485.779 103.514 489.091 102.641 492.461 102.641H525.012C525.841 102.641 526.512 103.312 526.512 104.141V116.051C526.512 116.879 525.841 117.551 525.012 117.551H462.904C462.739 117.551 462.647 117.502 462.588 117.453C462.517 117.394 462.453 117.3 462.421 117.178C462.389 117.056 462.398 116.943 462.431 116.857C462.458 116.785 462.514 116.697 462.658 116.616L482.847 105.175Z" fill="#B61A1F" stroke="#AC1015" stroke-width="3"/>
<path d="M508.943 89.1054L526.512 79.1499V87.6054C526.512 88.4338 525.84 89.1054 525.012 89.1054H508.943Z" fill="#B61A1F" stroke="#AC1015" stroke-width="3"/>
<path d="M441.437 136.455C442.24 133.075 445.26 130.689 448.733 130.689H525.012C525.84 130.689 526.512 131.361 526.512 132.189V143.915C526.512 144.743 525.84 145.415 525.012 145.415H441.205C440.236 145.415 439.522 144.51 439.746 143.568L441.437 136.455Z" fill="#B61A1F" stroke="#AC1015" stroke-width="3"/>
<rect x="438.908" y="159.049" width="87.6038" height="14.7255" rx="1.5" fill="#B61A1F" stroke="#AC1015" stroke-width="3"/>
<rect x="438.908" y="187.41" width="87.6038" height="14.7255" rx="1.5" fill="#B61A1F" stroke="#AC1015" stroke-width="3"/>
</g>
<path d="M439.009 114.23C435.623 218.456 475.935 430.313 513.765 536.037C514.511 538.121 512.819 540.211 510.616 539.999C485.185 537.559 439.287 533.678 419.998 533.934C418.285 533.957 416.874 532.701 416.875 530.988C416.899 484.848 417.383 237.637 416.338 163.279C416.338 134.336 423.402 123.095 433.835 112.041C435.728 110.035 439.098 111.473 439.009 114.23Z" fill="#2A2A2A" fill-opacity="0.15"/>
<rect x="511.156" y="235.99" width="173.833" height="35.8201" fill="#835E0E"/>
<rect x="503.621" y="117.834" width="188.904" height="152.03" rx="15" fill="#F5EAB8" stroke="#AB8636" stroke-width="6"/>
<path d="M479.391 272.955C479.391 264.671 486.106 257.955 494.391 257.955H701.757C710.041 257.955 716.757 264.671 716.757 272.955V536.516C716.757 537.621 715.861 538.516 714.757 538.516H481.391C480.286 538.516 479.391 537.621 479.391 536.516V272.955Z" fill="#F5EAB8" stroke="#AB8636" stroke-width="6"/>
<rect x="492.193" y="276.025" width="211.76" height="15.803" rx="4" fill="#CDC290"/>
<rect x="492.193" y="299.203" width="211.76" height="15.803" rx="4" fill="#CDC290"/>
<rect x="492.193" y="322.381" width="211.76" height="15.803" rx="4" fill="#CDC290"/>
<rect x="492.193" y="345.559" width="211.76" height="15.803" rx="4" fill="#CDC290"/>
<rect x="492.193" y="368.736" width="211.76" height="15.803" rx="4" fill="#CDC290"/>
<rect x="492.193" y="391.914" width="211.76" height="15.803" rx="4" fill="#CDC290"/>
<rect x="492.193" y="415.092" width="211.76" height="15.803" rx="4" fill="#CDC290"/>
<path opacity="0.2" d="M495.194 276.026L619.196 276.026C621.081 276.026 622.5 277.754 622.098 279.596C611.921 326.232 582.331 353.186 495.45 360.062C493.714 360.2 492.194 358.826 492.194 357.084L492.194 279.026C492.194 277.369 493.537 276.026 495.194 276.026Z" fill="white"/>
<path opacity="0.3" d="M495.195 276.025L573.891 276.025C575.778 276.025 577.199 277.752 576.77 279.589C569.911 308.941 550.555 326.012 495.437 330.559C493.701 330.702 492.195 329.327 492.195 327.585L492.195 279.025C492.195 277.368 493.538 276.025 495.195 276.025Z" fill="#D7CC9A"/>
<path d="M482.711 453.537C482.711 448.014 487.188 443.537 492.711 443.537H703.435C708.958 443.537 713.435 448.014 713.435 453.537V536.516C713.435 539.277 711.196 541.516 708.435 541.516H487.711C484.95 541.516 482.711 539.277 482.711 536.516V453.537Z" fill="#C9A454"/>
<path d="M482.711 496.732C482.711 491.21 487.188 486.732 492.711 486.732H703.435C708.958 486.732 713.435 491.21 713.435 496.732V536.516C713.435 539.278 711.196 541.516 708.435 541.516H487.711C484.95 541.516 482.711 539.278 482.711 536.516V496.732Z" fill="#B59040"/>
<rect x="506.941" y="195.957" width="182.261" height="46.3555" rx="10" fill="#EDE2B0"/>
<rect x="390" y="532.033" width="415.092" height="20.0171" rx="8" fill="#484848"/>
<rect x="411.07" y="532.033" width="372.951" height="9.4818" rx="4.7409" fill="#343434"/>
<path d="M627.043 532.184H627.193V532.034V467.607C627.193 465.868 625.783 464.457 624.043 464.457H573.152C571.413 464.457 570.002 465.868 570.002 467.607V532.034V532.184H570.152H627.043Z" fill="#EBE0AE" stroke="#980001" stroke-width="0.3"/>
<path d="M613.346 464.607H624.042C625.698 464.607 627.042 465.951 627.042 467.607V532.034H613.346V464.607Z" fill="#F5EAB8"/>
<path d="M577.527 464.607H596.491V532.034H577.527V464.607Z" fill="#F5EAB8"/>
<path d="M598.598 464.607L598.598 532.034" stroke="#980001" stroke-width="0.7"/>
<rect x="591.223" y="500.428" width="3.1606" height="12.6424" rx="1.5803" fill="#980001"/>
<rect x="602.812" y="500.428" width="3.1606" height="12.6424" rx="1.5803" fill="#980001"/>
<rect x="517.111" y="464.757" width="19.7027" height="19.7027" rx="2.85" fill="#F5EAB8" stroke="#980001" stroke-width="0.3"/>
<rect x="492.343" y="464.757" width="19.7027" height="19.7027" rx="2.85" fill="#F5EAB8" stroke="#980001" stroke-width="0.3"/>
<rect x="517.111" y="488.572" width="19.7027" height="19.7027" rx="2.85" fill="#F5EAB8" stroke="#980001" stroke-width="0.3"/>
<rect x="492.343" y="488.572" width="19.7027" height="19.7027" rx="2.85" fill="#F5EAB8" stroke="#980001" stroke-width="0.3"/>
<rect x="541.875" y="464.757" width="19.7027" height="19.7027" rx="2.85" fill="#F5EAB8" stroke="#980001" stroke-width="0.3"/>
<rect x="550.137" y="472.793" width="11.5889" height="11.5889" rx="3" fill="#CA2E33" fill-opacity="0.2"/>
<rect x="525.906" y="472.793" width="11.5889" height="11.5889" rx="3" fill="#CA2E33" fill-opacity="0.2"/>
<rect x="500.621" y="472.793" width="11.5889" height="11.5889" rx="3" fill="#CA2E33" fill-opacity="0.2"/>
<rect x="541.875" y="488.572" width="19.7027" height="19.7027" rx="2.85" fill="#F5EAB8" stroke="#980001" stroke-width="0.3"/>
<rect x="550.137" y="497.021" width="11.5889" height="11.5889" rx="3" fill="#CA2E33" fill-opacity="0.2"/>
<rect x="525.906" y="497.021" width="11.5889" height="11.5889" rx="3" fill="#CA2E33" fill-opacity="0.2"/>
<rect x="500.621" y="497.021" width="11.5889" height="11.5889" rx="3" fill="#CA2E33" fill-opacity="0.2"/>
<rect x="659.338" y="464.757" width="19.7027" height="19.7027" rx="2.85" fill="#F5EAB8" stroke="#980001" stroke-width="0.3"/>
<rect x="634.57" y="464.757" width="19.7027" height="19.7027" rx="2.85" fill="#F5EAB8" stroke="#980001" stroke-width="0.3"/>
<rect x="659.338" y="488.572" width="19.7027" height="19.7027" rx="2.85" fill="#F5EAB8" stroke="#980001" stroke-width="0.3"/>
<rect x="634.57" y="488.572" width="19.7027" height="19.7027" rx="2.85" fill="#F5EAB8" stroke="#980001" stroke-width="0.3"/>
<rect x="684.101" y="464.757" width="19.7027" height="19.7027" rx="2.85" fill="#F5EAB8" stroke="#980001" stroke-width="0.3"/>
<rect x="683.938" y="472.793" width="11.5889" height="11.5889" rx="3" fill="#CA2E33" fill-opacity="0.2"/>
<rect x="658.65" y="472.793" width="11.5889" height="11.5889" rx="3" fill="#CA2E33" fill-opacity="0.2"/>
<rect x="634.42" y="472.793" width="11.5889" height="11.5889" rx="3" fill="#CA2E33" fill-opacity="0.2"/>
<rect x="684.101" y="488.572" width="19.7027" height="19.7027" rx="2.85" fill="#F5EAB8" stroke="#980001" stroke-width="0.3"/>
<rect x="683.938" y="497.021" width="11.5889" height="11.5889" rx="3" fill="#CA2E33" fill-opacity="0.2"/>
<rect x="658.65" y="497.021" width="11.5889" height="11.5889" rx="3" fill="#CA2E33" fill-opacity="0.2"/>
<rect x="634.42" y="497.021" width="11.5889" height="11.5889" rx="3" fill="#CA2E33" fill-opacity="0.2"/>
<rect x="516.592" y="133.057" width="27.5824" height="27.8752" rx="4" fill="#CDC290"/>
<rect x="516.592" y="199.426" width="27.5824" height="27.8752" rx="4" fill="#CDC290"/>
<rect x="619.045" y="133.057" width="27.5824" height="27.8752" rx="4" fill="#CDC290"/>
<rect x="619.045" y="199.426" width="27.5824" height="27.8752" rx="4" fill="#CDC290"/>
<rect x="584.889" y="133.057" width="27.5824" height="27.8752" rx="4" fill="#CDC290"/>
<rect x="584.889" y="199.426" width="27.5824" height="27.8752" rx="4" fill="#CDC290"/>
<rect x="516.592" y="166.24" width="27.5824" height="27.8752" rx="4" fill="#CDC290"/>
<rect x="619.045" y="166.24" width="27.5824" height="27.8752" rx="4" fill="#CDC290"/>
<rect x="584.889" y="166.24" width="27.5824" height="27.8752" rx="4" fill="#CDC290"/>
<rect x="550.744" y="133.057" width="27.5824" height="27.8752" rx="4" fill="#CDC290"/>
<rect x="550.744" y="199.426" width="27.5824" height="27.8752" rx="4" fill="#CDC290"/>
<rect x="653.191" y="133.057" width="27.5824" height="27.8752" rx="4" fill="#CDC290"/>
<rect x="653.191" y="199.426" width="27.5824" height="27.8752" rx="4" fill="#CDC290"/>
<rect x="550.744" y="166.24" width="27.5824" height="27.8752" rx="4" fill="#CDC290"/>
<rect x="653.191" y="166.24" width="27.5824" height="27.8752" rx="4" fill="#CDC290"/>
<path opacity="0.2" d="M676.774 230.724H511.812C509.291 230.724 507.397 228.409 507.949 225.948C521.518 165.405 560.918 130.41 676.439 121.477C678.752 121.298 680.774 123.128 680.774 125.448V226.724C680.774 228.933 678.984 230.724 676.774 230.724Z" fill="#FFFFFE"/>
<path opacity="0.3" d="M676.776 230.724H563.571C561.058 230.724 559.164 228.429 559.723 225.979C569.463 183.285 597.131 158.486 676.448 151.937C678.763 151.746 680.776 153.579 680.776 155.902V226.724C680.776 228.933 678.985 230.724 676.776 230.724Z" fill="#D7CC9A"/>
<rect x="522.744" y="225.455" width="151.709" height="66.3726" rx="16" fill="#AB8636"/>
<rect x="530.119" y="230.723" width="136.959" height="55.8372" rx="13" fill="#980001"/>
<rect x="538.547" y="235.99" width="120.103" height="44.2484" rx="12" fill="#AC1015"/>
<path d="M563.607 251.154C564.1 250.631 564.84 250.383 565.524 250.6C566.608 250.945 567.035 252.238 566.264 253.073C564.868 254.584 563.161 255.966 561.471 257.023C560.847 257.413 560.091 257.302 559.611 256.744C558.914 255.934 559.082 254.523 560 253.977C561.362 253.167 562.629 252.193 563.607 251.154ZM573.136 253.241C572.293 252.669 572.222 251.435 573.018 250.801C573.488 250.426 574.139 250.373 574.655 250.68C576.316 251.666 578.205 252.912 579.648 254.05C580.419 254.659 580.381 255.795 579.629 256.428C578.95 257 577.939 256.942 577.268 256.36C576.122 255.366 574.609 254.239 573.136 253.241ZM572.378 259.302C570.914 258.097 568.614 258.124 567.177 259.361C565.082 261.165 562.397 262.922 559.599 264.25C558.921 264.572 558.145 264.325 557.737 263.695C557.194 262.856 557.463 261.593 558.364 261.159C561.744 259.529 564.86 257.161 566.862 254.909C567.502 254.189 568.395 253.717 569.358 253.717H569.959C570.844 253.717 571.677 254.117 572.289 254.756C574.702 257.276 577.789 259.321 580.978 260.675C582.01 261.113 582.379 262.524 581.77 263.465C581.355 264.108 580.559 264.356 579.868 264.027C577.296 262.803 574.559 261.098 572.378 259.302ZM561.567 263.956C561.567 262.299 562.91 260.956 564.567 260.956H574.872C576.529 260.956 577.872 262.299 577.872 263.956V268.782C577.872 269.75 577.088 270.534 576.121 270.534C575.154 270.534 574.37 269.75 574.37 268.782V266.879C574.37 265.223 573.027 263.879 571.37 263.879H567.897C566.24 263.879 564.897 265.223 564.897 266.879V268.896C564.897 269.816 564.151 270.561 563.232 270.561C562.312 270.561 561.567 269.816 561.567 268.896V263.956ZM563.117 268.32C563.117 267.513 563.771 266.858 564.579 266.858H574.659C575.467 266.858 576.121 267.513 576.121 268.32C576.121 269.127 575.467 269.782 574.659 269.782H564.579C563.771 269.782 563.117 269.127 563.117 268.32ZM567.767 246.198C567.767 245.215 568.564 244.418 569.547 244.418C570.53 244.418 571.327 245.215 571.327 246.198V246.592C571.327 247.575 570.53 248.372 569.547 248.372C568.564 248.372 567.767 247.575 567.767 246.592V246.198ZM557.318 249.645C557.318 247.988 558.661 246.645 560.318 246.645H578.949C580.605 246.645 581.949 247.988 581.949 249.645V250.894C581.949 251.869 581.158 252.659 580.183 252.659H579.921C579.091 252.659 578.418 251.986 578.418 251.156C578.418 250.325 577.744 249.652 576.914 249.652H562.18C561.35 249.652 560.677 250.325 560.677 251.156C560.677 251.986 560.004 252.659 559.173 252.659H558.998C558.07 252.659 557.318 251.907 557.318 250.98V249.645Z" fill="#E9E0B2"/>
<path d="M593.261 252.52C592.784 252.52 592.398 252.906 592.398 253.383C592.398 253.86 592.784 254.246 593.261 254.246H603.62C604.097 254.246 604.483 253.86 604.483 253.383C604.483 252.906 604.097 252.52 603.62 252.52H593.261ZM593.261 248.288C592.784 248.288 592.398 248.674 592.398 249.151C592.398 249.628 592.784 250.014 593.261 250.014H603.62C604.097 250.014 604.483 249.628 604.483 249.151C604.483 248.674 604.097 248.288 603.62 248.288H593.261ZM589.01 248.615C589.01 246.958 590.353 245.615 592.01 245.615H604.985C606.642 245.615 607.985 246.958 607.985 248.615V253.947C607.985 255.604 606.642 256.947 604.985 256.947H592.01C590.353 256.947 589.01 255.604 589.01 253.947V248.615ZM590.79 260.079C590.79 259.272 591.445 258.617 592.252 258.617H606.122C606.929 258.617 607.584 259.272 607.584 260.079C607.584 260.886 606.929 261.541 606.122 261.541H592.252C591.445 261.541 590.79 260.886 590.79 260.079ZM606.808 259.091C606.808 258.829 607.02 258.617 607.282 258.617H608.994C609.707 258.617 610.311 259.227 610.167 259.926C609.564 265.995 608.904 268.529 607.985 269.503C607.268 270.199 606.55 270.45 605.603 270.534C604.987 270.622 604.009 270.64 602.899 270.616C602.396 270.605 602 270.264 601.898 269.771C601.729 268.95 602.401 267.866 603.238 267.882C603.552 267.889 603.813 267.889 603.995 267.889C604.483 267.889 604.742 267.833 605.057 267.527C605.689 266.942 606.32 264.603 606.808 259.091ZM591.816 256.573C592.27 255.947 593.063 255.634 593.801 255.864C594.837 256.188 595.291 257.4 594.636 258.265C592.842 260.633 590.531 262.751 588.221 264.306C587.655 264.686 586.958 264.631 586.47 264.155C585.701 263.406 585.776 261.949 586.675 261.362C588.673 260.059 590.498 258.391 591.816 256.573ZM594.674 260.809C595.1 260.152 595.895 259.805 596.648 260.025C597.652 260.318 598.132 261.464 597.548 262.333C595.669 265.13 593.104 267.564 590.476 269.314C589.904 269.695 589.203 269.634 588.715 269.151C587.964 268.409 588.044 266.991 588.933 266.42C591.221 264.952 593.263 262.99 594.674 260.809ZM600.707 261.228C601.039 260.453 601.865 259.987 602.686 260.178C603.643 260.399 604.196 261.408 603.798 262.306C602.454 265.332 600.544 268.016 598.42 269.957C597.897 270.434 597.158 270.449 596.603 270.011C595.803 269.379 595.724 268.044 596.472 267.351C598.237 265.716 599.7 263.575 600.707 261.228Z" fill="#E9E0B2"/>
<path d="M630.405 246.04C630.405 245.144 631.131 244.418 632.027 244.418C632.923 244.418 633.649 245.144 633.649 246.04V262.452C633.649 263.348 632.923 264.074 632.027 264.074C631.131 264.074 630.405 263.348 630.405 262.452V246.04ZM622.566 257.113C622.205 256.288 622.593 255.328 623.425 254.986L635.376 250.063C636.157 249.741 637.051 250.099 637.394 250.871C637.749 251.669 637.379 252.603 636.574 252.942L624.658 257.949C623.849 258.289 622.918 257.916 622.566 257.113ZM624.75 248.755C624.75 247.851 625.483 247.119 626.386 247.119C627.29 247.119 628.023 247.851 628.023 248.755V265.16C628.023 266.803 628.281 267.025 630.061 267.025C630.922 267.025 634.74 267.025 635.63 267.025C636.711 267.025 637.187 266.738 637.453 265.636C637.674 264.718 638.758 264.142 639.652 264.448C640.265 264.657 640.692 265.244 640.585 265.884C640.071 268.952 638.929 270.005 635.917 270.005C634.97 270.005 630.664 270.005 629.774 270.005C625.841 270.005 624.75 269.002 624.75 265.132V248.755ZM636.118 249.896C636.118 249.869 636.096 249.847 636.07 249.847C636.023 249.847 636.004 249.787 636.043 249.76L636.958 249.126C637.061 249.054 637.193 249.036 637.312 249.078L639.056 249.682C639.326 249.775 639.479 250.06 639.408 250.337C639.396 250.381 639.39 250.428 639.39 250.474C639.39 255.751 639.333 259.096 639.218 260.232C639.103 261.513 638.615 262.181 637.725 262.543C637.158 262.809 636.404 262.893 635.69 262.92C635.146 262.941 634.689 262.53 634.579 261.997C634.543 261.823 634.503 261.647 634.46 261.473C634.31 260.875 634.784 260.176 635.4 260.176C635.745 260.176 635.917 260.093 636.003 259.592C636.118 259.036 636.118 256.016 636.118 249.896ZM613.669 252.45C613.669 251.582 614.374 250.877 615.242 250.877H621.569C622.438 250.877 623.143 251.582 623.143 252.45C623.143 253.319 622.438 254.023 621.569 254.023H615.242C614.374 254.023 613.669 253.319 613.669 252.45ZM616.999 246.415C616.999 245.527 617.719 244.808 618.607 244.808C619.495 244.808 620.214 245.527 620.214 246.415V261.659C620.214 262.547 619.495 263.267 618.607 263.267C617.719 263.267 616.999 262.547 616.999 261.659V246.415ZM613.968 264.992C613.587 264.07 614.058 263.016 614.992 262.664C616.807 261.98 619.019 261.094 621.236 260.186C622.109 259.829 623.097 260.32 623.337 261.232C623.524 261.946 623.184 262.695 622.519 263.017C620.411 264.038 618.235 265.04 616.271 265.917C615.38 266.314 614.339 265.894 613.968 264.992Z" fill="#E9E0B2"/>
<path opacity="0.25" d="M710.433 430.894H492.191C748.99 425.378 636.653 350.771 708.845 300.124C710.771 298.773 713.433 300.14 713.433 302.494V427.894C713.433 429.551 712.09 430.894 710.433 430.894Z" fill="#A59A68"/>
<rect x="74.4297" y="309.357" width="254.149" height="145.54" rx="7" fill="#AB8636"/>
<path d="M73.9355 288C73.9355 284.686 76.6218 282 79.9355 282H322.362C325.675 282 328.362 284.686 328.362 288V310.312H73.9355V288Z" fill="#CA2E33"/>
<rect x="87.3789" y="343.434" width="70.8186" height="110.462" rx="5" fill="#CA2E33" stroke="#AC1015" stroke-width="2"/>
<rect x="94.584" y="350.867" width="15.6351" height="19.4645" rx="2" fill="#F5EAB8"/>
<rect x="94.584" y="371.219" width="15.6351" height="23.0034" rx="2" fill="#F5EAB8"/>
<rect x="94.584" y="395.992" width="15.6351" height="23.0034" rx="2" fill="#F5EAB8"/>
<rect x="130.131" y="350.867" width="17.0565" height="19.4645" rx="2" fill="#F5EAB8"/>
<rect x="130.131" y="371.219" width="17.0565" height="23.0034" rx="2" fill="#F5EAB8"/>
<rect x="130.131" y="395.992" width="17.0565" height="23.0034" rx="2" fill="#F5EAB8"/>
<rect x="111.654" y="350.867" width="17.0565" height="19.4645" rx="2" fill="#F5EAB8"/>
<rect x="111.654" y="371.219" width="17.0565" height="23.0034" rx="2" fill="#F5EAB8"/>
<rect x="111.654" y="395.992" width="17.0565" height="23.0034" rx="2" fill="#F5EAB8"/>
<rect x="172.088" y="344.613" width="136.828" height="61.8208" rx="6.5" fill="#F5EAB8" stroke="#8D6818" stroke-width="3"/>
<rect x="94.584" y="426.518" width="52.5608" height="23.6485" rx="5" fill="#A2060B"/>
<rect x="97.8926" y="429.238" width="46.3006" height="18.0572" rx="5" fill="#AC1015"/>
<rect x="151.143" y="386.053" width="2.84275" height="24.7729" rx="1.42138" fill="#A2060B"/>
<path d="M59.6426 319.207H338.744V329.527C338.744 332.288 336.506 334.527 333.744 334.527H64.6426C61.8812 334.527 59.6426 332.288 59.6426 329.527V319.207Z" fill="#CA2E33"/>
<path d="M339.011 319.297H59L74.6351 310.449H328.578L339.011 319.297Z" fill="#A2060B"/>
<path d="M291.08 350.676H203.457C220.508 381.078 280.324 399.566 302.965 404.053C302.965 391.831 302.921 367.344 302.921 362.517C302.921 356.867 299.368 350.676 291.08 350.676Z" fill="#E1D6A4"/>
<path d="M144.242 350.869L134.387 350.869C134.114 361.38 138.493 365.584 146.98 366.635V353.497C146.98 351.363 145.127 350.698 144.242 350.869Z" fill="#EBE0AE"/>
<path d="M144.242 396.088L134.387 396.088C134.114 406.599 138.493 410.803 146.98 411.854V398.716C146.98 396.581 145.127 395.917 144.242 396.088Z" fill="#EBE0AE"/>
<path d="M144.242 393.959L134.387 393.959C134.114 383.448 138.493 379.244 146.98 378.193V391.331C146.98 393.465 145.127 394.13 144.242 393.959Z" fill="#EBE0AE"/>
<path d="M125.992 351.682L116.137 351.682C115.864 362.192 120.243 366.397 128.73 367.448V354.31C128.73 352.175 126.877 351.511 125.992 351.682Z" fill="#EBE0AE"/>
<path d="M125.992 396.461L116.137 396.461C115.864 406.972 120.243 411.176 128.73 412.227V399.089C128.73 396.955 126.877 396.29 125.992 396.461Z" fill="#EBE0AE"/>
<path d="M125.992 393.541L116.137 393.541C115.864 383.03 120.243 378.826 128.73 377.775V390.913C128.73 393.047 126.877 393.712 125.992 393.541Z" fill="#EBE0AE"/>
<path d="M107.574 350.869L97.7191 350.869C97.4458 361.38 101.825 365.584 110.312 366.635V353.497C110.312 351.363 108.459 350.698 107.574 350.869Z" fill="#EBE0AE"/>
<path d="M107.574 396.088L97.7191 396.088C97.4458 406.599 101.825 410.803 110.312 411.854V398.716C110.312 396.581 108.459 395.917 107.574 396.088Z" fill="#EBE0AE"/>
<path d="M107.574 393.959L97.7191 393.959C97.4458 383.448 101.825 379.244 110.312 378.193V391.331C110.312 393.465 108.459 394.13 107.574 393.959Z" fill="#EBE0AE"/>
<rect x="201.498" y="382.936" width="81.5147" height="22.4328" rx="3" fill="#CA2E33"/>
<rect x="204.629" y="389.242" width="75.0087" height="14.1891" rx="3" fill="#AC1015"/>
<path d="M315.754 284.365H207.641C267.862 285.48 305.127 297.496 320.457 305.411C322.602 306.518 325.355 304.997 325.355 302.583V292.248C325.355 287.558 319.516 285.126 316.334 284.425C316.144 284.383 315.949 284.365 315.754 284.365Z" fill="#B61A1F"/>
<path d="M87.2111 308.277L195.324 308.277C135.103 307.162 97.8378 295.146 82.5075 287.232C80.3627 286.124 77.6099 287.646 77.6099 290.06L77.6099 300.395C77.6099 305.084 83.4487 307.516 86.6305 308.217C86.8212 308.259 87.0158 308.277 87.2111 308.277Z" fill="#DE4247"/>
<path d="M214.201 440.067C224.458 443.077 228.248 451.205 229.023 455.808C229.108 456.318 229.528 456.712 230.044 456.712H275.388C275.88 456.712 276.292 456.348 276.539 455.923C278.194 453.08 285.888 448.814 291.723 446.774C292.522 446.495 292.568 445.65 291.731 445.531C289.067 445.153 284.563 445.39 280.632 446.676C279.911 446.912 279.324 446.376 279.764 445.759C281.377 443.495 285.445 440.19 289.077 438.087C289.96 437.576 289.758 436.073 288.742 435.99C281.654 435.406 276.369 437.386 271.773 440.126C271.146 440.499 270.39 440.112 270.539 439.398C271.188 436.288 274.317 431.573 278.163 428.413C278.956 427.761 278.543 426.412 277.533 426.596C272.59 427.493 267.387 430.354 263.167 434.262C262.603 434.784 261.679 434.541 261.54 433.786C260.44 427.833 262.123 421.25 263.42 415.814C263.635 414.912 262.651 414.303 261.988 414.951C257.174 419.656 253.569 427.086 252.125 432.769C251.872 433.765 250.224 434.023 249.699 433.141C243.971 423.519 236.536 421.455 231.981 421.752C231.134 421.807 230.924 422.852 231.574 423.399C234.649 425.986 238.781 430.698 240.078 436.481C240.291 437.431 239.101 437.919 238.395 437.249C235.815 434.804 233.161 433.745 231.217 433.386C230.391 433.234 229.987 434.179 230.491 434.85C231.471 436.156 232.577 437.962 233.289 439.993C233.603 440.89 232.514 441.495 231.729 440.959C225.862 436.957 217.856 437.26 214.013 438.645C213.238 438.924 213.41 439.835 214.201 440.067Z" fill="#2A2A2A"/>
<path d="M160.973 440.067C171.289 443.077 175.101 451.206 175.88 455.808C175.966 456.318 176.385 456.712 176.901 456.712H222.515C223.006 456.712 223.417 456.349 223.666 455.924C225.328 453.081 233.067 448.814 238.936 446.774C239.737 446.496 239.783 445.65 238.943 445.531C236.262 445.152 231.727 445.391 227.771 446.679C227.051 446.914 226.466 446.379 226.907 445.762C228.526 443.5 232.618 440.193 236.272 438.089C237.157 437.579 236.955 436.073 235.938 435.99C228.804 435.406 223.487 437.389 218.862 440.132C218.236 440.503 217.481 440.116 217.63 439.403C218.281 436.295 221.427 431.578 225.295 428.416C226.091 427.765 225.679 426.413 224.668 426.595C219.691 427.493 214.454 430.358 210.208 434.271C209.645 434.79 208.724 434.548 208.583 433.795C207.474 427.837 209.169 421.248 210.474 415.807C210.69 414.906 209.708 414.296 209.043 414.941C204.19 419.651 200.558 427.099 199.108 432.789C198.854 433.783 197.212 434.042 196.686 433.162C190.924 423.522 183.439 421.455 178.855 421.752C178.005 421.807 177.795 422.855 178.448 423.402C181.543 425.991 185.701 430.708 187.001 436.495C187.214 437.443 186.028 437.932 185.321 437.264C182.72 434.808 180.044 433.744 178.084 433.386C177.257 433.235 176.852 434.182 177.358 434.854C178.346 436.162 179.459 437.97 180.174 440.003C180.489 440.899 179.403 441.505 178.618 440.971C172.716 436.957 164.655 437.258 160.785 438.645C160.008 438.923 160.18 439.835 160.973 440.067Z" fill="#181818"/>
<path d="M268.358 440.067C278.496 443.078 282.243 451.204 283.01 455.807C283.095 456.317 283.514 456.712 284.032 456.712H328.836C329.329 456.712 329.742 456.347 329.988 455.92C331.627 453.077 339.231 448.813 344.998 446.774C345.793 446.493 345.84 445.651 345.006 445.532C342.377 445.153 337.936 445.389 334.054 446.669C333.332 446.907 332.742 446.372 333.18 445.751C334.779 443.486 338.8 440.184 342.389 438.083C343.266 437.57 343.064 436.074 342.051 435.99C335.054 435.407 329.834 437.38 325.295 440.113C324.668 440.491 323.907 440.103 324.056 439.386C324.704 436.275 327.798 431.563 331.599 428.407C332.386 427.753 331.973 426.411 330.966 426.596C326.087 427.493 320.954 430.346 316.786 434.243C316.222 434.77 315.292 434.527 315.154 433.768C314.075 427.825 315.732 421.256 317.013 415.829C317.226 414.924 316.239 414.319 315.579 414.973C310.842 419.667 307.292 427.059 305.86 432.728C305.607 433.727 303.949 433.984 303.426 433.098C297.767 423.513 290.432 421.456 285.936 421.752C285.092 421.808 284.882 422.846 285.526 423.394C288.562 425.976 292.644 430.679 293.934 436.453C294.147 437.406 292.95 437.892 292.244 437.219C289.705 434.798 287.098 433.745 285.184 433.387C284.362 433.234 283.957 434.172 284.456 434.843C285.423 436.146 286.515 437.946 287.22 439.972C287.533 440.871 286.438 441.476 285.652 440.937C279.854 436.958 271.96 437.263 268.168 438.646C267.398 438.927 267.572 439.834 268.358 440.067Z" fill="#181818"/>
<path d="M209.953 443.002C218.155 445.666 221.021 452.667 221.484 456.353C221.513 456.586 221.607 456.803 221.781 456.961C229.022 463.6 253.991 463.577 258.859 456.892C258.945 456.775 258.99 456.639 259.032 456.5C259.731 454.214 266.078 450.437 270.98 448.588C271.758 448.294 271.793 447.487 270.967 447.392C268.9 447.155 265.7 447.358 262.821 448.274C262.094 448.505 261.521 447.977 261.977 447.365C263.284 445.611 266.083 443.227 268.707 441.564C269.559 441.024 269.341 439.536 268.334 439.475C263.144 439.162 259.186 440.67 255.73 442.768C255.097 443.153 254.342 442.762 254.52 442.043C255.128 439.598 257.335 436.126 260.074 433.624C260.824 432.938 260.389 431.625 259.399 431.854C255.764 432.693 251.998 434.878 248.87 437.817C248.3 438.352 247.354 438.106 247.235 437.333C246.515 432.69 247.678 427.62 248.662 423.331L248.674 423.278C248.883 422.369 247.898 421.784 247.263 422.468C243.831 426.164 241.221 431.636 240.006 436.069C239.732 437.07 237.995 437.329 237.455 436.443C233.108 429.311 227.665 427.577 224.134 427.687C223.3 427.713 223.082 428.729 223.701 429.289C226.008 431.378 228.946 434.946 230.075 439.305C230.321 440.257 229.116 440.751 228.385 440.094C226.645 438.533 224.899 437.761 223.524 437.434C222.719 437.243 222.308 438.153 222.779 438.834C223.424 439.767 224.114 440.962 224.626 442.298C224.969 443.193 223.866 443.807 223.058 443.29C218.601 440.439 212.829 440.601 209.79 441.615C209.021 441.872 209.182 442.751 209.953 443.002Z" fill="#484848"/>
<path d="M156.721 443.001C164.95 445.655 167.847 452.613 168.33 456.31C168.363 456.569 168.487 456.811 168.688 456.978C180.733 466.976 198.526 464.12 205.876 456.94C206.026 456.793 206.112 456.602 206.184 456.405C207.031 454.111 213.316 450.412 218.184 448.588C218.965 448.295 219 447.486 218.171 447.392C216.087 447.154 212.857 447.359 209.954 448.278C209.227 448.509 208.657 447.98 209.114 447.37C210.428 445.616 213.248 443.231 215.892 441.566C216.746 441.028 216.528 439.536 215.52 439.475C210.286 439.161 206.296 440.674 202.813 442.777C202.181 443.158 201.427 442.767 201.606 442.051C202.215 439.607 204.438 436.133 207.196 433.628C207.95 432.944 207.516 431.626 206.524 431.853C202.857 432.693 199.057 434.884 195.904 437.829C195.334 438.361 194.393 438.115 194.272 437.345C193.543 432.698 194.716 427.624 195.708 423.331L195.722 423.269C195.932 422.361 194.949 421.773 194.312 422.454C190.842 426.158 188.204 431.652 186.982 436.096C186.708 437.094 184.978 437.354 184.437 436.471C180.057 429.315 174.565 427.577 171.004 427.687C170.167 427.713 169.95 428.732 170.572 429.292C172.898 431.385 175.859 434.958 176.992 439.323C177.239 440.273 176.038 440.768 175.306 440.113C173.546 438.538 171.778 437.761 170.387 437.434C169.58 437.243 169.169 438.157 169.643 438.838C170.294 439.774 170.99 440.973 171.505 442.311C171.849 443.205 170.75 443.819 169.943 443.304C165.452 440.439 159.625 440.599 156.559 441.615C155.787 441.871 155.948 442.752 156.721 443.001Z" fill="#484848"/>
<path d="M262.323 443.001C270.664 445.633 273.642 452.505 274.169 456.223C274.213 456.533 274.377 456.81 274.647 456.968C284.037 462.471 304.956 463.533 312.504 456.943C312.672 456.796 312.767 456.593 312.849 456.385C313.743 454.09 320.137 450.408 325.094 448.589C325.884 448.299 325.918 447.485 325.082 447.392C322.943 447.153 319.625 447.361 316.65 448.291C315.925 448.518 315.361 447.989 315.822 447.384C317.157 445.632 320.038 443.243 322.742 441.574C323.606 441.041 323.389 439.535 322.375 439.475C317.01 439.16 312.925 440.686 309.358 442.8C308.728 443.174 307.981 442.784 308.159 442.073C308.773 439.632 311.041 436.152 313.861 433.64C314.625 432.96 314.192 431.628 313.194 431.852C309.432 432.694 305.533 434.899 302.304 437.864C301.734 438.386 300.804 438.142 300.681 437.379C299.925 432.723 301.126 427.634 302.142 423.331L302.163 423.242C302.376 422.337 301.399 421.743 300.755 422.413C297.172 426.138 294.452 431.7 293.209 436.173C292.933 437.166 291.225 437.427 290.682 436.552C286.2 429.327 280.562 427.576 276.911 427.687C276.067 427.713 275.849 428.744 276.483 429.302C278.866 431.404 281.897 434.994 283.042 439.376C283.289 440.32 282.1 440.816 281.369 440.168C279.546 438.553 277.712 437.761 276.273 437.431C275.459 437.245 275.048 438.17 275.532 438.851C276.2 439.794 276.915 441.003 277.44 442.352C277.786 443.24 276.7 443.855 275.894 443.346C271.3 440.438 265.31 440.594 262.163 441.614C261.383 441.867 261.542 442.754 262.323 443.001Z" fill="#484848"/>
</g>
<defs>
<clipPath id="clip0_567_26606">
<rect width="828" height="557" fill="white"/>
</clipPath>
</defs>
</svg>
