<svg width="828" height="557" viewBox="0 0 828 557" fill="none" xmlns="http://www.w3.org/2000/svg">
<path fill-rule="evenodd" clip-rule="evenodd" d="M64.4293 201.056C101.391 116.673 170.831 41.3776 266.366 12.9389C349.883 -11.9224 427.583 48.0831 512.836 67.5752C600.405 87.5971 707.831 63.946 765.085 126.966C826.416 194.475 829.675 296.187 794.343 377.436C761.687 452.532 675.768 492.643 592.883 522.965C522.933 548.554 450.594 534.392 375.215 530.764C263.424 525.383 126.826 573.966 54.3183 497.043C-19.3779 418.86 22.6254 296.494 64.4293 201.056Z" fill="#2A2A2A"/>
<path d="M805.984 284.5C805.984 359.537 761.75 427.525 690.122 476.775C618.496 526.023 519.518 556.5 410.166 556.5C300.814 556.5 201.836 526.023 130.21 476.775C58.5816 427.525 14.3477 359.537 14.3477 284.5C14.3477 209.463 58.5816 141.475 130.21 92.2254C201.836 42.9769 300.814 12.5 410.166 12.5C519.518 12.5 618.496 42.9769 690.122 92.2254C761.75 141.475 805.984 209.463 805.984 284.5Z" stroke="#5E5E5E"/>
<path d="M395.757 12.8828C-16.7795 42.8666 73.2953 559.647 395.757 555.678" stroke="#5E5E5E"/>
<path d="M410.165 12.8828C822.701 42.8666 732.627 559.647 410.165 555.678" stroke="#5E5E5E"/>
<path d="M398.454 13.0488C293.49 76.4756 250.668 438.94 398.454 556.39" stroke="#5E5E5E"/>
<path d="M174.178 71.0859C284.666 86.0778 608.206 86.2542 672.578 81.6685" stroke="#5E5E5E"/>
<path d="M142.348 480.277C260.025 495.282 604.614 495.459 673.174 490.869" stroke="#5E5E5E"/>
<path d="M52.2812 173.383C212.823 188.388 682.93 188.564 776.462 183.975" stroke="#5E5E5E"/>
<path d="M40.2715 377.979C203.475 392.984 681.378 393.16 776.462 388.57" stroke="#5E5E5E"/>
<path d="M13.8477 275.68C189.565 290.685 704.109 290.861 806.484 286.272" stroke="#5E5E5E"/>
<path d="M409.992 13.0488C514.955 76.4756 557.778 438.94 409.992 556.39" stroke="#5E5E5E"/>
<path d="M445.203 34.3158C445.203 54.8103 427.749 76.9106 419.646 86.0665C417.46 88.5368 413.743 88.5368 411.557 86.0665C403.454 76.9106 386 54.8103 386 34.3158C386 25.2147 389.119 16.4863 394.67 10.0509C400.221 3.6154 407.751 0 415.602 0C423.452 0 430.982 3.6154 436.533 10.0509C442.084 16.4863 445.203 25.2147 445.203 34.3158Z" fill="#F5EAB8"/>
<path d="M416.294 79.6559C422.217 80.2482 431.366 59.2073 436.209 47.3662C432.082 51.8522 425.443 60.8197 415.758 66.2006C407.382 70.8547 410.912 79.1177 416.294 79.6559Z" fill="#D7CC9A"/>
<path d="M416.139 46.285C422.679 46.285 427.98 40.7428 427.98 33.9062C427.98 27.0695 422.679 21.5273 416.139 21.5273C409.6 21.5273 404.299 27.0695 404.299 33.9062C404.299 40.7428 409.6 46.285 416.139 46.285Z" fill="#343434"/>
<rect x="152.322" y="196.086" width="548.911" height="314.337" rx="12" fill="#AB8636"/>
<path d="M151.24 150C151.24 142.82 157.061 137 164.24 137H687.75C694.929 137 700.75 142.82 700.75 150V198.148H151.24V150Z" fill="#CA2E33"/>
<rect x="180.625" y="270.027" width="152.274" height="237.895" rx="3.5" fill="#CA2E33" stroke="#AC1015" stroke-width="5"/>
<rect x="195.863" y="285.744" width="33.7687" height="42.0393" rx="5" fill="#F5EAB8"/>
<rect x="195.863" y="329.695" width="33.7687" height="49.6829" rx="5" fill="#F5EAB8"/>
<rect x="195.863" y="383.199" width="33.7687" height="49.6829" rx="5" fill="#F5EAB8"/>
<rect x="272.615" y="285.744" width="36.8386" height="42.0393" rx="5" fill="#F5EAB8"/>
<rect x="272.615" y="329.695" width="36.8386" height="49.6829" rx="5" fill="#F5EAB8"/>
<rect x="272.615" y="383.199" width="36.8386" height="49.6829" rx="5" fill="#F5EAB8"/>
<rect x="232.711" y="285.744" width="36.8386" height="42.0393" rx="5" fill="#F5EAB8"/>
<rect x="232.711" y="329.695" width="36.8386" height="49.6829" rx="5" fill="#F5EAB8"/>
<rect x="232.711" y="383.199" width="36.8386" height="49.6829" rx="5" fill="#F5EAB8"/>
<rect x="363" y="272" width="296" height="134" rx="5" fill="#F5EAB8" stroke="#8D6818" stroke-width="6"/>
<rect x="195.863" y="449.131" width="113.521" height="51.076" rx="5" fill="#A2060B"/>
<rect x="203" y="455" width="100" height="39" rx="5" fill="#AC1015"/>
<rect x="318" y="361.734" width="6.13977" height="53.5046" rx="3.06989" fill="#A2060B"/>
<path d="M152 248H701V250C701 254.418 697.418 258 693 258H160C155.582 258 152 254.418 152 250V248Z" fill="#8D6818"/>
<path d="M120.387 217.355H723.191V242.444C723.191 246.862 719.609 250.444 715.191 250.444H128.387C123.968 250.444 120.387 246.862 120.387 242.444V217.355Z" fill="#CA2E33"/>
<path d="M723.767 217.554H119L152.769 198.445H701.236L723.767 217.554Z" fill="#A2060B"/>
<path d="M647 275.234L438 275.234C475.354 340.601 606.398 380.354 656 390.001V279.501C656 273.501 655 275.234 647 275.234Z" fill="#E1D6A4"/>
<path d="M303.118 285.743L281.833 285.743C281.242 308.443 290.701 317.524 309.03 319.794V291.418C309.03 286.808 305.028 285.373 303.118 285.743Z" fill="#EBE0AE"/>
<path d="M303.118 383.411L281.833 383.411C281.242 406.111 290.701 415.192 309.03 417.462V389.086C309.03 384.476 305.028 383.041 303.118 383.411Z" fill="#EBE0AE"/>
<path d="M303.118 378.816L281.833 378.816C281.242 356.115 290.701 347.035 309.03 344.765V373.141C309.03 377.75 305.028 379.185 303.118 378.816Z" fill="#EBE0AE"/>
<path d="M264.122 285.743L242.837 285.743C242.246 308.443 251.705 317.524 270.034 319.794V291.418C270.034 286.808 266.032 285.373 264.122 285.743Z" fill="#EBE0AE"/>
<path d="M264.122 383.411L242.837 383.411C242.246 406.111 251.705 415.192 270.034 417.462V389.086C270.034 384.476 266.032 383.041 264.122 383.411Z" fill="#EBE0AE"/>
<path d="M264.122 378.816L242.837 378.816C242.246 356.115 251.705 347.035 270.034 344.765V373.141C270.034 377.75 266.032 379.185 264.122 378.816Z" fill="#EBE0AE"/>
<path d="M223.917 285.743L202.631 285.743C202.041 308.443 211.5 317.524 229.829 319.794V291.418C229.829 286.808 225.827 285.373 223.917 285.743Z" fill="#EBE0AE"/>
<path d="M223.917 383.411L202.631 383.411C202.041 406.111 211.5 415.192 229.829 417.462V389.086C229.829 384.476 225.827 383.041 223.917 383.411Z" fill="#EBE0AE"/>
<path d="M223.917 378.816L202.631 378.816C202.041 356.115 211.5 347.035 229.829 344.765V373.141C229.829 377.75 225.827 379.185 223.917 378.816Z" fill="#EBE0AE"/>
<rect x="426.789" y="355" width="176.055" height="48.4504" rx="7" fill="#CA2E33"/>
<rect x="434" y="365" width="162" height="34" rx="7" fill="#AC1015"/>
<path d="M486.756 376.641C487.16 376.198 487.78 375.988 488.35 376.175C489.216 376.46 489.563 377.494 488.958 378.177C487.836 379.446 486.458 380.608 485.091 381.499C484.567 381.84 483.915 381.739 483.514 381.259C482.956 380.59 483.097 379.451 483.84 378.996C484.94 378.321 485.965 377.508 486.756 376.641ZM494.43 378.351C493.753 377.877 493.695 376.881 494.332 376.356C494.727 376.03 495.283 375.984 495.719 376.252C497.064 377.081 498.59 378.126 499.748 379.076C500.357 379.576 500.325 380.483 499.732 381C499.169 381.491 498.313 381.443 497.757 380.945C496.829 380.115 495.612 379.18 494.43 378.351ZM494.453 383.934C492.938 382.725 490.543 382.754 489.054 383.994C487.479 385.307 485.569 386.56 483.587 387.54C483.016 387.822 482.35 387.606 482.011 387.066C481.575 386.374 481.799 385.352 482.531 384.987C485.179 383.667 487.626 381.764 489.247 379.933C489.865 379.234 490.728 378.767 491.661 378.767C492.521 378.767 493.326 379.164 493.917 379.789C495.843 381.824 498.276 383.477 500.788 384.581C501.629 384.95 501.934 386.095 501.446 386.874C501.099 387.425 500.418 387.641 499.834 387.352C498.007 386.448 496.082 385.234 494.453 383.934ZM485.123 387.814C485.123 386.157 486.466 384.814 488.123 384.814H495.278C496.935 384.814 498.278 386.157 498.278 387.814V391.401C498.278 392.181 497.645 392.814 496.865 392.814C496.085 392.814 495.452 392.181 495.452 391.401V390.035C495.452 388.5 494.208 387.256 492.673 387.256H490.6C489.059 387.256 487.809 388.505 487.809 390.047V391.494C487.809 392.236 487.208 392.837 486.466 392.837C485.724 392.837 485.123 392.236 485.123 391.494V387.814ZM486.373 390.965C486.373 390.291 486.92 389.744 487.594 389.744H495.644C496.318 389.744 496.865 390.291 496.865 390.965C496.865 391.639 496.318 392.186 495.644 392.186H487.594C486.92 392.186 486.373 391.639 486.373 390.965ZM490.125 372.436C490.125 371.643 490.768 371 491.561 371C492.354 371 492.997 371.643 492.997 372.436V372.866C492.997 373.659 492.354 374.302 491.561 374.302C490.768 374.302 490.125 373.659 490.125 372.866V372.436ZM481.695 375.372C481.695 373.985 482.819 372.86 484.206 372.86H499.055C500.442 372.86 501.567 373.985 501.567 375.372V376.459C501.567 377.246 500.929 377.884 500.142 377.884H499.974C499.28 377.884 498.718 377.321 498.718 376.628C498.718 375.934 498.156 375.372 497.462 375.372H485.66C484.967 375.372 484.405 375.934 484.405 376.628C484.405 377.321 483.842 377.884 483.149 377.884H483.05C482.301 377.884 481.695 377.277 481.695 376.529V375.372Z" fill="#F5EAB8"/>
<path d="M510.718 377.767C510.32 377.767 509.997 378.09 509.997 378.488C509.997 378.887 510.32 379.209 510.718 379.209H519.027C519.425 379.209 519.748 378.887 519.748 378.488C519.748 378.09 519.425 377.767 519.027 377.767H510.718ZM510.718 374.233C510.32 374.233 509.997 374.555 509.997 374.953C509.997 375.352 510.32 375.674 510.718 375.674H519.027C519.425 375.674 519.748 375.352 519.748 374.953C519.748 374.555 519.425 374.233 519.027 374.233H510.718ZM507.264 375C507.264 373.343 508.607 372 510.264 372H519.574C521.23 372 522.574 373.343 522.574 375V378.465C522.574 380.122 521.23 381.465 519.574 381.465H510.264C508.607 381.465 507.264 380.122 507.264 378.465V375ZM508.7 384.081C508.7 383.407 509.247 382.86 509.921 382.86H521.028C521.703 382.86 522.249 383.407 522.249 384.081C522.249 384.756 521.703 385.302 521.028 385.302H509.921C509.247 385.302 508.7 384.756 508.7 384.081ZM521.624 383.256C521.624 383.037 521.801 382.86 522.019 382.86H523.35C523.946 382.86 524.45 383.369 524.334 383.953C523.847 389.023 523.315 391.14 522.574 391.953C521.995 392.535 521.416 392.744 520.651 392.814C520.16 392.887 519.384 392.903 518.501 392.884C518.077 392.874 517.744 392.584 517.66 392.168C517.523 391.482 518.089 390.588 518.789 390.6C519.022 390.605 519.216 390.605 519.354 390.605C519.748 390.605 519.956 390.558 520.211 390.302C520.721 389.814 521.23 387.86 521.624 383.256ZM509.522 381.163C509.891 380.637 510.551 380.374 511.162 380.572C511.99 380.839 512.355 381.806 511.844 382.509C510.402 384.496 508.536 386.275 506.668 387.584C506.193 387.916 505.591 387.864 505.181 387.453C504.564 386.833 504.63 385.658 505.356 385.17C506.974 384.081 508.453 382.685 509.522 381.163ZM511.831 384.697C512.175 384.147 512.835 383.858 513.457 384.045C514.259 384.288 514.644 385.201 514.19 385.905C512.681 388.252 510.611 390.295 508.487 391.767C508.007 392.1 507.402 392.043 506.993 391.626C506.391 391.012 506.461 389.869 507.178 389.394C509.032 388.167 510.688 386.524 511.831 384.697ZM516.705 385.032C516.969 384.392 517.649 384.008 518.322 384.169C519.086 384.353 519.529 385.157 519.221 385.88C518.143 388.417 516.602 390.67 514.887 392.302C514.453 392.715 513.817 392.724 513.352 392.346C512.712 391.826 512.654 390.756 513.251 390.188C514.693 388.815 515.886 387.011 516.705 385.032Z" fill="#F5EAB8"/>
<path d="M540.662 372.309C540.662 371.586 541.248 371 541.971 371C542.693 371 543.279 371.586 543.279 372.309V386.11C543.279 386.833 542.693 387.419 541.971 387.419C541.248 387.419 540.662 386.833 540.662 386.11V372.309ZM534.324 381.573C534.038 380.896 534.353 380.116 535.029 379.827L544.615 375.739C545.272 375.459 546.032 375.764 546.314 376.42C546.595 377.075 546.294 377.835 545.64 378.119L536.084 382.277C535.404 382.572 534.613 382.256 534.324 381.573ZM536.099 374.576C536.099 373.847 536.691 373.256 537.42 373.256C538.149 373.256 538.74 373.847 538.74 374.576V388.326C538.74 389.698 538.948 389.884 540.384 389.884C541.079 389.884 544.159 389.884 544.877 389.884C545.759 389.884 546.142 389.639 546.355 388.693C546.523 387.946 547.419 387.483 548.141 387.737C548.629 387.908 548.963 388.374 548.883 388.884C548.471 391.482 547.554 392.372 545.109 392.372C544.345 392.372 540.871 392.372 540.153 392.372C536.98 392.372 536.099 391.535 536.099 388.302V374.576ZM545.271 375.575C545.271 375.553 545.253 375.535 545.232 375.535C545.193 375.535 545.178 375.486 545.209 375.463L545.941 374.938C546.029 374.875 546.143 374.859 546.244 374.896L547.63 375.392C547.856 375.473 547.983 375.712 547.925 375.944C547.916 375.981 547.911 376.02 547.911 376.058C547.911 380.466 547.865 383.26 547.772 384.209C547.68 385.279 547.286 385.837 546.568 386.14C546.12 386.357 545.526 386.429 544.961 386.453C544.502 386.473 544.118 386.124 544.028 385.674C543.997 385.521 543.963 385.365 543.925 385.211C543.805 384.725 544.191 384.163 544.692 384.163C544.97 384.163 545.109 384.093 545.178 383.674C545.271 383.211 545.271 380.688 545.271 375.575ZM527.159 377.709C527.159 376.984 527.748 376.395 528.473 376.395H533.488C534.214 376.395 534.802 376.984 534.802 377.709C534.802 378.435 534.214 379.023 533.488 379.023H528.473C527.748 379.023 527.159 378.435 527.159 377.709ZM529.846 372.623C529.846 371.906 530.427 371.326 531.143 371.326C531.859 371.326 532.44 371.906 532.44 372.623V385.447C532.44 386.163 531.859 386.744 531.143 386.744C530.427 386.744 529.846 386.163 529.846 385.447V372.623ZM527.387 388.152C527.085 387.394 527.469 386.537 528.229 386.24C529.676 385.675 531.435 384.946 533.203 384.197C533.934 383.887 534.771 384.301 534.966 385.07C535.114 385.655 534.839 386.265 534.299 386.536C532.622 387.377 530.89 388.203 529.323 388.928C528.575 389.274 527.692 388.918 527.387 388.152Z" fill="#F5EAB8"/>
<path d="M673.894 142.107H440.051C578.439 144.67 660.698 173.885 689.486 190.726C691.57 191.945 694.29 190.474 694.29 188.06V159.133C694.29 148.835 681.258 143.579 674.47 142.165C674.279 142.125 674.089 142.107 673.894 142.107Z" fill="#B61A1F"/>
<path d="M179.602 193.75L413.445 193.75C275.058 191.187 192.798 161.972 164.01 145.131C161.926 143.913 159.206 145.383 159.206 147.797L159.206 176.725C159.206 187.022 172.238 192.279 179.026 193.693C179.217 193.732 179.407 193.75 179.602 193.75Z" fill="#DE4247"/>
<path d="M451.954 475.443C476.633 481.593 485.064 501.081 486.36 511.095C486.427 511.608 486.837 512 487.354 512H587.32C587.813 512 588.222 511.643 588.398 511.184C590.892 504.71 610.585 493.947 623.968 489.759C624.775 489.506 624.869 488.564 624.054 488.337C618.678 486.84 606.028 487.137 595.828 490.97C595.118 491.237 594.443 490.686 594.779 490.006C597.492 484.512 610.21 474.336 619.676 469.766C620.594 469.322 620.436 467.867 619.427 467.723C601.11 465.106 588.16 470.174 576.989 477.119C576.37 477.504 575.576 477.123 575.621 476.395C576.071 468.999 585.187 455.368 595.854 448.264C596.708 447.695 596.348 446.331 595.325 446.403C582.854 447.282 569.071 454.559 558.5 464.89C557.951 465.427 557.023 465.189 556.847 464.441C553.423 449.966 558.248 433.472 561.211 420.629C561.419 419.726 560.409 419.086 559.706 419.691C546.851 430.745 537.506 451.189 535.173 464.581C534.997 465.593 533.479 465.839 533.003 464.929C519.343 438.831 500.058 435.102 490.126 436.778C489.288 436.919 489.096 437.98 489.772 438.494C497.051 444.031 508.813 456.453 510.702 471.876C510.82 472.842 509.604 473.303 508.96 472.573C501.506 464.12 493.286 461.605 488.542 461.323C487.704 461.273 487.321 462.251 487.865 462.891C490.712 466.236 494.778 472.297 496.361 479.117C496.575 480.043 495.455 480.618 494.728 480.007C480.786 468.289 459.193 469.953 451.655 473.899C450.926 474.281 451.155 475.244 451.954 475.443Z" fill="#2A2A2A"/>
<path d="M336.964 475.443C361.784 481.593 370.264 501.082 371.567 511.095C371.634 511.608 372.044 512 372.561 512H473.106C473.597 512 474.007 511.643 474.184 511.185C476.691 504.711 496.497 493.948 509.956 489.759C510.766 489.507 510.859 488.563 510.042 488.336C504.633 486.839 491.905 487.137 481.647 490.974C480.937 491.239 480.263 490.688 480.599 490.009C483.325 484.517 496.116 474.339 505.638 469.767C506.558 469.325 506.4 467.867 505.389 467.723C486.963 465.105 473.937 470.177 462.7 477.125C462.081 477.508 461.29 477.127 461.334 476.401C461.782 469.006 470.951 455.372 481.679 448.266C482.536 447.699 482.178 446.331 481.152 446.403C468.607 447.281 454.739 454.563 444.107 464.9C443.558 465.434 442.633 465.196 442.456 464.45C439.008 449.971 443.864 433.469 446.844 420.622C447.054 419.72 446.046 419.079 445.341 419.681C432.4 430.738 422.994 451.206 420.653 464.602C420.477 465.612 418.963 465.858 418.486 464.95C404.748 438.833 385.346 435.102 375.354 436.778C374.514 436.919 374.322 437.983 375.001 438.496C382.324 444.036 394.155 456.463 396.048 471.889C396.167 472.854 394.953 473.316 394.309 472.588C386.807 464.122 378.532 461.605 373.759 461.322C372.919 461.273 372.536 462.254 373.083 462.893C375.947 466.241 380.037 472.305 381.626 479.127C381.842 480.052 380.725 480.628 379.997 480.019C365.978 468.289 344.251 469.952 336.667 473.898C335.934 474.279 336.163 475.245 336.964 475.443Z" fill="#181818"/>
<path d="M568.933 475.444C593.329 481.593 601.665 501.08 602.947 511.094C603.013 511.607 603.423 512 603.941 512H702.75C703.243 512 703.651 511.642 703.827 511.182C706.295 504.707 725.762 493.946 738.991 489.759C739.794 489.505 739.889 488.566 739.078 488.337C733.769 486.841 721.273 487.136 711.192 490.962C710.482 491.231 709.803 490.681 710.137 489.998C712.828 484.502 725.398 474.331 734.753 469.763C735.667 469.317 735.508 467.869 734.502 467.723C716.405 465.108 703.606 470.167 692.567 477.106C691.947 477.495 691.149 477.115 691.194 476.384C691.647 468.983 700.66 455.359 711.202 448.26C712.051 447.688 711.69 446.33 710.669 446.403C698.349 447.283 684.733 454.552 674.287 464.871C673.738 465.414 672.804 465.175 672.628 464.423C669.253 449.958 674.015 433.479 676.944 420.643C677.15 419.738 676.136 419.102 675.436 419.712C662.752 430.759 653.529 451.156 651.212 464.54C651.037 465.555 649.51 465.799 649.037 464.884C635.533 438.827 616.484 435.103 606.67 436.778C605.837 436.92 605.644 437.974 606.315 438.49C613.506 444.021 625.13 456.434 627.009 471.848C627.127 472.817 625.904 473.276 625.262 472.541C617.903 464.117 609.794 461.607 605.109 461.323C604.275 461.272 603.892 462.245 604.43 462.885C607.242 466.226 611.26 472.28 612.829 479.095C613.043 480.024 611.917 480.598 611.19 479.982C597.404 468.29 576.076 469.957 568.633 473.901C567.908 474.285 568.138 475.243 568.933 475.444Z" fill="#181818"/>
<path d="M442.872 481.75C462.572 487.028 469.11 503.508 469.969 511.645C469.993 511.879 470.088 512.086 470.257 512.249C485.559 526.94 540.575 526.917 550.789 512.179C550.872 512.059 550.918 511.93 550.95 511.788C552.133 506.535 568.1 497.309 579.053 493.654C579.842 493.391 579.93 492.482 579.125 492.275C574.742 491.152 565.186 491.439 557.334 494.42C556.62 494.691 555.95 494.145 556.305 493.469C558.674 488.96 568.136 481.05 575.451 477.221C576.344 476.754 576.175 475.312 575.177 475.174C561.079 473.225 551.004 477.28 542.306 482.867C541.683 483.267 540.881 482.888 540.949 482.151C541.509 476.071 548.397 465.341 556.532 459.458C557.356 458.863 556.982 457.525 555.97 457.622C546.326 458.543 535.773 464.387 527.58 472.633C527.028 473.188 526.078 472.947 525.913 472.182C523.383 460.444 527.012 447.158 529.352 436.68C529.556 435.769 528.534 435.15 527.848 435.784C518.075 444.819 510.926 460.909 508.89 471.866C508.701 472.886 507.125 473.125 506.649 472.203C495.965 451.519 481.164 448.298 473.262 449.525C472.437 449.653 472.245 450.687 472.895 451.212C478.603 455.825 487.501 465.755 489.205 478.072C489.339 479.046 488.106 479.508 487.457 478.77C481.833 472.378 475.741 470.309 472.019 469.976C471.195 469.902 470.806 470.853 471.322 471.501C473.497 474.226 476.447 478.89 477.746 484.154C477.976 485.085 476.84 485.661 476.105 485.046C465.179 475.913 448.75 477.116 442.601 480.235C441.879 480.601 442.09 481.54 442.872 481.75Z" fill="#484848"/>
<path d="M327.885 481.75C347.69 487.018 354.287 503.449 355.171 511.601C355.199 511.861 355.323 512.097 355.523 512.266C381.687 534.343 420.689 527.998 436.471 512.227C436.619 512.078 436.707 511.893 436.76 511.689C438.127 506.42 454.076 497.287 465.038 493.654C465.83 493.392 465.918 492.481 465.11 492.275C460.693 491.152 451.061 491.44 443.152 494.425C442.438 494.695 441.77 494.148 442.126 493.474C444.507 488.966 454.039 481.054 461.407 477.223C462.303 476.757 462.136 475.312 461.135 475.174C446.929 473.224 436.78 477.284 428.017 482.876C427.394 483.273 426.594 482.894 426.662 482.159C427.221 476.081 434.158 465.346 442.354 459.461C443.181 458.867 442.808 457.525 441.794 457.621C432.075 458.543 421.44 464.392 413.186 472.645C412.634 473.197 411.688 472.956 411.522 472.194C408.969 460.449 412.628 447.153 414.985 436.67C415.19 435.761 414.171 435.14 413.483 435.77C403.625 444.811 396.415 460.929 394.37 471.892C394.18 472.91 392.61 473.15 392.133 472.231C381.371 451.522 366.455 448.298 358.493 449.525C357.665 449.652 357.473 450.691 358.126 451.215C363.878 455.831 372.842 465.768 374.551 478.09C374.686 479.063 373.457 479.525 372.807 478.79C367.136 472.381 360.989 470.308 357.238 469.976C356.411 469.902 356.022 470.857 356.542 471.504C358.733 474.233 361.706 478.9 363.012 484.168C363.243 485.097 362.111 485.674 361.374 485.062C350.372 475.913 333.812 477.114 327.615 480.234C326.889 480.599 327.1 481.541 327.885 481.75Z" fill="#484848"/>
<path d="M555.922 481.749C576.078 486.997 582.84 503.329 583.781 511.512C583.817 511.823 583.98 512.094 584.248 512.256C604.403 524.47 650.627 526.872 666.8 512.231C666.966 512.081 667.063 511.884 667.122 511.668C668.557 506.396 684.815 497.283 695.996 493.654C696.796 493.395 696.882 492.477 696.066 492.274C691.546 491.15 681.687 491.441 673.605 494.44C672.892 494.704 672.23 494.156 672.59 493.487C675.009 488.984 684.747 481.065 692.278 477.228C693.183 476.767 693.016 475.309 692.009 475.174C677.48 473.221 667.107 477.296 658.148 482.9C657.527 483.289 656.735 482.911 656.801 482.181C657.358 476.11 664.443 465.363 672.818 459.469C673.654 458.881 673.284 457.526 672.265 457.621C662.323 458.541 651.442 464.406 643.004 472.681C642.453 473.222 641.518 472.982 641.35 472.228C638.725 460.465 642.475 447.14 644.885 436.643C645.093 435.738 644.081 435.111 643.389 435.731C633.274 444.784 625.882 460.988 623.81 471.968C623.619 472.981 622.065 473.224 621.583 472.313C610.589 451.53 595.326 448.296 587.184 449.525C586.348 449.651 586.156 450.701 586.82 451.224C592.704 455.85 601.866 465.804 603.592 478.143C603.727 479.11 602.508 479.575 601.855 478.849C596.045 472.388 589.735 470.306 585.892 469.975C585.06 469.903 584.671 470.869 585.201 471.515C587.444 474.252 590.483 478.931 591.81 484.208C592.042 485.133 590.921 485.712 590.184 485.108C578.951 475.912 562.001 477.108 555.656 480.23C554.921 480.592 555.129 481.542 555.922 481.749Z" fill="#484848"/>
</svg>
