<svg width="1034" height="1041" viewBox="0 0 1034 1041" fill="none" xmlns="http://www.w3.org/2000/svg">
<path d="M58.3722 691.114C58.3722 674.546 71.8036 661.114 88.3722 661.114H424.776C441.345 661.114 454.776 674.546 454.776 691.114V979.248C454.776 995.817 441.345 1009.25 424.776 1009.25H404.133C387.564 1009.25 374.133 995.817 374.133 979.248V763.69C374.133 747.121 360.701 733.69 344.133 733.69H166.744C150.176 733.69 136.744 747.121 136.744 763.69V1000.79C136.744 1017.36 123.313 1030.79 106.744 1030.79H88.3722C71.8036 1030.79 58.3722 1017.36 58.3722 1000.79V691.114ZM211.709 342.98C211.709 326.412 225.141 312.98 241.709 312.98H263.489C280.057 312.98 293.489 326.412 293.489 342.98V664C293.489 680.569 280.057 694 263.489 694H241.709C225.141 694 211.709 680.569 211.709 664V342.98ZM74.2738 316.899C74.2738 300.33 87.7053 286.899 104.274 286.899H407.739C424.308 286.899 437.739 300.33 437.739 316.899V328.34C437.739 344.908 424.308 358.34 407.739 358.34H104.274C87.7053 358.34 74.2738 344.908 74.2738 328.34V316.899ZM15.2107 500.605C15.2107 484.036 28.6422 470.605 45.2107 470.605H455.444C472.012 470.605 485.444 484.036 485.444 500.605V513.18C485.444 529.748 472.012 543.18 455.444 543.18H45.2107C28.6422 543.18 15.2107 529.748 15.2107 513.18V500.605ZM493.395 431.431C493.395 414.863 506.826 401.431 523.395 401.431H954.073C970.641 401.431 984.073 414.863 984.073 431.431V448.542C984.073 465.111 970.641 478.542 954.073 478.542H523.395C506.826 478.542 493.395 465.111 493.395 448.542V431.431ZM511.568 81.0294C511.568 64.4609 524.859 51.0294 541.427 51.0294C615.458 51.0294 811.249 51.0294 946.59 51.0294C946.59 64.5203 946.59 81.5025 946.59 95.8787C946.59 112.447 933.159 125.873 916.59 125.873H541.568C524.999 125.873 511.568 112.441 511.568 95.8725V81.0294ZM87.9037 932.654C87.9037 916.085 101.335 902.654 117.904 902.654H385.022C401.591 902.654 415.022 916.085 415.022 932.654V944.095C415.022 960.663 401.591 974.095 385.022 974.095H117.904C101.335 974.095 87.9037 960.663 87.9037 944.095V932.654ZM709.202 477.925C709.202 461.356 722.634 447.925 739.202 447.925H763.254C779.822 447.925 793.254 461.356 793.254 477.925V942.343C793.254 989.971 783.031 1013.78 748.956 1027.39C718.462 1038.56 671.593 1040.64 601.024 1040.95C586.177 1041.02 573.558 1030.1 569.506 1015.82C568.714 1013.03 567.864 1010.19 566.963 1007.33C560.11 985.595 575.756 960.955 598.548 961.188C640.81 961.621 675.266 961.621 687.621 961.621C703.523 960.487 709.202 955.951 709.202 941.209V477.925ZM909.273 63.08C904.49 58.9025 907.445 51.0294 913.795 51.0294H934.096C934.096 51.0294 941.711 51.0294 946.59 51.0294C957.607 51.9093 969.82 55.3495 980.644 59.2309C997.466 65.2637 1002.57 85.4969 991.891 99.8282C937.526 172.799 861.472 250.719 790.431 302.784C777.139 312.526 758.327 308.868 746.999 296.899C746.078 295.926 745.147 294.954 744.209 293.986C730.25 279.572 731.698 255.375 747.649 243.203C811.777 194.27 875.697 126.453 910.573 71.8166C912.379 68.9875 911.8 65.2882 909.273 63.08ZM853.452 401.431H971.579H977.912C980.494 401.431 983.065 401.765 985.562 402.423L1011.3 409.212C1027.97 413.607 1037.52 431.107 1032.19 447.498C1009.85 516.216 986.389 587.342 963.375 640.391C957.783 653.282 943.675 659.971 929.993 656.77L916.236 653.551C897.838 649.246 887.897 629.198 894.845 611.627C913.57 564.273 933.211 504.229 948.988 448.757C953.907 431.462 942.283 413.963 924.479 411.451L853.452 401.431ZM600.997 252.221C582.505 242.792 577.981 218 592.516 203.181L601.723 193.793C610.372 184.974 623.555 182.321 634.817 187.396C721.019 226.246 819.36 284.444 880.689 336.473C893.085 346.989 893.479 365.562 882.416 377.473L865.952 395.2C854.23 407.821 834.313 408.006 821.411 396.594C767.46 348.871 681.893 293.468 600.997 252.221ZM193.504 16.8701C198.505 6.65804 208.782 0 220.153 0H240.12C245.13 0 249.191 4.06163 249.191 9.07191C249.191 14.0822 253.253 18.1438 258.263 18.1438H262.254C269.467 18.1438 275.316 23.9919 275.316 31.2059V37.024C275.316 40.2587 274.502 43.4127 272.911 46.2289C228.684 124.499 159.996 230.107 61.7398 323.108C48.6917 335.458 27.6127 332.953 15.2799 319.888C14.0931 318.631 12.8907 317.379 11.677 316.137C-2.64793 301.478 -3.65979 275.646 11.3811 261.723C93.7089 185.513 155.74 93.986 193.504 16.8701ZM219.66 30C219.66 13.4315 233.091 0 249.66 0H272.543C279.477 0 286.197 2.38586 291.523 6.82589C358.022 62.2654 434.665 137.188 481.466 193.85C490.606 204.915 489.89 220.903 480.311 231.591L464.123 249.654C451.222 264.05 428.212 262.708 416.331 247.46C370.906 189.164 300.419 112.605 238.757 62.6714C236.681 60.9906 234.107 60.1013 231.436 60.1013C224.932 60.1013 219.66 54.829 219.66 48.3253V30Z" fill="#2E2E2E"/>
</svg>
