<svg width="500" height="471" viewBox="0 0 500 471" fill="none" xmlns="http://www.w3.org/2000/svg">
<path d="M47.1473 33.1102C33.4954 22.0687 41.3029 0 58.861 0H172.304C188.101 0 196.727 18.4287 186.607 30.5593C183.068 34.8017 177.829 37.2542 172.304 37.2542H58.861C54.5972 37.2542 50.4625 35.7915 47.1473 33.1102ZM52.2711 143.163C52.2711 132.875 60.6107 124.536 70.8982 124.536H163.505C173.793 124.536 182.132 132.875 182.132 143.163C182.132 153.45 173.793 161.79 163.505 161.79H70.8982C60.6107 161.79 52.2711 153.45 52.2711 143.163ZM268.707 201.173C268.707 190.885 277.046 182.546 287.334 182.546H462.746C479.594 182.546 487.786 203.133 475.544 214.708C472.085 217.978 467.506 219.8 462.746 219.8H287.334C277.046 219.8 268.707 211.46 268.707 201.173ZM51.1612 271.158C51.1612 260.723 59.6199 252.264 70.0544 252.264H162.129C172.564 252.264 181.022 260.723 181.022 271.158C181.022 281.592 172.564 290.051 162.129 290.051H70.0544C59.6199 290.051 51.1612 281.592 51.1612 271.158ZM35.0672 19.1462C35.0672 8.57204 43.6393 0 54.2135 0C64.7876 0 73.3597 8.57205 73.3597 19.1462V191.593C73.3597 268.181 68.6371 374.205 36.9745 452.015C32.9507 461.903 20.3507 464.942 10.9732 459.84C2.24283 455.089 -2.01163 444.085 1.83134 434.919C32.6828 361.334 35.0672 264.116 35.0672 191.593V19.1462ZM157.714 19.4237C157.714 8.69629 166.41 0 177.138 0C187.865 0 196.561 8.69629 196.561 19.4237V422.569C196.561 443.858 191.567 456.098 177.693 463.017C164.994 468.638 146.276 470.136 116.244 470.052C108.757 470.031 102.667 465.74 100.754 458.501C97.6946 446.921 106.073 432.444 118.05 432.52C132.078 432.61 142.956 432.486 147.17 432.149C154.939 431.617 157.714 429.488 157.714 422.037V19.4237ZM441.3 21.5753C441.3 10.5413 450.245 1.59661 461.279 1.59661C472.312 1.59661 481.257 10.5414 481.257 21.5753V104.844C481.257 124.536 476.818 135.18 459.059 141.034C443.55 146.311 419.472 146.831 383.98 146.883C376.978 146.893 371.002 141.997 368.663 135.398C364.949 124.917 372.133 113.037 383.251 113.132C405.681 113.324 423.605 113.222 430.201 112.827C439.08 112.827 441.3 110.698 441.3 104.312V21.5753ZM459.059 189.311C459.059 185.575 462.088 182.546 465.824 182.546H466.273H468.481C471.063 182.546 473.628 182.954 476.081 183.757C487.888 187.616 494.983 199.751 492.027 211.815C463.19 329.53 401.221 411.131 325.246 459.292C318.058 463.848 308.823 461.615 303.638 454.868C296.954 446.169 298.47 431.866 307.743 426.005C377.781 381.743 437.005 296.845 458.92 190.671C459.012 190.224 459.059 189.767 459.059 189.311ZM315.01 209.484C323.883 207.215 332.943 212.332 335.912 220.996C365.874 308.44 419.57 385.446 490.691 427.806C501.081 433.994 502.719 450.191 495.045 459.538C489.809 465.916 481.252 467.631 474.139 463.445C395.281 417.036 337.325 331.65 303.118 231.08C299.963 221.803 305.516 211.912 315.01 209.484ZM245.398 31.5966C245.398 15.0281 258.83 1.59661 275.398 1.59661H457.664C469.154 1.59661 477.904 11.8972 476.046 23.2359C474.571 32.2407 466.789 38.8508 457.664 38.8508H314.8C298.232 38.8508 284.8 52.2823 284.8 68.8508V450.234C284.8 461.115 275.98 469.936 265.099 469.936C254.219 469.936 245.398 461.115 245.398 450.234V31.5966Z" fill="#141414"/>
</svg>
