<svg width="503" height="510" viewBox="0 0 503 510" fill="none" xmlns="http://www.w3.org/2000/svg">
<path d="M28.3743 353.889C28.3743 337.32 41.8058 323.889 58.3743 323.889H192.471C209.039 323.889 222.471 337.32 222.471 353.889V474.701C222.471 485.605 213.631 494.444 202.727 494.444C191.823 494.444 182.984 485.605 182.984 474.701V389.444C182.984 372.876 169.553 359.444 152.984 359.444H96.7487C80.1801 359.444 66.7487 372.876 66.7487 389.444V485.813C66.7487 496.41 58.1583 505 47.5615 505C36.9647 505 28.3743 496.41 28.3743 485.813V353.889ZM103.455 173.355C103.455 162.297 112.418 153.333 123.476 153.333C134.533 153.333 143.497 162.297 143.497 173.355V319.979C143.497 331.036 134.533 340 123.476 340C112.418 340 103.455 331.036 103.455 319.979V173.355ZM36.1604 158.056C36.1604 148.391 43.9954 140.556 53.6604 140.556H196.628C206.293 140.556 214.128 148.391 214.128 158.056C214.128 167.721 206.293 175.556 196.628 175.556H53.6604C43.9955 175.556 36.1604 167.721 36.1604 158.056ZM7.24064 248.333C7.24064 238.515 15.2 230.556 25.0184 230.556H219.709C229.527 230.556 237.487 238.515 237.487 248.333C237.487 258.152 229.527 266.111 219.709 266.111H25.0184C15.2 266.111 7.24064 258.152 7.24064 248.333ZM241.38 215.556C241.38 205.124 249.837 196.667 260.269 196.667H462.747C473.18 196.667 481.636 205.124 481.636 215.556C481.636 225.988 473.18 234.444 462.747 234.444H260.269C249.837 234.444 241.38 225.988 241.38 215.556ZM250.278 43.3333C250.278 33.2081 258.429 25 268.555 25C307.246 25 399.133 25 463.283 25C463.283 27.0827 463.283 29.3353 463.283 31.6642C463.283 48.2328 449.852 61.6667 433.283 61.6667H268.611C258.486 61.6667 250.278 53.4585 250.278 43.3333ZM42.8342 459.722C42.8342 450.057 50.6692 442.222 60.3342 442.222H185.505C195.17 442.222 203.005 450.057 203.005 459.722C203.005 469.387 195.17 477.222 185.505 477.222H60.3342C50.6693 477.222 42.8342 469.387 42.8342 459.722ZM347.048 240.022C347.048 228.657 356.261 219.444 367.626 219.444C378.99 219.444 388.203 228.657 388.203 240.022V461.667C388.203 485 383.198 496.667 366.513 503.333C351.795 508.724 329.287 509.792 295.552 509.969C287.435 510.011 280.765 505.045 278.527 497.242C275.091 485.265 283.289 470.81 295.749 470.928C315.117 471.111 330.715 471.111 336.481 471.111C344.267 470.556 347.048 468.333 347.048 461.111V240.022ZM445.011 30.9039C442.669 28.8567 444.117 25 447.228 25H457.166C457.166 25 460.894 25 463.283 25C481.092 26.4232 486.21 48.482 475.008 62.3998C449.762 93.7676 417.74 125.541 387.503 147.836C380.629 152.905 370.925 151.077 365.027 144.899C357.852 137.383 358.534 124.796 366.771 118.461C397.868 94.5428 428.734 61.6958 445.648 35.1833C446.532 33.7975 446.249 31.9858 445.011 30.9039ZM417.679 196.667H475.519H477.194C479.405 196.667 481.606 196.952 483.743 197.516C497.999 201.278 506.184 216.255 501.604 230.269C492.113 259.306 482.277 288.406 472.586 311.21C469.266 319.023 460.741 323.068 452.475 321.133C441.365 318.532 435.351 306.413 439.46 295.769C446.319 278.003 453.356 257.047 459.604 236.392C464.809 219.184 453.184 201.678 435.383 199.166L417.679 196.667ZM297.927 125.554C287.027 119.891 284.354 105.213 292.952 96.4407C298.073 91.2166 305.877 89.6389 312.533 92.6726C352.28 110.787 396.937 137.073 426.651 161.22C435.28 168.232 435.569 180.935 428.004 189.084C419.983 197.726 406.319 197.866 397.314 190.254C371.706 168.609 334.108 144.351 297.927 125.554ZM94.5417 8.26231C96.9894 3.26096 102.022 0 107.59 0H117.363C119.818 0 121.807 1.98985 121.807 4.44445C121.807 6.89906 123.797 8.88891 126.252 8.88891H128.203C131.735 8.88891 134.599 11.7524 134.599 15.2846V18.1395C134.599 19.7236 134.201 21.2683 133.422 22.6477C111.892 60.771 78.523 112.133 30.8578 157.503C24.0419 163.99 13.0332 162.726 6.52554 155.929C-0.893387 148.181 -1.45358 134.589 6.38922 127.27C46.192 90.1243 76.2079 45.7225 94.5417 8.26231ZM107.348 14.7222C107.348 6.59137 113.939 0 122.07 0H130.289C135.593 0 140.738 1.82314 144.796 5.239C175.425 31.0198 209.996 64.7616 232.536 91.3796C238.838 98.8207 238.355 109.684 231.849 116.948C223.08 126.738 207.411 125.849 199.189 115.596C176.965 87.885 144.942 53.5872 116.698 30.7037C115.682 29.8802 114.421 29.4445 113.113 29.4445C109.929 29.4445 107.348 26.8632 107.348 23.6791V14.7222Z" fill="#141414"/>
</svg>
