<svg width="327" height="128" viewBox="0 0 327 128" fill="none" xmlns="http://www.w3.org/2000/svg">
<path d="M326.382 96.1852C322.708 85.2799 316.466 81.4095 308.211 75.0847C299.955 68.7599 287.904 63.5778 274.026 62.6211C260.148 61.6644 244.776 65.8632 240.245 73.2776C238.252 56.5753 234.029 39.4345 219.108 24.9379C204.186 10.4414 176.335 -0.959272 146.492 0.0638603C118.357 1.03384 94.2779 12.7268 80.8982 26.6254C67.5185 40.5108 62.9163 56.4557 58.5276 72.0419C47.876 64.7073 25.363 67.0192 14.2132 74.128C3.06283 81.2368 -3.92638 94.8441 2.38788 107.09C38.5231 135.813 262.686 130.684 303.109 117.007C316.707 112.406 330.057 107.09 326.382 96.1852Z" fill="#525252"/>
</svg>
