<svg width="482" height="184" viewBox="0 0 482 184" fill="none" xmlns="http://www.w3.org/2000/svg">
<path d="M8.85938 127.311V158.308C8.85938 160.159 10.3604 161.66 12.2121 161.66C14.0637 161.66 15.5648 160.159 15.5648 158.308V155.063C15.5648 152.301 17.8033 150.063 20.5648 150.063H460.943C463.705 150.063 465.943 147.824 465.943 145.063V127.311C465.943 124.549 463.705 122.311 460.943 122.311H13.8594C11.098 122.311 8.85938 124.549 8.85938 127.311Z" fill="#4F4F4F"/>
<path d="M87.7632 152.003C88.1841 154.122 86.4051 156.174 83.8182 156.174H83.723H83.6278H83.5325H83.4373H83.342H83.2468H83.1516H83.0563H82.9611H82.8658H82.7706H82.6754H82.5801H82.4849H82.3896H82.2944H82.1991H82.1039H82.0086H81.9134H81.8181H81.7229H81.6276H81.5324H81.4371H81.3419H81.2466H81.1514H81.0561H80.9608H80.8656H80.7703H80.6751H80.5798H80.4846H80.3893H80.294H80.1988H80.1035H80.0082H79.913H79.8177H79.7225H79.6272H79.5319H79.4367H79.3414H79.2461H79.1509H79.0556H78.9603H78.865H78.7698H78.6745H78.5792H78.484H78.3887H78.2934H78.1981H78.1029H78.0076H77.9123H77.817H77.7217H77.6265H77.5312H77.4359H77.3406H77.2453H77.15H77.0548H76.9595H76.8642H76.7689H76.6736H76.5783H76.483H76.3877H76.2925H76.1972H76.1019H76.0066H75.9113H75.816H75.7207H75.6254H75.5301H75.4348H75.3395H75.2442H75.1489H75.0536H74.9583H74.863H74.7677H74.6724H74.5771H74.4818H74.3865H74.2912H74.1959H74.1006H74.0052H73.9099H73.8146H73.7193H73.624H73.5287H73.4334H73.3381H73.2427H73.1474H73.0521H72.9568H72.8615H72.7661H72.6708H72.5755H72.4802H72.3848H72.2895H72.1942H72.0989H72.0035H71.9082H71.8129H71.7176H71.6222H71.5269H71.4316H71.3362H71.2409H71.1456H71.0502H70.9549H70.8595H70.7642H70.6689H70.5735H70.4782H70.3828H70.2875H70.1922H70.0968H70.0015H69.9061H69.8108H69.7154H69.6201H69.5247H69.4294H69.334H69.2387H69.1433H69.0479H68.9526H68.8572H68.7619H68.6665H68.5711H68.4758H68.3804H68.2851H68.1897H68.0943H67.999H67.9036H67.8082H67.7129H67.6175H67.5221H67.4267H67.3314H67.236H67.1406H67.0452H66.9499H66.8545H66.7591H66.6637H66.5683H66.473H66.3776H66.2822H66.1868H66.0914H65.996H65.9007H65.8053H65.7099H65.6145H65.5191H65.4237H65.3283H65.2329H65.1375H65.0421H64.9467H64.8513H64.7559H64.6605H64.5651H64.4697H64.3743H64.2789H64.1835H64.0881H63.9927H63.8973H63.8018H63.7064H63.611H63.5156H63.4202H63.3248H63.2294H63.1339H63.0385H62.9431H62.8477H62.7523H62.6568H62.5614H62.466H62.3705H62.2751H62.1797H62.0843H61.9888H61.8934H61.798H61.7025H61.6071H61.5116H61.4162H61.3208H61.2253H61.1299H61.0344H60.939H60.8435H60.7481H60.6527H60.5572H60.4618H60.3663H60.2708H60.1754H60.0799H59.9845H59.889H59.7936H59.6981H59.6026H59.5072H59.4117H59.3163H59.2208H59.1253H59.0299H58.9344H58.8389H58.7434H58.648H58.5525H58.457H58.3615H58.2661H58.1706H58.0751H57.9796H57.8841H57.7887H57.6932H57.5977H57.5022H57.4067H57.3112H57.2157H57.1202H57.0248H56.9293H56.8338H56.7383H56.6428H56.5473H56.4518H56.3563H56.2608H56.1653H56.0697H55.9742H55.8787H55.7832H55.6877H55.5922H55.4967H55.4012H55.3057H55.2101H55.1146H55.0191H54.9236H54.8281H54.7325H54.637H54.5415H54.446H54.3504H54.2549H54.1594H54.0638H53.9683H53.8728H53.7772H53.6817H53.5861H53.4906H53.3951H53.2995H53.204H53.1084H53.0129H52.9173H52.8218H52.7262H52.6307H52.5351H52.4396H52.344H52.2485H52.1529H52.0573H51.9618H51.8662H51.7706H51.6751H51.5795H51.4839H51.3884H51.2928H51.1972H51.1016H51.0061H50.9105H50.8149H50.7193H50.6238H50.5282H50.4326H50.337H50.2414H50.1458H50.0502H49.9546H49.859H49.7635H49.6679H49.5723H49.4767H49.3811H49.2855H49.1899H49.0943H48.9986H48.903H48.8074H48.7118H48.6162H48.5206H48.425H48.3294H48.2337H48.1381H48.0425H47.9469H47.8513H47.7556H47.66H47.5644H47.4688H47.3731H47.2775H47.1819H47.0862H46.9906H46.895H46.7993H46.7037H46.608H46.5124H46.4167H46.3211H46.2254H46.1298H46.0341H45.9385H45.8428H45.7472H45.6515H45.5559H45.4602H45.3645H45.2689H45.1732H45.0776H44.9819H44.8862H44.7905H44.6949H44.5992H44.5035H44.4078H44.3122H44.2165H44.1208H44.0251H43.9294H43.8337H43.7381H43.6424H43.5467H43.451H43.3553H43.2596H43.1639H43.0682H42.9725H42.8768H42.7811H42.6854H42.5897H42.494H42.3983H42.3026H42.2068H42.1111H42.0154H41.9197H41.824H41.7282H41.6325H41.5368H41.4411H41.3453H41.2496H41.1539H41.0582H40.9624H40.8667H40.7709H40.6752H40.5795H40.4837H40.388H40.2922H40.1965H40.1007H40.005H39.9092H39.8135H39.7177H39.622H39.5262H39.4304H39.3347H39.2389H39.1432H39.0474H38.9516H38.8558H38.7601H38.6643H38.5685H38.4727H38.377H38.2812H38.1854H38.0896H37.9938H37.898H37.8023H37.7065H37.6107H37.5149H37.4191H37.3233H37.2275H37.1317H37.0359H36.9401H36.8443H36.7485H36.6527H36.5568H36.461H36.3652H36.2694H36.1736H36.0778H35.9819H35.8861H35.7903H35.6945H35.5986H35.5028H35.407H35.3111H35.2153H35.1195H35.0236H34.9278C32.3408 156.174 30.5619 154.122 30.9827 152.003C33.618 138.732 45.329 128.729 59.373 128.729C73.417 128.729 85.1279 138.732 87.7632 152.003Z" fill="#6D6D6D" stroke="#6D6D6D" stroke-width="3"/>
<path d="M154.259 152.003C154.68 154.122 152.901 156.174 150.314 156.174H150.219H150.124H150.029H149.933H149.838H149.743H149.648H149.552H149.457H149.362H149.267H149.171H149.076H148.981H148.886H148.79H148.695H148.6H148.505H148.409H148.314H148.219H148.124H148.028H147.933H147.838H147.743H147.647H147.552H147.457H147.362H147.266H147.171H147.076H146.981H146.885H146.79H146.695H146.6H146.504H146.409H146.314H146.219H146.123H146.028H145.933H145.837H145.742H145.647H145.552H145.456H145.361H145.266H145.171H145.075H144.98H144.885H144.789H144.694H144.599H144.504H144.408H144.313H144.218H144.123H144.027H143.932H143.837H143.741H143.646H143.551H143.456H143.36H143.265H143.17H143.074H142.979H142.884H142.789H142.693H142.598H142.503H142.407H142.312H142.217H142.121H142.026H141.931H141.836H141.74H141.645H141.55H141.454H141.359H141.264H141.168H141.073H140.978H140.883H140.787H140.692H140.597H140.501H140.406H140.311H140.215H140.12H140.025H139.929H139.834H139.739H139.644H139.548H139.453H139.358H139.262H139.167H139.072H138.976H138.881H138.786H138.69H138.595H138.5H138.404H138.309H138.214H138.118H138.023H137.928H137.832H137.737H137.642H137.546H137.451H137.356H137.26H137.165H137.07H136.974H136.879H136.784H136.688H136.593H136.498H136.402H136.307H136.212H136.116H136.021H135.925H135.83H135.735H135.639H135.544H135.449H135.353H135.258H135.163H135.067H134.972H134.877H134.781H134.686H134.59H134.495H134.4H134.304H134.209H134.114H134.018H133.923H133.827H133.732H133.637H133.541H133.446H133.351H133.255H133.16H133.064H132.969H132.874H132.778H132.683H132.588H132.492H132.397H132.301H132.206H132.111H132.015H131.92H131.824H131.729H131.634H131.538H131.443H131.347H131.252H131.157H131.061H130.966H130.87H130.775H130.68H130.584H130.489H130.393H130.298H130.203H130.107H130.012H129.916H129.821H129.725H129.63H129.535H129.439H129.344H129.248H129.153H129.057H128.962H128.867H128.771H128.676H128.58H128.485H128.389H128.294H128.199H128.103H128.008H127.912H127.817H127.721H127.626H127.531H127.435H127.34H127.244H127.149H127.053H126.958H126.862H126.767H126.671H126.576H126.481H126.385H126.29H126.194H126.099H126.003H125.908H125.812H125.717H125.621H125.526H125.43H125.335H125.24H125.144H125.049H124.953H124.858H124.762H124.667H124.571H124.476H124.38H124.285H124.189H124.094H123.998H123.903H123.807H123.712H123.616H123.521H123.425H123.33H123.234H123.139H123.043H122.948H122.852H122.757H122.661H122.566H122.47H122.375H122.279H122.184H122.088H121.993H121.897H121.802H121.706H121.611H121.515H121.42H121.324H121.229H121.133H121.038H120.942H120.847H120.751H120.655H120.56H120.464H120.369H120.273H120.178H120.082H119.987H119.891H119.796H119.7H119.605H119.509H119.413H119.318H119.222H119.127H119.031H118.936H118.84H118.745H118.649H118.553H118.458H118.362H118.267H118.171H118.076H117.98H117.884H117.789H117.693H117.598H117.502H117.407H117.311H117.215H117.12H117.024H116.929H116.833H116.738H116.642H116.546H116.451H116.355H116.26H116.164H116.068H115.973H115.877H115.782H115.686H115.59H115.495H115.399H115.304H115.208H115.112H115.017H114.921H114.825H114.73H114.634H114.539H114.443H114.347H114.252H114.156H114.06H113.965H113.869H113.774H113.678H113.582H113.487H113.391H113.295H113.2H113.104H113.008H112.913H112.817H112.722H112.626H112.53H112.435H112.339H112.243H112.148H112.052H111.956H111.861H111.765H111.669H111.574H111.478H111.382H111.287H111.191H111.095H111H110.904H110.808H110.713H110.617H110.521H110.426H110.33H110.234H110.138H110.043H109.947H109.851H109.756H109.66H109.564H109.469H109.373H109.277H109.181H109.086H108.99H108.894H108.799H108.703H108.607H108.512H108.416H108.32H108.224H108.129H108.033H107.937H107.841H107.746H107.65H107.554H107.459H107.363H107.267H107.171H107.076H106.98H106.884H106.788H106.693H106.597H106.501H106.405H106.31H106.214H106.118H106.022H105.927H105.831H105.735H105.639H105.543H105.448H105.352H105.256H105.16H105.065H104.969H104.873H104.777H104.682H104.586H104.49H104.394H104.298H104.203H104.107H104.011H103.915H103.819H103.724H103.628H103.532H103.436H103.34H103.245H103.149H103.053H102.957H102.861H102.765H102.67H102.574H102.478H102.382H102.286H102.191H102.095H101.999H101.903H101.807H101.711H101.616H101.52H101.424C98.8369 156.174 97.058 154.122 97.4788 152.003C100.114 138.732 111.825 128.729 125.869 128.729C139.913 128.729 151.624 138.732 154.259 152.003Z" fill="#6D6D6D" stroke="#6D6D6D" stroke-width="3"/>
<path d="M2 141.594H9.2056C10.3102 141.594 11.2056 142.489 11.2056 143.594V154.969C11.2056 156.073 10.3102 156.969 9.2056 156.969H2C0.89543 156.969 0 156.073 0 154.969V143.594C0 142.489 0.89543 141.594 2 141.594Z" fill="#CA2E33"/>
<path d="M3.82226 144.201H7.37953C8.4841 144.201 9.37953 145.097 9.37953 146.201V152.625C9.37953 153.73 8.4841 154.625 7.37953 154.625H3.82227C2.7177 154.625 1.82227 153.73 1.82227 152.625V146.201C1.82227 145.097 2.71769 144.201 3.82226 144.201Z" fill="#E84C51"/>
<circle cx="59.3764" cy="157.673" r="24.1381" fill="#131313" stroke="#131313" stroke-width="3"/>
<circle cx="59.3766" cy="157.673" r="16.9274" fill="#C9C9C9" stroke="#C9C9C9" stroke-width="3"/>
<circle cx="59.3737" cy="157.673" r="11.3191" fill="#131313" stroke="#131313" stroke-width="3"/>
<circle cx="59.3732" cy="157.674" r="6.51191" fill="#EBEBEB" stroke="white" stroke-width="3"/>
<circle cx="125.871" cy="157.673" r="24.1381" fill="#131313" stroke="#131313" stroke-width="3"/>
<circle cx="125.867" cy="157.673" r="16.9274" fill="#C9C9C9" stroke="#C9C9C9" stroke-width="3"/>
<circle cx="125.868" cy="157.673" r="11.3191" fill="#131313" stroke="#131313" stroke-width="3"/>
<circle cx="125.869" cy="157.674" r="6.51191" fill="#EBEBEB" stroke="white" stroke-width="3"/>
<rect x="184.76" y="132.035" width="62.4929" height="24.8369" rx="5" fill="#6D6D6D"/>
<rect x="184.76" y="139.246" width="62.4929" height="8.8131" fill="#AB8636"/>
<path d="M185.561 140.104V140.047C185.561 140.047 185.56 140.067 185.561 140.104V145.628C185.561 147.681 189.317 147.211 197.691 147.211H235.234C235.234 147.211 208.734 147.03 197.691 145.628C186.131 144.159 185.581 140.599 185.561 140.104Z" fill="#8D6818"/>
<path d="M246.452 147.2L246.452 147.258C246.452 147.258 246.454 147.238 246.452 147.2L246.452 141.677C246.452 139.624 242.696 140.093 234.323 140.093L196.779 140.093C196.779 140.093 223.28 140.274 234.323 141.677C245.883 143.146 246.432 146.706 246.452 147.2Z" fill="#8D6818"/>
<path d="M222.418 133.637V155.269" stroke="#131313" stroke-width="4" stroke-linecap="square" stroke-linejoin="round"/>
<path d="M235.234 133.637V155.269" stroke="#131313" stroke-width="4" stroke-linecap="square" stroke-linejoin="round"/>
<path d="M434.355 152.003C434.776 154.122 432.997 156.174 430.41 156.174H430.315H430.22H430.124H430.029H429.934H429.839H429.743H429.648H429.553H429.458H429.362H429.267H429.172H429.077H428.981H428.886H428.791H428.696H428.6H428.505H428.41H428.315H428.219H428.124H428.029H427.934H427.838H427.743H427.648H427.553H427.457H427.362H427.267H427.172H427.076H426.981H426.886H426.791H426.695H426.6H426.505H426.41H426.314H426.219H426.124H426.028H425.933H425.838H425.743H425.647H425.552H425.457H425.362H425.266H425.171H425.076H424.98H424.885H424.79H424.695H424.599H424.504H424.409H424.314H424.218H424.123H424.028H423.932H423.837H423.742H423.647H423.551H423.456H423.361H423.265H423.17H423.075H422.98H422.884H422.789H422.694H422.598H422.503H422.408H422.312H422.217H422.122H422.027H421.931H421.836H421.741H421.645H421.55H421.455H421.359H421.264H421.169H421.074H420.978H420.883H420.788H420.692H420.597H420.502H420.406H420.311H420.216H420.12H420.025H419.93H419.835H419.739H419.644H419.549H419.453H419.358H419.263H419.167H419.072H418.977H418.881H418.786H418.691H418.595H418.5H418.405H418.309H418.214H418.119H418.023H417.928H417.833H417.737H417.642H417.547H417.451H417.356H417.261H417.165H417.07H416.975H416.879H416.784H416.689H416.593H416.498H416.403H416.307H416.212H416.117H416.021H415.926H415.83H415.735H415.64H415.544H415.449H415.354H415.258H415.163H415.068H414.972H414.877H414.781H414.686H414.591H414.495H414.4H414.305H414.209H414.114H414.019H413.923H413.828H413.732H413.637H413.542H413.446H413.351H413.256H413.16H413.065H412.969H412.874H412.779H412.683H412.588H412.492H412.397H412.302H412.206H412.111H412.015H411.92H411.825H411.729H411.634H411.539H411.443H411.348H411.252H411.157H411.062H410.966H410.871H410.775H410.68H410.584H410.489H410.394H410.298H410.203H410.107H410.012H409.917H409.821H409.726H409.63H409.535H409.439H409.344H409.249H409.153H409.058H408.962H408.867H408.771H408.676H408.581H408.485H408.39H408.294H408.199H408.103H408.008H407.913H407.817H407.722H407.626H407.531H407.435H407.34H407.244H407.149H407.054H406.958H406.863H406.767H406.672H406.576H406.481H406.385H406.29H406.194H406.099H406.004H405.908H405.813H405.717H405.622H405.526H405.431H405.335H405.24H405.144H405.049H404.953H404.858H404.762H404.667H404.571H404.476H404.38H404.285H404.189H404.094H403.999H403.903H403.808H403.712H403.617H403.521H403.426H403.33H403.235H403.139H403.044H402.948H402.853H402.757H402.662H402.566H402.471H402.375H402.28H402.184H402.088H401.993H401.897H401.802H401.706H401.611H401.515H401.42H401.324H401.229H401.133H401.038H400.942H400.847H400.751H400.656H400.56H400.465H400.369H400.273H400.178H400.082H399.987H399.891H399.796H399.7H399.605H399.509H399.414H399.318H399.222H399.127H399.031H398.936H398.84H398.745H398.649H398.554H398.458H398.362H398.267H398.171H398.076H397.98H397.885H397.789H397.693H397.598H397.502H397.407H397.311H397.216H397.12H397.024H396.929H396.833H396.738H396.642H396.546H396.451H396.355H396.26H396.164H396.068H395.973H395.877H395.782H395.686H395.59H395.495H395.399H395.304H395.208H395.112H395.017H394.921H394.826H394.73H394.634H394.539H394.443H394.347H394.252H394.156H394.061H393.965H393.869H393.774H393.678H393.582H393.487H393.391H393.295H393.2H393.104H393.009H392.913H392.817H392.722H392.626H392.53H392.435H392.339H392.243H392.148H392.052H391.956H391.861H391.765H391.669H391.574H391.478H391.382H391.287H391.191H391.095H391H390.904H390.808H390.713H390.617H390.521H390.426H390.33H390.234H390.138H390.043H389.947H389.851H389.756H389.66H389.564H389.469H389.373H389.277H389.181H389.086H388.99H388.894H388.799H388.703H388.607H388.511H388.416H388.32H388.224H388.129H388.033H387.937H387.841H387.746H387.65H387.554H387.458H387.363H387.267H387.171H387.076H386.98H386.884H386.788H386.693H386.597H386.501H386.405H386.31H386.214H386.118H386.022H385.926H385.831H385.735H385.639H385.543H385.448H385.352H385.256H385.16H385.065H384.969H384.873H384.777H384.681H384.586H384.49H384.394H384.298H384.202H384.107H384.011H383.915H383.819H383.723H383.628H383.532H383.436H383.34H383.244H383.149H383.053H382.957H382.861H382.765H382.67H382.574H382.478H382.382H382.286H382.19H382.095H381.999H381.903H381.807H381.711H381.615H381.52C378.933 156.174 377.154 154.122 377.575 152.003C380.21 138.732 391.921 128.729 405.965 128.729C420.009 128.729 431.72 138.732 434.355 152.003Z" fill="#6D6D6D" stroke="#6D6D6D" stroke-width="3"/>
<path d="M337.414 152.003C337.834 154.122 336.056 156.174 333.469 156.174H333.373H333.278H333.183H333.088H332.992H332.897H332.802H332.707H332.611H332.516H332.421H332.326H332.23H332.135H332.04H331.945H331.85H331.754H331.659H331.564H331.469H331.373H331.278H331.183H331.088H330.992H330.897H330.802H330.706H330.611H330.516H330.421H330.325H330.23H330.135H330.04H329.944H329.849H329.754H329.659H329.563H329.468H329.373H329.278H329.182H329.087H328.992H328.897H328.801H328.706H328.611H328.515H328.42H328.325H328.23H328.134H328.039H327.944H327.849H327.753H327.658H327.563H327.467H327.372H327.277H327.182H327.086H326.991H326.896H326.8H326.705H326.61H326.515H326.419H326.324H326.229H326.133H326.038H325.943H325.848H325.752H325.657H325.562H325.466H325.371H325.276H325.18H325.085H324.99H324.895H324.799H324.704H324.609H324.513H324.418H324.323H324.227H324.132H324.037H323.942H323.846H323.751H323.656H323.56H323.465H323.37H323.274H323.179H323.084H322.988H322.893H322.798H322.702H322.607H322.512H322.417H322.321H322.226H322.131H322.035H321.94H321.845H321.749H321.654H321.559H321.463H321.368H321.273H321.177H321.082H320.987H320.891H320.796H320.701H320.605H320.51H320.415H320.319H320.224H320.129H320.033H319.938H319.843H319.747H319.652H319.556H319.461H319.366H319.27H319.175H319.08H318.984H318.889H318.794H318.698H318.603H318.508H318.412H318.317H318.222H318.126H318.031H317.935H317.84H317.745H317.649H317.554H317.459H317.363H317.268H317.173H317.077H316.982H316.886H316.791H316.696H316.6H316.505H316.41H316.314H316.219H316.123H316.028H315.933H315.837H315.742H315.646H315.551H315.456H315.36H315.265H315.169H315.074H314.979H314.883H314.788H314.693H314.597H314.502H314.406H314.311H314.215H314.12H314.025H313.929H313.834H313.738H313.643H313.548H313.452H313.357H313.261H313.166H313.071H312.975H312.88H312.784H312.689H312.593H312.498H312.403H312.307H312.212H312.116H312.021H311.926H311.83H311.735H311.639H311.544H311.448H311.353H311.257H311.162H311.067H310.971H310.876H310.78H310.685H310.589H310.494H310.398H310.303H310.208H310.112H310.017H309.921H309.826H309.73H309.635H309.539H309.444H309.348H309.253H309.158H309.062H308.967H308.871H308.776H308.68H308.585H308.489H308.394H308.298H308.203H308.107H308.012H307.916H307.821H307.726H307.63H307.535H307.439H307.344H307.248H307.153H307.057H306.962H306.866H306.771H306.675H306.58H306.484H306.389H306.293H306.198H306.102H306.007H305.911H305.816H305.72H305.625H305.529H305.434H305.338H305.243H305.147H305.052H304.956H304.861H304.765H304.669H304.574H304.478H304.383H304.287H304.192H304.096H304.001H303.905H303.81H303.714H303.619H303.523H303.428H303.332H303.237H303.141H303.045H302.95H302.854H302.759H302.663H302.568H302.472H302.377H302.281H302.186H302.09H301.994H301.899H301.803H301.708H301.612H301.517H301.421H301.325H301.23H301.134H301.039H300.943H300.848H300.752H300.656H300.561H300.465H300.37H300.274H300.179H300.083H299.987H299.892H299.796H299.701H299.605H299.509H299.414H299.318H299.223H299.127H299.031H298.936H298.84H298.745H298.649H298.553H298.458H298.362H298.267H298.171H298.075H297.98H297.884H297.789H297.693H297.597H297.502H297.406H297.31H297.215H297.119H297.024H296.928H296.832H296.737H296.641H296.545H296.45H296.354H296.258H296.163H296.067H295.971H295.876H295.78H295.685H295.589H295.493H295.398H295.302H295.206H295.111H295.015H294.919H294.824H294.728H294.632H294.537H294.441H294.345H294.25H294.154H294.058H293.963H293.867H293.771H293.676H293.58H293.484H293.388H293.293H293.197H293.101H293.006H292.91H292.814H292.719H292.623H292.527H292.431H292.336H292.24H292.144H292.049H291.953H291.857H291.762H291.666H291.57H291.474H291.379H291.283H291.187H291.091H290.996H290.9H290.804H290.709H290.613H290.517H290.421H290.326H290.23H290.134H290.038H289.943H289.847H289.751H289.655H289.56H289.464H289.368H289.272H289.177H289.081H288.985H288.889H288.794H288.698H288.602H288.506H288.41H288.315H288.219H288.123H288.027H287.932H287.836H287.74H287.644H287.548H287.453H287.357H287.261H287.165H287.069H286.974H286.878H286.782H286.686H286.59H286.495H286.399H286.303H286.207H286.111H286.016H285.92H285.824H285.728H285.632H285.537H285.441H285.345H285.249H285.153H285.057H284.962H284.866H284.77H284.674H284.578C281.991 156.174 280.212 154.122 280.633 152.003C283.268 138.732 294.979 128.729 309.023 128.729C323.067 128.729 334.778 138.732 337.414 152.003Z" fill="#6D6D6D" stroke="#6D6D6D" stroke-width="3"/>
<circle cx="405.962" cy="157.673" r="24.1381" fill="#131313" stroke="#131313" stroke-width="3"/>
<circle cx="405.965" cy="157.673" r="16.9274" fill="#C9C9C9" stroke="#C9C9C9" stroke-width="3"/>
<circle cx="405.96" cy="157.673" r="11.3191" fill="#131313" stroke="#131313" stroke-width="3"/>
<circle cx="405.959" cy="157.672" r="6.51191" fill="#EBEBEB" stroke="white" stroke-width="3"/>
<circle cx="309.025" cy="157.675" r="24.1381" fill="#131313" stroke="#131313" stroke-width="3"/>
<circle cx="309.027" cy="157.675" r="16.9274" fill="#C9C9C9" stroke="#C9C9C9" stroke-width="3"/>
<circle cx="309.022" cy="157.675" r="11.3191" fill="#131313" stroke="#131313" stroke-width="3"/>
<circle cx="309.022" cy="157.674" r="6.51191" fill="#EBEBEB" stroke="white" stroke-width="3"/>
<path d="M358.171 124.854C354.549 124.749 352.626 110.741 360.857 112.996L372.124 116.317H420.558L447.313 132.996L448 171.084C443.609 171.189 441.688 168.851 441.688 166.487C441.688 157.556 439.356 124.854 407.386 124.854C393.712 124.898 361.793 124.959 358.171 124.854Z" fill="#6D6D6D"/>
<path d="M475.306 171.175H446.994C446.081 153.338 445.629 146.14 441.336 137.908H480.809C481.218 149.087 481.271 159.213 481.253 165.281C481.243 168.554 478.58 171.175 475.306 171.175Z" fill="#6D6D6D"/>
<path d="M479.345 95.7612C480.572 99.2016 481.133 122.384 481.272 137.515C481.308 141.381 478.175 144.483 474.309 144.419C469.788 144.345 464.711 144.254 463.066 144.274C461.87 144.288 459.064 144.286 455.087 144.282C448.427 144.274 442.703 139.958 438.925 134.472C433.344 126.367 426.549 122.469 423.509 121.864C417.877 120.743 410.981 120.5 408.165 120.5H372.128C363.844 120.5 357.135 113.811 357.135 105.527C357.134 75.3941 357.135 19.8819 357.135 17.8996C357.136 15.898 359.049 13.5156 361.06 13.5156C382.649 14.9478 447.288 9.56659 459.326 34.826C471.363 60.0854 476.074 80.918 479.345 95.7612Z" fill="#DF4043"/>
<path d="M400.948 75.366L399.467 74.8965C399.966 75.0505 400.46 75.2071 400.948 75.366L432.734 85.4401C438.551 87.2839 442.504 92.6834 442.504 98.7859V115.347C441.886 106.237 432.677 85.6914 400.948 75.366Z" fill="#EA4B4E"/>
<path d="M385.913 103.937C385.624 86.2756 384.982 61.2187 384.641 48.3787C384.609 47.1965 386.38 46.9671 386.724 48.0987C407.413 116.238 430.878 98.5664 442.146 129.018C442.564 130.146 440.528 131.062 439.757 130.138C429.964 118.397 414.698 117.417 400.059 117.65C392.328 117.773 386.04 111.669 385.913 103.937Z" fill="#D6373A"/>
<path d="M463.371 43.8712C436.334 40.1409 387.555 36.4453 387.555 36.4453L391.871 60.3497C392.654 64.6827 395.746 68.2393 399.928 69.6159L479.268 95.7299C479.268 95.7299 474.577 69.8006 463.371 43.8712Z" fill="#9D0001"/>
<path d="M464.374 45.265C461.787 45.265 439.445 44.0891 434.271 43.1484C434.977 48.7927 438.269 57.4942 439.681 63.8439C445.752 66.74 463.669 68.7826 471.429 65.7253C471.429 65.7253 470.018 60.7866 464.374 45.265Z" fill="#BB1E1F"/>
<path d="M443.208 83.8342L431.449 43.1487C403.04 41.0792 402.287 67.8422 427.216 78.4251L443.208 83.8342Z" fill="#BB1E1F"/>
<path d="M386.635 36.2109L389.222 36.4461C389.849 40.7577 392.043 55.3778 392.984 59.611C393.768 63.1386 396.747 66.6662 400.51 68.5477L479.058 94.417L479.764 97.2391C455.619 89.2431 405.746 72.9496 399.804 70.6642C393.689 68.3125 391.338 63.3738 390.632 59.8461L386.635 36.2109Z" fill="#AB8636"/>
<path d="M471.448 50.0968L363.684 33.1239C356.829 32.0442 352.031 25.7715 352.783 18.8731L353.914 8.50939C354.551 2.67089 358.39 0.387069 361.662 0.743876C375.539 2.25753 410.064 9.68082 432.641 15.0063C453.228 19.8625 459.721 26.6541 471.448 50.0968Z" fill="#CB2C2F"/>
<path d="M431.277 17.1252C449.624 21.9575 458.999 33.7366 461.394 39.0221C430.984 14.9962 360.302 20.1315 360.631 12.3033C360.895 6.04065 365.296 3.98663 367.463 3.74245C381.09 6.18991 412.93 12.2929 431.277 17.1252Z" fill="#DF4043"/>
<rect x="393.219" y="99.5898" width="15.5216" height="5.64423" rx="2.82211" fill="#990A0A"/>
<rect x="393.219" y="98.6504" width="15.5216" height="4.23317" rx="2.11659" fill="#B71E1E"/>
<rect x="452.426" y="147.889" width="23.2866" height="7.76219" rx="2" fill="#595959"/>
<rect x="454.643" y="148.998" width="19.7548" height="4.70352" rx="2" fill="#4F4F4F"/>
<rect x="452.014" y="157.443" width="23.5176" height="9.8774" rx="2" fill="#595959"/>
<path d="M432.104 41.3965L443.352 78.6972C444.663 83.0436 445.399 87.543 445.541 92.0805L447.075 140.982" stroke="#CB2C2F" stroke-width="2"/>
<path d="M434.13 43.0987L431.357 42.9121L443.001 83.0186L446.327 84.1276L434.13 43.0987Z" fill="#930000"/>
<path d="M446.883 86.3459L443.113 85.0786L442.447 82.4648L446.328 83.5737L446.883 86.3459Z" fill="#AB8636"/>
<path d="M468.03 109.941L481.01 114.818L481.258 133.474L465.871 121.065C464.757 120.166 464.208 118.741 464.431 117.327L465.351 111.501C465.549 110.25 466.844 109.495 468.03 109.941Z" fill="#E1D6A4"/>
<path d="M472.227 112.782L479.954 115.469L480.148 129.037L467.878 120.203C466.912 119.507 466.448 118.305 466.698 117.14L467.002 115.722C467.506 113.371 469.956 111.992 472.227 112.782Z" fill="#FFFFD6"/>
<path d="M471.899 114.844L480.008 117.752L480.149 127.928L471.7 121.088C469.906 119.635 469.553 117.037 470.894 115.158C471.121 114.84 471.532 114.712 471.899 114.844Z" fill="#F5EAB8"/>
<path d="M470.104 98.9977L470.116 99.2639C470.179 100.617 468.906 101.639 467.598 101.287L463.189 100.099C461.67 99.69 461.196 97.7674 462.352 96.6993L462.651 96.4228C463.167 95.9459 463.896 95.7748 464.57 95.972L468.668 97.1701C469.488 97.4099 470.065 98.1442 470.104 98.9977Z" fill="#4F4F4F"/>
<path d="M465.241 96.9839L467.45 97.6195C467.934 97.7587 468.275 98.1907 468.298 98.6933C468.335 99.4853 467.592 100.085 466.825 99.8818L464.603 99.2929C463.686 99.0499 463.402 97.8885 464.103 97.2497C464.411 96.9695 464.841 96.8689 465.241 96.9839Z" fill="#2A2A2A"/>
<rect x="451.541" y="56.7871" width="11.2056" height="27.1019" rx="5.6028" fill="#4F4F4F"/>
<path d="M456.717 57.7266C459.574 57.7266 461.891 60.043 461.891 62.9004V77.9517C461.891 80.8092 459.574 83.1256 456.717 83.1256V57.7266Z" fill="#2A2A2A"/>
<rect x="460.477" y="72.3086" width="7.99599" height="6.11458" rx="2" fill="#4F4F4F"/>
<rect x="467.535" y="72.7793" width="25.8694" height="2.82211" transform="rotate(90 467.535 72.7793)" fill="#4F4F4F"/>
<rect x="467.061" y="74.6602" width="23.988" height="0.940703" transform="rotate(90 467.061 74.6602)" fill="#2A2A2A"/>
<path d="M382.566 34.7812L382.566 120.165" stroke="#CB2C2F" stroke-width="2"/>
<path d="M384.103 28.4426C382.77 24.6274 386.279 20.8889 390.171 21.9784L467.172 43.5353L469.044 48.3256L386.982 36.6821L384.103 28.4426Z" fill="#BB1C1F"/>
<rect x="453.895" y="159.324" width="19.7548" height="6.58493" rx="2" fill="#4F4F4F"/>
<path d="M385.166 31.1424C384.99 30.5162 385.527 29.9201 386.168 30.0305L470.251 44.5062C472.056 44.8168 473.265 46.5331 472.951 48.3369C472.638 50.1385 470.923 51.3447 469.122 51.0311L386.729 36.6877L385.166 31.1424Z" fill="#AB8636"/>
<rect x="14.418" y="2.625" width="331.556" height="120.868" rx="10" fill="#AB8636"/>
<rect x="20.2207" y="9.47461" width="319.75" height="107.105" rx="10" fill="#AB8636"/>
<path d="M26.3462 95.3708L26.3462 96.0078C26.3462 96.0078 26.3394 95.7871 26.3462 95.3708L26.3462 33.9999C26.3462 11.0816 26.3462 16.4031 80.7333 16.4031L249.074 16.4031C249.074 16.4031 130.25 18.4121 80.7333 34C28.9007 50.3168 26.4362 89.8775 26.3462 95.3708Z" fill="#BF9A4A"/>
<path d="M335.72 33.3265V32.6895C335.72 32.6895 335.727 32.9101 335.72 33.3265V94.6973C335.72 117.616 335.72 112.294 281.333 112.294H112.992C112.992 112.294 231.816 110.285 281.333 94.6973C333.166 78.3805 335.63 38.8198 335.72 33.3265Z" fill="#977222"/>
<path d="M89.2634 43.8964L94.7063 45.6316C89.7169 52.2705 82.006 58.5322 75.1267 62.5307C74.2951 61.399 72.254 59.1358 71.0444 58.0796C77.8482 54.6846 84.9543 49.4037 89.2634 43.8964ZM108.541 47.065L112.396 43.8209C119.351 47.8194 128.045 54.0811 132.354 58.3813L128.12 62.2289C124.038 57.8532 115.571 51.4406 108.541 47.065ZM102.115 57.476C95.9159 65.6238 83.518 75.2804 70.8933 81.3913C70.2129 80.0333 68.7765 77.9209 67.6426 76.7138C80.4185 70.9048 92.9676 60.8709 98.9398 52.2705H104.61C112.698 61.9271 125.626 70.9048 137.268 75.6576C135.982 77.0156 134.622 79.128 133.714 80.7123C122.45 75.4313 109.145 66.001 102.115 57.476ZM81.1745 72.2627H123.055V97.3096H117.31V77.3174H86.6931V97.6114H81.1745V72.2627ZM83.8204 89.9917H120.334V95.0464H83.8204V89.9917ZM98.9398 28.1289H104.761V38.0119H98.9398V28.1289ZM70.4397 35.1451H133.563V48.8756H127.818V40.2751H76.0339V48.8756H70.4397V35.1451Z" fill="#F5EAB8"/>
<path d="M159.417 48.3475V55.8163H196.762V48.3475H159.417ZM159.417 36.3521V43.8209H196.762V36.3521H159.417ZM153.823 31.6747H202.508V60.5692H153.823V31.6747ZM158.057 67.0572H203.415V72.1119H158.057V67.0572ZM201.979 67.0572H207.724C207.724 67.0572 207.573 68.7924 207.422 69.5468C205.985 86.5214 204.549 93.0849 202.205 95.499C200.769 96.9324 199.257 97.4605 197.065 97.536C195.099 97.7623 191.471 97.6868 187.691 97.4605C187.54 96.0271 187.01 93.9147 186.103 92.5568C189.808 92.934 193.361 92.934 194.721 92.934C196.006 92.934 196.762 92.8585 197.443 92.1041C199.257 90.4444 200.693 84.0318 201.979 67.9625V67.0572ZM163.802 58.2304L169.245 59.9656C163.802 68.7924 155.26 76.8647 147.171 82.0703C146.264 81.0141 144.071 78.9017 142.711 77.9964C151.026 73.3944 159.039 66.0765 163.802 58.2304ZM172.042 68.5661L177.41 70.2258C171.815 80.8632 162.668 90.0672 153.521 96.0271C152.614 94.9709 150.421 92.934 149.136 91.9532C158.51 86.7477 167.053 78.1473 172.042 68.5661ZM187.691 68.9433L193.058 70.2258C189.127 81.693 182.399 91.576 174.688 97.9886C173.705 97.0079 171.437 95.2727 170.152 94.4428C177.939 88.6337 184.213 79.3543 187.691 68.9433Z" fill="#F5EAB8"/>
<path d="M263.439 28.1289H268.807V80.7123H263.439V28.1289ZM239.626 59.2866L280.373 42.1612L282.49 46.9895L241.818 64.2658L239.626 59.2866ZM247.79 35.2205H253.233V85.6915C253.233 89.8408 254.141 90.7461 259.206 90.7461C261.7 90.7461 274.401 90.7461 277.425 90.7461C281.885 90.7461 282.641 88.7092 283.17 80.0333C284.531 80.9386 286.723 81.8439 288.311 82.1457C287.403 92.5568 285.589 95.8762 277.651 95.8762C275.61 95.8762 260.944 95.8762 259.054 95.8762C250.361 95.8762 247.79 93.8393 247.79 85.6161V35.2205ZM279.39 42.9156H278.71L280.07 41.784L281.053 40.9541L285.06 42.463L284.833 43.5192C284.833 57.7023 284.606 69.0187 284.077 71.961C283.624 74.9787 282.187 76.4121 279.995 76.9402C277.954 77.4683 274.93 77.4683 272.889 77.4683C272.662 75.9594 272.208 73.847 271.528 72.5645C273.267 72.6399 275.761 72.64 276.593 72.64C277.727 72.64 278.483 72.3382 278.861 70.603C279.314 68.6415 279.39 57.9287 279.39 42.9156ZM218.534 46.3105H242.574V51.667H218.534V46.3105ZM228.286 29.0342H233.654V77.9964H228.286V29.0342ZM217.854 79.9579C223.977 77.6946 233.276 73.7716 242.272 69.924L243.481 74.9787C235.393 78.8262 226.85 82.6738 220.122 85.5406L217.854 79.9579Z" fill="#F5EAB8"/>
</svg>
