<svg width="280" height="76" viewBox="0 0 280 76" fill="none" xmlns="http://www.w3.org/2000/svg">
<g clip-path="url(#clip0_52_33)">
<path d="M256.052 7.33246H263.249L253.169 47.331H260.048L270.128 7.33246H277.317L279.001 0.668848H257.736L256.052 7.33246ZM243.104 7.33246C245.543 7.33246 246.234 8.79727 245.4 12.1333L244.24 16.7309C243.303 20.4649 241.436 21.6673 238.87 21.6673H236.177L239.792 7.33246H243.104ZM244.216 47.331C243.962 45.5953 244.319 43.9273 244.891 41.6666L246.703 34.4695C247.926 29.6009 247.695 26.0702 244.637 24.5376C248.085 23.0051 250.317 19.8722 251.524 15.0714L252.446 11.4051C254.257 4.2081 252.088 0.668848 244.955 0.668848H234.573L222.808 47.3395H229.688L234.477 28.3393H236.853C239.982 28.3393 240.951 29.9396 239.863 34.2748L238.012 41.6073C237.051 45.409 237.123 46.1372 237.194 47.3395H244.2L244.216 47.331ZM200.32 36.1291C198.438 43.5971 201.051 47.8645 207.811 47.8645C214.571 47.8645 219.329 43.5971 221.212 36.1291L227.328 11.8624C229.211 4.39437 226.597 0.126953 219.837 0.126953C213.078 0.126953 208.319 4.39437 206.437 11.8624L200.32 36.1291ZM213.435 11.3967C214.277 8.06063 215.969 6.79903 218.161 6.79903C220.354 6.79903 221.41 8.0691 220.568 11.3967L214.213 36.5948C213.371 39.9308 211.679 41.1924 209.487 41.1924C207.295 41.1924 206.238 39.9223 207.08 36.5948L213.435 11.3967ZM193.505 7.33246H204.824L206.508 0.668848H188.31L176.545 47.3395H183.424L188.278 28.0684H197.159L198.843 21.4048H189.962L193.505 7.34092V7.33246ZM164.654 47.331H171.533L183.305 0.668848H176.426L164.662 47.3395L164.654 47.331ZM158.601 7.33246H170.484L172.168 0.668848H153.406L141.641 47.3395H160.404L162.088 40.6759H150.204L153.652 27.01H163.097L164.781 20.3464H155.336L158.617 7.34939L158.601 7.33246ZM129.075 0.668848H119.503L107.738 47.3395H113.744L122.06 14.3348L118.867 47.3395H125.373L138.567 13.8691L130.131 47.3395H136.637L148.401 0.668848H138.829L125.786 33.8006L129.075 0.668848Z" fill="white"/>
<mask id="mask0_52_33" style="mask-type:luminance" maskUnits="userSpaceOnUse" x="1" y="0" width="108" height="49">
<path d="M63.2217 48L70.6807 18.3228H104.25L101.47 29.3808H77.3295L80.9835 31.6331L76.8687 48H63.2217ZM1 48L13.0662 0H108.865L106.085 11.058H67.5986V2.37926L65.4142 11.0496L56.1282 48H42.4812L51.7751 11.058H40.4635L44.1175 13.3103L35.3955 48.0085H21.7406L31.0266 11.058H19.715L23.369 13.3103L14.647 48.0085H1V48Z" fill="white"/>
</mask>
<g mask="url(#mask0_52_33)">
<path d="M108.865 0H1V48H108.865V0Z" fill="url(#paint0_linear_52_33)"/>
</g>
</g>
<path d="M2.222 73.95H0.883L1.403 70.687H2.261C2.87633 69.933 3.35733 69.0967 3.704 68.178C4.068 67.2593 4.393 65.9203 4.679 64.161L4.887 62.9H10.906L9.671 70.687H10.984L10.464 73.95H9.112L9.424 72H2.534L2.222 73.95ZM3.925 70.687H8.241L9.268 64.213H6.096C5.85333 65.7297 5.56733 67.0037 5.238 68.035C4.91733 69.049 4.47967 69.933 3.925 70.687ZM17.5776 62.731C18.9036 62.731 19.9696 63.1383 20.7756 63.953C21.5816 64.7763 21.9846 65.8207 21.9846 67.086C21.9846 68.5073 21.5123 69.7077 20.5676 70.687C19.6143 71.675 18.44 72.169 17.0446 72.169C15.7273 72.169 14.6656 71.7617 13.8596 70.947C13.0623 70.1237 12.6636 69.0793 12.6636 67.814C12.6636 66.4013 13.1316 65.201 14.0676 64.213C15.021 63.225 16.191 62.731 17.5776 62.731ZM17.0836 70.83C18.0456 70.83 18.8603 70.4703 19.5276 69.751C20.1863 69.0403 20.5156 68.152 20.5156 67.086C20.5156 66.228 20.2426 65.513 19.6966 64.941C19.1506 64.3603 18.4313 64.07 17.5386 64.07C16.568 64.07 15.7576 64.4297 15.1076 65.149C14.4576 65.8683 14.1326 66.7523 14.1326 67.801C14.1326 68.659 14.4013 69.3827 14.9386 69.972C15.4846 70.544 16.1996 70.83 17.0836 70.83ZM25.0379 67.788C25.0379 68.6633 25.3196 69.3913 25.8829 69.972C26.4549 70.544 27.2089 70.83 28.1449 70.83C29.1589 70.83 30.0342 70.5657 30.7709 70.037L30.5499 71.506C29.7699 71.948 28.9249 72.169 28.0149 72.169C26.6802 72.169 25.6056 71.766 24.7909 70.96C23.9762 70.1453 23.5689 69.114 23.5689 67.866C23.5689 66.3927 24.0412 65.1707 24.9859 64.2C25.9392 63.2207 27.1656 62.731 28.6649 62.731C29.7309 62.731 30.6452 62.9563 31.4079 63.407L31.1739 64.785C30.4632 64.3083 29.6226 64.07 28.6519 64.07C27.6032 64.07 26.7366 64.421 26.0519 65.123C25.3759 65.825 25.0379 66.7133 25.0379 67.788ZM32.6376 64.213L32.8456 62.9H40.2946L40.0866 64.213H37.0706L35.8356 72H34.4056L35.6406 64.213H32.6376ZM43.6884 62.848H45.0664L47.6014 72H46.1064L45.4954 69.738H41.1534L39.8274 72H38.2674L43.6884 62.848ZM45.1574 68.477L44.1174 64.655L41.8814 68.477H45.1574ZM55.4108 67.047C55.8875 67.1337 56.2775 67.3633 56.5808 67.736C56.8841 68.1 57.0358 68.555 57.0358 69.101C57.0358 69.9937 56.7151 70.7 56.0738 71.22C55.4325 71.74 54.6178 72 53.6298 72H49.0148L50.4578 62.9H54.4228C55.1681 62.9 55.7618 63.0777 56.2038 63.433C56.6458 63.7797 56.8668 64.2563 56.8668 64.863C56.8668 65.357 56.7368 65.799 56.4768 66.189C56.2255 66.5703 55.8701 66.8563 55.4108 67.047ZM54.2408 64.213H51.6798L51.3028 66.566H53.8768C54.3448 66.566 54.7218 66.4533 55.0078 66.228C55.3025 65.994 55.4498 65.6647 55.4498 65.24C55.4498 64.9193 55.3415 64.668 55.1248 64.486C54.9168 64.304 54.6221 64.213 54.2408 64.213ZM51.1078 67.827L50.6528 70.687H53.6038C54.1585 70.687 54.6135 70.544 54.9688 70.258C55.3241 69.9633 55.5018 69.5603 55.5018 69.049C55.5018 68.6763 55.3675 68.3817 55.0988 68.165C54.8301 67.9397 54.4618 67.827 53.9938 67.827H51.1078ZM59.8139 72H58.3839L59.8139 62.9H61.2569L60.6719 66.618L65.0139 62.9H66.8599L61.9199 67.19L66.1319 72H64.3509L60.5029 67.632L59.8139 72ZM71.7324 62.848H73.1104L75.6454 72H74.1504L73.5394 69.738H69.1974L67.8714 72H66.3114L71.7324 62.848ZM73.2014 68.477L72.1614 64.655L69.9254 68.477H73.2014ZM81.8657 72H80.4357L81.8787 62.9H88.2487L88.0407 64.213H83.1007L81.8657 72ZM88.3449 72L89.7879 62.9H93.5319C94.3985 62.9 95.0832 63.1167 95.5859 63.55C96.0972 63.9747 96.3529 64.538 96.3529 65.24C96.3529 66.124 96.0322 66.8477 95.3909 67.411C94.7582 67.9657 93.9522 68.243 92.9729 68.243H90.3599L89.7749 72H88.3449ZM90.5939 66.93H93.1159C93.6272 66.93 94.0519 66.7913 94.3899 66.514C94.7365 66.2367 94.9099 65.8683 94.9099 65.409C94.9099 65.0363 94.7842 64.746 94.5329 64.538C94.2815 64.3213 93.9219 64.213 93.4539 64.213H91.0099L90.5939 66.93ZM103.855 62.9H105.428L101.138 70.05C100.67 70.83 100.207 71.3803 99.7473 71.701C99.2966 72.013 98.794 72.169 98.2393 72.169C97.754 72.169 97.3293 72.0823 96.9653 71.909L97.1733 70.609C97.4853 70.7563 97.8233 70.83 98.1873 70.83C98.586 70.83 98.911 70.7433 99.1623 70.57C99.405 70.388 99.717 69.9893 100.098 69.374L97.4073 62.9H98.9413L100.969 67.892L103.855 62.9ZM110.789 67.086C111.231 67.2507 111.586 67.5107 111.855 67.866C112.124 68.2127 112.258 68.633 112.258 69.127C112.258 69.7597 112.054 70.3187 111.647 70.804C110.858 71.714 109.723 72.169 108.241 72.169C106.95 72.169 105.905 71.9047 105.108 71.376L105.303 69.933C106.213 70.531 107.201 70.83 108.267 70.83C108.96 70.83 109.554 70.687 110.048 70.401C110.551 70.115 110.802 69.686 110.802 69.114C110.802 68.6893 110.629 68.3687 110.282 68.152C109.944 67.9267 109.459 67.814 108.826 67.814H107.604L107.773 66.501H109.047C109.61 66.501 110.065 66.3883 110.412 66.163C110.759 65.9377 110.932 65.617 110.932 65.201C110.932 64.837 110.772 64.5597 110.451 64.369C110.13 64.1697 109.675 64.07 109.086 64.07C108.081 64.07 107.127 64.304 106.226 64.772L106.434 63.381C107.327 62.9477 108.28 62.731 109.294 62.731C110.23 62.731 110.98 62.939 111.543 63.355C112.106 63.771 112.388 64.3213 112.388 65.006C112.388 65.4913 112.241 65.9203 111.946 66.293C111.66 66.657 111.274 66.9213 110.789 67.086ZM118.658 62.731C119.984 62.731 121.05 63.1383 121.856 63.953C122.662 64.7763 123.065 65.8207 123.065 67.086C123.065 68.5073 122.592 69.7077 121.648 70.687C120.694 71.675 119.52 72.169 118.125 72.169C116.807 72.169 115.746 71.7617 114.94 70.947C114.142 70.1237 113.744 69.0793 113.744 67.814C113.744 66.4013 114.212 65.201 115.148 64.213C116.101 63.225 117.271 62.731 118.658 62.731ZM118.164 70.83C119.126 70.83 119.94 70.4703 120.608 69.751C121.266 69.0403 121.596 68.152 121.596 67.086C121.596 66.228 121.323 65.513 120.777 64.941C120.231 64.3603 119.511 64.07 118.619 64.07C117.648 64.07 116.838 64.4297 116.188 65.149C115.538 65.8683 115.213 66.7523 115.213 67.801C115.213 68.659 115.481 69.3827 116.019 69.972C116.565 70.544 117.28 70.83 118.164 70.83ZM130.694 67.047C131.171 67.1337 131.561 67.3633 131.864 67.736C132.167 68.1 132.319 68.555 132.319 69.101C132.319 69.9937 131.998 70.7 131.357 71.22C130.716 71.74 129.901 72 128.913 72H124.298L125.741 62.9H129.706C130.451 62.9 131.045 63.0777 131.487 63.433C131.929 63.7797 132.15 64.2563 132.15 64.863C132.15 65.357 132.02 65.799 131.76 66.189C131.509 66.5703 131.153 66.8563 130.694 67.047ZM129.524 64.213H126.963L126.586 66.566H129.16C129.628 66.566 130.005 66.4533 130.291 66.228C130.586 65.994 130.733 65.6647 130.733 65.24C130.733 64.9193 130.625 64.668 130.408 64.486C130.2 64.304 129.905 64.213 129.524 64.213ZM126.391 67.827L125.936 70.687H128.887C129.442 70.687 129.897 70.544 130.252 70.258C130.607 69.9633 130.785 69.5603 130.785 69.049C130.785 68.6763 130.651 68.3817 130.382 68.165C130.113 67.9397 129.745 67.827 129.277 67.827H126.391ZM138.266 72H137.044L138.487 62.9H139.917L138.864 69.595L144.922 62.9H146.17L144.727 72H143.297L144.363 65.279L138.266 72ZM152.354 67.086C152.796 67.2507 153.151 67.5107 153.42 67.866C153.688 68.2127 153.823 68.633 153.823 69.127C153.823 69.7597 153.619 70.3187 153.212 70.804C152.423 71.714 151.288 72.169 149.806 72.169C148.514 72.169 147.47 71.9047 146.673 71.376L146.868 69.933C147.778 70.531 148.766 70.83 149.832 70.83C150.525 70.83 151.119 70.687 151.613 70.401C152.115 70.115 152.367 69.686 152.367 69.114C152.367 68.6893 152.193 68.3687 151.847 68.152C151.509 67.9267 151.023 67.814 150.391 67.814H149.169L149.338 66.501H150.612C151.175 66.501 151.63 66.3883 151.977 66.163C152.323 65.9377 152.497 65.617 152.497 65.201C152.497 64.837 152.336 64.5597 152.016 64.369C151.695 64.1697 151.24 64.07 150.651 64.07C149.645 64.07 148.692 64.304 147.791 64.772L147.999 63.381C148.891 62.9477 149.845 62.731 150.859 62.731C151.795 62.731 152.544 62.939 153.108 63.355C153.671 63.771 153.953 64.3213 153.953 65.006C153.953 65.4913 153.805 65.9203 153.511 66.293C153.225 66.657 152.839 66.9213 152.354 67.086ZM159.955 72H158.525L159.955 62.9H161.398L160.813 66.618L165.155 62.9H167.001L162.061 67.19L166.273 72H164.492L160.644 67.632L159.955 72ZM168.519 72H167.297L168.74 62.9H170.17L169.117 69.595L175.175 62.9H176.423L174.98 72H173.55L174.616 65.279L168.519 72ZM177.77 64.213L177.978 62.9H185.427L185.219 64.213H182.203L180.968 72H179.538L180.773 64.213H177.77ZM188.821 62.848H190.199L192.734 72H191.239L190.628 69.738H186.286L184.96 72H183.4L188.821 62.848ZM190.29 68.477L189.25 64.655L187.014 68.477H190.29ZM198.349 68.152L195.047 72H193.344L196.815 67.931C196.295 67.8097 195.884 67.5583 195.58 67.177C195.286 66.787 195.138 66.332 195.138 65.812C195.138 64.9367 195.472 64.2303 196.139 63.693C196.798 63.1643 197.617 62.9 198.596 62.9H202.743L201.313 72H199.883L200.494 68.152H198.349ZM197.985 66.891H200.676L201.118 64.213H198.401C197.89 64.213 197.461 64.3517 197.114 64.629C196.768 64.8977 196.594 65.2703 196.594 65.747C196.594 66.0937 196.716 66.371 196.958 66.579C197.21 66.787 197.552 66.891 197.985 66.891ZM213.34 67.047C213.817 67.1337 214.207 67.3633 214.51 67.736C214.814 68.1 214.965 68.555 214.965 69.101C214.965 69.9937 214.645 70.7 214.003 71.22C213.362 71.74 212.547 72 211.559 72H206.944L208.387 62.9H212.352C213.098 62.9 213.691 63.0777 214.133 63.433C214.575 63.7797 214.796 64.2563 214.796 64.863C214.796 65.357 214.666 65.799 214.406 66.189C214.155 66.5703 213.8 66.8563 213.34 67.047ZM212.17 64.213H209.609L209.232 66.566H211.806C212.274 66.566 212.651 66.4533 212.937 66.228C213.232 65.994 213.379 65.6647 213.379 65.24C213.379 64.9193 213.271 64.668 213.054 64.486C212.846 64.304 212.552 64.213 212.17 64.213ZM209.037 67.827L208.582 70.687H211.533C212.088 70.687 212.543 70.544 212.898 70.258C213.254 69.9633 213.431 69.5603 213.431 69.049C213.431 68.6763 213.297 68.3817 213.028 68.165C212.76 67.9397 212.391 67.827 211.923 67.827H209.037ZM219.691 72L221.134 62.9H224.878C225.744 62.9 226.429 63.1167 226.932 63.55C227.443 63.9747 227.699 64.538 227.699 65.24C227.699 66.124 227.378 66.8477 226.737 67.411C226.104 67.9657 225.298 68.243 224.319 68.243H221.706L221.121 72H219.691ZM221.94 66.93H224.462C224.973 66.93 225.398 66.7913 225.736 66.514C226.082 66.2367 226.256 65.8683 226.256 65.409C226.256 65.0363 226.13 64.746 225.879 64.538C225.627 64.3213 225.268 64.213 224.8 64.213H222.356L221.94 66.93ZM233.563 62.731C234.889 62.731 235.955 63.1383 236.761 63.953C237.567 64.7763 237.97 65.8207 237.97 67.086C237.97 68.5073 237.498 69.7077 236.553 70.687C235.6 71.675 234.425 72.169 233.03 72.169C231.713 72.169 230.651 71.7617 229.845 70.947C229.048 70.1237 228.649 69.0793 228.649 67.814C228.649 66.4013 229.117 65.201 230.053 64.213C231.006 63.225 232.176 62.731 233.563 62.731ZM233.069 70.83C234.031 70.83 234.846 70.4703 235.513 69.751C236.172 69.0403 236.501 68.152 236.501 67.086C236.501 66.228 236.228 65.513 235.682 64.941C235.136 64.3603 234.417 64.07 233.524 64.07C232.553 64.07 231.743 64.4297 231.093 65.149C230.443 65.8683 230.118 66.7523 230.118 67.801C230.118 68.659 230.387 69.3827 230.924 69.972C231.47 70.544 232.185 70.83 233.069 70.83ZM241.023 67.788C241.023 68.6633 241.305 69.3913 241.868 69.972C242.44 70.544 243.194 70.83 244.13 70.83C245.144 70.83 246.02 70.5657 246.756 70.037L246.535 71.506C245.755 71.948 244.91 72.169 244 72.169C242.666 72.169 241.591 71.766 240.776 70.96C239.962 70.1453 239.554 69.114 239.554 67.866C239.554 66.3927 240.027 65.1707 240.971 64.2C241.925 63.2207 243.151 62.731 244.65 62.731C245.716 62.731 246.631 62.9563 247.393 63.407L247.159 64.785C246.449 64.3083 245.608 64.07 244.637 64.07C243.589 64.07 242.722 64.421 242.037 65.123C241.361 65.825 241.023 66.7133 241.023 67.788ZM249.631 67.788C249.631 68.6633 249.912 69.3913 250.476 69.972C251.048 70.544 251.802 70.83 252.738 70.83C253.752 70.83 254.627 70.5657 255.364 70.037L255.143 71.506C254.363 71.948 253.518 72.169 252.608 72.169C251.273 72.169 250.198 71.766 249.384 70.96C248.569 70.1453 248.162 69.114 248.162 67.866C248.162 66.3927 248.634 65.1707 249.579 64.2C250.532 63.2207 251.758 62.731 253.258 62.731C254.324 62.731 255.238 62.9563 256.001 63.407L255.767 64.785C255.056 64.3083 254.215 64.07 253.245 64.07C252.196 64.07 251.329 64.421 250.645 65.123C249.969 65.825 249.631 66.7133 249.631 67.788ZM257.919 72H256.697L258.14 62.9H259.57L258.517 69.595L264.575 62.9H265.823L264.38 72H262.95L264.016 65.279L257.919 72ZM279.04 66.969C279.04 68.2777 278.602 69.4607 277.727 70.518C277.32 71.0207 276.808 71.4237 276.193 71.727C275.586 72.0217 274.941 72.169 274.256 72.169C273.103 72.169 272.167 71.779 271.448 70.999C270.72 70.193 270.352 69.2093 270.343 68.048H268.718L268.094 72H266.638L268.081 62.9H269.537L268.926 66.735H270.473C270.724 65.6083 271.27 64.6637 272.111 63.901C272.96 63.121 273.966 62.731 275.127 62.731C276.297 62.731 277.237 63.1383 277.948 63.953C278.676 64.7763 279.04 65.7817 279.04 66.969ZM274.399 70.83C275.344 70.83 276.111 70.4443 276.7 69.673C277.298 68.893 277.597 68.0047 277.597 67.008C277.597 66.1327 277.354 65.4263 276.869 64.889C276.384 64.343 275.755 64.07 274.984 64.07C274.039 64.07 273.268 64.46 272.67 65.24C272.081 66.0113 271.786 66.8953 271.786 67.892C271.786 68.776 272.024 69.4867 272.501 70.024C272.986 70.5613 273.619 70.83 274.399 70.83Z" fill="white"/>
<defs>
<linearGradient id="paint0_linear_52_33" x1="-17.8421" y1="63.063" x2="151.52" y2="-16.9395" gradientUnits="userSpaceOnUse">
<stop stop-color="#A57E2B"/>
<stop offset="1" stop-color="#FDF5C8"/>
</linearGradient>
<clipPath id="clip0_52_33">
<rect width="278" height="48" fill="white" transform="translate(1)"/>
</clipPath>
</defs>
</svg>
