<svg width="1915" height="871" viewBox="0 0 1915 871" fill="none" xmlns="http://www.w3.org/2000/svg">
<g clip-path="url(#clip0_866_24769)">
<rect width="1920" height="871" fill="#181818"/>
<path d="M409.5 774C222.922 734.137 149 845.34 0 790.84V871H1920V793C1782.5 731.5 1620.03 816.487 1375.5 786.403C1179.88 762.336 1040.54 734.549 873.962 777.582C740 812.189 603 815.342 409.5 774Z" fill="#484848"/>
<path d="M242.453 450.43L477.967 698.001" stroke="#F5EAB8" stroke-width="2"/>
<path d="M721.305 450.43L956.819 698.001" stroke="#F5EAB8" stroke-width="2"/>
<path d="M234.623 450.43L-0.891121 698.001" stroke="#F5EAB8" stroke-width="2"/>
<path d="M713.477 450.43L477.962 698.001" stroke="#F5EAB8" stroke-width="2"/>
<path d="M242.453 486.484L309.65 698.001" stroke="#F5EAB8" stroke-width="2"/>
<path d="M721.305 486.484L788.501 698.001" stroke="#F5EAB8" stroke-width="2"/>
<path d="M234.623 486.484L167.426 698.001" stroke="#F5EAB8" stroke-width="2"/>
<path d="M713.477 486.484L646.28 698.001" stroke="#F5EAB8" stroke-width="2"/>
<path d="M365.756 698L242.453 474.465" stroke="#F5EAB8" stroke-width="2"/>
<path d="M844.607 698L721.305 474.465" stroke="#F5EAB8" stroke-width="2"/>
<path d="M111.321 698L234.623 474.465" stroke="#F5EAB8" stroke-width="2"/>
<path d="M590.174 698L713.477 474.465" stroke="#F5EAB8" stroke-width="2"/>
<path d="M242.453 462.449L421.861 698.002" stroke="#F5EAB8" stroke-width="2"/>
<path d="M721.305 462.449L900.713 698.002" stroke="#F5EAB8" stroke-width="2"/>
<path d="M234.623 462.449L55.2147 698.002" stroke="#F5EAB8" stroke-width="2"/>
<path d="M713.477 462.449L534.068 698.002" stroke="#F5EAB8" stroke-width="2"/>
<path d="M0 746.741L19.4391 731.938C20.1641 731.385 21.1705 731.393 21.8868 731.956L39.4965 745.799C40.2042 746.355 41.1964 746.37 41.9205 745.835L60.8228 731.877C61.529 731.356 62.4927 731.356 63.1989 731.877L82.1205 745.85C82.8355 746.378 83.8131 746.371 84.5203 745.832L102.762 731.941C103.489 731.387 104.499 731.397 105.215 731.964L123.426 746.387C124.153 746.963 125.182 746.963 125.909 746.387L144.096 731.983C144.824 731.407 145.852 731.407 146.58 731.983L164.785 746.402C165.504 746.971 166.518 746.979 167.245 746.42L186.067 731.965C186.804 731.4 187.833 731.415 188.551 732.003L206.122 746.367C206.84 746.955 207.869 746.971 208.606 746.405L227.428 731.95C228.155 731.392 229.169 731.399 229.888 731.968L248.136 746.421C248.844 746.981 249.839 746.998 250.566 746.462L269.425 732.535C270.15 732 271.142 732.015 271.849 732.571L289.454 746.41C290.173 746.975 291.183 746.981 291.908 746.424L310.735 731.965C311.471 731.4 312.5 731.415 313.219 732.003L330.813 746.387C331.521 746.965 332.531 746.99 333.267 746.447L352.106 732.535C352.831 732 353.823 732.015 354.531 732.571L372.153 746.424C372.863 746.983 373.86 746.995 374.584 746.455L394.043 731.951C394.79 731.394 395.822 731.427 396.532 732.03L414.093 746.939C414.82 747.556 415.881 747.574 416.629 746.982L434.772 732.613C435.499 732.037 436.528 732.037 437.255 732.613L455.442 747.017C456.17 747.593 457.198 747.593 457.926 747.017L476.136 732.594C476.853 732.027 477.863 732.017 478.59 732.571L496.831 746.462C497.538 747 498.516 747.007 499.231 746.479L518.134 732.521C518.849 731.993 519.827 732 520.534 732.538L538.818 746.462C539.525 747 540.502 747.007 541.217 746.479L560.101 732.535C560.825 732 561.817 732.015 562.525 732.571L580.153 746.429C580.861 746.985 581.853 747 582.577 746.465L601.442 732.535C602.166 732 603.158 732.015 603.866 732.571L621.494 746.429C622.202 746.985 623.194 747 623.918 746.465L642.838 732.494C643.535 731.979 644.486 731.972 645.191 732.477L664.788 746.523C665.493 747.028 666.443 747.021 667.141 746.506L686.08 732.521C686.795 731.993 687.773 732 688.48 732.538L706.721 746.429C707.448 746.983 708.458 746.973 709.174 746.406L727.385 731.983C728.113 731.407 729.141 731.407 729.869 731.983L748.056 746.387C748.783 746.963 749.811 746.963 750.539 746.387L768.702 732.002C769.441 731.417 770.487 731.427 771.214 732.025L789.367 746.955C790.106 747.562 791.17 747.562 791.908 746.955L810.061 732.025C810.789 731.427 811.835 731.417 812.574 732.002L830.756 746.402C831.474 746.971 832.488 746.979 833.215 746.42L852.058 731.95C852.785 731.392 853.799 731.399 854.517 731.968L872.723 746.387C873.451 746.963 874.479 746.963 875.207 746.387L893.393 731.983C894.121 731.407 895.149 731.407 895.877 731.983L914.064 746.387C914.791 746.963 915.82 746.963 916.547 746.387L934.714 731.999C935.451 731.416 936.494 731.424 937.222 732.019L956 747.37" stroke="#F5EAB8"/>
<path d="M962 697H0V732H962V697Z" fill="#CA2E33"/>
<path d="M246.879 617.072V552.975L244.257 549.64V496.491L242.43 492.033V449.461H238.816H238.176H234.562V492.033L232.735 496.491V549.64L230.113 552.975V617.072L224.75 621.984V698.535C224.75 698.535 235.436 698.535 238.176 698.535C238.242 698.535 238.476 698.535 238.816 698.535C241.569 698.535 252.242 698.535 252.242 698.535V621.984L246.879 617.072Z" fill="#CA2E33"/>
<path d="M245.9 447.764H230.777V450.441H245.9V447.764Z" fill="#CA2E33"/>
<path d="M243.762 441.965H232.854V448.574H243.762V441.965Z" fill="#CA2E33"/>
<path d="M239.845 435H236.883V442.876H239.845V435Z" fill="#CA2E33"/>
<path d="M246.382 698.534C246.2 698.534 246.043 677.009 246.043 650.464C246.043 623.908 246.2 602.395 246.382 602.395C246.565 602.395 246.721 623.92 246.721 650.464C246.721 677.009 246.565 698.534 246.382 698.534Z" fill="#CA2E33"/>
<path d="M725.543 617.072V552.975L722.921 549.64V496.491L721.094 492.033V449.461H717.48H716.84H713.226V492.033L711.399 496.491V549.64L708.777 552.975V617.072L703.414 621.984V698.535C703.414 698.535 714.1 698.535 716.84 698.535C716.906 698.535 717.14 698.535 717.48 698.535C720.233 698.535 730.906 698.535 730.906 698.535V621.984L725.543 617.072Z" fill="#CA2E33"/>
<path d="M724.568 447.762H709.445V450.439H724.568V447.762Z" fill="#CA2E33"/>
<path d="M722.424 441.967H711.516V448.576H722.424V441.967Z" fill="#CA2E33"/>
<path d="M718.511 435H715.549V442.876H718.511V435Z" fill="#CA2E33"/>
<path d="M717.222 671.042C717.039 671.042 716.883 649.517 716.883 622.972C716.883 596.415 717.039 574.902 717.222 574.902C717.405 574.902 717.561 596.427 717.561 622.972C717.561 649.517 717.405 671.042 717.222 671.042Z" fill="#CA2E33"/>
<path d="M258.114 749.758H221.375C220.051 749.758 218.979 750.831 218.979 752.154C218.979 753.478 220.051 754.55 221.375 754.55H258.114C259.437 754.55 260.51 753.478 260.51 752.154C260.51 750.831 259.437 749.758 258.114 749.758Z" fill="#A22529"/>
<path d="M735.243 749.758H698.504C697.18 749.758 696.107 750.831 696.107 752.154C696.107 753.478 697.18 754.55 698.504 754.55H735.243C736.566 754.55 737.639 753.478 737.639 752.154C737.639 750.831 736.566 749.758 735.243 749.758Z" fill="#A22529"/>
<g opacity="0.2">
<path d="M735.248 749.758H698.51C697.186 749.758 696.113 750.831 696.113 752.154C696.113 753.478 697.186 754.55 698.51 754.55H735.248C736.572 754.55 737.645 753.478 737.645 752.154C737.645 750.831 736.572 749.758 735.248 749.758Z" fill="#A22529"/>
</g>
<path d="M248.257 759.666H231.215C229.558 759.666 228.215 761.009 228.215 762.666V818.552C228.215 820.209 229.558 821.552 231.215 821.552H248.257C249.914 821.552 251.257 820.209 251.257 818.552V762.666C251.257 761.009 249.914 759.666 248.257 759.666Z" fill="#CA2E33"/>
<path d="M726.054 759.666H709.012C707.355 759.666 706.012 761.009 706.012 762.666V818.552C706.012 820.209 707.355 821.552 709.012 821.552H726.054C727.711 821.552 729.054 820.209 729.054 818.552V762.666C729.054 761.009 727.711 759.666 726.054 759.666Z" fill="#CA2E33"/>
<path d="M253.416 821.551H227.188C225.531 821.551 224.188 822.894 224.188 824.551V833.299C224.188 834.956 225.531 836.299 227.187 836.299H253.416C255.073 836.299 256.416 834.956 256.416 833.299V824.551C256.416 822.894 255.073 821.551 253.416 821.551Z" fill="#CA2E33"/>
<path d="M731.213 821.551H704.984C703.328 821.551 701.984 822.894 701.984 824.551V833.299C701.984 834.956 703.328 836.299 704.984 836.299H731.213C732.869 836.299 734.213 834.956 734.213 833.299V824.551C734.213 822.894 732.869 821.551 731.213 821.551Z" fill="#CA2E33"/>
<path d="M257.498 836.289H222.619C220.962 836.289 219.619 837.632 219.619 839.289V865.069C219.619 866.726 220.962 868.069 222.619 868.069H257.498C259.155 868.069 260.498 866.726 260.498 865.069V839.289C260.498 837.632 259.155 836.289 257.498 836.289Z" fill="#CA2E33"/>
<path d="M735.295 836.289H700.416C698.759 836.289 697.416 837.632 697.416 839.289V865.069C697.416 866.726 698.759 868.069 700.416 868.069H735.295C736.952 868.069 738.295 866.726 738.295 865.069V839.289C738.295 837.632 736.952 836.289 735.295 836.289Z" fill="#CA2E33"/>
<path d="M231.604 821.637H247.913" stroke="#A22529" stroke-width="3"/>
<path d="M230.299 616.662H246.609" stroke="#A22529" stroke-width="3"/>
<path d="M709.158 616.662H725.468" stroke="#A22529" stroke-width="3"/>
<path d="M225.08 696.74H252.481" stroke="#A22529" stroke-width="3"/>
<path d="M703.938 696.74H731.338" stroke="#A22529" stroke-width="3"/>
<path d="M232.908 549.734H244.651" stroke="#A22529" stroke-width="3"/>
<path d="M711.766 549.734H723.509" stroke="#A22529" stroke-width="3"/>
<path d="M232.908 446.949H243.347" stroke="#A22529"/>
<path d="M711.766 446.949H722.204" stroke="#A22529"/>
<path d="M234.215 450.535H242.044" stroke="#A22529"/>
<path d="M713.072 450.535H720.901" stroke="#A22529"/>
<path d="M709.158 821.637H725.468" stroke="#A22529" stroke-width="3"/>
<path d="M226.385 836.574H253.785" stroke="#A22529" stroke-width="3"/>
<path d="M703.938 836.574H731.338" stroke="#A22529" stroke-width="3"/>
<path d="M250.781 754.109H228.076C226.419 754.109 225.076 755.453 225.076 757.109V758.28C225.076 759.937 226.419 761.28 228.076 761.28H250.782C252.438 761.28 253.782 759.937 253.782 758.28V757.109C253.782 755.453 252.438 754.109 250.781 754.109Z" fill="#A22529"/>
<path d="M728.578 754.109H705.873C704.216 754.109 702.873 755.453 702.873 757.109V758.28C702.873 759.937 704.216 761.28 705.873 761.28H728.578C730.235 761.28 731.578 759.937 731.578 758.28V757.109C731.578 755.453 730.235 754.109 728.578 754.109Z" fill="#A22529"/>
<path d="M272.724 860.371H206.961C205.304 860.371 203.961 861.714 203.961 863.371V868.128C203.961 869.784 205.304 871.128 206.961 871.128H272.724C274.381 871.128 275.724 869.784 275.724 868.128V863.371C275.724 861.714 274.381 860.371 272.724 860.371Z" fill="#A22529"/>
<path d="M750.521 860.371H684.758C683.101 860.371 681.758 861.714 681.758 863.371V868.128C681.758 869.784 683.101 871.128 684.758 871.128H750.521C752.178 871.128 753.521 869.784 753.521 868.128V863.371C753.521 861.714 752.178 860.371 750.521 860.371Z" fill="#A22529"/>
<path d="M0 749H959" stroke="#CA2E33" stroke-width="5"/>
<path d="M1200.17 450.43L1435.68 696.635" stroke="#F5EAB8" stroke-width="2"/>
<path d="M1679.02 450.43L1914.53 696.635" stroke="#F5EAB8" stroke-width="2"/>
<path d="M1192.34 450.43L956.824 696.635" stroke="#F5EAB8" stroke-width="2"/>
<path d="M1671.19 450.43L1435.68 696.635" stroke="#F5EAB8" stroke-width="2"/>
<path d="M1200.17 486.285L1267.36 696.635" stroke="#F5EAB8" stroke-width="2"/>
<path d="M1679.02 486.285L1746.22 696.635" stroke="#F5EAB8" stroke-width="2"/>
<path d="M1192.34 486.285L1125.14 696.635" stroke="#F5EAB8" stroke-width="2"/>
<path d="M1671.19 486.285L1603.99 696.635" stroke="#F5EAB8" stroke-width="2"/>
<path d="M1323.47 696.634L1200.17 474.332" stroke="#F5EAB8" stroke-width="2"/>
<path d="M1802.32 696.634L1679.02 474.332" stroke="#F5EAB8" stroke-width="2"/>
<path d="M1069.04 696.634L1192.34 474.332" stroke="#F5EAB8" stroke-width="2"/>
<path d="M1547.89 696.634L1671.19 474.332" stroke="#F5EAB8" stroke-width="2"/>
<path d="M1200.17 462.383L1379.58 696.636" stroke="#F5EAB8" stroke-width="2"/>
<path d="M1679.02 462.383L1858.43 696.636" stroke="#F5EAB8" stroke-width="2"/>
<path d="M1192.34 462.383L1012.93 696.636" stroke="#F5EAB8" stroke-width="2"/>
<path d="M1671.19 462.383L1491.78 696.636" stroke="#F5EAB8" stroke-width="2"/>
<path d="M957 746.741L976.484 731.934C977.208 731.384 978.213 731.392 978.929 731.953L996.583 745.802C997.29 746.357 998.281 746.372 999.004 745.839L1017.95 731.874C1018.66 731.354 1019.62 731.354 1020.33 731.874L1039.3 745.853C1040.01 746.379 1040.99 746.372 1041.69 745.835L1059.98 731.938C1060.71 731.386 1061.72 731.395 1062.43 731.961L1080.69 746.39C1081.42 746.965 1082.44 746.965 1083.17 746.39L1101.4 731.98C1102.13 731.406 1103.16 731.406 1103.88 731.98L1122.13 746.405C1122.85 746.973 1123.86 746.98 1124.59 746.424L1143.46 731.962C1144.2 731.398 1145.22 731.414 1145.94 732L1163.56 746.371C1164.28 746.957 1165.3 746.972 1166.04 746.408L1184.91 731.947C1185.63 731.39 1186.65 731.398 1187.36 731.965L1205.66 746.424C1206.37 746.983 1207.36 747 1208.09 746.465L1226.99 732.532C1227.72 731.999 1228.71 732.014 1229.41 732.568L1247.06 746.413C1247.78 746.977 1248.79 746.982 1249.51 746.427L1268.39 731.962C1269.13 731.398 1270.15 731.414 1270.87 732L1288.51 746.39C1289.22 746.967 1290.22 746.992 1290.96 746.45L1309.85 732.532C1310.57 731.999 1311.56 732.014 1312.27 732.568L1329.94 746.427C1330.65 746.984 1331.64 746.997 1332.36 746.458L1351.87 731.948C1352.62 731.393 1353.65 731.426 1354.36 732.027L1371.96 746.942C1372.69 747.557 1373.75 747.575 1374.5 746.985L1392.69 732.61C1393.41 732.035 1394.44 732.035 1395.17 732.61L1413.4 747.02C1414.13 747.594 1415.15 747.594 1415.88 747.02L1434.14 732.591C1434.85 732.025 1435.86 732.015 1436.59 732.567L1454.87 746.465C1455.58 747.002 1456.56 747.009 1457.27 746.482L1476.22 732.518C1476.94 731.991 1477.91 731.998 1478.62 732.535L1496.95 746.465C1497.66 747.002 1498.63 747.009 1499.35 746.482L1518.28 732.532C1519 731.999 1519.99 732.014 1520.7 732.568L1538.37 746.432C1539.08 746.986 1540.07 747.001 1540.79 746.468L1559.7 732.532C1560.43 731.999 1561.42 732.014 1562.12 732.568L1579.8 746.432C1580.51 746.986 1581.5 747.001 1582.22 746.468L1601.19 732.491C1601.88 731.977 1602.83 731.971 1603.54 732.474L1623.18 746.526C1623.89 747.029 1624.84 747.023 1625.53 746.509L1644.52 732.518C1645.23 731.991 1646.21 731.998 1646.92 732.535L1665.2 746.433C1665.93 746.985 1666.94 746.975 1667.65 746.409L1685.91 731.98C1686.64 731.406 1687.66 731.406 1688.39 731.98L1706.62 746.39C1707.35 746.965 1708.38 746.965 1709.1 746.39L1727.31 731.999C1728.05 731.416 1729.1 731.425 1729.82 732.022L1748.02 746.959C1748.76 747.564 1749.82 747.564 1750.56 746.959L1768.76 732.022C1769.49 731.425 1770.53 731.416 1771.27 731.999L1789.5 746.405C1790.22 746.973 1791.23 746.98 1791.95 746.424L1810.84 731.947C1811.57 731.39 1812.58 731.398 1813.3 731.965L1831.55 746.39C1832.28 746.965 1833.31 746.965 1834.03 746.39L1852.27 731.98C1852.99 731.406 1854.02 731.406 1854.75 731.98L1872.98 746.39C1873.71 746.965 1874.73 746.965 1875.46 746.39L1893.67 731.996C1894.41 731.414 1895.45 731.422 1896.18 732.015L1915 747.37" stroke="#F5EAB8"/>
<path d="M1915 697H952V732H1915V697Z" fill="#CA2E33"/>
<path d="M1204.59 617.072V552.975L1201.97 549.64V496.491L1200.14 492.033V449.461H1196.53H1195.89H1192.27V492.033L1190.45 496.491V549.64L1187.83 552.975V617.072L1182.46 621.984V698.535C1182.46 698.535 1193.15 698.535 1195.89 698.535C1195.95 698.535 1196.19 698.535 1196.53 698.535C1199.28 698.535 1209.95 698.535 1209.95 698.535V621.984L1204.59 617.072Z" fill="#CA2E33"/>
<path d="M1203.61 447.762H1188.49V450.439H1203.61V447.762Z" fill="#CA2E33"/>
<path d="M1201.47 441.967H1190.56V448.576H1201.47V441.967Z" fill="#CA2E33"/>
<path d="M1197.56 435H1194.6V442.876H1197.56V435Z" fill="#CA2E33"/>
<path d="M1204.1 698.534C1203.91 698.534 1203.76 677.009 1203.76 650.464C1203.76 623.908 1203.91 602.395 1204.1 602.395C1204.28 602.395 1204.44 623.92 1204.44 650.464C1204.44 677.009 1204.28 698.534 1204.1 698.534Z" fill="#CA2E33"/>
<path d="M1683.26 617.072V552.975L1680.64 549.64V496.491L1678.81 492.033V449.461H1675.2H1674.56H1670.94V492.033L1669.12 496.491V549.64L1666.49 552.975V617.072L1661.13 621.984V698.535C1661.13 698.535 1671.82 698.535 1674.56 698.535C1674.62 698.535 1674.86 698.535 1675.2 698.535C1677.95 698.535 1688.62 698.535 1688.62 698.535V621.984L1683.26 617.072Z" fill="#CA2E33"/>
<path d="M1682.28 447.762H1667.16V450.439H1682.28V447.762Z" fill="#CA2E33"/>
<path d="M1680.14 441.967H1669.23V448.576H1680.14V441.967Z" fill="#CA2E33"/>
<path d="M1676.23 435H1673.27V442.876H1676.23V435Z" fill="#CA2E33"/>
<path d="M1674.93 671.044C1674.75 671.044 1674.6 649.519 1674.6 622.974C1674.6 596.417 1674.75 574.904 1674.93 574.904C1675.12 574.904 1675.27 596.429 1675.27 622.974C1675.27 649.519 1675.12 671.044 1674.93 671.044Z" fill="#CA2E33"/>
<path d="M1215.83 749.758H1179.09C1177.77 749.758 1176.7 750.831 1176.7 752.154C1176.7 753.478 1177.77 754.55 1179.09 754.55H1215.83C1217.16 754.55 1218.23 753.478 1218.23 752.154C1218.23 750.831 1217.16 749.758 1215.83 749.758Z" fill="#A22529"/>
<path d="M1692.96 749.758H1656.22C1654.9 749.758 1653.83 750.831 1653.83 752.154C1653.83 753.478 1654.9 754.55 1656.22 754.55H1692.96C1694.28 754.55 1695.36 753.478 1695.36 752.154C1695.36 750.831 1694.28 749.758 1692.96 749.758Z" fill="#A22529"/>
<g opacity="0.2">
<path d="M1692.96 749.758H1656.22C1654.9 749.758 1653.82 750.831 1653.82 752.154C1653.82 753.478 1654.9 754.55 1656.22 754.55H1692.96C1694.28 754.55 1695.36 753.478 1695.36 752.154C1695.36 750.831 1694.28 749.758 1692.96 749.758Z" fill="#A22529"/>
</g>
<path d="M1205.98 759.666H1188.93C1187.28 759.666 1185.93 761.009 1185.93 762.666V818.552C1185.93 820.209 1187.28 821.552 1188.93 821.552H1205.98C1207.63 821.552 1208.98 820.209 1208.98 818.552V762.666C1208.98 761.009 1207.63 759.666 1205.98 759.666Z" fill="#CA2E33"/>
<path d="M1683.77 759.666H1666.73C1665.07 759.666 1663.73 761.009 1663.73 762.666V818.552C1663.73 820.209 1665.07 821.552 1666.73 821.552H1683.77C1685.43 821.552 1686.77 820.209 1686.77 818.552V762.666C1686.77 761.009 1685.43 759.666 1683.77 759.666Z" fill="#CA2E33"/>
<path d="M1211.13 821.551H1184.9C1183.25 821.551 1181.9 822.894 1181.9 824.551V833.299C1181.9 834.956 1183.25 836.299 1184.9 836.299H1211.13C1212.79 836.299 1214.13 834.956 1214.13 833.299V824.551C1214.13 822.894 1212.79 821.551 1211.13 821.551Z" fill="#CA2E33"/>
<path d="M1688.93 821.551H1662.7C1661.04 821.551 1659.7 822.894 1659.7 824.551V833.299C1659.7 834.956 1661.04 836.299 1662.7 836.299H1688.93C1690.58 836.299 1691.93 834.956 1691.93 833.299V824.551C1691.93 822.894 1690.58 821.551 1688.93 821.551Z" fill="#CA2E33"/>
<path d="M1215.21 836.289H1180.33C1178.68 836.289 1177.33 837.632 1177.33 839.289V865.069C1177.33 866.726 1178.68 868.069 1180.33 868.069H1215.21C1216.87 868.069 1218.21 866.726 1218.21 865.069V839.289C1218.21 837.632 1216.87 836.289 1215.21 836.289Z" fill="#CA2E33"/>
<path d="M1693.01 836.289H1658.13C1656.47 836.289 1655.13 837.632 1655.13 839.289V865.069C1655.13 866.726 1656.47 868.069 1658.13 868.069H1693.01C1694.67 868.069 1696.01 866.726 1696.01 865.069V839.289C1696.01 837.632 1694.67 836.289 1693.01 836.289Z" fill="#CA2E33"/>
<path d="M1189.32 821.637H1205.63" stroke="#A22529" stroke-width="3"/>
<path d="M1188.02 616.662H1204.33" stroke="#A22529" stroke-width="3"/>
<path d="M1666.87 616.662H1683.18" stroke="#A22529" stroke-width="3"/>
<path d="M1182.8 696.74H1210.2" stroke="#A22529" stroke-width="3"/>
<path d="M1661.65 696.74H1689.05" stroke="#A22529" stroke-width="3"/>
<path d="M1190.62 549.732H1202.37" stroke="#A22529" stroke-width="3"/>
<path d="M1669.48 549.732H1681.23" stroke="#A22529" stroke-width="3"/>
<path d="M1190.62 446.949H1201.06" stroke="#A22529"/>
<path d="M1669.48 446.949H1679.92" stroke="#A22529"/>
<path d="M1191.93 450.535H1199.76" stroke="#A22529"/>
<path d="M1670.79 450.535H1678.62" stroke="#A22529"/>
<path d="M1666.87 821.637H1683.18" stroke="#A22529" stroke-width="3"/>
<path d="M1184.1 836.574H1211.5" stroke="#A22529" stroke-width="3"/>
<path d="M1661.65 836.574H1689.05" stroke="#A22529" stroke-width="3"/>
<path d="M1208.5 754.109H1185.8C1184.14 754.109 1182.8 755.453 1182.8 757.109V758.28C1182.8 759.937 1184.14 761.28 1185.8 761.28H1208.5C1210.16 761.28 1211.5 759.937 1211.5 758.28V757.109C1211.5 755.453 1210.16 754.109 1208.5 754.109Z" fill="#A22529"/>
<path d="M1686.3 754.109H1663.59C1661.94 754.109 1660.59 755.453 1660.59 757.109V758.28C1660.59 759.937 1661.94 761.28 1663.59 761.28H1686.3C1687.96 761.28 1689.3 759.937 1689.3 758.28V757.109C1689.3 755.453 1687.96 754.109 1686.3 754.109Z" fill="#A22529"/>
<path d="M1230.44 860.371H1164.67C1163.02 860.371 1161.67 861.714 1161.67 863.371V868.128C1161.67 869.784 1163.02 871.128 1164.67 871.128H1230.44C1232.09 871.128 1233.44 869.784 1233.44 868.128V863.371C1233.44 861.714 1232.09 860.371 1230.44 860.371Z" fill="#A22529"/>
<path d="M1708.23 860.371H1642.47C1640.81 860.371 1639.47 861.714 1639.47 863.371V868.128C1639.47 869.784 1640.81 871.128 1642.47 871.128H1708.23C1709.89 871.128 1711.23 869.784 1711.23 868.128V863.371C1711.23 861.714 1709.89 860.371 1708.23 860.371Z" fill="#A22529"/>
<path d="M956 749H1915" stroke="#CA2E33" stroke-width="5"/>
<path d="M40.8936 710C490.174 717.34 1833.09 704.57 1903.25 722.763C1904.8 723.167 1904.64 724.001 1903.03 724.001C1766.79 724.017 143.541 725 71.8614 725C-0.390263 725 -0.389534 710.732 40.8936 710Z" fill="#A22529"/>
<path d="M1181.63 285.133C1179.41 277.295 1175.65 274.513 1170.68 269.967C1165.71 265.421 1158.45 261.697 1150.09 261.009C1141.73 260.321 1132.46 263.339 1129.73 268.668C1128.53 256.664 1125.99 244.344 1117 233.924C1108.01 223.505 1091.23 215.311 1073.25 216.046C1056.3 216.743 1041.8 225.147 1033.74 235.137C1025.68 245.117 1022.9 256.578 1020.26 267.78C1013.84 262.508 1000.28 264.17 993.563 269.28C986.845 274.389 982.635 284.169 986.439 292.971C1008.21 313.616 1143.25 309.929 1167.61 300.099C1175.8 296.792 1183.84 292.971 1181.63 285.133Z" fill="#525252"/>
<path d="M915.749 399.578C914.254 394.977 911.716 393.345 908.358 390.676C905 388.008 900.099 385.822 894.454 385.418C888.809 385.015 882.557 386.786 880.714 389.914C879.904 382.868 878.186 375.636 872.117 369.521C866.048 363.405 854.721 358.595 842.582 359.027C831.139 359.436 821.345 364.369 815.904 370.233C810.462 376.09 808.59 382.817 806.805 389.393C802.472 386.298 793.316 387.274 788.781 390.273C784.246 393.272 781.403 399.012 783.971 404.179C798.668 416.296 889.842 414.132 906.283 408.362C911.813 406.421 917.243 404.179 915.749 399.578Z" fill="#525252"/>
</g>
<defs>
<clipPath id="clip0_866_24769">
<rect width="1915" height="871" fill="white"/>
</clipPath>
</defs>
</svg>
