<svg width="558" height="664" viewBox="0 0 558 664" fill="none" xmlns="http://www.w3.org/2000/svg">
<path d="M63.3126 46.3789C44.6056 30.5554 55.7954 0 80.2971 0H231.817C253.851 0 266.117 25.4731 252.377 42.699C247.387 48.9552 239.819 52.5989 231.817 52.5989H80.2971C74.0783 52.5989 68.0607 50.3951 63.3126 46.3789ZM70.666 202.13C70.666 187.605 82.4406 175.831 96.9654 175.831H219.679C234.204 175.831 245.979 187.605 245.979 202.13C245.979 216.655 234.204 228.429 219.679 228.429H96.9654C82.4407 228.429 70.666 216.655 70.666 202.13ZM362.854 284.034C362.854 269.509 374.628 257.734 389.153 257.734H624.006C647.508 257.734 659.209 286.21 642.498 302.735C637.575 307.603 630.93 310.333 624.006 310.333H389.153C374.628 310.333 362.854 298.559 362.854 284.034ZM69.1676 382.845C69.1676 368.112 81.1104 356.169 95.8427 356.169H217.805C232.537 356.169 244.48 368.112 244.48 382.845C244.48 397.577 232.537 409.52 217.805 409.52H95.8427C81.1105 409.52 69.1676 397.577 69.1676 382.845ZM47.4408 25.8474C47.4408 11.5723 59.013 0 73.2882 0C87.5633 0 99.1356 11.5723 99.1356 25.8474V270.508C99.1356 378.571 92.7684 528.142 50.0987 637.981C44.723 651.819 26.8932 655.988 13.9586 648.702C2.47383 642.233 -3.00645 627.813 1.95061 615.599C44.1898 511.525 47.4408 373.409 47.4408 270.508V25.8474ZM213.014 26.222C213.014 11.74 224.754 0 239.236 0C253.718 0 265.458 11.74 265.458 26.222V596.621C265.458 626.678 258.715 643.96 239.985 653.729C222.99 661.596 198.011 663.743 158.083 663.664C147.378 663.643 138.668 657.387 136.032 647.012C131.882 630.673 143.775 610.576 160.633 610.678C179.008 610.79 193.208 610.612 198.779 610.147C209.268 609.396 213.014 606.39 213.014 595.87V26.222ZM595.855 29.2254C595.855 14.3297 607.93 2.25424 622.826 2.25424C637.722 2.25424 649.797 14.3297 649.797 29.2254V148.028C649.797 175.831 643.804 190.859 619.829 199.124C599.034 206.525 566.828 207.299 519.445 207.38C509.451 207.397 500.914 200.31 497.688 190.85C492.65 176.076 502.88 159.603 518.489 159.739C548.302 159.998 572.065 159.851 580.871 159.299C592.858 159.299 595.855 156.294 595.855 147.277V29.2254ZM619.829 267.324C619.829 262.028 624.123 257.734 629.419 257.734H629.569H632.823C636.125 257.734 639.404 258.28 642.529 259.348L646.036 260.547C660.214 265.395 668.697 280.012 665.363 294.62C627.033 462.586 543.283 579.002 440.332 647.704C430.145 654.502 416.634 651.128 409.328 641.299C400.378 629.258 402.556 610.033 415.086 601.781C509.848 539.368 590.021 419.34 619.649 269.17C619.769 268.564 619.829 267.943 619.829 267.324ZM424.84 295.909C437.031 292.648 449.56 299.732 453.484 311.726C493.978 435.506 566.674 544.505 662.991 604.3C677.077 613.045 679.415 634.92 669.12 647.918C661.717 657.264 649.152 659.898 639.021 653.612C532.806 587.709 454.804 466.936 408.853 324.851C404.832 312.419 412.218 299.285 424.84 295.909ZM331.387 32.2543C331.387 15.6857 344.819 2.25424 361.387 2.25424H616.809C632.957 2.25424 645.291 16.6713 642.791 32.6246C640.786 45.4216 629.762 54.8531 616.809 54.8531H414.581C398.012 54.8531 384.581 68.2846 384.581 84.8531V636.901C384.581 651.589 372.673 663.497 357.984 663.497C343.295 663.497 331.387 651.589 331.387 636.901V32.2543Z" fill="#202020"/>
</svg>
