<svg width="835" height="456" viewBox="0 0 835 456" fill="none" xmlns="http://www.w3.org/2000/svg">
<g clip-path="url(#clip0_567_23476)">
<path fill-rule="evenodd" clip-rule="evenodd" d="M834.133 273.162C825.122 207.156 712.753 171.38 632.942 126.308C558.007 83.9895 493.13 29.7543 391.441 23.1579C281.372 16.0179 168.241 42.2852 92.2612 91.235C18.026 139.06 -10.4644 207.939 3.38134 273.162C15.7709 331.526 77.8424 383.056 160.67 413.491C229.121 438.643 311.905 410.649 391.441 415.753C491.276 422.16 587.956 475.18 676.669 446.606C776.436 414.471 843.473 341.579 834.133 273.162Z" fill="#484848"/>
<path d="M49.0655 385.001C-62.0261 232.391 149.423 124.308 231.5 81.9997C280 56.9995 268 -10.5005 215.5 3.9996C163 18.4997 211.012 162.864 264.502 148.5C308.084 136.797 291.49 105.139 338.104 96.7123C377.676 89.5591 407.519 107.66 429.5 148.5" stroke="#5C5C5C" stroke-width="5" stroke-linecap="round" stroke-linejoin="round" stroke-dasharray="25 15"/>
<path d="M121.805 178.252H197.405L189.467 241H130.877L121.805 178.252Z" fill="#222222"/>
<path d="M196.647 185.057C155.844 185.989 144.366 222.741 143.727 241.001H189.744C191.661 226.367 195.726 194.691 196.647 185.057Z" fill="#0E0E0E"/>
<path d="M138.402 74.7895C135.272 77.8931 138.722 82.0983 140.94 83.9074C142.693 83.6302 146.316 83.2105 150.343 83.2105C153.329 79.5263 147.027 71.8947 147.358 74.7895C147.69 77.6842 146.695 76.6316 145.368 80.3158C145.368 76.9474 143.378 74.7018 142.383 74C142.604 76.2807 142.648 80.7368 141.055 80.3158C139.065 79.7895 140.06 78.2105 138.402 74.7895Z" fill="#727272"/>
<path d="M122.109 99.033C115.976 112.624 125.687 148.674 131.309 165H167.085C172.195 152.277 180.117 121.272 170.918 99.033C159.418 71.2343 129.775 82.0449 122.109 99.033Z" fill="#181818"/>
<path d="M174.988 111C207.851 111 195.199 149.099 184.923 166H160.976C154.097 160.844 137.029 111 174.988 111Z" fill="#2C2C2C"/>
<path d="M133.645 109V99.8323C135.162 101.228 136.694 106.046 137.145 111C137.617 116.194 133.645 114.5 133.645 109Z" fill="#363636"/>
<path d="M150.12 99.5822L152.243 90.6637C153.396 92.3726 153.77 97.415 153.061 102.338C152.318 107.5 148.846 104.933 150.12 99.5822Z" fill="#363636"/>
<path d="M143.008 130.01L143.662 120.866C145.076 122.366 146.261 127.281 146.356 132.255C146.457 137.469 142.616 135.496 143.008 130.01Z" fill="#363636"/>
<path d="M139.513 151.308L135.714 142.965C134.911 144.863 135.514 149.884 137.157 154.579C138.88 159.501 141.793 156.314 139.513 151.308Z" fill="#363636"/>
<path d="M163.642 131.942L160.808 125.719C160.21 127.135 160.659 130.879 161.884 134.381C163.169 138.052 165.342 135.674 163.642 131.942Z" fill="#181818"/>
<path d="M169.642 156.942L166.808 150.719C166.21 152.135 166.659 155.879 167.884 159.381C169.169 163.052 171.342 160.674 169.642 156.942Z" fill="#181818"/>
<path d="M174.909 125.539L175.131 118.706C173.966 119.709 172.707 123.264 172.252 126.945C171.775 130.805 174.776 129.639 174.909 125.539Z" fill="#181818"/>
<path d="M187.909 144.539L188.131 137.706C186.966 138.709 185.707 142.264 185.252 145.945C184.775 149.805 187.776 148.639 187.909 144.539Z" fill="#181818"/>
<path d="M176.663 147.449L175.845 140.661C174.846 141.829 174.141 145.534 174.25 149.242C174.364 153.13 177.154 151.521 176.663 147.449Z" fill="#181818"/>
<rect x="115" y="164.645" width="89.208" height="15.12" rx="7.56" fill="#0E0E0E"/>
<rect x="298" y="24" width="523.359" height="348.622" rx="14" fill="#FFEA9A"/>
<path d="M298 295H821V330C821 333.866 817.866 337 814 337H305C301.134 337 298 333.866 298 330V295Z" fill="#E1CC7C"/>
<rect x="313" y="40" width="497" height="269" rx="14" fill="#181818"/>
<path d="M809.908 291.023V103.763C583.965 84.1883 473.827 232.432 447 309H791.913C807.909 309 810.575 297.015 809.908 291.023Z" fill="#2C2C2C"/>
<path d="M313 281H810V296C810 303.18 804.18 309 797 309H324C317.925 309 313 304.075 313 298V281Z" fill="#727272" fill-opacity="0.7"/>
<rect x="357" y="103" width="175" height="8" rx="4" fill="#F5EAB8"/>
<path d="M553 101.655L560.784 113L585 89" stroke="#CA2E33" stroke-width="7" stroke-linecap="round" stroke-linejoin="round"/>
<rect x="357" y="159" width="175" height="8" rx="4" fill="#F5EAB8"/>
<path d="M553 157.655L560.784 169L585 145" stroke="#CA2E33" stroke-width="7" stroke-linecap="round"/>
<rect x="357" y="215" width="175" height="8" rx="4" fill="#F5EAB8"/>
<path d="M553 213.655L560.784 225L585 201" stroke="#CA2E33" stroke-width="7" stroke-linecap="round" stroke-linejoin="round"/>
<rect x="485.82" y="372.621" width="149.671" height="62.2898" fill="#B9A454"/>
<rect x="486" y="373" width="149" height="27" fill="#A59040"/>
<rect x="429.082" y="434.91" width="265.104" height="19.0888" rx="9.5444" fill="#FFEA9A"/>
<rect x="506" y="351" width="108" height="7" rx="3.5" fill="#8E0000"/>
<path d="M765.664 243.319L748.545 176.08C748.224 174.818 747.127 173.908 745.828 173.826L682.63 169.82C681.372 169.741 680.199 170.455 679.693 171.609L651.991 234.777C650.931 237.194 653.284 239.704 655.764 238.802L672.42 232.745C674.004 232.169 675.752 233.01 676.289 234.608L681.517 250.15C682.404 252.789 686.095 252.901 687.141 250.32L710.353 193.026C711.464 190.284 715.454 190.635 716.068 193.53L728.199 250.693C728.756 253.314 732.208 253.947 733.658 251.692L742.957 237.226C743.892 235.773 745.858 235.407 747.253 236.428L760.985 246.48C763.256 248.141 766.359 246.045 765.664 243.319Z" fill="#E7D79F"/>
<path d="M706.381 76.6062C709.254 71.5094 716.594 71.5095 719.468 76.6062C721.761 80.6743 727.172 81.6857 730.78 78.7208C735.3 75.0062 742.144 77.6576 742.983 83.4482C743.652 88.0702 748.331 90.9677 752.767 89.5065C758.324 87.6757 763.748 92.6205 762.438 98.3228C761.392 102.874 764.709 107.267 769.373 107.506C775.217 107.807 778.488 114.377 775.206 119.221C772.587 123.087 774.093 128.382 778.356 130.29C783.696 132.681 784.373 139.989 779.563 143.321C775.724 145.98 775.216 151.46 778.501 154.78C782.617 158.938 780.609 165.998 774.92 167.367C770.38 168.459 767.926 173.386 769.791 177.668C772.126 183.033 767.703 188.89 761.904 188.112C757.276 187.49 753.208 191.198 753.4 195.865C753.64 201.711 747.399 205.574 742.273 202.754C738.182 200.502 733.049 202.491 731.542 206.911C729.654 212.449 722.439 213.798 718.678 209.316C715.676 205.738 710.172 205.738 707.17 209.316C703.409 213.798 696.195 212.449 694.307 206.911C692.8 202.491 687.667 200.502 683.576 202.754C678.449 205.574 672.209 201.711 672.449 195.865C672.641 191.198 668.573 187.49 663.945 188.112C658.146 188.89 653.722 183.033 656.058 177.668C657.922 173.386 655.469 168.459 650.929 167.367C645.24 165.998 643.231 158.938 647.347 154.78C650.632 151.46 650.125 145.98 646.285 143.321C641.475 139.989 642.153 132.681 647.493 130.29C651.755 128.382 653.262 123.087 650.642 119.221C647.361 114.377 650.632 107.807 656.475 107.506C661.139 107.267 664.456 102.874 663.411 98.3228C662.1 92.6205 667.524 87.6757 673.082 89.5065C677.517 90.9677 682.197 88.0702 682.866 83.4482C683.704 77.6576 690.548 75.0062 695.069 78.7208C698.677 81.6857 704.088 80.6743 706.381 76.6062Z" fill="#D4383D"/>
<circle cx="712.971" cy="142.971" r="46.3456" fill="#8E0000"/>
<path d="M713.516 115.162L719.605 134.043L739.444 134L723.369 145.626L729.54 164.48L713.516 152.784L697.492 164.48L703.663 145.626L687.588 134L707.427 134.043L713.516 115.162Z" fill="url(#paint0_linear_567_23476)"/>
<rect x="413.996" y="380.162" width="73.594" height="368.89" rx="12" transform="rotate(90 413.996 380.162)" fill="#CA2E33"/>
<path d="M413.996 422.479L413.996 441.756C413.996 448.383 408.624 453.756 401.996 453.756L57.1062 453.756C50.4788 453.756 45.1062 448.383 45.1062 441.756L45.1062 422.478L413.996 422.479Z" fill="#B61A1F"/>
<rect x="401.117" y="390.281" width="53.3556" height="199.624" rx="7" transform="rotate(90 401.117 390.281)" fill="white" fill-opacity="0.6"/>
<rect x="388.379" y="396.721" width="40.4767" height="4.40654" rx="2.20327" transform="rotate(90 388.379 396.721)" fill="#980A0A"/>
<rect x="218.457" y="396.721" width="40.4767" height="4.40654" rx="2.20327" transform="rotate(90 218.457 396.721)" fill="#980A0A"/>
<circle cx="115.021" cy="416.959" r="26.6778" transform="rotate(90 115.021 416.959)" fill="#FF6A6F"/>
<circle cx="115.483" cy="417.419" r="21.6182" transform="rotate(90 115.483 417.419)" fill="#980A0A"/>
<rect x="413.996" y="244" width="73.594" height="368.89" rx="12" transform="rotate(90 413.996 244)" fill="#CA2E33"/>
<path d="M413.891 286.816L413.89 306.094C413.89 312.721 408.517 318.094 401.89 318.093L56.9998 318.083C50.3724 318.082 44.9999 312.71 45.0002 306.082L45.0008 286.805L413.891 286.816Z" fill="#B61A1F"/>
<rect x="401.117" y="254.119" width="53.3556" height="199.624" rx="7" transform="rotate(90 401.117 254.119)" fill="white" fill-opacity="0.6"/>
<rect x="388.379" y="260.561" width="40.4767" height="4.40653" rx="2.20327" transform="rotate(90 388.379 260.561)" fill="#980A0A"/>
<rect x="218.457" y="260.559" width="40.4767" height="4.40653" rx="2.20327" transform="rotate(90 218.457 260.559)" fill="#980A0A"/>
<circle cx="115.021" cy="280.797" r="26.6778" transform="rotate(90 115.021 280.797)" fill="#FF6A6F"/>
<circle cx="115.483" cy="281.259" r="21.6182" transform="rotate(90 115.483 281.259)" fill="#980A0A"/>
<rect x="413.996" y="380.162" width="368.89" height="61.635" rx="11" transform="rotate(-180 413.996 380.162)" fill="#AB8636"/>
<path d="M413.996 369.162C413.996 375.237 409.071 380.162 402.996 380.162L56.1062 380.162C50.031 380.162 45.1062 375.237 45.1062 369.162L45.1062 361.764L413.996 361.764L413.996 369.162Z" fill="#977222"/>
<path fill-rule="evenodd" clip-rule="evenodd" d="M378.723 370.963L314.969 370.963C312.759 370.963 310.969 369.172 310.969 366.963L310.969 332.646C310.969 330.437 312.759 328.646 314.969 328.646L378.723 328.646C380.932 328.646 382.723 330.437 382.723 332.646L382.723 336.926C382.723 338.766 381.803 339.686 380.883 339.686C367.084 339.686 366.624 359.924 380.883 359.924C381.899 359.924 382.723 360.748 382.723 361.764L382.723 362.684L382.723 366.963C382.723 369.172 380.932 370.963 378.723 370.963Z" fill="white"/>
<rect x="95.7031" y="370.963" width="7.3594" height="42.3166" rx="3.6797" transform="rotate(-180 95.7031 370.963)" fill="#F5EAB8"/>
<rect x="351.438" y="361.703" width="4.77837" height="22.9362" rx="2.38918" transform="rotate(-180 351.438 361.703)" fill="#B5B5B5"/>
<rect x="339.969" y="361.703" width="4.77837" height="22.9362" rx="2.38918" transform="rotate(-180 339.969 361.703)" fill="#B5B5B5"/>
<rect x="328.508" y="361.703" width="4.77837" height="22.9362" rx="2.38918" transform="rotate(-180 328.508 361.703)" fill="#B5B5B5"/>
</g>
<defs>
<linearGradient id="paint0_linear_567_23476" x1="713.516" y1="115.162" x2="713.516" y2="169.686" gradientUnits="userSpaceOnUse">
<stop stop-color="#AB8636"/>
<stop offset="1" stop-color="#F5EAB8"/>
</linearGradient>
<clipPath id="clip0_567_23476">
<rect width="835" height="456" fill="white"/>
</clipPath>
</defs>
</svg>
