<svg width="970" height="557" viewBox="0 0 970 557" fill="none" xmlns="http://www.w3.org/2000/svg">
<g clip-path="url(#clip0_594_10590)">
<path fill-rule="evenodd" clip-rule="evenodd" d="M52.5261 279.205C54.0834 218.121 50.5907 153.864 94.5989 103.244C139.364 51.7544 212.14 11.2408 294.226 1.19213C371.869 -8.31264 440.339 41.8521 518.785 51.317C603.163 61.4977 694.279 26.3336 768.909 58.4651C847.211 92.1775 905.169 156.811 917.217 222.859C928.976 287.321 880.546 347.953 831.251 400.231C790.343 443.615 723.595 464.994 662.789 492.685C608.725 517.305 557.995 545.439 494.953 553.38C427.898 561.826 360.008 554.853 294.353 539.094C217.829 520.726 131.645 504.584 85.6281 455.13C38.8972 404.909 50.9931 339.337 52.5261 279.205Z" fill="#2A2A2A"/>
<path d="M198.188 116.139H265.154L258.122 171.721H206.223L198.188 116.139Z" fill="#5A5A5A"/>
<path d="M264.484 122.166C228.341 122.992 218.174 155.547 217.607 171.721H258.369C260.068 158.759 263.669 130.7 264.484 122.166Z" fill="#404040"/>
<rect x="192.158" y="104.084" width="79.0202" height="13.3933" rx="6.69663" fill="#404040"/>
<path d="M164.875 74.8658C178.857 79.1526 188.654 100.011 210.82 104.068C210.878 104.079 210.935 104.084 210.994 104.084H251.261C251.376 104.084 251.482 104.064 251.59 104.025C268.407 97.945 273.792 88.2445 297.202 80.9881C298.168 80.6886 298.165 79.2961 297.185 79.0434C271.603 72.4416 262.95 77.1671 256.386 83.1266C255.478 83.9512 254.581 83.0289 255.272 82.0154C268.018 63.3194 260.877 44.8449 276.663 32.0314C277.516 31.3385 276.9 29.8192 275.829 30.0677C252.435 35.4951 242.889 50.8531 235.687 79.9765C242.472 47.6643 230.549 41.857 244.451 8.08852C244.85 7.12001 243.669 6.20315 242.842 6.84542C226.52 19.5159 214.091 27.3332 220.156 70.9874C220.316 72.1409 218.8 72.6145 218.372 71.5314C210.479 51.5484 211.283 38.5854 191.717 23.1357C190.777 22.3932 189.234 24.0338 189.836 25.0698C200.281 43.0385 187.46 60.8252 216.936 92.3653C200.23 74.4892 182.134 66.1994 164.189 70.8464C163.003 71.1534 163.704 74.5067 164.875 74.8658Z" fill="#5A5A5A"/>
<path d="M171.449 78.1034C188.134 89.6087 188.997 98.7021 211.944 105.384C212.035 105.41 212.126 105.424 212.22 105.424H245.198C245.349 105.424 245.493 105.388 245.629 105.321C267.926 94.3979 268.874 83.8216 291.041 79.331C292.059 79.1249 292.167 77.7101 291.168 77.4278C272.25 72.0828 260.007 79.4397 251.256 86.4187C250.298 87.1825 248.58 85.5271 249.158 84.4468C257.68 68.5119 253.069 50.6448 261.982 38.8011C262.694 37.8544 261.473 35.9249 260.429 36.4846C244.464 45.0414 237.989 60.0363 232.47 84.0672C238.019 55.6126 223.866 42.553 241.62 10.5025C242.146 9.55309 241.006 8.47979 240.129 9.11876C225.903 19.4798 215.174 30.6507 219.544 67.8482C219.681 69.0142 217.993 69.4894 217.538 68.4073C210.79 52.3604 208.407 45.6434 196.462 33.8652C195.671 33.0847 194.001 34.1686 194.222 35.2581C196.659 47.2683 191.619 63.307 217.043 95.0426C201.266 76.8652 194.156 75.6972 171.994 76.2109C171.008 76.2338 170.638 77.5438 171.449 78.1034Z" fill="#222222"/>
<rect x="229.635" y="205.676" width="645.872" height="343.667" fill="#DF4043"/>
<g style="mix-blend-mode:lighten">
<rect x="259.877" y="224.436" width="6.48032" height="306.145" fill="#F35457"/>
<rect x="286.518" y="224.436" width="6.48032" height="306.145" fill="#F35457"/>
<rect x="313.162" y="224.436" width="6.48032" height="306.145" fill="#F35457"/>
<rect x="339.803" y="224.436" width="6.48032" height="306.145" fill="#F35457"/>
<rect x="366.441" y="224.436" width="6.48032" height="306.145" fill="#F35457"/>
<rect x="393.082" y="224.436" width="6.48032" height="306.145" fill="#F35457"/>
<rect x="419.727" y="224.436" width="6.48032" height="306.145" fill="#F35457"/>
<rect x="446.359" y="224.436" width="6.48032" height="306.145" fill="#F35457"/>
<rect x="473.004" y="224.436" width="6.48032" height="306.145" fill="#F35457"/>
<rect x="499.648" y="224.436" width="6.48032" height="306.145" fill="#F35457"/>
<rect x="526.285" y="224.436" width="6.48032" height="306.145" fill="#F35457"/>
<rect x="552.934" y="224.436" width="6.48032" height="306.145" fill="#F35457"/>
<rect x="579.568" y="224.436" width="6.48032" height="306.145" fill="#F35457"/>
<rect x="606.209" y="224.436" width="6.48032" height="306.145" fill="#F35457"/>
<rect x="632.857" y="224.436" width="6.48032" height="306.145" fill="#F35457"/>
<rect x="659.494" y="224.436" width="6.48032" height="306.145" fill="#F35457"/>
<rect x="686.143" y="224.436" width="6.48032" height="306.145" fill="#F35457"/>
<rect x="712.779" y="224.436" width="6.48032" height="306.145" fill="#F35457"/>
<rect x="739.42" y="224.436" width="6.48032" height="306.145" fill="#F35457"/>
<rect x="766.064" y="224.436" width="6.48032" height="306.145" fill="#F35457"/>
<rect x="792.707" y="224.436" width="6.48032" height="306.145" fill="#F35457"/>
<rect x="819.34" y="224.436" width="6.48032" height="306.145" fill="#F35457"/>
<rect x="266.354" y="224.436" width="5.04025" height="306.145" fill="#FF686B"/>
<rect x="292.998" y="224.436" width="5.04025" height="306.145" fill="#FF686B"/>
<rect x="319.639" y="224.436" width="5.04025" height="306.145" fill="#FF686B"/>
<rect x="346.279" y="224.436" width="5.04025" height="306.145" fill="#FF686B"/>
<rect x="372.924" y="224.436" width="5.04025" height="306.145" fill="#FF686B"/>
<rect x="399.559" y="224.436" width="5.04025" height="306.145" fill="#FF686B"/>
<rect x="426.211" y="224.436" width="5.04025" height="306.145" fill="#FF686B"/>
<rect x="452.844" y="224.436" width="5.04025" height="306.145" fill="#FF686B"/>
<rect x="479.484" y="224.436" width="5.04025" height="306.145" fill="#FF686B"/>
<rect x="506.133" y="224.436" width="5.04025" height="306.145" fill="#FF686B"/>
<rect x="532.77" y="224.436" width="5.04025" height="306.145" fill="#FF686B"/>
<rect x="559.408" y="224.436" width="5.04025" height="306.145" fill="#FF686B"/>
<rect x="586.055" y="224.436" width="5.04025" height="306.145" fill="#FF686B"/>
<rect x="612.686" y="224.436" width="5.04025" height="306.145" fill="#FF686B"/>
<rect x="639.346" y="224.436" width="5.04025" height="306.145" fill="#FF686B"/>
<rect x="665.971" y="224.436" width="5.04025" height="306.145" fill="#FF686B"/>
<rect x="692.619" y="224.436" width="5.04025" height="306.145" fill="#FF686B"/>
<rect x="719.26" y="224.436" width="5.04025" height="306.145" fill="#FF686B"/>
<rect x="745.9" y="224.436" width="5.04025" height="306.145" fill="#FF686B"/>
<rect x="772.543" y="224.436" width="5.04025" height="306.145" fill="#FF686B"/>
<rect x="799.184" y="224.436" width="5.04025" height="306.145" fill="#FF686B"/>
<rect x="825.828" y="224.436" width="5.04025" height="306.145" fill="#FF686B"/>
<rect x="271.395" y="224.436" width="10.0805" height="306.145" fill="#DF4043"/>
<rect x="298.039" y="224.436" width="10.0805" height="306.145" fill="#DF4043"/>
<rect x="324.68" y="224.436" width="10.0805" height="306.145" fill="#DF4043"/>
<rect x="351.32" y="224.436" width="10.0805" height="306.145" fill="#DF4043"/>
<rect x="377.965" y="224.436" width="10.0805" height="306.145" fill="#DF4043"/>
<rect x="404.6" y="224.436" width="10.0805" height="306.145" fill="#DF4043"/>
<rect x="431.248" y="224.436" width="10.0805" height="306.145" fill="#DF4043"/>
<rect x="457.885" y="224.436" width="10.0805" height="306.145" fill="#DF4043"/>
<rect x="484.529" y="224.436" width="10.0805" height="306.145" fill="#DF4043"/>
<rect x="511.17" y="224.436" width="10.0805" height="306.145" fill="#DF4043"/>
<rect x="537.811" y="224.436" width="10.0805" height="306.145" fill="#DF4043"/>
<rect x="564.455" y="224.436" width="10.0805" height="306.145" fill="#DF4043"/>
<rect x="591.094" y="224.436" width="10.0805" height="306.145" fill="#DF4043"/>
<rect x="617.742" y="224.436" width="10.0805" height="306.145" fill="#DF4043"/>
<rect x="644.375" y="224.436" width="10.0805" height="306.145" fill="#DF4043"/>
<rect x="671.016" y="224.436" width="10.0805" height="306.145" fill="#DF4043"/>
<rect x="697.656" y="224.436" width="10.0805" height="306.145" fill="#DF4043"/>
<rect x="724.297" y="224.436" width="10.0805" height="306.145" fill="#DF4043"/>
<rect x="750.941" y="224.436" width="10.0805" height="306.145" fill="#DF4043"/>
<rect x="777.584" y="224.436" width="10.0805" height="306.145" fill="#DF4043"/>
<rect x="804.225" y="224.436" width="10.0805" height="306.145" fill="#DF4043"/>
<rect x="830.869" y="224.436" width="10.0805" height="306.145" fill="#DF4043"/>
<rect x="281.477" y="224.436" width="5.04025" height="306.145" fill="#C12225"/>
<rect x="308.117" y="224.436" width="5.04025" height="306.145" fill="#C12225"/>
<rect x="334.762" y="224.436" width="5.04025" height="306.145" fill="#C12225"/>
<rect x="361.406" y="224.436" width="5.04025" height="306.145" fill="#C12225"/>
<rect x="388.047" y="224.436" width="5.04025" height="306.145" fill="#C12225"/>
<rect x="414.682" y="224.436" width="5.04025" height="306.145" fill="#C12225"/>
<rect x="441.326" y="224.436" width="5.04025" height="306.145" fill="#C12225"/>
<rect x="467.971" y="224.436" width="5.04025" height="306.145" fill="#C12225"/>
<rect x="494.611" y="224.436" width="5.04025" height="306.145" fill="#C12225"/>
<rect x="521.248" y="224.436" width="5.04025" height="306.145" fill="#C12225"/>
<rect x="547.889" y="224.436" width="5.04025" height="306.145" fill="#C12225"/>
<rect x="574.537" y="224.436" width="5.04025" height="306.145" fill="#C12225"/>
<rect x="601.172" y="224.436" width="5.04025" height="306.145" fill="#C12225"/>
<rect x="627.809" y="224.436" width="5.04025" height="306.145" fill="#C12225"/>
<rect x="654.453" y="224.436" width="5.04025" height="306.145" fill="#C12225"/>
<rect x="681.098" y="224.436" width="5.04025" height="306.145" fill="#C12225"/>
<rect x="707.738" y="224.436" width="5.04025" height="306.145" fill="#C12225"/>
<rect x="734.379" y="224.436" width="5.04025" height="306.145" fill="#C12225"/>
<rect x="761.021" y="224.436" width="5.04025" height="306.145" fill="#C12225"/>
<rect x="787.666" y="224.436" width="5.04025" height="306.145" fill="#C12225"/>
<rect x="814.311" y="224.436" width="5.04025" height="306.145" fill="#C12225"/>
<rect x="840.947" y="224.436" width="5.04025" height="306.145" fill="#C12225"/>
</g>
<rect x="258.779" y="222.672" width="588.309" height="309.672" rx="13.5" stroke="#A30407" stroke-width="5"/>
<rect x="221" y="198" width="34.5617" height="24.7303" rx="11" fill="#A30407"/>
<rect x="221" y="532.287" width="34.5617" height="24.7303" rx="11" fill="#A30407"/>
<rect x="849.588" y="198" width="34.5617" height="24.7303" rx="11" fill="#A30407"/>
<rect x="849.588" y="532.287" width="34.5617" height="24.7303" rx="11" fill="#A30407"/>
<ellipse cx="229.639" cy="210.792" rx="4.32021" ry="5.11662" fill="#FF686B"/>
<ellipse cx="875.512" cy="210.792" rx="4.32021" ry="5.11662" fill="#FF686B"/>
<ellipse cx="229.639" cy="545.078" rx="4.32021" ry="5.11662" fill="#FF686B"/>
<ellipse cx="875.512" cy="545.078" rx="4.32021" ry="5.11662" fill="#FF686B"/>
<rect x="115.139" y="2.28711" width="12.7416" height="552.49" rx="6.37078" fill="#D9D9D9" stroke="#6B6B6B" stroke-width="4"/>
<rect x="610.689" y="2.28711" width="12.7416" height="552.49" rx="6.37078" fill="#D9D9D9" stroke="#6B6B6B" stroke-width="4"/>
<mask id="path-107-inside-1_594_10590" fill="white">
<path d="M611.369 173.061L611.369 189.802L127.203 189.802L127.203 173.061L611.369 173.061Z"/>
</mask>
<path d="M611.369 173.061L611.369 189.802L127.203 189.802L127.203 173.061L611.369 173.061Z" fill="#D9D9D9"/>
<path d="M611.369 185.802L127.203 185.802L127.203 193.802L611.369 193.802L611.369 185.802ZM127.203 177.061L611.369 177.061L611.369 169.061L127.203 169.061L127.203 177.061Z" fill="#6B6B6B" mask="url(#path-107-inside-1_594_10590)"/>
<mask id="path-109-inside-2_594_10590" fill="white">
<path d="M611.369 326.412L611.369 343.154L127.203 343.154L127.203 326.412L611.369 326.412Z"/>
</mask>
<path d="M611.369 326.412L611.369 343.154L127.203 343.154L127.203 326.412L611.369 326.412Z" fill="#D9D9D9"/>
<path d="M611.369 339.154L127.203 339.154L127.203 347.154L611.369 347.154L611.369 339.154ZM127.203 330.412L611.369 330.412L611.369 322.412L127.203 322.412L127.203 330.412Z" fill="#6B6B6B" mask="url(#path-109-inside-2_594_10590)"/>
<circle cx="121.844" cy="181.096" r="4.68764" fill="#BBBBBB"/>
<circle cx="617.395" cy="181.096" r="4.68764" fill="#BBBBBB"/>
<circle cx="121.844" cy="334.449" r="4.68764" fill="#BBBBBB"/>
<circle cx="617.395" cy="334.449" r="4.68764" fill="#BBBBBB"/>
<rect x="152.008" y="241.738" width="166.013" height="85.0469" rx="10" fill="#F5EAB8"/>
<rect x="143.273" y="225.963" width="183.488" height="27.4345" rx="10" fill="#AB8636"/>
<rect x="211.299" y="273.287" width="44.9357" height="14.4031" rx="7.20155" fill="#AB8636"/>
<path d="M297.118 320.955H226.906C289.317 319.035 308.352 306.552 313.345 281.861C313.241 289.863 313.345 305.181 313.345 311.696C313.345 318.898 307.728 320.955 297.118 320.955Z" fill="#D7CC9A"/>
<path d="M348.838 54.7597C348.838 37.0866 363.165 22.7598 380.838 22.7598H560.124C577.797 22.7598 592.124 37.0867 592.124 54.7598V163.105C592.124 168.628 587.646 173.105 582.124 173.105H358.838C353.315 173.105 348.838 168.628 348.838 163.105V54.7597Z" fill="#EBE0AE"/>
<path d="M394.668 45.9945H557.496C412.76 49.6424 368.615 73.354 357.036 120.256C357.277 105.056 357.036 75.9596 357.036 63.5827C357.036 49.903 370.062 45.9945 394.668 45.9945Z" fill="#F5EAB8"/>
<path d="M350.925 42.6842L356.704 33.8951C362.252 25.4574 371.672 20.377 381.77 20.377H556.025C565.877 20.377 575.102 25.2143 580.704 33.3188L588.208 44.176C589.584 46.1659 588.159 48.8818 585.74 48.8818H354.267C351.084 48.8818 349.176 45.344 350.925 42.6842Z" fill="#C3B886"/>
<path d="M484.903 43.7598L485.428 41.962C489.167 29.1695 500.896 20.377 514.224 20.377H561.198C574.373 20.377 586.006 28.9729 589.875 41.567L590.93 45.0008C591.523 46.9297 590.08 48.8818 588.062 48.8818H488.742C486.075 48.8818 484.155 46.3203 484.903 43.7598Z" fill="#AFA472"/>
<path d="M370.076 45.8324L425.736 46.8926C375.54 45.4216 370.451 44.5928 366.436 25.6797C363.432 31.9494 360.198 36.8756 358.063 40.6823C355.466 45.3126 361.542 45.8324 370.076 45.8324Z" fill="#D7CC9A"/>
<path d="M446.549 49.2815L455.956 20.377H489.025L494.035 49.2815H446.549Z" fill="#CA2E33"/>
<path d="M467.693 48.9988L473.751 20.377H489.023L493.93 48.9988H467.693Z" fill="#C02429"/>
<path d="M446.23 48.998H493.934V63.1852C493.934 74.2309 484.979 83.1852 473.934 83.1852H466.23C455.185 83.1852 446.23 74.2309 446.23 63.1852V48.998Z" fill="#E84C51"/>
<path d="M467.693 48.998H493.93V69.2718C493.93 76.5169 488.057 82.3902 480.812 82.3902C473.567 82.3902 467.693 76.5169 467.693 69.2718V48.998Z" fill="#DE4247"/>
<path d="M405.79 129.446C405.79 127.237 407.581 125.446 409.79 125.446H418.237C420.446 125.446 422.237 127.237 422.237 129.446V137.314C422.237 138.736 421.084 139.888 419.663 139.888C418.241 139.888 417.089 138.736 417.089 137.314V133.077C417.089 131.329 415.671 129.911 413.922 129.911C412.174 129.911 410.756 131.329 410.756 133.077V138.271C410.756 139.642 409.644 140.754 408.273 140.754C406.902 140.754 405.79 139.642 405.79 138.271V129.446ZM411.212 114.33C411.212 112.87 412.395 111.687 413.854 111.687C415.313 111.687 416.496 112.87 416.496 114.33V124.763C416.496 126.222 415.313 127.405 413.854 127.405C412.395 127.405 411.212 126.222 411.212 124.763V114.33ZM406.337 112.302C406.337 111.082 407.326 110.093 408.546 110.093H419.389C420.61 110.093 421.599 111.082 421.599 112.302C421.599 113.523 420.61 114.512 419.389 114.512H408.546C407.326 114.512 406.337 113.523 406.337 112.302ZM404.196 119.865C404.196 118.62 405.205 117.61 406.451 117.61H420.939C422.184 117.61 423.194 118.62 423.194 119.865C423.194 121.111 422.184 122.12 420.939 122.12H406.451C405.205 122.12 404.196 121.111 404.196 119.865ZM423.695 116.744C423.695 115.411 424.776 114.33 426.109 114.33H440.187C441.521 114.33 442.602 115.411 442.602 116.744C442.602 118.078 441.521 119.159 440.187 119.159H426.109C424.776 119.159 423.695 118.078 423.695 116.744ZM424.242 102.462C424.242 101.166 425.292 100.115 426.588 100.115H439.071C440.367 100.115 441.417 101.166 441.417 102.462C441.417 103.757 440.367 104.808 439.071 104.808H426.588C425.292 104.808 424.242 103.757 424.242 102.462ZM407.612 136.449C407.612 135.228 408.602 134.239 409.822 134.239H417.476C418.696 134.239 419.686 135.228 419.686 136.449C419.686 137.669 418.696 138.658 417.476 138.658H409.822C408.602 138.658 407.612 137.669 407.612 136.449ZM431.303 120.389C431.303 118.905 432.507 117.701 433.991 117.701C435.476 117.701 436.679 118.905 436.679 120.389V135.196C436.679 137.838 436.224 139.296 434.401 140.116C432.987 140.769 431.141 140.96 428.747 141.011C427.633 141.034 426.706 140.258 426.418 139.181C425.996 137.607 427.11 135.823 428.74 135.83C429.498 135.834 430.102 135.834 430.392 135.834C431.075 135.788 431.303 135.651 431.303 135.059V120.389ZM439.322 100.921C439.322 100.476 439.682 100.115 440.128 100.115H440.498C440.594 100.115 440.69 100.104 440.783 100.08L440.879 100.056C441.425 99.9199 442.002 100.022 442.468 100.336L442.833 100.583C444.172 101.487 444.548 103.303 443.566 104.587C441.621 107.13 439.228 109.624 436.754 111.54C435.858 112.235 434.569 111.993 433.792 111.167C432.89 110.21 432.96 108.634 433.935 107.753C436.139 105.763 438.176 103.246 439.23 101.29C439.292 101.177 439.322 101.05 439.322 100.921ZM440.962 115.028C440.962 114.642 441.274 114.33 441.66 114.33C441.711 114.33 441.761 114.324 441.811 114.313L442.011 114.269C442.37 114.189 442.743 114.187 443.103 114.265L443.235 114.293C444.967 114.664 446.065 116.381 445.625 118.097C445.054 120.32 444.422 122.531 443.82 124.393C443.453 125.529 442.283 126.179 441.115 125.939C439.717 125.651 438.872 124.216 439.24 122.837C439.875 120.46 440.527 117.598 440.951 115.164C440.958 115.124 440.962 115.084 440.962 115.043V115.028ZM428.77 110.97C427.344 110.253 426.935 108.352 428.018 107.178C428.654 106.489 429.646 106.251 430.512 106.611C433.393 107.811 436.635 109.468 439.065 111.09C440.284 111.904 440.391 113.58 439.411 114.67C438.416 115.779 436.689 115.851 435.481 114.977C433.605 113.619 431.173 112.178 428.77 110.97ZM410.439 99.4473C410.757 98.7817 411.417 98.3385 412.155 98.3385H413.49C413.766 98.3385 413.991 98.5629 413.991 98.8397C413.991 99.1165 414.215 99.3408 414.492 99.3408H414.788C415.228 99.3408 415.585 99.6978 415.585 100.138V100.566C415.585 100.778 415.531 100.986 415.426 101.171C413.768 104.076 411.446 107.884 407.966 111.446C407.108 112.324 405.669 112.159 404.838 111.255C403.913 110.246 403.851 108.511 404.806 107.531C407.3 104.973 409.184 102.078 410.439 99.4473ZM411.941 100.275C411.941 99.2054 412.807 98.3385 413.877 98.3385H414.767C415.414 98.3385 416.043 98.5587 416.539 98.9748C418.638 100.735 420.967 102.93 422.644 104.854C423.432 105.757 423.368 107.087 422.582 107.993C421.452 109.294 419.366 109.162 418.287 107.818C416.729 105.877 414.771 103.75 413.034 102.355C412.916 102.261 412.77 102.211 412.619 102.211C412.244 102.211 411.941 101.907 411.941 101.533V100.275Z" fill="#343434"/>
<path d="M453.992 102.462C453.992 101.065 455.124 99.9331 456.52 99.9331H461.714C463.11 99.9331 464.242 101.065 464.242 102.462C464.242 103.858 463.11 104.99 461.714 104.99H456.52C455.124 104.99 453.992 103.858 453.992 102.462ZM453.992 112.804C453.992 111.407 455.124 110.275 456.52 110.275H461.896C463.293 110.275 464.425 111.407 464.425 112.804C464.425 114.2 463.293 115.332 461.896 115.332H456.52C455.124 115.332 453.992 114.2 453.992 112.804ZM471.76 118.316C471.76 116.945 472.871 115.833 474.243 115.833H485.268C486.639 115.833 487.751 116.945 487.751 118.316C487.751 119.688 486.639 120.799 485.268 120.799H474.243C472.871 120.799 471.76 119.688 471.76 118.316ZM453.946 123.419C453.946 121.997 455.099 120.845 456.52 120.845H461.668C463.09 120.845 464.242 121.997 464.242 123.419C464.242 124.84 463.09 125.993 461.668 125.993H456.52C455.099 125.993 453.946 124.84 453.946 123.419ZM451.85 102.393C451.85 101.035 452.952 99.9331 454.311 99.9331C455.669 99.9331 456.771 101.035 456.771 102.393V116.517C456.771 122.97 456.418 131.927 454.192 138.61C453.749 139.941 452.071 140.362 450.842 139.687C449.756 139.09 449.198 137.736 449.596 136.562C451.669 130.45 451.85 122.487 451.85 116.517V102.393ZM461.19 102.462C461.19 101.065 462.322 99.9331 463.719 99.9331C465.115 99.9331 466.247 101.065 466.247 102.462V135.196C466.247 137.656 465.837 139.205 464.379 140.116C463.263 140.814 461.853 141.031 459.925 141.094C458.834 141.13 457.934 140.393 457.69 139.33C457.331 137.769 458.48 135.955 460.079 135.897C460.216 135.892 460.33 135.886 460.415 135.879C460.962 135.879 461.19 135.697 461.19 135.105V102.462ZM484.607 102.598C484.607 101.152 485.78 99.9787 487.227 99.9787C488.674 99.9787 489.847 101.152 489.847 102.598V108.817C489.847 111.186 489.346 112.507 487.432 113.236C485.901 113.811 483.822 113.902 481.143 113.917C480.225 113.922 479.457 113.298 479.184 112.422C478.755 111.042 479.732 109.426 481.178 109.437C482.32 109.445 483.265 109.433 483.651 109.409C484.38 109.409 484.607 109.273 484.607 108.726V102.598ZM486.247 116.674C486.247 116.21 486.628 115.833 487.092 115.833C487.136 115.833 487.181 115.83 487.224 115.823L487.372 115.799C487.801 115.732 488.239 115.766 488.652 115.9L488.726 115.924C490.181 116.395 491.08 117.867 490.752 119.36C488.672 128.853 484.431 135.616 478.465 139.897C477.524 140.572 476.242 140.246 475.555 139.314C474.711 138.168 474.908 136.316 476.041 135.453C481.166 131.553 484.886 124.745 486.236 116.814C486.244 116.768 486.247 116.721 486.247 116.674ZM476.301 119.726C477.432 119.434 478.586 120.084 478.997 121.177C481.174 126.971 484.795 132.07 489.614 135.285C490.928 136.162 491.22 138.209 490.262 139.465C489.558 140.389 488.309 140.699 487.337 140.064C481.537 136.276 477.437 129.994 474.797 122.475C474.383 121.297 475.092 120.038 476.301 119.726ZM468.798 103.979C468.798 101.77 470.589 99.9787 472.798 99.9787H483.354C484.751 99.9787 485.883 101.111 485.883 102.507C485.883 103.904 484.751 105.036 483.354 105.036H477.947C475.737 105.036 473.947 106.827 473.947 109.036V138.544C473.947 139.966 472.794 141.119 471.372 141.119C469.951 141.119 468.798 139.966 468.798 138.544V103.979Z" fill="#343434"/>
<path d="M499.779 108.111C499.779 106.79 500.849 105.719 502.17 105.719H509.765C511.974 105.719 513.765 107.51 513.765 109.719V132.426C513.765 134.635 511.974 136.426 509.765 136.426H502.193C500.86 136.426 499.779 135.345 499.779 134.011C499.779 132.678 500.86 131.597 502.193 131.597H504.799C507.008 131.597 508.799 129.806 508.799 127.597V114.503C508.799 112.294 507.008 110.503 504.799 110.503H502.17C500.849 110.503 499.779 109.432 499.779 108.111ZM496.589 108.202C496.589 106.831 497.701 105.719 499.072 105.719C500.444 105.719 501.555 106.831 501.555 108.202V137.314C501.555 138.686 500.444 139.797 499.072 139.797C497.701 139.797 496.589 138.686 496.589 137.314V108.202ZM499.551 120.252C499.551 118.944 500.611 117.883 501.92 117.883H508.845C510.153 117.883 511.214 118.944 511.214 120.252C511.214 121.561 510.153 122.622 508.845 122.622H501.92C500.611 122.622 499.551 121.561 499.551 120.252ZM502.704 101.09C502.94 99.5757 504.333 98.4778 505.85 98.6977C507.503 98.9375 508.536 100.619 507.982 102.195C507.534 103.473 507.087 104.704 506.666 105.8C506.255 106.87 505.118 107.455 503.999 107.21C502.669 106.919 501.85 105.575 502.129 104.242C502.343 103.22 502.541 102.137 502.704 101.09ZM519.779 107.883C519.779 106.512 520.891 105.4 522.262 105.4H530.599C531.971 105.4 533.082 106.512 533.082 107.883C533.082 109.254 531.971 110.366 530.599 110.366H522.262C520.891 110.366 519.779 109.254 519.779 107.883ZM531.214 106.448C531.214 105.869 531.683 105.4 532.262 105.4H533.811C535.17 105.4 536.316 106.504 536.226 107.86C535.634 128.362 535.087 135.606 533.219 138.021C531.943 139.797 530.668 140.298 528.8 140.572C527.436 140.787 525.421 140.805 523.335 140.735C522.373 140.704 521.627 140.074 521.403 139.138C521.034 137.592 522.186 135.54 523.774 135.595C525.039 135.639 526.065 135.651 526.658 135.651C527.57 135.651 528.071 135.469 528.663 134.831C530.121 133.282 530.713 125.446 531.214 106.448ZM519.235 100.896C519.645 99.4906 521.067 98.6089 522.493 98.9436C523.951 99.286 524.844 100.766 524.405 102.198C522.938 106.987 520.941 111.689 518.792 115.325C518.056 116.569 516.39 116.809 515.208 115.976C514 115.126 513.639 113.375 514.42 112.12C516.362 108.999 518.038 104.997 519.235 100.896ZM519.126 120.758C518.349 119.543 518.745 117.922 520.002 117.214C521.118 116.584 522.53 116.899 523.263 117.95C524.68 119.984 526.212 122.252 527.392 124.182C528.113 125.361 527.697 126.871 526.517 127.589C525.167 128.409 523.385 127.863 522.613 126.486C521.607 124.691 520.341 122.658 519.126 120.758Z" fill="#343434"/>
<path d="M543.102 163.537H380.273C525.01 159.889 569.155 136.177 580.733 89.2754C580.492 104.475 580.733 133.572 580.733 145.949C580.733 159.628 567.707 163.537 543.102 163.537Z" fill="#CDC290" fill-opacity="0.5"/>
<rect x="364.943" y="393.391" width="209.449" height="163.61" fill="#F5EAB8"/>
<rect x="354.188" y="367.262" width="230.96" height="32.9709" rx="14" fill="#AB8636"/>
<path d="M539.859 367.262H571.146C578.878 367.262 585.146 373.53 585.146 381.262V386.233C585.146 393.965 578.878 400.233 571.146 400.233H539.859V367.262Z" fill="#8D6818"/>
<path d="M531.369 400.232H574.391V543C574.391 550.732 568.123 557 560.391 557H531.369V400.232Z" fill="#D7CC9A"/>
<path d="M509.634 518.451H513.396L508.127 538.073H511.723L516.992 518.451H520.75L521.63 515.182H510.514L509.634 518.451ZM502.866 518.451C504.14 518.451 504.502 519.169 504.066 520.806L503.459 523.062C502.969 524.893 501.994 525.483 500.652 525.483H499.245L501.134 518.451H502.866ZM503.447 538.073C503.314 537.222 503.501 536.404 503.8 535.294L504.747 531.764C505.386 529.375 505.266 527.643 503.667 526.891C505.469 526.14 506.636 524.603 507.267 522.247L507.749 520.449C508.696 516.918 507.562 515.182 503.833 515.182H498.406L492.256 538.077H495.852L498.356 528.756H499.598C501.234 528.756 501.74 529.541 501.171 531.668L500.204 535.265C499.702 537.13 499.739 537.488 499.776 538.077H503.439L503.447 538.073ZM480.501 532.578C479.517 536.242 480.883 538.335 484.417 538.335C487.95 538.335 490.438 536.242 491.422 532.578L494.619 520.673C495.603 517.01 494.237 514.916 490.703 514.916C487.17 514.916 484.682 517.01 483.698 520.673L480.501 532.578ZM487.357 520.445C487.797 518.808 488.681 518.189 489.827 518.189C490.973 518.189 491.526 518.812 491.085 520.445L487.764 532.806C487.323 534.443 486.439 535.062 485.293 535.062C484.147 535.062 483.595 534.439 484.035 532.806L487.357 520.445ZM476.938 518.451H482.855L483.736 515.182H474.223L468.073 538.077H471.669L474.206 528.623H478.848L479.729 525.354H475.086L476.938 518.455V518.451ZM461.857 538.073H465.453L471.607 515.182H468.011L461.861 538.077L461.857 538.073ZM458.693 518.451H464.905L465.785 515.182H455.977L449.828 538.077H459.636L460.516 534.808H454.304L456.106 528.104H461.043L461.923 524.835H456.986L458.701 518.459L458.693 518.451ZM443.259 515.182H438.255L432.105 538.077H435.245L439.592 521.886L437.923 538.077H441.324L448.221 521.658L443.811 538.077H447.212L453.361 515.182H448.358L441.54 531.436L443.259 515.182Z" fill="#343434"/>
<mask id="mask0_594_10590" style="mask-type:luminance" maskUnits="userSpaceOnUse" x="376" y="514" width="57" height="25">
<path d="M408.84 538.401L412.739 523.842H430.287L428.833 529.267H416.214L418.124 530.372L415.974 538.401H408.84ZM376.314 538.401L382.622 514.854H432.699L431.246 520.278H411.128V516.021L409.986 520.274L405.132 538.401H397.998L402.856 520.278H396.943L398.853 521.383L394.294 538.405H387.156L392.01 520.278H386.097L388.007 521.383L383.448 538.405H376.314V538.401Z" fill="white"/>
</mask>
<g mask="url(#mask0_594_10590)">
<path d="M432.699 514.854H376.314V538.401H432.699V514.854Z" fill="#343434"/>
</g>
<circle cx="121.922" cy="23.9336" r="5" fill="#787878"/>
<circle cx="121.922" cy="55.9336" r="5" fill="#787878"/>
<circle cx="121.922" cy="87.9336" r="5" fill="#787878"/>
<circle cx="121.922" cy="119.934" r="5" fill="#787878"/>
<circle cx="121.922" cy="151.934" r="5" fill="#787878"/>
<circle cx="121.922" cy="436.863" r="5" fill="#787878"/>
<circle cx="121.922" cy="468.863" r="5" fill="#787878"/>
<circle cx="121.922" cy="500.863" r="5" fill="#787878"/>
<circle cx="121.922" cy="532.863" r="5" fill="#787878"/>
<circle cx="617.768" cy="23.9336" r="5" fill="#787878"/>
<circle cx="617.768" cy="55.9336" r="5" fill="#787878"/>
<circle cx="617.768" cy="87.9336" r="5" fill="#787878"/>
<circle cx="617.768" cy="119.934" r="5" fill="#787878"/>
<circle cx="617.768" cy="151.934" r="5" fill="#787878"/>
<circle cx="617.768" cy="436.863" r="5" fill="#787878"/>
<circle cx="617.768" cy="468.863" r="5" fill="#787878"/>
<circle cx="617.768" cy="500.863" r="5" fill="#787878"/>
<circle cx="617.768" cy="532.863" r="5" fill="#787878"/>
</g>
<defs>
<clipPath id="clip0_594_10590">
<rect width="970" height="557" fill="white"/>
</clipPath>
</defs>
</svg>
