<svg width="970" height="557" viewBox="0 0 970 557" fill="none" xmlns="http://www.w3.org/2000/svg">
<path fill-rule="evenodd" clip-rule="evenodd" d="M61.3867 146.305C100.737 77.2786 224.224 78.3006 315.359 50.5622C385.04 29.3536 448.644 5.03339 523.581 5.62857C632.781 6.49589 757.623 -6.66933 832.208 54.6672C915.856 123.457 940.003 229.848 906.339 320.397C873.076 409.869 770.212 470.559 662.064 512.319C560.883 551.389 443.544 570.269 337.332 540.111C238.205 511.965 187.221 434.792 137.098 363.26C89.0808 294.735 20.7457 217.596 61.3867 146.305Z" fill="#2A2A2A"/>
<rect x="147" y="17.8359" width="23.5332" height="500.107" rx="11.7666" fill="#343434"/>
<rect x="496.467" y="17.8359" width="23.5332" height="500.107" rx="11.7666" fill="#343434"/>
<path d="M501.174 100.916L501.174 113.134L165.826 113.134L165.826 100.916L501.174 100.916Z" fill="#343434"/>
<path d="M501.174 343.639L501.174 355.856L165.826 355.856L165.826 343.639L501.174 343.639Z" fill="#343434"/>
<path d="M501.174 222.277L501.174 234.495L165.826 234.495L165.826 222.277L501.174 222.277Z" fill="#343434"/>
<path d="M501.174 465L501.174 477.218L165.826 477.218L165.826 465L501.174 465Z" fill="#343434"/>
<rect width="11.821" height="92.8538" transform="translate(152.883 27.6094)" fill="#343434"/>
<circle cx="157.883" cy="32.6094" r="5" fill="#282828"/>
<circle cx="157.883" cy="58.6094" r="5" fill="#282828"/>
<circle cx="157.883" cy="84.6094" r="5" fill="#282828"/>
<circle cx="157.883" cy="110.609" r="5" fill="#282828"/>
<circle cx="157.883" cy="136.609" r="5" fill="#282828"/>
<rect width="11.821" height="92.8538" transform="translate(152.883 415.316)" fill="#343434"/>
<circle cx="157.883" cy="420.316" r="5" fill="#282828"/>
<circle cx="157.883" cy="446.316" r="5" fill="#282828"/>
<circle cx="157.883" cy="472.316" r="5" fill="#282828"/>
<circle cx="157.883" cy="498.316" r="5" fill="#282828"/>
<rect width="11.821" height="92.8538" transform="translate(502.35 27.6094)" fill="#343434"/>
<circle cx="507.35" cy="32.6094" r="5" fill="#282828"/>
<circle cx="507.35" cy="58.6094" r="5" fill="#282828"/>
<circle cx="507.35" cy="84.6094" r="5" fill="#282828"/>
<circle cx="507.35" cy="110.609" r="5" fill="#282828"/>
<circle cx="507.35" cy="136.609" r="5" fill="#282828"/>
<rect width="11.821" height="92.8538" transform="translate(502.35 415.316)" fill="#343434"/>
<circle cx="507.35" cy="420.316" r="5" fill="#282828"/>
<circle cx="507.35" cy="446.316" r="5" fill="#282828"/>
<circle cx="507.35" cy="472.316" r="5" fill="#282828"/>
<circle cx="507.35" cy="498.316" r="5" fill="#282828"/>
<circle cx="507.35" cy="524.316" r="5" fill="#282828"/>
<rect x="206.092" y="140.027" width="177.145" height="77.4102" rx="10" fill="#181818"/>
<rect x="196.768" y="125.668" width="195.792" height="24.971" rx="10" fill="#404040"/>
<rect x="269.357" y="168.742" width="47.949" height="13.1098" rx="6.55489" fill="#545454"/>
<path d="M360.926 212.131H286.006C352.602 210.383 372.913 199.021 378.241 176.547C378.13 183.83 378.241 197.772 378.241 203.703C378.241 210.258 372.247 212.131 360.926 212.131Z" fill="#484848"/>
<rect x="206.092" y="21.1562" width="177.145" height="77.4102" rx="10" fill="#0E0E0E"/>
<rect x="196.768" y="6.79688" width="195.792" height="24.971" rx="10" fill="#404040"/>
<rect x="269.355" y="49.8711" width="47.949" height="13.1098" rx="6.55489" fill="#545454"/>
<path d="M360.926 93.2595H286.006C352.602 91.5115 372.913 80.1497 378.241 57.6758C378.13 64.959 378.241 78.9011 378.241 84.8318C378.241 91.3867 372.247 93.2595 360.926 93.2595Z" fill="#0E0E0E"/>
<path d="M803.998 63.0801H758.258L763.06 101.045H798.509L803.998 63.0801Z" fill="#404040"/>
<path d="M758.716 67.1973C783.403 67.7614 790.348 89.9976 790.734 101.045H762.892C761.732 92.1915 759.273 73.0266 758.716 67.1973Z" fill="#4A4A4A"/>
<path d="M793.953 0.481563C795.846 2.35938 793.759 4.90364 792.417 5.99818C791.356 5.83046 789.165 5.57657 786.728 5.57657C784.921 3.34751 788.734 -1.26985 788.534 0.481563C788.333 2.23297 788.935 1.5961 789.738 3.82516C789.738 1.78716 790.942 0.42849 791.544 0.00390625C791.41 1.3838 791.383 4.07991 792.347 3.82516C793.552 3.50672 792.949 2.55141 793.953 0.481563Z" fill="#545454"/>
<path d="M803.812 15.1493C807.523 23.372 801.647 45.1835 798.246 55.0614H776.6C773.508 47.3638 768.715 28.6046 774.281 15.1493C781.239 -1.66987 799.173 4.87091 803.812 15.1493Z" fill="#363636"/>
<path d="M771.819 22.3906C751.935 22.3907 759.59 45.4417 765.807 55.6674H780.296C784.458 52.5477 794.785 22.3905 771.819 22.3906Z" fill="#222222"/>
<path d="M796.832 21.1792V15.6325C795.914 16.4767 794.987 19.3921 794.715 22.3893C794.429 25.5318 796.832 24.5069 796.832 21.1792Z" fill="#4A4A4A"/>
<path d="M786.867 15.4813L785.582 10.0853C784.884 11.1192 784.658 14.17 785.087 17.1489C785.537 20.2721 787.637 18.7185 786.867 15.4813Z" fill="#4A4A4A"/>
<path d="M791.171 33.8924L790.775 28.3598C789.92 29.2673 789.203 32.2414 789.145 35.2505C789.084 38.4053 791.408 37.2116 791.171 33.8924Z" fill="#4A4A4A"/>
<path d="M793.28 46.7782L795.578 41.7301C796.064 42.879 795.7 45.9164 794.705 48.757C793.663 51.7354 791.901 49.8066 793.28 46.7782Z" fill="#4A4A4A"/>
<path d="M778.685 35.0592L780.399 31.2946C780.762 32.1514 780.49 34.4166 779.748 36.535C778.971 38.7561 777.657 37.3178 778.685 35.0592Z" fill="#0E0E0E"/>
<path d="M775.052 50.1862L776.766 46.4216C777.129 47.2783 776.857 49.5435 776.115 51.6619C775.338 53.8831 774.024 52.4447 775.052 50.1862Z" fill="#0E0E0E"/>
<path d="M771.868 31.186L771.734 27.0516C772.439 27.6587 773.2 29.8093 773.475 32.0368C773.764 34.3722 771.948 33.6663 771.868 31.186Z" fill="#0E0E0E"/>
<path d="M763.999 42.6821L763.865 38.5477C764.569 39.1548 765.331 41.3054 765.606 43.5329C765.895 45.8683 764.079 45.1624 763.999 42.6821Z" fill="#0E0E0E"/>
<path d="M770.805 44.4422L771.3 40.3354C771.905 41.0424 772.331 43.2837 772.265 45.5271C772.196 47.8793 770.508 46.906 770.805 44.4422Z" fill="#0E0E0E"/>
<rect width="53.9737" height="9.14809" rx="4.57404" transform="matrix(-1 0 0 1 808.115 54.8457)" fill="#4A4A4A"/>
<rect width="20.5261" height="500.107" rx="10.2631" transform="matrix(-1 0 0 1 878.998 17.834)" fill="#343434"/>
<rect width="20.5261" height="500.107" rx="10.2631" transform="matrix(-1 0 0 1 574.184 17.834)" fill="#343434"/>
<path d="M570.084 100.914L570.084 113.132L862.582 113.132L862.582 100.914L570.084 100.914Z" fill="#343434"/>
<path d="M570.084 343.637L570.084 355.854L862.582 355.854L862.582 343.637L570.084 343.637Z" fill="#343434"/>
<path d="M570.084 222.275L570.084 234.493L862.582 234.493L862.582 222.275L570.084 222.275Z" fill="#343434"/>
<path d="M570.084 464.998L570.084 477.216L862.582 477.216L862.582 464.998L570.084 464.998Z" fill="#343434"/>
<rect width="12.0873" height="92.8538" transform="matrix(-1 0 0 1 873.865 27.6074)" fill="#343434"/>
<circle cx="5" cy="5" r="5" transform="matrix(-1 0 0 1 873.865 27.6074)" fill="#282828"/>
<circle cx="5" cy="5" r="5" transform="matrix(-1 0 0 1 873.865 53.6074)" fill="#282828"/>
<circle cx="5" cy="5" r="5" transform="matrix(-1 0 0 1 873.865 79.6074)" fill="#282828"/>
<circle cx="5" cy="5" r="5" transform="matrix(-1 0 0 1 873.865 105.607)" fill="#282828"/>
<circle cx="5" cy="5" r="5" transform="matrix(-1 0 0 1 873.865 131.607)" fill="#282828"/>
<rect width="12.0873" height="92.8538" transform="matrix(-1 0 0 1 873.865 415.312)" fill="#343434"/>
<circle cx="5" cy="5" r="5" transform="matrix(-1 0 0 1 873.865 415.312)" fill="#282828"/>
<circle cx="5" cy="5" r="5" transform="matrix(-1 0 0 1 873.865 441.312)" fill="#282828"/>
<circle cx="5" cy="5" r="5" transform="matrix(-1 0 0 1 873.865 467.312)" fill="#282828"/>
<circle cx="5" cy="5" r="5" transform="matrix(-1 0 0 1 873.865 493.312)" fill="#282828"/>
<rect width="12.0873" height="92.8538" transform="matrix(-1 0 0 1 569.051 27.6074)" fill="#343434"/>
<circle cx="5" cy="5" r="5" transform="matrix(-1 0 0 1 569.051 27.6074)" fill="#282828"/>
<circle cx="5" cy="5" r="5" transform="matrix(-1 0 0 1 569.051 53.6074)" fill="#282828"/>
<circle cx="5" cy="5" r="5" transform="matrix(-1 0 0 1 569.051 79.6074)" fill="#282828"/>
<circle cx="5" cy="5" r="5" transform="matrix(-1 0 0 1 569.051 105.607)" fill="#282828"/>
<circle cx="5" cy="5" r="5" transform="matrix(-1 0 0 1 569.051 131.607)" fill="#282828"/>
<rect width="12.0873" height="92.8538" transform="matrix(-1 0 0 1 569.051 415.312)" fill="#343434"/>
<circle cx="5" cy="5" r="5" transform="matrix(-1 0 0 1 569.051 415.312)" fill="#282828"/>
<circle cx="5" cy="5" r="5" transform="matrix(-1 0 0 1 569.051 441.312)" fill="#282828"/>
<circle cx="5" cy="5" r="5" transform="matrix(-1 0 0 1 569.051 467.312)" fill="#282828"/>
<circle cx="5" cy="5" r="5" transform="matrix(-1 0 0 1 569.051 493.312)" fill="#282828"/>
<circle cx="5" cy="5" r="5" transform="matrix(-1 0 0 1 569.051 519.312)" fill="#282828"/>
<rect width="151.106" height="77.4102" rx="10" transform="matrix(-1 0 0 1 811.197 140.025)" fill="#181818"/>
<rect width="167.011" height="24.971" rx="10" transform="matrix(-1 0 0 1 819.152 125.668)" fill="#404040"/>
<rect width="40.9008" height="13.1098" rx="6.55489" transform="matrix(-1 0 0 1 757.234 168.742)" fill="#404040"/>
<path d="M679.124 212.131H743.031C686.225 210.383 668.899 199.021 664.354 176.547C664.449 183.83 664.354 197.772 664.354 203.703C664.354 210.258 669.467 212.131 679.124 212.131Z" fill="#181818"/>
<rect width="151.106" height="77.4102" rx="10" transform="matrix(-1 0 0 1 811.197 266.539)" fill="#181818"/>
<rect width="167.011" height="24.971" rx="10" transform="matrix(-1 0 0 1 819.152 252.182)" fill="#404040"/>
<rect width="40.9008" height="13.1098" rx="6.55489" transform="matrix(-1 0 0 1 757.234 295.256)" fill="#545454"/>
<path d="M679.124 338.644H743.031C686.225 336.896 668.899 325.534 664.354 303.061C664.449 310.344 664.354 324.286 664.354 330.217C664.354 336.771 669.467 338.644 679.124 338.644Z" fill="#181818"/>
<rect x="75" y="512" width="820" height="13" rx="6.5" fill="#AB8636"/>
<rect x="75" y="544" width="820" height="13" rx="6.5" fill="#AB8636"/>
<rect x="205.932" y="518.791" width="22.9251" height="28.0196" fill="#AB8636"/>
<rect x="341.781" y="518.791" width="22.9251" height="28.0196" fill="#AB8636"/>
<rect x="477.635" y="518.791" width="22.9251" height="28.0196" fill="#AB8636"/>
<rect x="613.488" y="518.791" width="22.9251" height="28.0196" fill="#AB8636"/>
<rect x="749.34" y="518.791" width="22.9251" height="28.0196" fill="#AB8636"/>
<rect x="553.971" y="404.441" width="208.427" height="106.776" rx="10" fill="#F5EAB8"/>
<rect x="543" y="384.637" width="230.367" height="34.4437" rx="10" fill="#CA2E33"/>
<rect x="628.404" y="444.053" width="56.4164" height="18.083" rx="9.04148" fill="#CA2E33"/>
<path d="M736.151 503.899H648C726.356 501.488 750.255 485.816 756.523 454.816C756.393 464.862 756.523 484.094 756.523 492.274C756.523 501.315 749.471 503.899 736.151 503.899Z" fill="#D7CC9A"/>
<rect x="586.865" y="272.592" width="143.21" height="111.868" rx="5" fill="#F5EAB8"/>
<rect x="600.635" y="323.971" width="12.1459" height="12.5215" stroke="#121212"/>
<rect x="604.258" y="327.602" width="4.88309" height="5.25871" fill="#121212"/>
<rect x="600.635" y="357.4" width="12.1459" height="12.5215" stroke="#121212"/>
<rect x="604.258" y="361.031" width="4.88309" height="5.25871" fill="#121212"/>
<rect x="634.068" y="323.971" width="12.1459" height="12.5215" stroke="#121212"/>
<rect x="637.691" y="327.602" width="4.88309" height="5.25871" fill="#121212"/>
<rect x="615.164" y="325.725" width="2.25373" height="11.2687" fill="#121212"/>
<rect x="626.994" y="339.246" width="2.25373" height="11.2687" transform="rotate(90 626.994 339.246)" fill="#121212"/>
<rect x="628.115" y="340.75" width="2.25373" height="11.2687" fill="#121212"/>
<rect x="600.137" y="340.373" width="2.25373" height="11.2687" fill="#121212"/>
<rect x="644.469" y="357.275" width="2.25373" height="11.2687" transform="rotate(90 644.469 357.275)" fill="#121212"/>
<rect x="615.164" y="353.52" width="2.25373" height="11.2687" fill="#121212"/>
<rect x="646.719" y="351.643" width="2.25373" height="11.2687" transform="rotate(-180 646.719 351.643)" fill="#121212"/>
<rect x="617.416" y="325.725" width="2.25373" height="3.75622" fill="#121212"/>
<rect x="626.994" y="341.5" width="2.25373" height="3.75622" transform="rotate(90 626.994 341.5)" fill="#121212"/>
<rect x="630.377" y="340.75" width="2.25373" height="3.75622" fill="#121212"/>
<rect x="602.389" y="340.373" width="2.25373" height="3.75622" fill="#121212"/>
<rect x="644.469" y="359.529" width="2.25373" height="3.75622" transform="rotate(90 644.469 359.529)" fill="#121212"/>
<rect x="617.416" y="353.52" width="2.25373" height="3.75622" fill="#121212"/>
<rect x="621.926" y="325.725" width="2.25373" height="3.75622" fill="#121212"/>
<rect x="626.994" y="346.008" width="2.25373" height="3.75622" transform="rotate(90 626.994 346.008)" fill="#121212"/>
<rect x="634.877" y="340.75" width="2.25373" height="3.75622" fill="#121212"/>
<rect x="606.898" y="340.373" width="2.25373" height="3.75622" fill="#121212"/>
<rect x="641.459" y="366.291" width="2.25373" height="3.75622" transform="rotate(90 641.459 366.291)" fill="#121212"/>
<rect x="621.551" y="366.666" width="2.25373" height="3.75622" transform="rotate(-90 621.551 366.666)" fill="#121212"/>
<rect x="620.426" y="323.471" width="2.25373" height="2.62935" fill="#121212"/>
<rect x="629.25" y="344.504" width="2.25373" height="2.62935" transform="rotate(90 629.25 344.504)" fill="#121212"/>
<rect x="633.379" y="338.496" width="2.25373" height="2.62935" fill="#121212"/>
<rect x="605.398" y="338.119" width="2.25373" height="2.62935" fill="#121212"/>
<rect x="600.137" y="353.145" width="2.25373" height="2.62935" fill="#121212"/>
<rect x="646.719" y="362.535" width="2.25373" height="2.62935" transform="rotate(90 646.719 362.535)" fill="#121212"/>
<rect x="616.289" y="370.422" width="2.25373" height="2.62935" transform="rotate(-90 616.289 370.422)" fill="#121212"/>
<rect x="626.805" y="370.422" width="2.25373" height="2.62935" transform="rotate(-90 626.805 370.422)" fill="#121212"/>
<rect x="621.984" y="370.422" width="2.25373" height="2.62935" transform="rotate(-90 621.984 370.422)" fill="#121212"/>
<rect x="626.432" y="323.471" width="2.25373" height="2.62935" fill="#121212"/>
<rect x="629.25" y="350.514" width="2.25373" height="2.62935" transform="rotate(90 629.25 350.514)" fill="#121212"/>
<rect x="639.396" y="338.496" width="2.25373" height="2.62935" fill="#121212"/>
<rect x="611.398" y="338.119" width="2.25373" height="2.62935" fill="#121212"/>
<rect x="629.812" y="336.617" width="2.25373" height="2.62935" fill="#121212"/>
<rect x="646.719" y="368.545" width="2.25373" height="2.62935" transform="rotate(90 646.719 368.545)" fill="#121212"/>
<rect x="616.289" y="364.412" width="2.25373" height="2.62935" transform="rotate(-90 616.289 364.412)" fill="#121212"/>
<rect x="624.18" y="325.725" width="2.25373" height="2.62935" fill="#121212"/>
<rect x="626.994" y="348.262" width="2.25373" height="2.62935" transform="rotate(90 626.994 348.262)" fill="#121212"/>
<rect x="637.131" y="340.75" width="2.25373" height="2.62935" fill="#121212"/>
<rect x="609.152" y="340.373" width="2.25373" height="2.62935" fill="#121212"/>
<rect x="644.469" y="366.291" width="2.25373" height="2.62935" transform="rotate(90 644.469 366.291)" fill="#121212"/>
<rect x="618.547" y="366.666" width="2.25373" height="2.62935" transform="rotate(-90 618.547 366.666)" fill="#121212"/>
<rect x="620.426" y="362.158" width="2.25373" height="2.62935" transform="rotate(-90 620.426 362.158)" fill="#121212"/>
<rect x="633.945" y="349.012" width="2.25373" height="2.62935" transform="rotate(-90 633.945 349.012)" fill="#121212"/>
<rect x="620.799" y="333.613" width="2.25373" height="2.62935" transform="rotate(-90 620.799 333.613)" fill="#121212"/>
<rect x="629.443" y="333.988" width="2.25373" height="2.62935" transform="rotate(-90 629.443 333.988)" fill="#121212"/>
<rect x="605.773" y="350.141" width="2.25373" height="2.62935" transform="rotate(-90 605.773 350.141)" fill="#121212"/>
<rect x="619.676" y="325.725" width="2.25373" height="2.62935" fill="#121212"/>
<rect x="626.994" y="343.754" width="2.25373" height="2.62935" transform="rotate(90 626.994 343.754)" fill="#121212"/>
<rect x="632.631" y="340.75" width="2.25373" height="2.62935" fill="#121212"/>
<rect x="604.646" y="340.373" width="2.25373" height="2.62935" fill="#121212"/>
<rect x="605.029" y="353.145" width="2.25373" height="2.62935" fill="#121212"/>
<rect x="642.586" y="364.037" width="2.25373" height="2.62935" transform="rotate(90 642.586 364.037)" fill="#121212"/>
<rect x="621.926" y="355.396" width="2.25373" height="2.62935" fill="#121212"/>
<rect x="620.426" y="368.92" width="2.25373" height="2.62935" transform="rotate(-90 620.426 368.92)" fill="#121212"/>
<rect x="646.719" y="356.9" width="2.25373" height="2.62935" transform="rotate(90 646.719 356.9)" fill="#121212"/>
<rect x="624.18" y="334.363" width="2.25373" height="3.75622" fill="#121212"/>
<rect x="618.355" y="348.262" width="2.25373" height="3.75622" transform="rotate(90 618.355 348.262)" fill="#121212"/>
<rect x="637.131" y="349.389" width="2.25373" height="3.75622" fill="#121212"/>
<rect x="609.152" y="349.012" width="2.25373" height="3.75622" fill="#121212"/>
<rect x="629.057" y="357.652" width="2.25373" height="3.75622" fill="#121212"/>
<rect x="621.926" y="352.018" width="2.25373" height="3.75622" fill="#121212"/>
<rect x="635.826" y="366.291" width="2.25373" height="3.75622" transform="rotate(90 635.826 366.291)" fill="#121212"/>
<rect x="624.18" y="362.158" width="2.25373" height="3.75622" fill="#121212"/>
<rect x="627.182" y="366.666" width="2.25373" height="3.75622" transform="rotate(-90 627.182 366.666)" fill="#121212"/>
<rect x="644.469" y="351.643" width="2.25373" height="3.75622" transform="rotate(-180 644.469 351.643)" fill="#121212"/>
<rect x="617.416" y="330.982" width="2.25373" height="3.75622" fill="#121212"/>
<rect x="621.744" y="341.5" width="2.25373" height="3.75622" transform="rotate(90 621.744 341.5)" fill="#121212"/>
<rect x="630.377" y="346.008" width="2.25373" height="3.75622" fill="#121212"/>
<rect x="602.389" y="345.631" width="2.25373" height="3.75622" fill="#121212"/>
<rect x="639.207" y="359.529" width="2.25373" height="3.75622" transform="rotate(90 639.207 359.529)" fill="#121212"/>
<rect x="617.416" y="358.779" width="2.25373" height="3.75622" fill="#121212"/>
<rect x="626.051" y="330.982" width="2.25373" height="3.75622" fill="#121212"/>
<rect x="621.744" y="350.141" width="2.25373" height="3.75622" transform="rotate(90 621.744 350.141)" fill="#121212"/>
<rect x="633.186" y="353.52" width="2.25373" height="3.75622" transform="rotate(90 633.186 353.52)" fill="#121212"/>
<rect x="632.068" y="326.852" width="2.25373" height="3.75622" transform="rotate(90 632.068 326.852)" fill="#121212"/>
<rect x="617.045" y="343.002" width="2.25373" height="3.75622" transform="rotate(90 617.045 343.002)" fill="#121212"/>
<rect x="623.053" y="335.867" width="2.25373" height="3.75622" transform="rotate(90 623.053 335.867)" fill="#121212"/>
<rect x="639.949" y="354.271" width="2.25373" height="3.75622" transform="rotate(90 639.949 354.271)" fill="#121212"/>
<rect x="639.021" y="346.008" width="2.25373" height="3.75622" fill="#121212"/>
<rect x="611.041" y="345.631" width="2.25373" height="3.75622" fill="#121212"/>
<rect x="639.207" y="368.168" width="2.25373" height="3.75622" transform="rotate(90 639.207 368.168)" fill="#121212"/>
<rect x="623.436" y="361.031" width="2.25373" height="3.75622" transform="rotate(-90 623.436 361.031)" fill="#121212"/>
<rect x="644.469" y="346.383" width="2.25373" height="3.75622" transform="rotate(-180 644.469 346.383)" fill="#121212"/>
<rect x="579.512" y="254.727" width="157.918" height="22.5437" rx="11.2719" fill="#CA2E33"/>
<path d="M706.465 254.727H726.158C732.383 254.727 737.43 259.773 737.43 265.999C737.43 272.224 732.383 277.271 726.158 277.271H706.465V254.727Z" fill="#A2060B"/>
<path d="M700.654 277.27H730.07V379.459C730.07 382.22 727.832 384.459 725.07 384.459H700.654V277.27Z" fill="#D7CC9A"/>
<path d="M123.814 442.164V508.817" stroke="#F5EAB8" stroke-width="5" stroke-linecap="round"/>
<path d="M128.907 458.477C128.907 460.605 126.921 462.33 124.473 462.33H93.4341C90.9854 462.33 89 460.605 89 458.477V454.623H128.907V458.477Z" fill="#CE2028"/>
<path d="M89 444.988H128.907V454.622H89V444.988Z" fill="#22408C"/>
<path d="M124.473 437.281H93.4341C90.9854 437.281 89 439.007 89 441.135V444.988H128.907V441.135C128.907 439.007 126.921 437.281 124.473 437.281Z" fill="#EEEEEE"/>
<path d="M129.945 511.362H116.359C114.517 511.362 113.654 509.084 115.034 507.864L122.167 501.556C122.952 500.862 124.14 500.891 124.889 501.624L131.343 507.932C132.625 509.185 131.738 511.362 129.945 511.362Z" fill="#F5EAB8"/>
<rect x="249.717" y="324.299" width="267.131" height="187.046" rx="5" fill="#F5EAB8"/>
<path d="M423.3 464.749H427.56L421.593 484.669H425.665L431.633 464.749H435.889L436.886 461.43H424.297L423.3 464.749ZM415.634 464.749C417.078 464.749 417.487 465.478 416.994 467.14L416.307 469.429C415.752 471.289 414.647 471.888 413.128 471.888H411.534L413.673 464.749H415.634ZM416.293 484.669C416.142 483.805 416.354 482.974 416.693 481.848L417.765 478.264C418.489 475.839 418.353 474.081 416.542 473.317C418.583 472.554 419.905 470.994 420.619 468.603L421.165 466.777C422.237 463.193 420.953 461.43 416.73 461.43H410.584L403.619 484.673H407.692L410.527 475.211H411.933C413.786 475.211 414.36 476.008 413.716 478.167L412.62 481.819C412.051 483.712 412.093 484.075 412.136 484.673H416.283L416.293 484.669ZM390.306 479.09C389.191 482.81 390.738 484.935 394.74 484.935C398.742 484.935 401.559 482.81 402.674 479.09L406.295 467.005C407.409 463.285 405.862 461.16 401.86 461.16C397.858 461.16 395.041 463.285 393.927 467.005L390.306 479.09ZM398.07 466.773C398.568 465.111 399.57 464.483 400.868 464.483C402.166 464.483 402.791 465.116 402.293 466.773L398.531 479.322C398.032 480.984 397.031 481.612 395.733 481.612C394.435 481.612 393.809 480.979 394.308 479.322L398.07 466.773ZM386.271 464.749H392.972L393.969 461.43H383.195L376.231 484.673H380.303L383.177 475.076H388.434L389.431 471.757H384.174L386.271 464.753V464.749ZM369.191 484.669H373.263L380.233 461.43H376.16L369.195 484.673L369.191 484.669ZM365.607 464.749H372.643L373.64 461.43H362.532L355.567 484.673H366.675L367.672 481.355H360.637L362.678 474.549H368.269L369.266 471.23H363.675L365.617 464.757L365.607 464.749ZM348.127 461.43H342.461L335.496 484.673H339.051L343.975 468.236L342.085 484.673H345.936L353.747 468.004L348.753 484.673H352.604L359.569 461.43H353.902L346.181 477.931L348.127 461.43Z" fill="#CA2E33"/>
<mask id="mask0_594_12530" style="mask-type:luminance" maskUnits="userSpaceOnUse" x="272" y="461" width="65" height="25">
<path d="M309.159 485.001L313.575 470.221H333.448L331.803 475.728H317.511L319.674 476.85L317.238 485.001H309.159ZM272.322 485.001L279.466 461.096H336.181L334.535 466.603H311.75V462.281L310.457 466.599L304.959 485.001H296.88L302.382 466.603H295.685L297.849 467.725L292.685 485.005H284.601L290.099 466.603H283.402L285.565 467.725L280.402 485.005H272.322V485.001Z" fill="white"/>
</mask>
<g mask="url(#mask0_594_12530)">
<path d="M336.181 461.096H272.322V485.001H336.181V461.096Z" fill="#CA2E33"/>
</g>
<rect x="236" y="294.428" width="294.566" height="37.6938" rx="14" fill="#CA2E33"/>
<path d="M472.807 294.428H516.565C524.297 294.428 530.565 300.696 530.565 308.428V318.122C530.565 325.853 524.297 332.122 516.565 332.122H472.807V294.428Z" fill="#A2060B"/>
<path d="M461.971 332.121H516.841V506.344C516.841 509.106 514.603 511.344 511.841 511.344H461.971V332.121Z" fill="#D7CC9A"/>
<rect x="282.822" y="156.99" width="200.774" height="137.657" rx="5" fill="#F5EAB8"/>
<path d="M407.433 185.827C407.758 185.453 408.271 185.291 408.743 185.443C409.513 185.69 409.808 186.62 409.275 187.228C407.401 189.369 404.983 191.346 402.688 192.801C402.21 193.104 401.622 193.028 401.25 192.602C400.737 192.013 400.83 190.993 401.503 190.598C403.717 189.303 405.881 187.611 407.433 185.827ZM417.514 187.357C416.919 186.961 416.858 186.101 417.403 185.639C417.744 185.35 418.23 185.306 418.612 185.536C421.047 187.006 423.831 189.005 425.684 190.642C426.204 191.101 426.185 191.9 425.674 192.369C425.179 192.822 424.411 192.791 423.922 192.331C422.28 190.782 419.819 188.895 417.514 187.357ZM419.106 196.292C416.005 193.948 411.138 194.039 408.086 196.446C405.925 198.151 403.454 199.769 400.931 201.083C400.421 201.348 399.814 201.168 399.498 200.688C399.106 200.093 399.265 199.202 399.9 198.877C404.465 196.545 408.813 193.076 411.371 189.883C411.879 189.249 412.631 188.844 413.443 188.844C414.176 188.844 414.867 189.174 415.36 189.717C418.505 193.182 422.973 196.368 427.236 198.383C427.954 198.722 428.169 199.707 427.736 200.373C427.413 200.87 426.786 201.059 426.257 200.791C423.892 199.59 421.38 198.011 419.106 196.292ZM404.455 203.097C404.455 200.043 406.931 197.567 409.985 197.567H417.122C420.14 197.567 422.586 200.013 422.586 203.031V207.251C422.586 207.938 422.029 208.495 421.342 208.495C420.656 208.495 420.099 207.938 420.099 207.251V204.134C420.099 201.725 418.146 199.772 415.737 199.772H411.272C408.827 199.772 406.844 201.754 406.844 204.199V207.432C406.844 208.092 406.31 208.627 405.65 208.627C404.99 208.627 404.455 208.092 404.455 207.432V203.097ZM405.601 206.405C405.601 205.796 406.095 205.302 406.704 205.302H420.305C420.914 205.302 421.408 205.796 421.408 206.405C421.408 207.014 420.914 207.508 420.305 207.508H406.704C406.095 207.508 405.601 207.014 405.601 206.405ZM412.146 179.571C412.146 178.875 412.71 178.311 413.406 178.311C414.102 178.311 414.666 178.875 414.666 179.571V181.363C414.666 182.059 414.102 182.623 413.406 182.623C412.71 182.623 412.146 182.059 412.146 181.363V179.571ZM399.808 184.367C399.808 182.713 401.149 181.372 402.804 181.372H424.14C425.794 181.372 427.135 182.713 427.135 184.367V186.119C427.135 186.806 426.578 187.363 425.891 187.363C425.205 187.363 424.648 186.806 424.648 186.119V185.486C424.648 184.45 423.808 183.61 422.772 183.61H404.106C403.07 183.61 402.23 184.45 402.23 185.486V186.152C402.23 186.82 401.688 187.363 401.019 187.363C400.35 187.363 399.808 186.82 399.808 186.152V184.367Z" fill="#343434"/>
<path d="M407.23 222.024C406.33 222.024 405.601 222.753 405.601 223.653C405.601 224.553 406.33 225.282 407.23 225.282H420.139C421.038 225.282 421.768 224.553 421.768 223.653C421.768 222.753 421.038 222.024 420.139 222.024H407.23ZM407.23 216.79C406.33 216.79 405.601 217.52 405.601 218.419C405.601 219.319 406.33 220.049 407.23 220.049H420.139C421.038 220.049 421.768 219.319 421.768 218.419C421.768 217.52 421.038 216.79 420.139 216.79H407.23ZM403.179 220.749C403.179 217.435 405.865 214.749 409.179 214.749H418.255C421.569 214.749 424.255 217.435 424.255 220.749V221.356C424.255 224.67 421.569 227.356 418.255 227.356H409.179C405.865 227.356 403.179 224.67 403.179 221.356V220.749ZM405.012 231.29C405.012 230.681 405.505 230.187 406.114 230.187H423.545C424.154 230.187 424.648 230.681 424.648 231.29C424.648 231.899 424.154 232.392 423.545 232.392H406.114C405.505 232.392 405.012 231.899 405.012 231.29ZM424.026 230.582C424.026 230.364 424.203 230.187 424.421 230.187H425.419C426.007 230.187 426.497 230.696 426.382 231.273C425.761 238.68 425.139 241.543 424.124 242.597C423.502 243.222 422.848 243.452 421.899 243.485C421.161 243.571 419.882 243.558 418.488 243.488C418.114 243.47 417.823 243.223 417.744 242.858C417.609 242.226 418.121 241.401 418.766 241.432C419.713 241.477 420.5 241.477 420.884 241.477C421.441 241.477 421.768 241.445 422.062 241.115C422.848 240.391 423.47 237.593 424.026 230.582ZM406.989 227.136C407.299 226.675 407.873 226.456 408.403 226.626C409.143 226.864 409.465 227.731 409.019 228.368C406.867 231.442 403.936 234.228 401.062 236.225C400.63 236.525 400.096 236.497 399.722 236.127C399.166 235.577 399.176 234.503 399.831 234.075C402.611 232.258 405.203 229.791 406.989 227.136ZM410.585 231.725C410.875 231.223 411.47 230.971 412.024 231.144C412.735 231.366 413.074 232.178 412.693 232.819C410.427 236.628 407.17 239.942 403.84 242.288C403.392 242.604 402.828 242.571 402.436 242.189C401.878 241.646 401.905 240.623 402.556 240.195C405.771 238.08 408.659 235.068 410.585 231.725ZM417.476 232.038C417.694 231.461 418.302 231.121 418.901 231.265C419.579 231.429 419.972 232.14 419.72 232.791C418.121 236.911 415.706 240.49 412.947 243.036C412.54 243.412 411.946 243.421 411.515 243.073C410.94 242.607 410.873 241.662 411.423 241.168C414.005 238.849 416.119 235.629 417.476 232.038Z" fill="#343434"/>
<path d="M417.906 249.255C417.906 248.614 418.426 248.094 419.068 248.094C419.71 248.094 420.23 248.614 420.23 249.255V269.875C420.23 270.516 419.71 271.037 419.068 271.037C418.426 271.037 417.906 270.516 417.906 269.875V249.255ZM408.076 262.785C407.812 262.181 408.092 261.478 408.699 261.222L424.187 254.661C424.769 254.415 425.44 254.683 425.692 255.261C425.946 255.847 425.676 256.527 425.089 256.778L409.626 263.399C409.028 263.654 408.336 263.38 408.076 262.785ZM411.132 252.366C411.132 251.715 411.659 251.188 412.31 251.188C412.961 251.188 413.488 251.715 413.488 252.366V273.209C413.488 275.019 413.881 275.414 416.073 275.414C417.153 275.414 422.652 275.414 423.961 275.414C425.585 275.414 426.074 274.786 426.325 272.333C426.397 271.629 427.238 271.21 427.904 271.446C428.346 271.602 428.644 272.017 428.594 272.483C428.171 276.381 427.279 277.653 424.059 277.653C423.175 277.653 416.826 277.653 416.008 277.653C412.244 277.653 411.132 276.764 411.132 273.176V252.366ZM424.811 254.624C424.811 254.581 424.776 254.545 424.733 254.545C424.66 254.545 424.626 254.454 424.682 254.407L425.106 254.052C425.368 253.828 425.732 253.765 426.054 253.888L426.874 254.199C427.099 254.285 427.229 254.522 427.179 254.758C427.171 254.792 427.168 254.826 427.168 254.86C427.167 261.025 427.069 265.938 426.841 267.218C426.644 268.535 426.022 269.16 425.073 269.391C424.413 269.563 423.515 269.606 422.735 269.617C422.311 269.623 421.956 269.318 421.867 268.903C421.729 268.257 422.237 267.508 422.898 267.512C423.202 267.514 423.458 267.514 423.601 267.514C424.092 267.514 424.419 267.383 424.582 266.626C424.778 265.773 424.811 261.133 424.811 254.624ZM398.466 257.195C398.466 256.55 398.99 256.027 399.635 256.027H407.705C408.35 256.027 408.874 256.55 408.874 257.195C408.874 257.84 408.35 258.364 407.705 258.364H399.635C398.99 258.364 398.466 257.84 398.466 257.195ZM402.688 249.65C402.688 249.009 403.208 248.489 403.85 248.489C404.492 248.489 405.012 249.009 405.012 249.65V268.69C405.012 269.331 404.492 269.852 403.85 269.852C403.208 269.852 402.688 269.331 402.688 268.69V249.65ZM398.664 271.928C398.394 271.259 398.728 270.5 399.4 270.237C401.661 269.352 404.573 268.121 407.501 266.864C408.149 266.585 408.892 266.958 409.055 267.645C409.178 268.164 408.923 268.7 408.441 268.929C405.659 270.251 402.804 271.552 400.356 272.622C399.697 272.91 398.933 272.595 398.664 271.928Z" fill="#343434"/>
<rect x="272.508" y="135.008" width="221.394" height="27.7407" rx="13.8704" fill="#CA2E33"/>
<path d="M450.486 135.008H480.025C487.686 135.008 493.896 141.218 493.896 148.878C493.896 156.539 487.686 162.749 480.025 162.749H450.486V135.008Z" fill="#A2060B"/>
<path d="M442.338 162.748H483.577V289.647C483.577 292.409 481.338 294.647 478.577 294.647H442.338V162.748Z" fill="#D7CC9A"/>
</svg>
