<svg width="970" height="557" viewBox="0 0 970 557" fill="none" xmlns="http://www.w3.org/2000/svg">
<g clip-path="url(#clip0_594_10849)">
<path fill-rule="evenodd" clip-rule="evenodd" d="M811.485 121.812C883.261 190.942 935.712 278.032 905.083 361.412C874.042 445.916 770.1 506.916 657.71 540.43C556.515 570.607 447.07 551.391 341.88 529.359C237.347 507.466 114.076 488.434 69.2275 417.177C25.6014 347.863 100.874 274.681 136.5 203.046C168.436 138.833 182.397 64.8408 262.604 28.3506C345.948 -9.5666 450.833 0.0206509 546.832 16.3671C648.879 33.7433 748.794 61.4323 811.485 121.812Z" fill="#2A2A2A"/>
<path d="M348.735 52.5117L342.266 526.517H359.517L348.735 52.5117Z" fill="#161616"/>
<path d="M340.136 65.223L325.635 136.167C324.159 143.391 331.519 149.228 338.216 146.144L347.577 141.835C349.895 140.768 352.556 140.735 354.9 141.744L361.281 144.491C368.05 147.406 375.261 141.394 373.612 134.211L357.725 65.0114C355.56 55.5811 342.073 55.7433 340.136 65.223Z" fill="#161616"/>
<path d="M345.049 151.12L322.872 163.26C320.206 164.72 318.456 167.426 318.22 170.456L317.179 183.838C316.611 191.134 324.525 196.022 330.794 192.247L345.364 183.473C347.744 182.04 350.652 181.786 353.244 182.785L370.307 189.361C376.536 191.762 383.118 186.784 382.505 180.136L381.526 169.523C381.237 166.395 379.338 163.643 376.516 162.264L353.322 150.929C350.697 149.646 347.612 149.717 345.049 151.12Z" fill="#161616"/>
<path d="M344.108 191.268L314.639 206.654C311.291 208.403 309.074 211.746 308.766 215.511L307.356 232.788C306.636 241.618 316.116 247.634 323.798 243.221L344.47 231.349C347.293 229.728 350.689 229.44 353.744 230.563L377.566 239.319C385.174 242.116 393.091 236.003 392.31 227.936L390.995 214.338C390.62 210.462 388.223 207.072 384.693 205.427L353.847 191.049C350.744 189.602 347.144 189.683 344.108 191.268Z" fill="#161616"/>
<path d="M343.662 241.011L303.996 258.657C299.712 260.563 296.786 264.628 296.339 269.295L294.588 287.581C293.618 297.699 304.113 304.965 313.243 300.498L344.006 285.443C346.995 283.981 350.43 283.72 353.605 284.714L388.239 295.562C397.208 298.37 406.102 291.028 405.042 281.689L403.482 267.951C402.941 263.186 399.821 259.106 395.364 257.336L353.745 240.806C350.493 239.515 346.859 239.589 343.662 241.011Z" fill="#161616"/>
<path d="M341.503 296.801L294.871 314.832C288.255 317.39 283.615 323.421 282.838 330.472L281.852 339.417C280.26 353.858 294.805 364.669 308.174 358.983L341.919 344.63C345.848 342.959 350.226 342.66 354.346 343.782L393.054 354.318C406.143 357.881 418.642 346.975 416.885 333.525L416.295 329.011C415.362 321.865 410.466 315.863 403.655 313.512L354.555 296.563C350.313 295.098 345.689 295.183 341.503 296.801Z" fill="#161616"/>
<path d="M341.006 353.114L282.611 375.201C275.594 377.855 270.653 384.213 269.813 391.669L268.027 407.517C266.321 422.665 281.51 434.077 295.584 428.221L341.431 409.146C345.496 407.454 350.006 407.152 354.261 408.285L405.72 421.987C419.496 425.656 432.577 414.145 430.69 400.014L429.342 389.919C428.335 382.373 423.13 376.053 415.917 373.617L354.48 352.872C350.096 351.391 345.334 351.477 341.006 353.114Z" fill="#161616"/>
<path d="M578.447 144.582L574.463 436.503H585.087L578.447 144.582Z" fill="#161616"/>
<path d="M569.958 168.024L565.256 191.029C563.916 197.583 570.594 202.879 576.671 200.082L577.016 199.923C578.899 199.056 581.061 199.029 582.965 199.849C588.465 202.217 594.324 197.332 592.985 191.496L587.547 167.812C585.382 158.382 571.895 158.544 569.958 168.024Z" fill="#161616"/>
<path d="M574.605 206.173L564.098 211.925C561.47 213.364 559.745 216.031 559.513 219.018C558.953 226.21 566.754 231.028 572.934 227.307L574.921 226.111C577.3 224.678 580.208 224.424 582.8 225.423L587.19 227.115C593.116 229.399 599.38 224.662 598.796 218.338C598.521 215.361 596.715 212.743 594.029 211.431L582.878 205.981C580.253 204.698 577.168 204.77 574.605 206.173Z" fill="#161616"/>
<path d="M573.747 231.002L559.514 238.434C556.165 240.182 553.948 243.525 553.641 247.29L553.616 247.596C552.895 256.426 562.376 262.442 570.058 258.03L574.109 255.703C576.931 254.082 580.327 253.794 583.382 254.917L590.391 257.494C597.767 260.205 605.443 254.279 604.686 246.457C604.322 242.699 601.999 239.413 598.576 237.817L583.485 230.783C580.382 229.337 576.782 229.418 573.747 231.002Z" fill="#161616"/>
<path d="M573.404 261.526L553.44 270.408C549.229 272.281 546.353 276.276 545.914 280.864C544.961 290.809 555.276 297.95 564.25 293.559L573.748 288.911C576.736 287.449 580.172 287.188 583.347 288.182L596.932 292.437C605.206 295.029 613.412 288.254 612.434 279.638C611.935 275.242 609.056 271.477 604.944 269.844L583.486 261.322C580.235 260.031 576.6 260.104 573.404 261.526Z" fill="#161616"/>
<path d="M571.504 295.995L546.631 305.612C541.723 307.51 538.281 311.983 537.705 317.213C536.524 327.925 547.313 335.945 557.23 331.727L571.92 325.479C575.849 323.808 580.227 323.509 584.347 324.63L603.827 329.933C612.798 332.375 621.365 324.9 620.161 315.68C619.521 310.782 616.166 306.668 611.497 305.056L584.555 295.756C580.313 294.292 575.689 294.376 571.504 295.995Z" fill="#161616"/>
<path d="M571.116 330.684L540.155 342.395C534.341 344.594 530.247 349.862 529.551 356.038C528.137 368.589 540.721 378.044 552.382 373.192L571.541 365.221C575.606 363.53 580.116 363.227 584.37 364.36L609.259 370.988C619.782 373.79 629.775 364.997 628.333 354.203C627.564 348.438 623.588 343.611 618.078 341.75L584.59 330.442C580.206 328.962 575.444 329.047 571.116 330.684Z" fill="#161616"/>
<path d="M194.403 86L194.403 141.743" stroke="#717171" stroke-width="4"/>
<path d="M204.063 86.4766V141.83" stroke="#717171" stroke-width="4"/>
<path d="M498.44 5.0332L468.527 76.6567L468.526 353.972L523.545 352.577L523.546 76.6567L498.44 5.0332Z" stroke="#717171" stroke-width="7" stroke-linejoin="round"/>
<path d="M498.21 48.4711L510.517 40.5078" stroke="#717171" stroke-width="2"/>
<path d="M498.21 48.4711L485.179 38.3359" stroke="#717171" stroke-width="2"/>
<path d="M498.21 5.75977V79.6016" stroke="#717171" stroke-width="4"/>
<path d="M498.21 70.1899L518.48 62.2266" stroke="#717171" stroke-width="2"/>
<path d="M498.212 70.1885L475.77 58.6055" stroke="#717171" stroke-width="2"/>
<path d="M514.861 141.859L469.977 176.842L514.861 211.358" stroke="#717171" stroke-width="2"/>
<path d="M514.861 212.082L469.977 247.064L514.861 281.58" stroke="#717171" stroke-width="2"/>
<path d="M515.571 283.027L476.498 317.914L515.571 352.335" stroke="#0E0E0E" stroke-width="3"/>
<path d="M476.49 141.859L522.098 176.151L476.49 211.358" stroke="#717171" stroke-width="2"/>
<path d="M476.49 212.082L522.098 247.088L476.49 283.028" stroke="#717171" stroke-width="2"/>
<path d="M481.613 283.027L523.942 317.914L481.613 353.731" stroke="#0E0E0E" stroke-width="3"/>
<path d="M469.977 176.607H522.1" stroke="#717171" stroke-width="4"/>
<path d="M469.977 211.357H522.1" stroke="#717171" stroke-width="4"/>
<path d="M469.977 246.83H522.1" stroke="#717171" stroke-width="4"/>
<path d="M477.426 317.914H524.406" stroke="#0E0E0E" stroke-width="3"/>
<path d="M576.395 86.1152H626.346V127.447C626.346 130.209 624.108 132.447 621.346 132.447H581.395C578.633 132.447 576.395 130.209 576.395 127.447V86.1152Z" fill="#484848"/>
<rect x="584.357" y="95.5273" width="6.51545" height="29.6815" rx="3.25773" fill="#858585"/>
<rect x="593.771" y="95.5273" width="6.51545" height="29.6815" rx="3.25773" fill="#858585"/>
<rect x="603.182" y="95.5273" width="6.51545" height="29.6815" rx="3.25773" fill="#858585"/>
<rect x="612.592" y="95.5273" width="6.51545" height="29.6815" rx="3.25773" fill="#858585"/>
<path d="M200.812 162.139V158.447C200.812 157.419 199.979 156.586 198.951 156.586C197.924 156.586 197.091 157.418 197.091 158.446V163.401C197.091 164.897 198.209 166.138 199.612 166.657C202.537 167.737 205.668 170.057 206.502 173.917C207.138 176.856 206.289 180.335 202.521 180.838C197.625 181.491 195.253 177.141 194.833 172.951C194.75 172.12 194.813 171.496 193.983 171.413C192.882 171.303 191.553 172.426 191.695 173.522C193.145 184.751 200.049 184.126 203.138 183.685C206.394 183.22 209.65 180.429 209.185 173.917C208.885 169.721 205.347 166.652 202.605 165.049C201.555 164.436 200.812 163.355 200.812 162.139Z" fill="#717171"/>
<path d="M199.621 76.8248C199.281 75.5647 200.045 74.2714 201.312 73.9605L496.582 1.55131C497.809 1.25048 499.051 1.98404 499.381 3.20348C499.721 4.46363 498.957 5.75689 497.69 6.06777L202.42 78.477C201.193 78.7778 199.951 78.0443 199.621 76.8248Z" fill="#CBCBCB"/>
<rect x="603.732" y="82.7324" width="133.971" height="4.65153" rx="2.32577" transform="rotate(-143.988 603.732 82.7324)" fill="#CBCBCB"/>
<path d="M458.393 86.1152H532.234V137.582C532.234 140.344 529.996 142.582 527.234 142.582H463.393C460.631 142.582 458.393 140.344 458.393 137.582V86.1152Z" fill="#484848"/>
<rect x="475.77" y="96.9746" width="41.9885" height="23.1661" rx="3" fill="#858585"/>
<path d="M122.001 81C122.001 78.2386 124.24 76 127.001 76H639.001C641.762 76 644.001 78.2386 644.001 81C644.001 83.7614 641.762 86 639.001 86H127.001C124.24 86 122.001 83.7614 122.001 81Z" fill="#CBCBCB"/>
<path d="M206.662 122.922H191.126C190.021 122.922 189.126 123.817 189.126 124.922V142.201C189.126 144.507 189.696 146.778 190.785 148.812L195.538 157.683C195.886 158.333 196.563 158.739 197.301 158.739H200.488C201.225 158.739 201.902 158.333 202.251 157.683L207.003 148.812C208.092 146.778 208.662 144.507 208.662 142.201V124.922C208.662 123.817 207.767 122.922 206.662 122.922Z" fill="#484848"/>
<rect x="192.849" y="127.109" width="12.094" height="16.7455" rx="2" fill="#858585"/>
<rect x="361.971" y="261.902" width="426.94" height="264.351" fill="#AB8636"/>
<g style="mix-blend-mode:lighten">
<rect x="381.969" y="276.336" width="4.28368" height="235.489" fill="#AB8636"/>
<rect x="399.585" y="276.336" width="4.28368" height="235.489" fill="#AB8636"/>
<rect x="417.188" y="276.336" width="4.28368" height="235.489" fill="#AB8636"/>
<rect x="434.806" y="276.336" width="4.28368" height="235.489" fill="#AB8636"/>
<rect x="452.408" y="276.336" width="4.28368" height="235.489" fill="#AB8636"/>
<rect x="470.021" y="276.336" width="4.28368" height="235.489" fill="#AB8636"/>
<rect x="487.633" y="276.336" width="4.28368" height="235.489" fill="#AB8636"/>
<rect x="505.245" y="276.336" width="4.28368" height="235.489" fill="#AB8636"/>
<rect x="522.853" y="276.336" width="4.28368" height="235.489" fill="#AB8636"/>
<rect x="540.469" y="276.336" width="4.28368" height="235.489" fill="#AB8636"/>
<rect x="558.072" y="276.336" width="4.28368" height="235.489" fill="#AB8636"/>
<rect x="575.689" y="276.336" width="4.28368" height="235.489" fill="#AB8636"/>
<rect x="593.297" y="276.336" width="4.28368" height="235.489" fill="#AB8636"/>
<rect x="610.91" y="276.336" width="4.28368" height="235.489" fill="#AB8636"/>
<rect x="628.514" y="276.336" width="4.28368" height="235.489" fill="#AB8636"/>
<rect x="646.129" y="276.336" width="4.28368" height="235.489" fill="#AB8636"/>
<rect x="663.742" y="276.336" width="4.28368" height="235.489" fill="#AB8636"/>
<rect x="681.35" y="276.336" width="4.28368" height="235.489" fill="#AB8636"/>
<rect x="698.961" y="276.336" width="4.28368" height="235.489" fill="#AB8636"/>
<rect x="716.578" y="276.336" width="4.28368" height="235.489" fill="#AB8636"/>
<rect x="734.182" y="276.336" width="4.28368" height="235.489" fill="#AB8636"/>
<rect x="751.799" y="276.336" width="4.28368" height="235.489" fill="#AB8636"/>
<rect x="386.252" y="276.336" width="3.33175" height="235.489" fill="#F5EAB8"/>
<rect x="403.869" y="276.336" width="3.33175" height="235.489" fill="#F5EAB8"/>
<rect x="421.473" y="276.336" width="3.33175" height="235.489" fill="#F5EAB8"/>
<rect x="439.089" y="276.336" width="3.33175" height="235.489" fill="#F5EAB8"/>
<rect x="456.688" y="276.336" width="3.33175" height="235.489" fill="#F5EAB8"/>
<rect x="474.309" y="276.336" width="3.33175" height="235.489" fill="#F5EAB8"/>
<rect x="491.917" y="276.336" width="3.33175" height="235.489" fill="#F5EAB8"/>
<rect x="509.529" y="276.336" width="3.33175" height="235.489" fill="#F5EAB8"/>
<rect x="527.137" y="276.336" width="3.33175" height="235.489" fill="#F5EAB8"/>
<rect x="544.748" y="276.336" width="3.33175" height="235.489" fill="#F5EAB8"/>
<rect x="562.361" y="276.336" width="3.33175" height="235.489" fill="#F5EAB8"/>
<rect x="579.973" y="276.336" width="3.33175" height="235.489" fill="#F5EAB8"/>
<rect x="597.58" y="276.336" width="3.33175" height="235.489" fill="#F5EAB8"/>
<rect x="615.193" y="276.336" width="3.33175" height="235.489" fill="#F5EAB8"/>
<rect x="632.805" y="276.336" width="3.33175" height="235.489" fill="#F5EAB8"/>
<rect x="650.408" y="276.336" width="3.33175" height="235.489" fill="#F5EAB8"/>
<rect x="668.021" y="276.336" width="3.33175" height="235.489" fill="#F5EAB8"/>
<rect x="685.637" y="276.336" width="3.33175" height="235.489" fill="#F5EAB8"/>
<rect x="703.246" y="276.336" width="3.33175" height="235.489" fill="#F5EAB8"/>
<rect x="720.848" y="276.336" width="3.33175" height="235.489" fill="#F5EAB8"/>
<rect x="738.469" y="276.336" width="3.33175" height="235.489" fill="#F5EAB8"/>
<rect x="756.082" y="276.336" width="3.33175" height="235.489" fill="#F5EAB8"/>
<rect x="389.581" y="276.336" width="6.6635" height="235.489" fill="#C9A454"/>
<rect x="407.198" y="276.336" width="6.6635" height="235.489" fill="#C9A454"/>
<rect x="424.81" y="276.336" width="6.6635" height="235.489" fill="#C9A454"/>
<rect x="442.413" y="276.336" width="6.6635" height="235.489" fill="#C9A454"/>
<rect x="460.025" y="276.336" width="6.6635" height="235.489" fill="#C9A454"/>
<rect x="477.638" y="276.336" width="6.6635" height="235.489" fill="#C9A454"/>
<rect x="495.25" y="276.336" width="6.6635" height="235.489" fill="#C9A454"/>
<rect x="512.857" y="276.336" width="6.6635" height="235.489" fill="#C9A454"/>
<rect x="530.47" y="276.336" width="6.6635" height="235.489" fill="#C9A454"/>
<rect x="548.078" y="276.336" width="6.6635" height="235.489" fill="#C9A454"/>
<rect x="565.699" y="276.336" width="6.6635" height="235.489" fill="#C9A454"/>
<rect x="583.297" y="276.336" width="6.6635" height="235.489" fill="#C9A454"/>
<rect x="600.914" y="276.336" width="6.6635" height="235.489" fill="#C9A454"/>
<rect x="618.521" y="276.336" width="6.6635" height="235.489" fill="#C9A454"/>
<rect x="636.129" y="276.336" width="6.6635" height="235.489" fill="#C9A454"/>
<rect x="653.746" y="276.336" width="6.6635" height="235.489" fill="#C9A454"/>
<rect x="671.359" y="276.336" width="6.6635" height="235.489" fill="#C9A454"/>
<rect x="688.967" y="276.336" width="6.6635" height="235.489" fill="#C9A454"/>
<rect x="706.574" y="276.336" width="6.6635" height="235.489" fill="#C9A454"/>
<rect x="724.186" y="276.336" width="6.6635" height="235.489" fill="#C9A454"/>
<rect x="741.803" y="276.336" width="6.6635" height="235.489" fill="#C9A454"/>
<rect x="759.406" y="276.336" width="6.6635" height="235.489" fill="#C9A454"/>
<rect x="396.243" y="276.336" width="3.33175" height="235.489" fill="#C9A454"/>
<rect x="413.864" y="276.336" width="3.33175" height="235.489" fill="#C9A454"/>
<rect x="431.468" y="276.336" width="3.33175" height="235.489" fill="#C9A454"/>
<rect x="449.084" y="276.336" width="3.33175" height="235.489" fill="#C9A454"/>
<rect x="466.692" y="276.336" width="3.33175" height="235.489" fill="#C9A454"/>
<rect x="484.3" y="276.336" width="3.33175" height="235.489" fill="#C9A454"/>
<rect x="501.912" y="276.336" width="3.33175" height="235.489" fill="#C9A454"/>
<rect x="519.52" y="276.336" width="3.33175" height="235.489" fill="#C9A454"/>
<rect x="537.133" y="276.336" width="3.33175" height="235.489" fill="#C9A454"/>
<rect x="554.744" y="276.336" width="3.33175" height="235.489" fill="#C9A454"/>
<rect x="572.355" y="276.336" width="3.33175" height="235.489" fill="#C9A454"/>
<rect x="589.969" y="276.336" width="3.33175" height="235.489" fill="#C9A454"/>
<rect x="607.572" y="276.336" width="3.33175" height="235.489" fill="#C9A454"/>
<rect x="625.188" y="276.336" width="3.33175" height="235.489" fill="#C9A454"/>
<rect x="642.787" y="276.336" width="3.33175" height="235.489" fill="#C9A454"/>
<rect x="660.412" y="276.336" width="3.33175" height="235.489" fill="#C9A454"/>
<rect x="678.02" y="276.336" width="3.33175" height="235.489" fill="#C9A454"/>
<rect x="695.629" y="276.336" width="3.33175" height="235.489" fill="#C9A454"/>
<rect x="713.24" y="276.336" width="3.33175" height="235.489" fill="#C9A454"/>
<rect x="730.854" y="276.336" width="3.33175" height="235.489" fill="#C9A454"/>
<rect x="748.465" y="276.336" width="3.33175" height="235.489" fill="#C9A454"/>
<rect x="766.076" y="276.336" width="3.33175" height="235.489" fill="#C9A454"/>
</g>
<rect x="381.582" y="275.055" width="388.195" height="238.049" rx="12" stroke="#835E0E" stroke-width="4"/>
<rect x="352.001" y="256" width="30.5651" height="18.8224" rx="9.41121" fill="#835E0E"/>
<rect x="356.259" y="513.137" width="22.8463" height="19.0228" rx="9.5114" fill="#A30407"/>
<rect x="765.436" y="256" width="30.5651" height="18.8224" rx="9.41121" fill="#835E0E"/>
<rect x="763.021" y="512.998" width="32.9782" height="18.8224" rx="9.41121" fill="#835E0E"/>
<ellipse cx="360.849" cy="265.413" rx="4.02173" ry="3.6197" fill="#C9A454"/>
<ellipse cx="787.151" cy="265.522" rx="4.02173" ry="3.6197" fill="#C9A454"/>
<ellipse cx="361.975" cy="522.975" rx="2.85579" ry="3.93575" fill="#FF686B"/>
<ellipse cx="787.151" cy="522.659" rx="4.02173" ry="3.6197" fill="#C9A454"/>
<path d="M139.899 223.549L195.521 180.753C198.263 178.644 202.05 178.535 204.907 180.485L268.037 223.549" stroke="#525252" stroke-width="4" stroke-linecap="round"/>
<rect x="195.551" y="375.754" width="340.575" height="168.152" fill="#DF4043"/>
<g style="mix-blend-mode:lighten">
<rect x="211.506" y="384.934" width="3.41714" height="149.793" fill="#F35457"/>
<rect x="225.553" y="384.934" width="3.41714" height="149.793" fill="#F35457"/>
<rect x="239.604" y="384.934" width="3.41714" height="149.793" fill="#F35457"/>
<rect x="253.649" y="384.934" width="3.41714" height="149.793" fill="#F35457"/>
<rect x="267.696" y="384.934" width="3.41714" height="149.793" fill="#F35457"/>
<rect x="281.743" y="384.934" width="3.41714" height="149.793" fill="#F35457"/>
<rect x="295.798" y="384.934" width="3.41714" height="149.793" fill="#F35457"/>
<rect x="309.845" y="384.934" width="3.41714" height="149.793" fill="#F35457"/>
<rect x="323.892" y="384.934" width="3.41714" height="149.793" fill="#F35457"/>
<rect x="337.941" y="384.934" width="3.41714" height="149.793" fill="#F35457"/>
<rect x="351.988" y="384.934" width="3.41714" height="149.793" fill="#F35457"/>
<rect x="366.039" y="384.934" width="3.41714" height="149.793" fill="#F35457"/>
<rect x="380.082" y="384.934" width="3.41714" height="149.793" fill="#F35457"/>
<rect x="394.133" y="384.934" width="3.41714" height="149.793" fill="#F35457"/>
<rect x="408.184" y="384.934" width="3.41714" height="149.793" fill="#F35457"/>
<rect x="422.229" y="384.934" width="3.41714" height="149.793" fill="#F35457"/>
<rect x="436.276" y="384.934" width="3.41714" height="149.793" fill="#F35457"/>
<rect x="450.323" y="384.934" width="3.41714" height="149.793" fill="#F35457"/>
<rect x="464.378" y="384.934" width="3.41714" height="149.793" fill="#F35457"/>
<rect x="478.429" y="384.934" width="3.41714" height="149.793" fill="#F35457"/>
<rect x="492.467" y="384.934" width="3.41714" height="149.793" fill="#F35457"/>
<rect x="506.521" y="384.934" width="3.41714" height="149.793" fill="#F35457"/>
<rect x="214.916" y="384.934" width="2.65778" height="149.793" fill="#FF686B"/>
<rect x="228.967" y="384.934" width="2.65778" height="149.793" fill="#FF686B"/>
<rect x="243.021" y="384.934" width="2.65778" height="149.793" fill="#FF686B"/>
<rect x="257.068" y="384.934" width="2.65778" height="149.793" fill="#FF686B"/>
<rect x="271.115" y="384.934" width="2.65778" height="149.793" fill="#FF686B"/>
<rect x="285.166" y="384.934" width="2.65778" height="149.793" fill="#FF686B"/>
<rect x="299.221" y="384.934" width="2.65778" height="149.793" fill="#FF686B"/>
<rect x="313.259" y="384.934" width="2.65778" height="149.793" fill="#FF686B"/>
<rect x="327.313" y="384.934" width="2.65778" height="149.793" fill="#FF686B"/>
<rect x="341.356" y="384.934" width="2.65778" height="149.793" fill="#FF686B"/>
<rect x="355.407" y="384.934" width="2.65778" height="149.793" fill="#FF686B"/>
<rect x="369.45" y="384.934" width="2.65778" height="149.793" fill="#FF686B"/>
<rect x="383.5" y="384.934" width="2.65778" height="149.793" fill="#FF686B"/>
<rect x="397.547" y="384.934" width="2.65778" height="149.793" fill="#FF686B"/>
<rect x="411.598" y="384.934" width="2.65778" height="149.793" fill="#FF686B"/>
<rect x="425.645" y="384.934" width="2.65778" height="149.793" fill="#FF686B"/>
<rect x="439.695" y="384.934" width="2.65778" height="149.793" fill="#FF686B"/>
<rect x="453.746" y="384.934" width="2.65778" height="149.793" fill="#FF686B"/>
<rect x="467.793" y="384.934" width="2.65778" height="149.793" fill="#FF686B"/>
<rect x="481.839" y="384.934" width="2.65778" height="149.793" fill="#FF686B"/>
<rect x="495.89" y="384.934" width="2.65778" height="149.793" fill="#FF686B"/>
<rect x="509.937" y="384.934" width="2.65778" height="149.793" fill="#FF686B"/>
<rect x="217.579" y="384.934" width="5.31555" height="149.793" fill="#DF4043"/>
<rect x="231.63" y="384.934" width="5.31555" height="149.793" fill="#DF4043"/>
<rect x="245.681" y="384.934" width="5.31555" height="149.793" fill="#DF4043"/>
<rect x="259.72" y="384.934" width="5.31555" height="149.793" fill="#DF4043"/>
<rect x="273.771" y="384.934" width="5.31555" height="149.793" fill="#DF4043"/>
<rect x="287.825" y="384.934" width="5.31555" height="149.793" fill="#DF4043"/>
<rect x="301.871" y="384.934" width="5.31555" height="149.793" fill="#DF4043"/>
<rect x="315.918" y="384.934" width="5.31555" height="149.793" fill="#DF4043"/>
<rect x="329.969" y="384.934" width="5.31555" height="149.793" fill="#DF4043"/>
<rect x="344.016" y="384.934" width="5.31555" height="149.793" fill="#DF4043"/>
<rect x="358.066" y="384.934" width="5.31555" height="149.793" fill="#DF4043"/>
<rect x="372.113" y="384.934" width="5.31555" height="149.793" fill="#DF4043"/>
<rect x="386.168" y="384.934" width="5.31555" height="149.793" fill="#DF4043"/>
<rect x="400.21" y="384.934" width="5.31555" height="149.793" fill="#DF4043"/>
<rect x="414.257" y="384.934" width="5.31555" height="149.793" fill="#DF4043"/>
<rect x="428.308" y="384.934" width="5.31555" height="149.793" fill="#DF4043"/>
<rect x="442.354" y="384.934" width="5.31555" height="149.793" fill="#DF4043"/>
<rect x="456.396" y="384.934" width="5.31555" height="149.793" fill="#DF4043"/>
<rect x="470.447" y="384.934" width="5.31555" height="149.793" fill="#DF4043"/>
<rect x="484.494" y="384.934" width="5.31555" height="149.793" fill="#DF4043"/>
<rect x="498.545" y="384.934" width="5.31555" height="149.793" fill="#DF4043"/>
<rect x="512.592" y="384.934" width="5.31555" height="149.793" fill="#DF4043"/>
<rect x="222.894" y="384.934" width="2.65778" height="149.793" fill="#C12225"/>
<rect x="236.944" y="384.934" width="2.65778" height="149.793" fill="#C12225"/>
<rect x="250.995" y="384.934" width="2.65778" height="149.793" fill="#C12225"/>
<rect x="265.046" y="384.934" width="2.65778" height="149.793" fill="#C12225"/>
<rect x="279.088" y="384.934" width="2.65778" height="149.793" fill="#C12225"/>
<rect x="293.143" y="384.934" width="2.65778" height="149.793" fill="#C12225"/>
<rect x="307.189" y="384.934" width="2.65778" height="149.793" fill="#C12225"/>
<rect x="321.232" y="384.934" width="2.65778" height="149.793" fill="#C12225"/>
<rect x="335.283" y="384.934" width="2.65778" height="149.793" fill="#C12225"/>
<rect x="349.329" y="384.934" width="2.65778" height="149.793" fill="#C12225"/>
<rect x="363.38" y="384.934" width="2.65778" height="149.793" fill="#C12225"/>
<rect x="377.427" y="384.934" width="2.65778" height="149.793" fill="#C12225"/>
<rect x="391.474" y="384.934" width="2.65778" height="149.793" fill="#C12225"/>
<rect x="405.524" y="384.934" width="2.65778" height="149.793" fill="#C12225"/>
<rect x="419.57" y="384.934" width="2.65778" height="149.793" fill="#C12225"/>
<rect x="433.621" y="384.934" width="2.65778" height="149.793" fill="#C12225"/>
<rect x="447.672" y="384.934" width="2.65778" height="149.793" fill="#C12225"/>
<rect x="461.715" y="384.934" width="2.65778" height="149.793" fill="#C12225"/>
<rect x="475.766" y="384.934" width="2.65778" height="149.793" fill="#C12225"/>
<rect x="489.812" y="384.934" width="2.65778" height="149.793" fill="#C12225"/>
<rect x="503.863" y="384.934" width="2.65778" height="149.793" fill="#C12225"/>
<rect x="517.909" y="384.934" width="2.65778" height="149.793" fill="#C12225"/>
</g>
<rect x="211.602" y="384.848" width="308.858" height="149.966" rx="8" stroke="#A30407" stroke-width="4"/>
<rect x="191.001" y="372" width="18.2244" height="12.1" rx="6.05002" fill="#A30407"/>
<rect x="191.001" y="535.562" width="18.2244" height="12.1" rx="6.05002" fill="#A30407"/>
<rect x="522.459" y="372" width="18.2244" height="12.1" rx="6.05002" fill="#A30407"/>
<rect x="522.459" y="535.562" width="18.2244" height="12.1" rx="6.05002" fill="#A30407"/>
<ellipse cx="195.558" cy="378.257" rx="2.27805" ry="2.50345" fill="#FF686B"/>
<ellipse cx="536.133" cy="378.257" rx="2.27805" ry="2.50345" fill="#FF686B"/>
<ellipse cx="195.558" cy="541.822" rx="2.27805" ry="2.50345" fill="#FF686B"/>
<ellipse cx="536.133" cy="541.822" rx="2.27805" ry="2.50345" fill="#FF686B"/>
<path d="M198.588 183.008C196.368 182.698 194.196 181.457 194.196 179.785C194.759 179.199 195.588 177.314 196.006 177.94C196.73 179.026 198.363 180.566 199.264 180.957C199.151 181.348 198.858 182.305 198.588 183.008Z" fill="#717171" stroke="#717171"/>
<rect x="137.001" y="220.654" width="132.481" height="128.137" rx="8" fill="#C9A454"/>
<rect x="147.86" y="235.133" width="54.2954" height="28.9576" rx="6" fill="#E7C272"/>
<rect x="147.86" y="273.502" width="54.2954" height="28.2336" rx="6" fill="#E7C272"/>
<rect x="147.86" y="311.146" width="54.2954" height="28.9576" rx="6" fill="#E7C272"/>
<rect x="205.051" y="235.133" width="54.2954" height="28.9576" rx="6" fill="#E7C272"/>
<rect x="205.051" y="311.146" width="54.2954" height="28.9576" rx="6" fill="#E7C272"/>
<rect x="205.051" y="273.502" width="54.2954" height="28.2336" rx="6" fill="#E7C272"/>
<rect x="165.237" y="221.738" width="4.34364" height="127.248" fill="#F5EAB8"/>
<rect x="188.443" y="222.102" width="4.34364" height="127.248" fill="#F5EAB8"/>
<rect x="163.787" y="220.654" width="7.23939" height="7.23939" rx="2" fill="#F5EAB8"/>
<rect x="186.952" y="220.654" width="7.23939" height="7.23939" rx="2" fill="#F5EAB8"/>
<rect x="163.787" y="341.553" width="7.23939" height="7.23939" rx="2" fill="#F5EAB8"/>
<rect x="186.952" y="341.553" width="7.23939" height="7.23939" rx="2" fill="#F5EAB8"/>
<rect x="211.608" y="221.379" width="4.34364" height="127.248" fill="#F5EAB8"/>
<rect x="234.708" y="221.738" width="4.34364" height="127.248" fill="#F5EAB8"/>
<rect x="210.118" y="220.654" width="7.23939" height="7.23939" rx="2" fill="#F5EAB8"/>
<rect x="233.262" y="220.654" width="7.23939" height="7.23939" rx="2" fill="#F5EAB8"/>
<rect x="210.118" y="341.553" width="7.23939" height="7.23939" rx="2" fill="#F5EAB8"/>
<rect x="233.343" y="341.553" width="7.23939" height="7.23939" rx="2" fill="#F5EAB8"/>
<rect x="671" y="335" width="210.205" height="203.313" rx="8" fill="#A30407"/>
<rect x="688.227" y="357.973" width="86.1496" height="45.9464" rx="6" fill="#CB2C2F"/>
<rect x="688.227" y="418.854" width="86.1496" height="44.7978" rx="6" fill="#CB2C2F"/>
<rect x="688.227" y="478.582" width="86.1496" height="45.9464" rx="6" fill="#CB2C2F"/>
<rect x="778.971" y="357.973" width="86.1496" height="45.9464" rx="6" fill="#CB2C2F"/>
<rect x="778.971" y="478.582" width="86.1496" height="45.9464" rx="6" fill="#CB2C2F"/>
<rect x="778.971" y="418.854" width="86.1496" height="44.7978" rx="6" fill="#CB2C2F"/>
<rect x="718.023" y="336.719" width="4.59464" height="201.902" fill="#FF7275"/>
<rect x="752.443" y="336.719" width="4.59464" height="201.902" fill="#FF7275"/>
<rect x="714.646" y="335" width="11.4866" height="11.4866" rx="2" fill="#FF7275"/>
<rect x="749.062" y="335" width="11.4866" height="11.4866" rx="2" fill="#FF7275"/>
<rect x="714.646" y="526.826" width="11.4866" height="11.4866" rx="2" fill="#FF7275"/>
<rect x="749.062" y="526.826" width="11.4866" height="11.4866" rx="2" fill="#FF7275"/>
<rect x="796.139" y="336.719" width="4.59464" height="201.902" fill="#FF7275"/>
<rect x="828.258" y="336.719" width="4.59464" height="201.902" fill="#FF7275"/>
<rect x="792.758" y="335" width="11.4866" height="11.4866" rx="2" fill="#FF7275"/>
<rect x="824.877" y="335" width="11.4866" height="11.4866" rx="2" fill="#FF7275"/>
<rect x="792.758" y="526.826" width="11.4866" height="11.4866" rx="2" fill="#FF7275"/>
<rect x="825.006" y="526.826" width="11.4866" height="11.4866" rx="2" fill="#FF7275"/>
<path d="M273.474 442.298C274.795 440.847 276.823 440.159 278.687 440.774C281.514 441.706 282.647 445.079 280.677 447.312C277.014 451.464 272.515 455.269 268.052 458.186C266.335 459.308 264.197 458.975 262.884 457.399C261.063 455.213 261.527 451.495 263.951 450.005C267.543 447.795 270.889 445.135 273.474 442.298ZM298.522 447.886C296.315 446.336 296.125 443.086 298.204 441.367C299.495 440.299 301.319 440.149 302.745 441.029C307.14 443.743 312.121 447.162 315.9 450.272C317.885 451.905 317.782 454.863 315.846 456.554C314.005 458.163 311.203 458.005 309.382 456.374C306.353 453.66 302.382 450.598 298.522 447.886ZM298.82 466.335C293.756 462.309 285.746 462.409 280.765 466.539C275.667 470.766 269.52 474.797 263.143 477.958C261.272 478.886 259.09 478.175 257.98 476.407C256.558 474.143 257.291 470.807 259.682 469.612C268.331 465.288 276.322 459.059 281.613 453.064C283.628 450.78 286.443 449.255 289.489 449.255C292.297 449.255 294.924 450.551 296.851 452.594C303.139 459.256 311.083 464.668 319.286 468.28C322.036 469.49 323.033 473.23 321.439 475.776C320.306 477.585 318.072 478.293 316.16 477.344C310.281 474.424 304.088 470.522 298.82 466.335ZM268.144 479.043C268.144 473.52 272.621 469.043 278.144 469.043H301.092C306.615 469.043 311.092 473.52 311.092 479.043V490.613C311.092 493.16 309.027 495.225 306.48 495.225C303.932 495.225 301.867 493.16 301.867 490.613V486.13C301.867 481.107 297.795 477.035 292.772 477.035H286.048C281.004 477.035 276.915 481.124 276.915 486.168V490.916C276.915 493.338 274.951 495.301 272.529 495.301C270.107 495.301 268.144 493.338 268.144 490.916V479.043ZM272.227 489.174C272.227 486.968 274.016 485.179 276.223 485.179H302.484C304.691 485.179 306.48 486.968 306.48 489.174C306.48 491.381 304.691 493.17 302.484 493.17H276.223C274.016 493.17 272.227 491.381 272.227 489.174ZM284.476 428.522C284.476 425.933 286.575 423.834 289.164 423.834C291.753 423.834 293.852 425.933 293.852 428.522V429.954C293.852 432.543 291.753 434.642 289.164 434.642C286.575 434.642 284.476 432.543 284.476 429.954V428.522ZM256.953 438.143C256.953 433.603 260.633 429.923 265.173 429.923H313.609C318.149 429.923 321.829 433.603 321.829 438.143V441.712C321.829 444.281 319.747 446.363 317.179 446.363H316.639C314.369 446.363 312.529 444.522 312.529 442.253C312.529 439.983 310.688 438.143 308.419 438.143H269.91C267.64 438.143 265.8 439.983 265.8 442.253C265.8 444.522 263.96 446.363 261.69 446.363H261.376C258.933 446.363 256.953 444.382 256.953 441.939V438.143Z" fill="#343434"/>
<path d="M351.712 445.982C350.408 445.982 349.352 447.038 349.352 448.341C349.352 449.644 350.408 450.701 351.712 450.701H378.826C380.129 450.701 381.185 449.644 381.185 448.341C381.185 447.038 380.129 445.982 378.826 445.982H351.712ZM351.712 434.413C350.408 434.413 349.352 435.47 349.352 436.773C349.352 438.076 350.408 439.132 351.712 439.132H378.826C380.129 439.132 381.185 438.076 381.185 436.773C381.185 435.47 380.129 434.413 378.826 434.413H351.712ZM340.43 437.107C340.43 431.584 344.907 427.107 350.43 427.107H380.41C385.933 427.107 390.41 431.584 390.41 437.107V448.083C390.41 453.606 385.933 458.083 380.41 458.083H350.43C344.907 458.083 340.43 453.606 340.43 448.083V437.107ZM345.118 466.646C345.118 464.439 346.907 462.65 349.114 462.65H385.356C387.562 462.65 389.351 464.439 389.351 466.646C389.351 468.853 387.562 470.642 385.356 470.642H349.114C346.907 470.642 345.118 468.853 345.118 466.646ZM387.31 463.944C387.31 463.229 387.889 462.65 388.604 462.65H392.936C394.886 462.65 396.537 464.314 396.157 466.227C394.569 482.819 392.83 489.745 390.41 492.409C388.52 494.312 386.629 494.997 384.134 495.225C382.533 495.464 380.001 495.515 377.122 495.453C375.735 495.423 374.642 494.47 374.369 493.11C373.92 490.863 375.774 487.94 378.065 487.981C378.821 487.995 379.451 487.995 379.9 487.995C381.185 487.995 381.866 487.842 382.698 487.005C384.361 485.407 386.024 479.014 387.31 463.944ZM347.798 457.096C349.003 455.374 351.164 454.514 353.164 455.162C355.863 456.036 357.055 459.189 355.392 461.488C350.683 467.992 344.592 473.818 338.492 478.101C336.937 479.193 334.961 479.019 333.621 477.671C331.606 475.644 331.824 471.81 334.193 470.212C339.477 466.649 344.307 462.078 347.798 457.096ZM355.337 468.661C356.461 466.861 358.622 465.915 360.653 466.53C363.269 467.322 364.526 470.301 363.05 472.602C358.123 480.283 351.367 486.973 344.432 491.793C342.861 492.885 340.876 492.696 339.536 491.329C337.57 489.322 337.802 485.59 340.143 484.037C346.196 480.021 351.604 474.641 355.337 468.661ZM371.251 469.755C372.114 467.663 374.335 466.406 376.535 466.935C379.028 467.535 380.473 470.158 379.472 472.518C375.951 480.824 370.923 488.201 365.323 493.544C363.904 494.898 361.816 494.926 360.296 493.688C358.208 491.986 358.018 488.496 359.967 486.637C364.677 482.144 368.578 476.237 371.251 469.755Z" fill="#343434"/>
<path d="M449.464 428.106C449.464 425.747 451.377 423.834 453.736 423.834C456.095 423.834 458.008 425.747 458.008 428.106V473.295C458.008 475.655 456.095 477.568 453.736 477.568C451.377 477.568 449.464 475.655 449.464 473.295V428.106ZM428.769 458.43C427.836 456.218 428.866 453.668 431.074 452.724L462.356 439.351C464.507 438.431 466.997 439.428 467.918 441.578C468.836 443.72 467.853 446.201 465.717 447.133L434.532 460.733C432.305 461.704 429.713 460.668 428.769 458.43ZM434.568 435.527C434.568 433.146 436.498 431.217 438.878 431.217C441.258 431.217 443.188 433.146 443.188 435.527V480.536C443.188 485.026 443.868 485.635 448.556 485.635C450.825 485.635 460.881 485.635 463.225 485.635C466.106 485.635 467.354 484.832 468.05 481.732C468.599 479.291 471.526 477.781 473.886 478.612C475.475 479.171 476.566 480.688 476.303 482.352C474.962 490.865 471.966 493.779 463.982 493.779C461.486 493.779 450.144 493.779 447.8 493.779C437.441 493.779 434.568 491.039 434.568 480.46V435.527ZM464.511 438.806C464.511 438.735 464.453 438.675 464.382 438.675C464.257 438.675 464.205 438.515 464.307 438.442L466.697 436.723C466.985 436.516 467.357 436.464 467.691 436.584L472.209 438.208C472.947 438.474 473.365 439.255 473.176 440.016C473.146 440.137 473.131 440.262 473.131 440.387C473.129 454.814 472.978 463.957 472.677 467.064C472.375 470.565 471.089 472.392 468.745 473.382C467.283 474.092 465.35 474.329 463.507 474.408C462.005 474.472 460.745 473.331 460.451 471.857C460.35 471.353 460.238 470.84 460.114 470.335C459.724 468.747 460.985 466.912 462.621 466.912C463.528 466.912 463.982 466.684 464.208 465.314C464.51 463.796 464.511 455.539 464.511 438.806ZM405.381 445.792C405.381 443.417 407.307 441.491 409.682 441.491H426.034C428.408 441.491 430.334 443.417 430.334 445.792C430.334 448.167 428.408 450.092 426.034 450.092H409.682C407.307 450.092 405.381 448.167 405.381 445.792ZM414.153 429.134C414.153 426.795 416.048 424.9 418.387 424.9C420.725 424.9 422.621 426.795 422.621 429.134V471.126C422.621 473.465 420.725 475.36 418.387 475.36C416.048 475.36 414.153 473.465 414.153 471.126V429.134ZM406.12 479.96C405.136 477.483 406.392 474.681 408.873 473.71C413.594 471.863 419.331 469.48 425.097 467.031C427.49 466.014 430.231 467.367 430.869 469.888C431.352 471.799 430.453 473.792 428.692 474.678C423.221 477.428 417.573 480.128 412.46 482.5C410.01 483.636 407.117 482.469 406.12 479.96Z" fill="#343434"/>
</g>
<defs>
<clipPath id="clip0_594_10849">
<rect width="970" height="557" fill="white"/>
</clipPath>
</defs>
</svg>
