<svg width="866" height="546" viewBox="0 0 866 546" fill="none" xmlns="http://www.w3.org/2000/svg">
<path fill-rule="evenodd" clip-rule="evenodd" d="M688.534 66.5032C747.344 100.688 771.779 157.659 781.135 219.392C794.274 306.087 838.307 406.84 751.604 482.641C664.505 558.789 529.35 534.641 414.181 540.205C309.233 545.274 198.637 558.669 124.959 512.913C44.9265 463.211 5.08928 381.476 12.9848 291.051C21.2689 196.175 56.1811 77.4893 167.968 20.341C275.992 -34.884 376.64 38.7688 487.277 48.5798C557.028 54.765 636.04 35.9896 688.534 66.5032Z" fill="#2A2A2A"/>
<path d="M440.501 366.5C118.001 342.5 260.501 50.8908 365.001 109.5C449.501 156.892 276.001 326.999 149.001 165" stroke="#525252" stroke-width="7" stroke-dasharray="25 15"/>
<rect x="385.866" y="243.211" width="408.209" height="255.362" rx="16" fill="#F5EAB8"/>
<path d="M718.562 484.806H483.562C692.451 478.81 756.162 439.837 772.873 362.746C772.525 387.729 772.873 435.554 772.873 455.897C772.873 478.382 754.073 484.806 718.562 484.806Z" fill="#E1D6A4"/>
<path d="M419.844 337.318L528.793 337.318C431.95 340.101 402.413 358.196 394.665 393.988C394.827 382.389 394.665 360.185 394.665 350.74C394.665 340.3 403.381 337.318 419.844 337.318Z" fill="#FFFECC"/>
<path d="M371.946 327.147H809.057C821.755 327.147 829.971 313.731 824.2 302.421L793.815 242.867H385.812L356.663 302.701C351.162 313.994 359.385 327.147 371.946 327.147Z" fill="#BF9A50"/>
<path d="M372.233 327.145H808.4C821.253 327.145 829.457 313.432 823.379 302.107L809.133 275.561H370.488L357.02 302.557C351.382 313.859 359.602 327.145 372.233 327.145Z" fill="#C9A45A"/>
<path d="M429.141 171.646L419.617 211.624H758.836L749.312 171.646C747.488 163.989 740.646 158.586 732.775 158.586H445.679C437.807 158.586 430.966 163.989 429.141 171.646Z" fill="#B59046"/>
<path d="M330.348 214.626L385.867 243.212L419.885 211.518L356.895 182.588C353.15 180.868 348.784 181.19 345.332 183.441L329.286 193.906C321.577 198.934 322.165 210.413 330.348 214.626Z" fill="#C9A45A"/>
<path d="M385.93 243.213H794.082L759.093 211.52H419.89L385.93 243.213Z" fill="#6F4A00"/>
<path d="M822.693 181.064L759.09 211.517L794.079 243.211L849.063 213.443C856.875 209.214 857.543 198.258 850.303 193.11L834.829 182.108C831.274 179.58 826.628 179.18 822.693 181.064Z" fill="#C9A45A"/>
<path d="M841.532 209.461L797.965 234.539C835.956 211.139 838.873 200.769 832.525 184.741C835.522 189.395 845.566 194.564 848.058 198.323C850.813 202.478 848.115 205.671 841.532 209.461Z" fill="#B59046"/>
<path d="M337.738 211.062L381.214 236.276C343.307 212.758 340.428 202.379 346.833 186.371C343.819 191.015 333.757 196.153 331.251 199.904C328.481 204.05 331.168 207.252 337.738 211.062Z" fill="#B59046"/>
<path d="M461.79 153C461.79 127.595 482.385 107 507.79 107H686.793C712.198 107 732.793 127.595 732.793 153V242.865H461.79V153Z" fill="#CB2C2F"/>
<path d="M461.79 153C461.79 127.595 482.385 107 507.79 107H686.793C712.198 107 732.793 127.595 732.793 153V173.842H461.79V153Z" fill="#D53639"/>
<path d="M699.66 236.327H603.465C688.972 233.686 715.052 216.519 721.892 182.562C721.75 193.567 721.892 214.633 721.892 223.593C721.892 233.497 714.197 236.327 699.66 236.327Z" fill="#C12225"/>
<path d="M496.662 116.444L589.297 117.171C503.79 119.812 477.347 136.979 470.506 170.936C470.649 159.931 470.506 147.201 470.506 138.241C470.506 128.337 482.126 116.444 496.662 116.444Z" fill="#DF4043"/>
<path d="M543.839 173.018C543.839 171.497 545.072 170.263 546.594 170.263H591.197C592.719 170.263 593.952 171.497 593.952 173.018C593.952 174.54 592.719 175.773 591.197 175.773H546.594C545.072 175.773 543.839 174.54 543.839 173.018ZM546.38 156.488C546.38 155.01 547.578 153.812 549.055 153.812H588.894C590.372 153.812 591.569 155.01 591.569 156.488C591.569 157.965 590.372 159.163 588.894 159.163H549.055C547.578 159.163 546.38 157.965 546.38 156.488ZM565.123 159.266C565.123 157.621 566.456 156.288 568.101 156.288C569.746 156.288 571.079 157.621 571.079 159.266V168.267C571.079 177.942 568.543 190.543 550.164 199.525C549.142 200.025 548 199.769 547.28 198.89C546.17 197.534 546.44 195.136 548.014 194.366C563.877 186.605 565.123 175.865 565.123 168.187V159.266ZM570.294 174.308C571.669 174.011 573.025 174.848 573.477 176.18C576.364 184.695 581.82 190.781 590.048 194.233C591.771 194.956 592.35 197.475 591.318 199.033C590.657 200.032 589.445 200.476 588.338 200.02C578.312 195.891 571.887 188.402 568.371 177.555C567.906 176.12 568.82 174.627 570.294 174.308ZM534.312 170.103C537.073 170.103 539.312 172.342 539.312 175.103V195.474C539.312 197.075 538.014 198.373 536.413 198.373C534.812 198.373 533.514 197.075 533.514 195.474V180.693C533.514 177.932 531.276 175.693 528.514 175.693H525.191C523.647 175.693 522.396 174.442 522.396 172.898C522.396 171.355 523.647 170.103 525.191 170.103H534.312ZM536.556 195.738C538.272 195.738 539.825 196.659 540.977 197.93C544.963 202.329 551.329 204.416 559.246 204.762C566.723 205.038 581.073 204.896 590.884 204.441C592.822 204.351 594.235 206.36 593.706 208.227C593.362 209.439 592.319 210.386 591.06 210.423C581.983 210.693 567.374 210.806 559.246 210.511C551.232 210.202 545.133 208.448 540.427 204.729C538.175 202.95 534.899 202.626 532.731 204.505C531.074 205.94 529.377 207.38 527.637 208.83C526.048 210.156 523.646 209.658 522.696 207.82C521.937 206.351 522.402 204.548 523.753 203.594C526.564 201.608 529.643 199.27 532.504 196.914C533.418 196.161 534.561 195.738 535.746 195.738H536.556ZM526.228 146.305C524.781 145.185 524.684 142.986 526.097 141.824C527.015 141.068 528.319 140.985 529.298 141.661C533.164 144.331 537.22 147.788 539.916 150.862C540.941 152.031 540.702 153.776 539.509 154.773C538.132 155.922 536.048 155.627 534.867 154.278C532.587 151.672 529.407 148.763 526.228 146.305ZM580.033 141.091C580.706 139.687 582.316 138.956 583.789 139.462C585.55 140.068 586.312 142.139 585.343 143.729C583.499 146.757 581.536 149.84 579.763 152.293C579.101 153.209 577.904 153.539 576.847 153.139C575.285 152.546 574.685 150.645 575.562 149.223C577.122 146.693 578.765 143.736 580.033 141.091ZM551.516 143.83C550.548 142.347 551.101 140.292 552.741 139.622C553.824 139.18 555.074 139.487 555.777 140.422C557.868 143.2 559.813 146.447 561.043 149.254C561.631 150.598 560.939 152.103 559.598 152.698C557.985 153.414 556.093 152.541 555.386 150.924C554.403 148.675 553.033 146.153 551.516 143.83Z" fill="#F5EAB8"/>
<path d="M622.841 139.683C623.634 138.838 624.856 138.523 625.936 138.944C627.665 139.619 628.217 141.786 626.927 143.121C621.257 148.988 613.69 154.323 606.708 158.069C605.746 158.585 604.703 158.514 603.943 157.73C602.624 156.372 602.821 153.709 604.51 152.853C611.35 149.385 618.11 144.718 622.841 139.683ZM662.249 142.11C663.183 141.762 664.236 141.932 664.983 142.59C666.451 143.881 666.018 146.25 664.154 146.843C657.152 149.071 648.346 150.926 640.324 152.253C639.353 152.414 638.449 151.839 638.114 150.913C637.671 149.688 638.324 148.127 639.604 147.881C647.816 146.305 656.564 144.229 662.249 142.11ZM635.011 142.137C635.011 140.558 636.292 139.278 637.871 139.278C639.45 139.278 640.73 140.558 640.73 142.137V155.809C640.73 158.045 641.524 158.524 646.289 158.524C648.513 158.524 660.028 158.524 663.046 158.524C665.685 158.524 666.722 158.002 667.211 155.351C667.511 153.728 669.433 152.673 671.005 153.174C672.047 153.506 672.749 154.483 672.603 155.567C671.749 161.888 669.692 163.555 663.523 163.555C661.537 163.555 647.877 163.555 645.971 163.555C637.235 163.555 635.011 162.038 635.011 155.809V142.137ZM620.81 180.325C619.311 180.325 618.095 181.541 618.095 183.04C618.095 184.54 619.311 185.756 620.81 185.756H655.407C656.907 185.756 658.122 184.54 658.122 183.04C658.122 181.541 656.907 180.325 655.407 180.325H620.81ZM620.89 189.669C619.347 189.669 618.095 190.92 618.095 192.464C618.095 194.007 619.347 195.259 620.89 195.259H655.327C656.871 195.259 658.122 194.007 658.122 192.464C658.122 190.92 656.871 189.669 655.327 189.669H620.89ZM620.81 170.982C619.311 170.982 618.095 172.198 618.095 173.697C618.095 175.197 619.311 176.412 620.81 176.412H655.407C656.907 176.412 658.122 175.197 658.122 173.697C658.122 172.198 656.907 170.982 655.407 170.982H620.81ZM612.298 171.989C612.298 169.228 614.536 166.989 617.298 166.989H659.079C661.84 166.989 664.079 169.228 664.079 171.989V194.252C664.079 197.013 661.84 199.252 659.079 199.252H617.298C614.536 199.252 612.298 197.013 612.298 194.252V171.989ZM648.75 204.85C646.985 204.225 646.7 201.823 648.287 200.829C648.833 200.487 649.502 200.399 650.118 200.593C656.206 202.512 662.63 204.786 667.806 206.884C669.974 207.763 669.98 210.721 667.855 211.7C667.077 212.058 666.179 212.032 665.411 211.651C661.247 209.584 655.176 207.125 648.75 204.85ZM624.543 200.701C625.24 200.354 626.057 200.321 626.765 200.645C628.574 201.475 628.685 203.952 626.896 204.824C621.2 207.599 614.103 210.147 608.008 211.937C607.144 212.191 606.335 212.03 605.746 211.348C604.5 209.906 605.069 207.165 606.919 206.704C613.307 205.111 619.911 203.008 624.543 200.701ZM616.03 151.352C616.03 150.014 616.567 148.732 617.519 147.792L619.73 145.611C620.043 145.302 620.502 145.191 620.922 145.325C621.414 145.481 621.749 145.938 621.749 146.455V161.814C621.749 163.393 620.469 164.673 618.889 164.673C617.31 164.673 616.03 163.393 616.03 161.814V151.352Z" fill="#F5EAB8"/>
<rect x="417.897" y="375.643" width="22.4543" height="23.2101" stroke="#121212" stroke-width="4"/>
<rect x="424.213" y="381.957" width="9.82588" height="10.5817" fill="#121212"/>
<rect x="417.897" y="442.914" width="22.4543" height="23.2101" stroke="#121212" stroke-width="4"/>
<rect x="424.213" y="449.229" width="9.82588" height="10.5817" fill="#121212"/>
<rect x="485.164" y="375.643" width="22.4543" height="23.2101" stroke="#121212" stroke-width="4"/>
<rect x="491.48" y="381.957" width="9.82588" height="10.5817" fill="#121212"/>
<rect x="446.132" y="378.178" width="4.53502" height="22.6751" fill="#121212"/>
<rect x="469.941" y="405.389" width="4.53502" height="22.6751" transform="rotate(90 469.941 405.389)" fill="#121212"/>
<rect x="472.205" y="408.412" width="4.53502" height="22.6751" fill="#121212"/>
<rect x="415.896" y="407.656" width="4.53502" height="22.6751" fill="#121212"/>
<rect x="505.084" y="441.668" width="4.53502" height="22.6751" transform="rotate(90 505.084 441.668)" fill="#121212"/>
<rect x="446.132" y="434.109" width="4.53502" height="22.6751" fill="#121212"/>
<rect x="509.619" y="430.33" width="4.53502" height="22.6751" transform="rotate(-180 509.619 430.33)" fill="#121212"/>
<rect x="450.663" y="378.178" width="4.53502" height="7.55837" fill="#121212"/>
<rect x="469.941" y="409.924" width="4.53502" height="7.55837" transform="rotate(90 469.941 409.924)" fill="#121212"/>
<rect x="476.74" y="408.412" width="4.53502" height="7.55837" fill="#121212"/>
<rect x="420.435" y="407.656" width="4.53502" height="7.55837" fill="#121212"/>
<rect x="505.084" y="446.205" width="4.53502" height="7.55837" transform="rotate(90 505.084 446.205)" fill="#121212"/>
<rect x="450.663" y="434.109" width="4.53502" height="7.55837" fill="#121212"/>
<rect x="459.737" y="378.178" width="4.53502" height="7.55837" fill="#121212"/>
<rect x="469.941" y="418.994" width="4.53502" height="7.55837" transform="rotate(90 469.941 418.994)" fill="#121212"/>
<rect x="485.814" y="408.412" width="4.53502" height="7.55837" fill="#121212"/>
<rect x="429.501" y="407.656" width="4.53502" height="7.55837" fill="#121212"/>
<rect x="499.037" y="459.809" width="4.53502" height="7.55837" transform="rotate(90 499.037 459.809)" fill="#121212"/>
<rect x="458.982" y="460.564" width="4.53502" height="7.55837" transform="rotate(-90 458.982 460.564)" fill="#121212"/>
<rect x="456.711" y="373.643" width="4.53502" height="5.29086" fill="#121212"/>
<rect x="474.473" y="415.971" width="4.53502" height="5.29086" transform="rotate(90 474.473 415.971)" fill="#121212"/>
<rect x="482.787" y="403.877" width="4.53502" height="5.29086" fill="#121212"/>
<rect x="426.475" y="403.121" width="4.53502" height="5.29086" fill="#121212"/>
<rect x="415.896" y="433.354" width="4.53502" height="5.29086" fill="#121212"/>
<rect x="509.619" y="452.25" width="4.53502" height="5.29086" transform="rotate(90 509.619 452.25)" fill="#121212"/>
<rect x="448.396" y="468.123" width="4.53502" height="5.29086" transform="rotate(-90 448.396 468.123)" fill="#121212"/>
<rect x="469.562" y="468.123" width="4.53502" height="5.29086" transform="rotate(-90 469.562 468.123)" fill="#121212"/>
<rect x="459.864" y="468.123" width="4.53502" height="5.29086" transform="rotate(-90 459.864 468.123)" fill="#121212"/>
<rect x="468.808" y="373.643" width="4.53502" height="5.29086" fill="#121212"/>
<rect x="474.473" y="428.064" width="4.53502" height="5.29086" transform="rotate(90 474.473 428.064)" fill="#121212"/>
<rect x="494.885" y="403.877" width="4.53502" height="5.29086" fill="#121212"/>
<rect x="438.571" y="403.121" width="4.53502" height="5.29086" fill="#121212"/>
<rect x="475.61" y="400.098" width="4.53502" height="5.29086" fill="#121212"/>
<rect x="509.619" y="464.344" width="4.53502" height="5.29086" transform="rotate(90 509.619 464.344)" fill="#121212"/>
<rect x="448.396" y="456.029" width="4.53502" height="5.29086" transform="rotate(-90 448.396 456.029)" fill="#121212"/>
<rect x="464.265" y="378.178" width="4.53502" height="5.29086" fill="#121212"/>
<rect x="469.941" y="423.527" width="4.53502" height="5.29086" transform="rotate(90 469.941 423.527)" fill="#121212"/>
<rect x="490.346" y="408.412" width="4.53502" height="5.29086" fill="#121212"/>
<rect x="434.036" y="407.656" width="4.53502" height="5.29086" fill="#121212"/>
<rect x="505.084" y="459.809" width="4.53502" height="5.29086" transform="rotate(90 505.084 459.809)" fill="#121212"/>
<rect x="452.935" y="460.564" width="4.53502" height="5.29086" transform="rotate(-90 452.935 460.564)" fill="#121212"/>
<rect x="456.711" y="451.494" width="4.53502" height="5.29086" transform="rotate(-90 456.711 451.494)" fill="#121212"/>
<rect x="483.922" y="425.041" width="4.53502" height="5.29086" transform="rotate(-90 483.922 425.041)" fill="#121212"/>
<rect x="457.466" y="394.051" width="4.53502" height="5.29086" transform="rotate(-90 457.466 394.051)" fill="#121212"/>
<rect x="474.852" y="394.807" width="4.53502" height="5.29086" transform="rotate(-90 474.852 394.807)" fill="#121212"/>
<rect x="427.237" y="427.309" width="4.53502" height="5.29086" transform="rotate(-90 427.237 427.309)" fill="#121212"/>
<rect x="455.202" y="378.178" width="4.53502" height="5.29086" fill="#121212"/>
<rect x="469.941" y="414.457" width="4.53502" height="5.29086" transform="rotate(90 469.941 414.457)" fill="#121212"/>
<rect x="481.279" y="408.412" width="4.53502" height="5.29086" fill="#121212"/>
<rect x="424.97" y="407.656" width="4.53502" height="5.29086" fill="#121212"/>
<rect x="425.724" y="433.354" width="4.53502" height="5.29086" fill="#121212"/>
<rect x="501.305" y="455.273" width="4.53502" height="5.29086" transform="rotate(90 501.305 455.273)" fill="#121212"/>
<rect x="459.737" y="437.889" width="4.53502" height="5.29086" fill="#121212"/>
<rect x="456.711" y="465.1" width="4.53502" height="5.29086" transform="rotate(-90 456.711 465.1)" fill="#121212"/>
<rect x="509.619" y="440.912" width="4.53502" height="5.29086" transform="rotate(90 509.619 440.912)" fill="#121212"/>
<rect x="464.265" y="395.562" width="4.53502" height="7.55837" fill="#121212"/>
<rect x="452.556" y="423.527" width="4.53502" height="7.55837" transform="rotate(90 452.556 423.527)" fill="#121212"/>
<rect x="490.346" y="425.797" width="4.53502" height="7.55837" fill="#121212"/>
<rect x="434.036" y="425.041" width="4.53502" height="7.55837" fill="#121212"/>
<rect x="474.097" y="442.424" width="4.53502" height="7.55837" fill="#121212"/>
<rect x="459.737" y="431.086" width="4.53502" height="7.55837" fill="#121212"/>
<rect x="487.703" y="459.809" width="4.53502" height="7.55837" transform="rotate(90 487.703 459.809)" fill="#121212"/>
<rect x="464.265" y="451.494" width="4.53502" height="7.55837" fill="#121212"/>
<rect x="470.312" y="460.564" width="4.53502" height="7.55837" transform="rotate(-90 470.312 460.564)" fill="#121212"/>
<rect x="505.084" y="430.33" width="4.53502" height="7.55837" transform="rotate(-180 505.084 430.33)" fill="#121212"/>
<rect x="450.663" y="388.76" width="4.53502" height="7.55837" fill="#121212"/>
<rect x="459.358" y="409.924" width="4.53502" height="7.55837" transform="rotate(90 459.358 409.924)" fill="#121212"/>
<rect x="476.74" y="418.994" width="4.53502" height="7.55837" fill="#121212"/>
<rect x="420.435" y="418.236" width="4.53502" height="7.55837" fill="#121212"/>
<rect x="494.506" y="446.205" width="4.53502" height="7.55837" transform="rotate(90 494.506 446.205)" fill="#121212"/>
<rect x="450.663" y="444.691" width="4.53502" height="7.55837" fill="#121212"/>
<rect x="468.049" y="388.76" width="4.53502" height="7.55837" fill="#121212"/>
<rect x="459.358" y="427.309" width="4.53502" height="7.55837" transform="rotate(90 459.358 427.309)" fill="#121212"/>
<rect x="482.408" y="434.109" width="4.53502" height="7.55837" transform="rotate(90 482.408 434.109)" fill="#121212"/>
<rect x="480.141" y="380.447" width="4.53502" height="7.55837" transform="rotate(90 480.141 380.447)" fill="#121212"/>
<rect x="449.908" y="412.947" width="4.53502" height="7.55837" transform="rotate(90 449.908 412.947)" fill="#121212"/>
<rect x="462.001" y="398.586" width="4.53502" height="7.55837" transform="rotate(90 462.001 398.586)" fill="#121212"/>
<rect x="496.018" y="435.623" width="4.53502" height="7.55837" transform="rotate(90 496.018 435.623)" fill="#121212"/>
<rect x="494.125" y="418.994" width="4.53502" height="7.55837" fill="#121212"/>
<rect x="437.816" y="418.236" width="4.53502" height="7.55837" fill="#121212"/>
<rect x="494.506" y="463.588" width="4.53502" height="7.55837" transform="rotate(90 494.506 463.588)" fill="#121212"/>
<rect x="462.76" y="449.227" width="4.53502" height="7.55837" transform="rotate(-90 462.76 449.227)" fill="#121212"/>
<rect x="505.084" y="419.75" width="4.53502" height="7.55837" transform="rotate(-180 505.084 419.75)" fill="#121212"/>
<path fill-rule="evenodd" clip-rule="evenodd" d="M48.1948 90.8804C39.2283 82.0554 24.8054 82.17 15.9804 91.1365C7.15532 100.103 7.26997 114.526 16.2364 123.351C25.2029 132.176 39.6258 132.061 48.4508 123.095C57.2759 114.128 57.1612 99.7055 48.1948 90.8804ZM41.9185 97.2589C36.4745 91.9008 27.7178 91.9704 22.3597 97.4144C17.0016 102.858 17.0713 111.615 22.5152 116.973C27.9591 122.331 36.7159 122.262 42.0739 116.818C47.432 111.374 47.3624 102.617 41.9185 97.2589Z" fill="#F5EAB8"/>
<path fill-rule="evenodd" clip-rule="evenodd" d="M105.281 33.0777C96.3142 24.2527 81.8913 24.3673 73.0663 33.3338C64.2413 42.3003 64.3559 56.7231 73.3224 65.5482C82.2889 74.3732 96.7117 74.2586 105.537 65.2921C114.362 56.3256 114.247 41.9028 105.281 33.0777ZM99.0044 39.4561C93.5605 34.0981 84.8037 34.1677 79.4456 39.6116C74.0876 45.0556 74.1572 53.8123 79.6011 59.1704C85.0451 64.5284 93.8018 64.4588 99.1599 59.0149C104.518 53.571 104.448 44.8142 99.0044 39.4561Z" fill="#F5EAB8"/>
<path fill-rule="evenodd" clip-rule="evenodd" d="M167.282 234.67L96.9783 111.253L91.4672 69.3004L98.6419 67.2299L108.392 99.6564L167.282 234.67ZM219.214 181.905L125.865 126.556L136.117 149.774L219.214 181.905ZM105.509 135.06L94.1249 114.152L52.6606 108.729L51.2751 115.356L105.509 135.06ZM116.381 127.496C115.1 126.235 113.04 126.252 111.779 127.532C110.518 128.813 110.534 130.874 111.815 132.135C113.096 133.395 115.157 133.379 116.417 132.098C117.678 130.817 117.662 128.757 116.381 127.496Z" fill="#F5EAB8"/>
<path d="M150.41 155.446L136.238 149.865L126.052 126.714L139.963 134.855L150.41 155.446Z" fill="#CDC290"/>
<path d="M61.9628 367.37C69.0598 351.047 82.3498 320.09 82.3498 320.09L259.475 390.927L238.333 439.959C204.588 471.788 71.3316 416.405 61.9628 367.37Z" fill="#D53639"/>
<path d="M70.996 347.116C78.093 330.793 83.5158 315.974 83.5158 315.974L260.641 386.812C260.641 386.812 255.672 400.442 247.367 419.704C213.621 451.533 80.3648 396.151 70.996 347.116Z" fill="#E94A4D"/>
<path d="M315.216 378.969L186.217 323.346L167.592 366.54L299.509 423.422L297.035 409.895L304.142 404.652L301.416 391.709L313.101 391.902L308.362 383.628L315.216 378.969Z" fill="#DF4043"/>
<ellipse cx="170.627" cy="354.693" rx="95.9845" ry="35.5969" transform="rotate(23.3254 170.627 354.693)" fill="#B7181B"/>
<ellipse cx="170.624" cy="354.693" rx="68.0155" ry="25.4264" transform="rotate(23.3254 170.624 354.693)" fill="#990000"/>
<path d="M115.333 347.716C139.853 351.584 199.871 375.664 212.884 390.359C184.206 390.813 136.281 371.62 115.333 347.716Z" fill="#2A2A2A"/>
</svg>
