<svg width="970" height="557" viewBox="0 0 970 557" fill="none" xmlns="http://www.w3.org/2000/svg">
<g clip-path="url(#clip0_594_10234)">
<path fill-rule="evenodd" clip-rule="evenodd" d="M31.5187 309.514C27.0759 390.17 18.9016 488.57 103.975 538.152C187.365 586.752 302.746 525.59 408.415 524.957C512.325 524.334 633.3 594.135 719.624 550.821C813.46 503.738 983.732 347.524 889.415 233.637C825.729 156.736 718.034 169.385 606.738 130.402C517.516 99.1502 506.171 48.9558 408.415 37.3345C287.374 22.9453 206.429 57.2007 128.094 100.284C46.0235 145.422 35.7152 233.329 31.5187 309.514Z" fill="#2A2A2A"/>
<path d="M288.972 5.97852L282.119 503.945H300.393L288.972 5.97852Z" fill="#3E3E3E"/>
<path d="M280.508 14.6429L264.533 92.8012C263.056 100.025 270.416 105.862 277.114 102.779L288.104 97.7191C290.422 96.6522 293.084 96.6191 295.427 97.628L303.283 101.01C310.052 103.925 317.263 97.9131 315.614 90.7302L298.097 14.4314C295.932 5.00099 282.445 5.1632 280.508 14.6429Z" fill="#3E3E3E"/>
<path d="M285.461 107.493L261.576 120.568C258.91 122.028 257.16 124.734 256.924 127.764L255.727 143.141C255.16 150.437 263.074 155.324 269.343 151.549L285.776 141.654C288.156 140.221 291.064 139.967 293.656 140.966L312.66 148.29C318.889 150.69 325.471 145.712 324.858 139.065L323.724 126.769C323.435 123.64 321.536 120.889 318.713 119.509L293.734 107.302C291.109 106.019 288.024 106.09 285.461 107.493Z" fill="#3E3E3E"/>
<path d="M284.509 149.871L252.821 166.416C249.473 168.164 247.256 171.508 246.949 175.272L245.337 195.02C244.616 203.85 254.096 209.866 261.779 205.454L284.871 192.192C287.693 190.57 291.089 190.283 294.144 191.406L320.488 201.089C328.096 203.885 336.012 197.773 335.232 189.705L333.715 174.023C333.34 170.146 330.943 166.757 327.413 165.112L294.247 149.652C291.144 148.206 287.544 148.287 284.509 149.871Z" fill="#3E3E3E"/>
<path d="M284.042 202.413L241.49 221.343C237.206 223.249 234.28 227.314 233.833 231.981L231.819 253.006C230.85 263.124 241.345 270.39 250.474 265.923L284.386 249.328C287.374 247.865 290.81 247.604 293.985 248.599L331.898 260.473C340.867 263.282 349.761 255.939 348.701 246.601L346.879 230.552C346.338 225.787 343.217 221.707 338.76 219.936L294.124 202.209C290.873 200.917 287.238 200.991 284.042 202.413Z" fill="#3E3E3E"/>
<path d="M281.85 261.307L231.645 280.719C225.029 283.278 220.389 289.309 219.612 296.359L218.301 308.252C216.71 322.692 231.254 333.504 244.623 327.818L282.266 311.807C286.195 310.136 290.573 309.837 294.693 310.958L337.461 322.6C350.55 326.163 363.049 315.257 361.292 301.807L360.377 294.806C359.444 287.661 354.549 281.658 347.737 279.307L294.902 261.069C290.659 259.604 286.036 259.689 281.85 261.307Z" fill="#3E3E3E"/>
<path d="M281.337 320.768L218.663 344.474C211.645 347.128 206.704 353.486 205.864 360.942L203.689 380.243C201.983 395.391 217.172 406.803 231.246 400.947L281.762 379.93C285.827 378.238 290.337 377.936 294.591 379.069L350.914 394.066C364.69 397.735 377.771 386.223 375.884 372.093L374.147 359.084C373.14 351.538 367.935 345.218 360.722 342.782L294.811 320.526C290.427 319.045 285.665 319.131 281.337 320.768Z" fill="#3E3E3E"/>
<path d="M561.502 45L557.002 379H569.002L561.502 45Z" fill="#3E3E3E"/>
<path d="M553.007 47.516L545.312 85.163C543.835 92.3869 551.196 98.2239 557.893 95.1406L559.809 94.2586C562.078 93.2143 564.683 93.1819 566.976 94.1694C573.602 97.0219 580.66 91.1378 579.046 84.1073L570.596 47.3044C568.431 37.874 554.944 38.0362 553.007 47.516Z" fill="#3E3E3E"/>
<path d="M557.741 101.327L543.446 109.152C540.78 110.612 539.031 113.318 538.795 116.348L538.47 120.525C537.902 127.821 545.816 132.708 552.085 128.933L558.056 125.338C560.436 123.905 563.344 123.651 565.936 124.65L574.041 127.774C580.27 130.174 586.853 125.196 586.24 118.549L585.977 115.703C585.689 112.574 583.79 109.823 580.967 108.443L566.014 101.136C563.389 99.8527 560.304 99.9241 557.741 101.327Z" fill="#3E3E3E"/>
<path d="M556.861 131.184L537.63 141.225C534.282 142.973 532.065 146.317 531.758 150.081L531.278 155.955C530.558 164.785 540.038 170.8 547.72 166.388L557.223 160.93C560.046 159.309 563.442 159.021 566.497 160.144L578.685 164.624C586.293 167.421 594.21 161.308 593.429 153.241L593.045 149.265C592.67 145.388 590.273 141.999 586.743 140.354L566.6 130.965C563.497 129.518 559.897 129.599 556.861 131.184Z" fill="#3E3E3E"/>
<path d="M556.481 168.013L530.134 179.734C525.85 181.64 522.924 185.705 522.477 190.372L521.936 196.018C520.967 206.136 531.462 213.402 540.591 208.934L556.825 200.99C559.814 199.528 563.249 199.267 566.425 200.261L585.924 206.368C594.892 209.177 603.786 201.834 602.726 192.496L602.377 189.423C601.836 184.658 598.716 180.578 594.259 178.808L566.564 167.808C563.312 166.517 559.678 166.591 556.481 168.013Z" fill="#3E3E3E"/>
<path d="M554.495 209.475L523.206 221.573C517.294 223.859 513.148 229.248 512.454 235.548C511.032 248.452 524.028 258.112 535.974 253.032L554.911 244.977C558.84 243.306 563.218 243.007 567.338 244.129L592.105 250.871C602.913 253.812 613.233 244.807 611.782 233.701C611.011 227.801 606.969 222.845 601.345 220.903L567.546 209.237C563.304 207.772 558.681 207.857 554.495 209.475Z" fill="#3E3E3E"/>
<path d="M554.072 251.258L515.407 265.883C508.403 268.532 503.471 274.878 502.633 282.319C500.93 297.437 516.089 308.827 530.136 302.983L554.498 292.847C558.563 291.155 563.072 290.853 567.327 291.986L598.651 300.327C611.327 303.702 623.364 293.11 621.628 280.107C620.701 273.163 615.912 267.348 609.274 265.107L567.546 251.016C563.162 249.536 558.4 249.621 554.072 251.258Z" fill="#3E3E3E"/>
<path d="M162 60L156 453H172L162 60Z" fill="#181818"/>
<path d="M153.403 64.5164L140.272 127.049C138.761 134.245 146.05 140.118 152.76 137.112L160.779 133.519C163.05 132.501 165.642 132.469 167.937 133.431L173.104 135.596C179.887 138.439 187.03 132.387 185.342 125.23L170.971 64.2999C168.762 54.937 155.38 55.102 153.403 64.5164Z" fill="#181818"/>
<path d="M158.357 142.127L137.682 153.143C134.974 154.586 133.188 157.31 132.943 160.368L132.074 171.236C131.494 178.491 139.317 183.399 145.596 179.718L158.661 172.061C161.001 170.689 163.834 170.446 166.373 171.399L181.862 177.209C188.088 179.544 194.61 174.553 193.983 167.933L193.184 159.512C192.886 156.359 190.951 153.595 188.091 152.234L166.455 141.942C163.879 140.717 160.875 140.785 158.357 142.127Z" fill="#181818"/>
<path d="M157.444 179.274L129.926 193.259C126.528 194.986 124.266 198.349 123.948 202.146L122.762 216.292C122.025 225.074 131.399 231.113 139.091 226.813L157.793 216.358C160.566 214.807 163.874 214.532 166.866 215.602L188.625 223.387C196.229 226.108 204.075 219.979 203.276 211.942L202.196 201.069C201.808 197.164 199.368 193.761 195.795 192.14L166.973 179.063C163.929 177.683 160.423 177.76 157.444 179.274Z" fill="#181818"/>
<path d="M157.024 225.282L119.893 241.361C115.559 243.237 112.583 247.317 112.121 252.017L110.667 266.795C109.676 276.864 120.06 284.155 129.194 279.805L157.355 266.391C160.286 264.995 163.632 264.746 166.737 265.692L198.633 275.416C207.598 278.149 216.422 270.784 215.336 261.475L214.088 250.777C213.529 245.985 210.363 241.897 205.863 240.157L166.877 225.086C163.694 223.856 160.155 223.926 157.024 225.282Z" fill="#181818"/>
<path d="M154.938 276.898L111.432 293.272C104.754 295.785 100.048 301.828 99.2451 308.917L98.6585 314.098C97.0303 328.477 111.434 339.326 124.806 333.79L155.339 321.15C159.186 319.557 163.449 319.272 167.473 320.338L202.787 329.695C215.874 333.162 228.285 322.22 226.484 308.802L226.318 307.561C225.355 300.387 220.4 294.383 213.538 292.078L167.682 276.67C163.534 275.277 159.033 275.357 154.938 276.898Z" fill="#181818"/>
<path d="M154.457 328.997L99.8109 349.115C92.7314 351.722 87.7208 358.09 86.8534 365.584L85.533 376.992C83.7868 392.078 98.831 403.53 112.908 397.829L154.867 380.836C158.846 379.225 163.237 378.937 167.392 380.013L214.749 392.288C228.524 395.858 241.515 384.307 239.581 370.209L238.724 363.96C237.685 356.385 232.418 350.065 225.155 347.678L167.612 328.765C163.326 327.356 158.69 327.438 154.457 328.997Z" fill="#181818"/>
<path d="M407.794 65.2812L402.48 454.593H416.65L407.794 65.2812Z" fill="#232323"/>
<path d="M399.244 82.9847L389.454 130.88C387.978 138.104 395.338 143.941 402.036 140.858L406.19 138.946C408.507 137.879 411.169 137.845 413.512 138.854L415.183 139.574C421.952 142.488 429.163 136.476 427.514 129.293L416.834 82.7732C414.668 73.3428 401.182 73.505 399.244 82.9847Z" fill="#232323"/>
<path d="M404.032 146.671L387.311 155.824C384.645 157.284 382.896 159.99 382.66 163.02L382.114 170.03C381.546 177.326 389.461 182.214 395.73 178.438L404.348 173.249C406.727 171.816 409.635 171.562 412.227 172.561L423.09 176.748C429.319 179.148 435.901 174.17 435.288 167.523L434.805 162.286C434.516 159.158 432.617 156.406 429.795 155.027L412.305 146.479C409.68 145.196 406.595 145.268 404.032 146.671Z" fill="#232323"/>
<path d="M403.137 179.696L380.754 191.382C377.406 193.13 375.189 196.474 374.882 200.238L374.116 209.622C373.395 218.452 382.876 224.467 390.558 220.055L403.499 212.623C406.321 211.002 409.717 210.714 412.772 211.837L428.542 217.633C436.149 220.43 444.066 214.317 443.286 206.25L442.615 199.312C442.24 195.436 439.843 192.047 436.313 190.401L412.875 179.476C409.772 178.03 406.172 178.111 403.137 179.696Z" fill="#232323"/>
<path d="M402.733 220.501L372.286 234.046C368.002 235.952 365.076 240.017 364.629 244.684L363.716 254.221C362.746 264.338 373.241 271.605 382.37 267.137L403.076 257.004C406.065 255.542 409.501 255.281 412.676 256.275L436.833 263.841C445.802 266.65 454.696 259.307 453.636 249.969L452.914 243.614C452.373 238.849 449.253 234.768 444.796 232.998L412.815 220.297C409.564 219.005 405.929 219.079 402.733 220.501Z" fill="#232323"/>
<path d="M400.699 266.372L365.366 280.034C358.821 282.564 354.231 288.53 353.462 295.506C351.888 309.791 366.276 320.486 379.501 314.861L401.115 305.668C405.045 303.997 409.422 303.698 413.542 304.819L441.644 312.469C453.608 315.726 465.034 305.756 463.427 293.461C462.574 286.929 458.099 281.442 451.873 279.292L413.751 266.133C409.509 264.669 404.885 264.753 400.699 266.372Z" fill="#232323"/>
<path d="M400.249 312.628L355.527 329.543C348.509 332.198 343.568 338.556 342.728 346.011L342.185 350.827C340.479 365.975 355.668 377.387 369.743 371.531L400.675 358.661C404.74 356.97 409.249 356.668 413.504 357.8L449.427 367.366C463.203 371.034 476.284 359.523 474.397 345.392L474.292 344.606C473.284 337.06 468.08 330.74 460.867 328.304L413.723 312.385C409.339 310.905 404.577 310.99 400.249 312.628Z" fill="#232323"/>
<mask id="mask0_594_10234" style="mask-type:alpha" maskUnits="userSpaceOnUse" x="29" y="62" width="898" height="509">
<path fill-rule="evenodd" clip-rule="evenodd" d="M31.5214 309.479C27.0738 390.113 18.8907 488.486 104.056 538.055C187.536 586.643 303.043 525.497 408.825 524.864C512.848 524.241 694.324 601.061 780.742 557.758C874.679 510.687 951.547 374.631 919.674 293.501C889.267 216.105 798.256 173.136 707.082 130.023C649.761 102.918 464.986 96.926 408.825 76.5362C341.937 52.2514 206.621 57.2319 128.202 100.304C46.0419 145.43 35.7225 233.313 31.5214 309.479Z" fill="#2A2A2A"/>
</mask>
<g mask="url(#mask0_594_10234)">
<rect x="52.7188" y="474.891" width="887.565" height="18.4909" rx="9.24547" fill="#707070"/>
<rect x="894.982" y="488.76" width="28.661" height="12.0191" rx="6.00956" fill="#D9D9D9"/>
<rect x="831.188" y="488.76" width="29.5855" height="12.0191" rx="6.00956" fill="#D9D9D9"/>
<rect x="768.316" y="488.76" width="28.661" height="12.0191" rx="6.00956" fill="#D9D9D9"/>
<rect x="704.525" y="488.76" width="29.5855" height="12.0191" rx="6.00956" fill="#D9D9D9"/>
<rect x="641.656" y="488.76" width="28.661" height="12.0191" rx="6.00956" fill="#D9D9D9"/>
<rect x="578.785" y="488.76" width="28.661" height="12.0191" rx="6.00956" fill="#D9D9D9"/>
<rect x="514.99" y="488.76" width="28.661" height="12.0191" rx="6.00956" fill="#D9D9D9"/>
<rect x="452.125" y="488.76" width="28.661" height="12.0191" rx="6.00956" fill="#D9D9D9"/>
<rect x="388.33" y="488.76" width="28.661" height="12.0191" rx="6.00956" fill="#D9D9D9"/>
<rect x="325.459" y="488.76" width="28.661" height="12.0191" rx="6.00956" fill="#D9D9D9"/>
<rect x="261.664" y="488.76" width="29.5855" height="12.0191" rx="6.00956" fill="#D9D9D9"/>
<rect x="198.799" y="488.76" width="28.661" height="12.0191" rx="6.00956" fill="#D9D9D9"/>
<rect x="135.004" y="488.76" width="29.5855" height="12.0191" rx="6.00956" fill="#D9D9D9"/>
<rect x="72.1328" y="488.76" width="28.661" height="12.0191" rx="6.00956" fill="#D9D9D9"/>
<rect x="14" y="385" width="306" height="44" fill="#D9D9D9"/>
<path d="M-27.4826 453.465L-38.8661 438.569C-43.4065 432.628 -39.1413 424.062 -31.6638 424.104L262.258 425.779C269.807 425.822 273.952 434.581 269.199 440.446L258.482 453.667C256.774 455.775 254.205 457 251.491 457H-20.3317C-23.1359 457 -25.7799 455.693 -27.4826 453.465Z" fill="#F5EAB8"/>
<circle cx="37.6983" cy="37.6983" r="37.6983" transform="matrix(-1 0 0 1 217.395 404.625)" fill="#272727"/>
<circle cx="27.0957" cy="27.0957" r="25.5957" transform="matrix(-1 0 0 1 206.797 415.229)" fill="#ABABAB" stroke="#C9C9C9" stroke-width="3"/>
<path d="M169.389 442.412C169.389 448.307 174.006 453.004 179.602 453.004C185.199 453.004 189.816 448.307 189.816 442.412C189.816 436.517 185.199 431.82 179.602 431.82C174.006 431.82 169.389 436.517 169.389 442.412Z" fill="#131313" stroke="#131313" stroke-width="3"/>
<circle cx="37.6983" cy="37.6983" r="37.6983" transform="matrix(-1 0 0 1 113.395 404.625)" fill="#272727"/>
<circle cx="27.0957" cy="27.0957" r="25.5957" transform="matrix(-1 0 0 1 102.797 415.229)" fill="#ABABAB" stroke="#C9C9C9" stroke-width="3"/>
<path d="M65.3886 442.412C65.3886 448.307 70.006 453.004 75.6025 453.004C81.1989 453.004 85.8164 448.307 85.8164 442.412C85.8164 436.517 81.1989 431.82 75.6025 431.82C70.006 431.82 65.3886 436.517 65.3886 442.412Z" fill="#131313" stroke="#131313" stroke-width="3"/>
<path d="M-8.00391 396.5H320.998V446.5C320.998 454.232 314.73 460.5 306.998 460.5H244.024C241.413 460.5 238.873 459.648 236.79 458.074L220.712 445.926C218.629 444.352 216.089 443.5 213.478 443.5H37.5L20 462L1.20384 447.204C-1.80164 444.838 -3.70828 441.346 -4.07299 437.538L-8.00391 396.5Z" fill="#6D6D6D"/>
<path d="M-521 387H321V433H-507C-514.732 433 -521 426.732 -521 419V387Z" fill="#4F4F4F"/>
<path d="M-521 387H321V420H-507C-514.732 420 -521 413.732 -521 406V387Z" fill="#C12225"/>
<path d="M-521 171C-521 167.686 -518.314 165 -515 165H309C315.627 165 321 170.373 321 177V399.5C321 406.127 315.627 411.5 309 411.5H240H206H3.35382C0.523071 411.5 -1.92261 413.478 -2.51385 416.247L-11.4861 458.253C-12.0774 461.022 -14.5231 463 -17.3538 463H-515C-518.314 463 -521 460.314 -521 457V171Z" fill="#DF4043"/>
<rect x="122.191" y="211.646" width="8.16001" height="157.192" transform="rotate(90 122.191 211.646)" fill="#F35457"/>
<rect x="122.191" y="190.664" width="12.8229" height="157.192" transform="rotate(90 122.191 190.664)" fill="#DF4043"/>
<rect x="122.191" y="203.486" width="8.16001" height="157.192" transform="rotate(90 122.191 203.486)" fill="#C12225"/>
<rect x="122.191" y="240.789" width="8.16001" height="157.192" transform="rotate(90 122.191 240.789)" fill="#F35457"/>
<rect x="122.191" y="219.807" width="12.8229" height="157.192" transform="rotate(90 122.191 219.807)" fill="#DF4043"/>
<rect x="122.191" y="232.629" width="8.16001" height="157.192" transform="rotate(90 122.191 232.629)" fill="#C12225"/>
<rect x="122.191" y="269.932" width="8.16001" height="157.192" transform="rotate(90 122.191 269.932)" fill="#F35457"/>
<rect x="122.191" y="248.949" width="12.8229" height="157.192" transform="rotate(90 122.191 248.949)" fill="#DF4043"/>
<rect x="122.191" y="261.771" width="8.16001" height="157.192" transform="rotate(90 122.191 261.771)" fill="#C12225"/>
<rect x="122.191" y="299.074" width="8.16001" height="157.192" transform="rotate(90 122.191 299.074)" fill="#F35457"/>
<rect x="122.191" y="278.092" width="12.8229" height="157.192" transform="rotate(90 122.191 278.092)" fill="#DF4043"/>
<rect x="122.191" y="290.914" width="8.16001" height="157.192" transform="rotate(90 122.191 290.914)" fill="#C12225"/>
<rect x="122.191" y="328.217" width="8.16001" height="157.192" transform="rotate(90 122.191 328.217)" fill="#F35457"/>
<rect x="122.191" y="307.234" width="12.8229" height="157.192" transform="rotate(90 122.191 307.234)" fill="#DF4043"/>
<rect x="122.191" y="320.057" width="8.16001" height="157.192" transform="rotate(90 122.191 320.057)" fill="#C12225"/>
<rect x="122.191" y="357.359" width="8.16001" height="157.192" transform="rotate(90 122.191 357.359)" fill="#F35457"/>
<rect x="122.191" y="336.377" width="12.8229" height="157.192" transform="rotate(90 122.191 336.377)" fill="#DF4043"/>
<rect x="122.191" y="349.199" width="8.16001" height="157.192" transform="rotate(90 122.191 349.199)" fill="#C12225"/>
<path d="M122.191 373.68L122.191 381.003C122.191 384.04 119.729 386.503 116.691 386.503L-29.501 386.503C-32.5385 386.503 -35.001 384.04 -35.001 381.003L-35.001 373.68L122.191 373.68Z" fill="#C12225"/>
<rect x="122.191" y="365.52" width="12.8229" height="157.192" transform="rotate(90 122.191 365.52)" fill="#DF4043"/>
<rect x="-33.498" y="187.5" width="154.192" height="201" rx="7.5" stroke="#CB2C2F" stroke-width="3"/>
<rect x="299.387" y="211.646" width="8.16001" height="157.192" transform="rotate(90 299.387 211.646)" fill="#F35457"/>
<rect x="299.387" y="190.664" width="12.8229" height="157.192" transform="rotate(90 299.387 190.664)" fill="#DF4043"/>
<rect x="299.387" y="203.486" width="8.16001" height="157.192" transform="rotate(90 299.387 203.486)" fill="#C12225"/>
<rect x="299.387" y="240.789" width="8.16001" height="157.192" transform="rotate(90 299.387 240.789)" fill="#F35457"/>
<rect x="299.387" y="219.807" width="12.8229" height="157.192" transform="rotate(90 299.387 219.807)" fill="#DF4043"/>
<rect x="299.387" y="232.629" width="8.16001" height="157.192" transform="rotate(90 299.387 232.629)" fill="#C12225"/>
<rect x="299.387" y="269.932" width="8.16001" height="157.192" transform="rotate(90 299.387 269.932)" fill="#F35457"/>
<rect x="299.387" y="248.949" width="12.8229" height="157.192" transform="rotate(90 299.387 248.949)" fill="#DF4043"/>
<rect x="299.387" y="261.771" width="8.16001" height="157.192" transform="rotate(90 299.387 261.771)" fill="#C12225"/>
<rect x="299.387" y="299.074" width="8.16001" height="157.192" transform="rotate(90 299.387 299.074)" fill="#F35457"/>
<rect x="299.387" y="278.092" width="12.8229" height="157.192" transform="rotate(90 299.387 278.092)" fill="#DF4043"/>
<rect x="299.387" y="290.914" width="8.16001" height="157.192" transform="rotate(90 299.387 290.914)" fill="#C12225"/>
<rect x="299.387" y="328.217" width="8.16001" height="157.192" transform="rotate(90 299.387 328.217)" fill="#F35457"/>
<rect x="299.387" y="307.234" width="12.8229" height="157.192" transform="rotate(90 299.387 307.234)" fill="#DF4043"/>
<rect x="299.387" y="320.057" width="8.16001" height="157.192" transform="rotate(90 299.387 320.057)" fill="#C12225"/>
<rect x="299.387" y="357.359" width="8.16001" height="157.192" transform="rotate(90 299.387 357.359)" fill="#F35457"/>
<rect x="299.387" y="336.377" width="12.8229" height="157.192" transform="rotate(90 299.387 336.377)" fill="#DF4043"/>
<rect x="299.387" y="349.199" width="8.16001" height="157.192" transform="rotate(90 299.387 349.199)" fill="#C12225"/>
<path d="M299.387 373.68L299.387 381.003C299.387 384.04 296.924 386.503 293.887 386.503L147.694 386.503C144.657 386.503 142.194 384.04 142.194 381.003L142.194 373.68L299.387 373.68Z" fill="#C12225"/>
<rect x="299.387" y="365.52" width="12.8229" height="157.192" transform="rotate(90 299.387 365.52)" fill="#DF4043"/>
<rect x="143.697" y="187.5" width="154.192" height="201" rx="7.5" stroke="#CB2C2F" stroke-width="3"/>
</g>
<rect x="860" y="475" width="94" height="18" rx="9" fill="#707070"/>
<rect x="896" y="489" width="29" height="12" rx="6" fill="#D9D9D9"/>
<path d="M682.155 467.579L670.512 440.718C667.921 434.739 672.345 428.074 678.861 428.139L907.112 430.432C913.635 430.497 917.923 437.264 915.199 443.191L903.904 467.759C902.436 470.953 899.243 473 895.727 473H690.413C686.826 473 683.582 470.87 682.155 467.579Z" fill="#454545"/>
<path d="M400 377H927.954V410C927.954 417.732 921.686 424 913.954 424H414C406.268 424 400 417.732 400 410V377Z" fill="#595959"/>
<path d="M400 411H927.954C927.954 418.732 921.686 425 913.954 425H414C406.268 425 400 418.732 400 411Z" fill="#6D6D6D"/>
<path d="M363.166 450.229L358.265 434.831C356.409 428.997 360.793 423.052 366.915 423.102L628.262 425.241C635.63 425.301 639.807 433.704 635.408 439.614L625.537 452.874C623.839 455.156 621.162 456.5 618.318 456.5H371.742C367.823 456.5 364.355 453.964 363.166 450.229Z" fill="#F5EAB8"/>
<path d="M662.197 452.471L652.331 437.582C648.352 431.577 652.689 423.564 659.893 423.611L912.813 425.273C920.075 425.321 924.293 433.506 920.118 439.448L910.822 452.675C909.136 455.073 906.389 456.5 903.458 456.5H669.7C666.681 456.5 663.864 454.987 662.197 452.471Z" fill="#F5EAB8"/>
<ellipse cx="38.5716" cy="37.6983" rx="38.5716" ry="37.6983" transform="matrix(-1 0 0 1 573.525 404.625)" fill="#272727"/>
<path d="M508.735 442.324C508.735 456.428 520.443 467.92 534.958 467.92C549.474 467.92 561.182 456.428 561.182 442.324C561.182 428.22 549.474 416.729 534.958 416.729C520.443 416.729 508.735 428.22 508.735 442.324Z" fill="#ABABAB" stroke="#C9C9C9" stroke-width="3"/>
<path d="M524.373 442.412C524.373 448.274 529.08 453.004 534.858 453.004C540.637 453.004 545.344 448.274 545.344 442.412C545.344 436.55 540.637 431.82 534.858 431.82C529.08 431.82 524.373 436.55 524.373 442.412Z" fill="#131313" stroke="#131313" stroke-width="3"/>
<ellipse cx="38.5716" cy="37.6983" rx="38.5716" ry="37.6983" transform="matrix(-1 0 0 1 878.525 404.625)" fill="#272727"/>
<path d="M813.735 442.324C813.735 456.428 825.443 467.92 839.958 467.92C854.474 467.92 866.182 456.428 866.182 442.324C866.182 428.22 854.474 416.729 839.958 416.729C825.443 416.729 813.735 428.22 813.735 442.324Z" fill="#ABABAB" stroke="#C9C9C9" stroke-width="3"/>
<path d="M829.373 442.412C829.373 448.274 834.08 453.004 839.858 453.004C845.637 453.004 850.344 448.274 850.344 442.412C850.344 436.55 845.637 431.82 839.858 431.82C834.08 431.82 829.373 436.55 829.373 442.412Z" fill="#131313" stroke="#131313" stroke-width="3"/>
<ellipse cx="38.5716" cy="37.6983" rx="38.5716" ry="37.6983" transform="matrix(-1 0 0 1 468.143 404.625)" fill="#272727"/>
<path d="M403.352 442.324C403.352 456.428 415.06 467.92 429.575 467.92C444.091 467.92 455.799 456.428 455.799 442.324C455.799 428.22 444.091 416.729 429.575 416.729C415.06 416.729 403.352 428.22 403.352 442.324Z" fill="#ABABAB" stroke="#C9C9C9" stroke-width="3"/>
<path d="M418.99 442.412C418.99 448.274 423.697 453.004 429.476 453.004C435.254 453.004 439.961 448.274 439.961 442.412C439.961 436.55 435.254 431.82 429.476 431.82C423.697 431.82 418.99 436.55 418.99 442.412Z" fill="#131313" stroke="#131313" stroke-width="3"/>
<ellipse cx="38.5716" cy="37.6983" rx="38.5716" ry="37.6983" transform="matrix(-1 0 0 1 773.143 404.625)" fill="#272727"/>
<path d="M708.352 442.324C708.352 456.428 720.06 467.92 734.575 467.92C749.091 467.92 760.799 456.428 760.799 442.324C760.799 428.22 749.091 416.729 734.575 416.729C720.06 416.729 708.352 428.22 708.352 442.324Z" fill="#ABABAB" stroke="#C9C9C9" stroke-width="3"/>
<path d="M723.99 442.412C723.99 448.274 728.697 453.004 734.476 453.004C740.254 453.004 744.961 448.274 744.961 442.412C744.961 436.55 740.254 431.82 734.476 431.82C728.697 431.82 723.99 436.55 723.99 442.412Z" fill="#131313" stroke="#131313" stroke-width="3"/>
<path d="M548.527 163H351C339.955 163 331 171.954 331 183L331 435.517C331 449.316 342.187 460.503 355.986 460.503C358.973 460.503 361.835 459.299 363.924 457.164L371.218 449.708C375.719 445.107 381.88 442.508 388.316 442.492L571.582 442.055C578.169 442.039 584.473 444.731 589.017 449.501L592.404 453.057C596.934 457.811 603.214 460.503 609.781 460.503H648.528C655.095 460.503 661.375 457.811 665.905 453.057L669.316 449.476C673.846 444.721 680.126 442.03 686.693 442.03H871.211C876.919 442.03 882.437 444.06 886.775 447.77C890.722 451.147 895.827 455.52 900.439 459.493C902.155 460.971 904.769 461.038 906.621 459.735C1035.07 369.405 871.945 297.244 776.544 248.07C717.125 217.443 658.853 192.195 622.982 177.365C599.379 167.608 574.067 163 548.527 163Z" fill="#CA2E33"/>
<path d="M345 418.022C345 403.874 345 379.515 345 357.825C345 352.576 351.372 349.72 355.535 352.917C429.199 409.494 575.84 414.565 732 425.819C584.624 429.417 404.279 429.919 356.87 429.989C350.242 429.998 345 424.65 345 418.022Z" fill="#C02429"/>
<path d="M908.17 341.568C916.613 349.722 928.295 362.861 933.417 377.196C934.508 380.248 930.144 381.888 927.792 379.659C886.836 340.844 738.817 351.83 598.822 341.345C593.882 340.975 594.131 335.098 599.084 335.018C721.774 333.044 846.045 332.972 885.593 333.006C893.973 333.013 902.143 335.746 908.17 341.568Z" fill="#D4383D"/>
<path d="M664.78 263.345C612.859 229.549 472.164 169.333 402 167.969V164.006C458.559 163.841 541.967 166.934 581 167.97C641 169.561 797.287 254.242 822 271.745C814.769 270.593 731.097 272.203 690.98 271.978C681.576 271.925 672.662 268.476 664.78 263.345Z" fill="#F5EAB8"/>
<path d="M348.502 267L348.5 188C348.5 186.06 350.073 184.524 351.957 184.553C462.452 186.22 561.022 227.287 636.545 267.867C636.966 268.093 637.138 268.349 637.221 268.556C637.316 268.794 637.343 269.103 637.259 269.43C637.174 269.757 636.998 270.025 636.785 270.2C636.598 270.354 636.309 270.5 635.827 270.5H352.002C350.069 270.5 348.502 268.933 348.502 267Z" fill="#F5EAB8" stroke="#DDB868" stroke-width="7" stroke-linejoin="round"/>
<path d="M352 268V210C431.762 220.278 485.797 240.279 542 268H352Z" fill="#E1D6A4"/>
<path d="M331.004 309.002L886.764 309.105L921.499 333.112L330.999 333.002L331.004 309.002Z" fill="#DF4043"/>
<path d="M331.002 322.368L886.762 322.472L921.5 333.113L331 333.002L331.002 322.368Z" fill="#F35457"/>
<path d="M941 350.976C928.5 333.976 887 307.5 869 297.5C900 331.5 951.904 384 922 450C970 409.5 958.038 374.148 941 350.976Z" fill="#AB8636"/>
<path d="M939.93 422.619C956.93 400.619 952.93 366.619 935.93 358.119C942.43 373.119 948.43 396.119 939.93 422.619Z" fill="#BF9A4A"/>
<path d="M664 190.5L508 192.5C465.5 175 369.022 167 353 167.5C353.784 166.194 355.25 165.024 356.472 164.204C357.761 163.34 359.258 163 360.81 163H566C606.071 163 634 176.5 664 190.5Z" fill="#AB8636"/>
<rect x="321" y="202" width="10" height="218" fill="#A2060B"/>
<path d="M851.607 371.114H858.001L849.045 404.466H855.157L864.113 371.114H870.501L871.997 365.557H853.103L851.607 371.114ZM840.102 371.114C842.269 371.114 842.883 372.335 842.142 375.117L841.112 378.951C840.279 382.064 838.62 383.067 836.341 383.067H833.948L837.159 371.114H840.102ZM841.091 404.466C840.865 403.019 841.182 401.628 841.69 399.743L843.3 393.742C844.387 389.682 844.182 386.738 841.465 385.46C844.528 384.182 846.511 381.57 847.584 377.567L848.402 374.51C850.012 368.509 848.085 365.557 841.747 365.557H832.522L822.07 404.473H828.182L832.438 388.63H834.548C837.329 388.63 838.19 389.965 837.223 393.579L835.578 399.694C834.724 402.864 834.788 403.471 834.851 404.473H841.076L841.091 404.466ZM802.089 395.126C800.416 401.353 802.738 404.911 808.745 404.911C814.751 404.911 818.978 401.353 820.651 395.126L826.086 374.891C827.758 368.664 825.436 365.105 819.43 365.105C813.424 365.105 809.196 368.664 807.524 374.891L802.089 395.126ZM813.741 374.503C814.49 371.721 815.993 370.669 817.941 370.669C819.889 370.669 820.828 371.728 820.079 374.503L814.433 395.514C813.685 398.296 812.182 399.348 810.234 399.348C808.286 399.348 807.347 398.289 808.095 395.514L813.741 374.503ZM796.033 371.114H806.091L807.587 365.557H791.418L780.965 404.473H787.077L791.389 388.404H799.28L800.776 382.848H792.886L796.033 371.121V371.114ZM770.399 404.466H776.511L786.971 365.557H780.859L770.406 404.473L770.399 404.466ZM765.021 371.114H775.58L777.076 365.557H760.406L749.953 404.473H766.623L768.12 398.917H757.561L760.624 387.522H769.016L770.512 381.965H762.121L765.035 371.128L765.021 371.114ZM738.787 365.557H730.283L719.83 404.473H725.166L732.555 376.953L729.718 404.473H735.498L747.221 376.564L739.726 404.473H745.506L755.959 365.557H747.454L735.865 393.184L738.787 365.557Z" fill="#E1D6A4"/>
<mask id="mask1_594_10234" style="mask-type:luminance" maskUnits="userSpaceOnUse" x="625" y="365" width="96" height="41">
<path d="M680.284 405.025L686.911 380.278H716.738L714.267 389.499H692.819L696.065 391.377L692.409 405.025H680.284ZM625 405.025L635.721 365H720.838L718.368 374.221H684.173V366.984L682.232 374.214L673.981 405.025H661.856L670.114 374.221H660.063L663.31 376.099L655.56 405.032H643.428L651.679 374.221H641.628L644.875 376.099L637.125 405.032H625V405.025Z" fill="white"/>
</mask>
<g mask="url(#mask1_594_10234)">
<path d="M720.838 365H625V405.025H720.838V365Z" fill="#E1D6A4"/>
</g>
<path d="M608.696 191L505 192.302C599.5 231.5 658.5 239.5 715 241.116L608.696 191Z" fill="#FFFECC"/>
<path d="M354.998 163C345 163 342 164.5 340 166.5C349.774 166.5 447.115 175.711 505.37 177.898C546.423 179.439 617.753 163 558.226 163H354.998Z" fill="#8D6818"/>
</g>
<defs>
<clipPath id="clip0_594_10234">
<rect width="970" height="557" fill="white"/>
</clipPath>
</defs>
</svg>
