<svg width="186" height="200" viewBox="0 0 186 200" fill="none" xmlns="http://www.w3.org/2000/svg">
<rect x="6" y="53" width="156" height="141" rx="20" fill="#0E0E0E" stroke="url(#paint0_linear_770_45052)" stroke-width="12"/>
<path d="M140.258 59H47.419C46.5691 59 45.803 59.5563 45.5357 60.3631C22.678 129.353 101.427 186.607 155.063 153.588C155.644 153.23 156.001 152.615 156.001 151.933V69.3962C156.001 66.963 154.537 64.3519 153.537 62.9685C153.295 62.6339 152.937 62.4067 152.538 62.2974L140.788 59.0714C140.615 59.024 140.437 59 140.258 59Z" fill="#212121"/>
<path d="M34 94.9032L81.4491 160.298C82.7176 162.046 85.3623 161.922 86.4605 160.062L173 13.5" stroke="#CA2E33" stroke-width="25" stroke-linecap="round"/>
<path d="M34 94.9032L81.4592 160.312C82.7251 162.057 85.363 161.937 86.4654 160.084L174 13" stroke="#D1393A" stroke-width="9" stroke-linecap="round"/>
<path d="M181.821 18.586L148.166 65.4899C146.951 67.1827 144.447 66.1569 144.876 64.118C149.489 42.1643 161.586 10.1986 171.237 4.807C182.127 -1.27743 185.741 12.5903 181.821 18.586Z" fill="#D4383D"/>
<path d="M27.2888 103.634L56.2072 141.991C57.5531 143.776 60.2566 142.387 59.5385 140.27C52.8343 120.506 41.8912 93.3277 33.7121 89.9269C23.8953 85.845 23.153 98.7492 27.2888 103.634Z" fill="#C02429"/>
<defs>
<linearGradient id="paint0_linear_770_45052" x1="7.00001" y1="191" x2="160.5" y2="55" gradientUnits="userSpaceOnUse">
<stop stop-color="#AB8636"/>
<stop offset="1" stop-color="#F5EAB8"/>
</linearGradient>
</defs>
</svg>
