<svg width="32" height="32" viewBox="0 0 32 32" fill="none" xmlns="http://www.w3.org/2000/svg">
<g clip-path="url(#clip0_770_82784)">
<path d="M32.0016 20.0009C32.0016 15.5827 27.5224 12.002 22.001 12.002C16.4795 12.002 12.0039 15.5827 12.0039 20.0009C12.0039 24.4192 16.4795 27.9999 22.001 27.9999C22.9098 27.9999 23.7717 27.87 24.612 27.6895L30.0036 29.9997L28.1391 26.2745C30.4725 24.809 32.0016 22.5566 32.0016 20.0009ZM19.004 19.4992C18.1745 19.4992 17.5037 18.8278 17.5037 17.9976C17.5037 17.171 18.1745 16.4996 19.004 16.4996C19.8299 16.4996 20.5043 17.171 20.5043 17.9976C20.5007 18.8278 19.8299 19.4992 19.004 19.4992ZM25.0015 19.4992C24.172 19.4992 23.5012 18.8278 23.5012 17.9976C23.5012 17.171 24.172 16.4996 25.0015 16.4996C25.831 16.4996 26.5018 17.171 26.5018 17.9976C26.5018 18.8278 25.831 19.4992 25.0015 19.4992Z" fill="#AB8636"/>
<path d="M21.9993 9.99899C22.6051 9.99899 23.1966 10.0531 23.7808 10.1217C22.7241 5.49775 17.8555 2 11.9986 2C5.36998 2 0 6.47597 0 12.0023C0 15.1861 1.79601 18.0088 4.58378 19.8389L3.00056 23.0046L7.31025 21.1564C8.23349 21.4849 9.1928 21.7556 10.2206 21.882C10.08 21.2719 10.0006 20.6475 10.0006 20.0049C10.0006 14.4858 15.3815 9.99899 21.9993 9.99899ZM16.0018 6.50124C16.8312 6.50124 17.502 7.17263 17.502 8.00285C17.502 8.82946 16.8312 9.50085 16.0018 9.50085C15.1723 9.50085 14.5015 8.82946 14.5015 8.00285C14.5015 7.16902 15.1723 6.50124 16.0018 6.50124ZM8.00268 9.49725C7.17681 9.49725 6.5024 8.82585 6.5024 7.99924C6.5024 7.16902 7.1732 6.49763 8.00268 6.49763C8.83216 6.49763 9.50296 7.16902 9.50296 7.99924C9.49935 8.82946 8.82856 9.49725 8.00268 9.49725Z" fill="#AB8636"/>
</g>
<defs>
<clipPath id="clip0_770_82784">
<rect width="32" height="32" fill="white"/>
</clipPath>
</defs>
</svg>
