<svg width="68" height="91" viewBox="0 0 68 91" fill="none" xmlns="http://www.w3.org/2000/svg">
<path d="M68 34.5361C68 55.8094 46.675 78.8019 37.8022 87.4477C35.6574 89.5377 32.3426 89.5377 30.1978 87.4477C21.325 78.8019 0 55.8095 0 34.5361C1.34369e-07 25.3766 3.58213 16.5922 9.95837 10.1154C16.3346 3.63862 24.9826 0 34 0C43.0174 0 51.6654 3.63862 58.0416 10.1154C64.4179 16.5922 68 25.3766 68 34.5361Z" fill="#181818"/>
<path d="M34.642 79.8316C41.3899 80.4183 51.8129 59.576 57.331 47.8466C52.6291 52.2903 45.0649 61.1732 34.0312 66.5033C24.4878 71.1135 28.5101 79.2985 34.642 79.8316Z" fill="#484848"/>
<mask id="mask0_770_82849" style="mask-type:luminance" maskUnits="userSpaceOnUse" x="11" y="25" width="46" height="21">
<path d="M37.4858 45.4046L40.621 33.0136H54.7313L53.5627 37.6306H43.4157L44.9516 38.571L43.222 45.4046H37.4858ZM11.332 45.4046L16.4038 25.3633H56.6712L55.5026 29.9803H39.3255V26.3567L38.4073 29.9768L34.5041 45.4046H28.7679L32.6744 29.9803H27.9198L29.4557 30.9207L25.7895 45.4081H20.0499L23.9531 29.9803H19.1985L20.7344 30.9207L17.0683 45.4081H11.332V45.4046Z" fill="white"/>
</mask>
<g mask="url(#mask0_770_82849)">
<path d="M56.332 25.3633H11.332V45.3633H56.332V25.3633Z" fill="url(#paint0_linear_770_82849)"/>
</g>
<defs>
<linearGradient id="paint0_linear_770_82849" x1="3.47136" y1="51.6395" x2="74.095" y2="18.2371" gradientUnits="userSpaceOnUse">
<stop stop-color="#A57E2B"/>
<stop offset="1" stop-color="#FDF5C8"/>
</linearGradient>
</defs>
</svg>
