<svg width="48" height="48" viewBox="0 0 48 48" fill="none" xmlns="http://www.w3.org/2000/svg">
<rect width="48" height="48" rx="8" fill="#AB8636"/>
<g clip-path="url(#clip0_2550_2170)">
<path fill-rule="evenodd" clip-rule="evenodd" d="M40 23.587C40 32.1942 32.9666 39.1739 24.2912 39.1739C21.5358 39.1739 18.948 38.4708 16.6978 37.2345L8 39.9989L10.8348 31.6364C9.40399 29.2868 8.58127 26.5324 8.58127 23.5881C8.58127 14.9786 15.6146 8 24.2912 8C32.9678 7.99888 40 14.9775 40 23.587ZM24.2923 10.4816C17.0074 10.4816 11.0841 16.3602 11.0841 23.587C11.0841 26.4531 12.0175 29.109 13.5992 31.2709L11.9504 36.1368L17.0253 34.5249C19.1101 35.8931 21.6084 36.6912 24.2923 36.6912C31.5738 36.6912 37.4994 30.8126 37.4994 23.587C37.4983 16.3591 31.5738 10.4816 24.2923 10.4816ZM32.2244 27.1774C32.1272 27.0176 31.8701 26.9226 31.4866 26.7314C31.101 26.5403 29.2074 25.6158 28.8542 25.4884C28.502 25.361 28.2427 25.2972 27.9878 25.6795C27.7307 26.0618 26.993 26.9226 26.7672 27.1774C26.5436 27.4334 26.3189 27.4636 25.9344 27.2724C25.5487 27.0813 24.3068 26.6766 22.8369 25.3766C21.6934 24.3627 20.9198 23.113 20.694 22.7307C20.4705 22.3484 20.6717 22.1427 20.8628 21.9516C21.0361 21.7794 21.2485 21.5056 21.4407 21.2831C21.6341 21.0596 21.6978 20.8986 21.8264 20.6437C21.9549 20.3889 21.8912 20.1664 21.794 19.9753C21.699 19.7841 20.9277 17.9039 20.6068 17.1382C20.2883 16.3748 19.9663 16.4027 19.7405 16.4027C19.517 16.4027 19.1011 16.4698 19.1011 16.4698C19.1011 16.4698 18.3287 16.5648 17.9766 16.9471C17.6245 17.3294 16.6296 18.2538 16.6296 20.1329C16.6296 22.0131 18.0079 23.8306 18.2013 24.0844C18.3947 24.3404 20.8639 28.3243 24.7797 29.8535C28.6943 31.3827 28.6943 30.873 29.4008 30.8081C30.1061 30.7455 31.6789 29.8848 31.9997 28.9917C32.3205 28.1007 32.3205 27.335 32.2244 27.1774Z" fill="white"/>
</g>
<defs>
<clipPath id="clip0_2550_2170">
<rect width="32" height="32" fill="white" transform="translate(8 8)"/>
</clipPath>
</defs>
</svg>
