<svg width="48" height="48" viewBox="0 0 48 48" fill="none" xmlns="http://www.w3.org/2000/svg">
<rect width="48" height="48" rx="8" fill="#AB8636"/>
<path d="M23.6578 32.9259H25.5693C25.5693 32.9259 26.15 32.8654 26.4421 32.5487C26.7162 32.2604 26.7054 31.7231 26.7054 31.7231C26.7054 31.7231 26.6694 29.1928 27.8596 28.8192C29.0317 28.4526 30.5429 31.264 32.1407 32.3459C33.3489 33.1644 34.265 32.9829 34.265 32.9829L38.5389 32.9224C38.5389 32.9224 40.775 32.7907 39.7146 31.054C39.6281 30.9117 39.0979 29.7729 36.5372 27.4277C33.8574 24.9758 34.2181 25.3708 37.446 21.1324C39.4117 18.5487 40.1979 16.9722 39.9527 16.2996C39.7182 15.6555 38.272 15.8263 38.272 15.8263L33.4643 15.8548C33.4643 15.8548 33.1072 15.805 32.8403 15.9615C32.5807 16.1146 32.4184 16.4704 32.4184 16.4704C32.4184 16.4704 31.6538 18.4704 30.6403 20.1715C28.4979 23.7587 27.6432 23.9473 27.2897 23.7231C26.4746 23.2035 26.6802 21.6377 26.6802 20.5274C26.6802 17.0505 27.214 15.6021 25.6379 15.2249C25.1113 15.1003 24.729 15.0185 23.3909 15.0042C21.6741 14.9865 20.2206 15.0078 19.3983 15.4064C18.8501 15.6697 18.4281 16.2569 18.6878 16.2925C19.0052 16.3352 19.7265 16.4847 20.1052 16.9971C20.5994 17.659 20.5813 19.143 20.5813 19.143C20.5813 19.143 20.8662 23.2355 19.9177 23.7444C19.2685 24.0932 18.3776 23.3815 16.4697 20.1252C15.4923 18.4562 14.753 16.6128 14.753 16.6128C14.753 16.6128 14.6087 16.2711 14.3562 16.0861C14.0497 15.8619 13.6169 15.7943 13.6169 15.7943L9.04362 15.8227C9.04362 15.8227 8.35835 15.8405 8.10588 16.1359C7.87866 16.3993 8.08785 16.9402 8.08785 16.9402C8.08785 16.9402 11.6693 25.1964 15.7195 29.3601C19.438 33.1786 23.6578 32.9259 23.6578 32.9259Z" fill="white"/>
</svg>
