<svg width="828" height="557" viewBox="0 0 828 557" fill="none" xmlns="http://www.w3.org/2000/svg">
<path fill-rule="evenodd" clip-rule="evenodd" d="M60.4293 201.056C97.3911 116.673 166.831 41.3776 262.366 12.9389C345.883 -11.9224 423.583 48.0831 508.836 67.5752C596.405 87.5971 703.831 63.946 761.085 126.966C822.416 194.475 825.675 296.187 790.343 377.436C757.687 452.532 671.768 492.643 588.883 522.965C518.933 548.554 446.594 534.392 371.215 530.764C259.424 525.383 122.826 573.966 50.3183 497.043C-23.3779 418.86 18.6254 296.494 60.4293 201.056Z" fill="#2A2A2A"/>
<path d="M409.054 449.513L138.167 118.7C136.463 116.618 138.148 113.519 140.821 113.818L616.335 166.923C618.63 167.179 619.787 169.825 618.417 171.684L413.79 449.392C412.629 450.968 410.294 451.027 409.054 449.513Z" stroke="#F5EAB8" stroke-width="4" stroke-linecap="round" stroke-dasharray="25 15"/>
<path d="M805.984 284.5C805.984 359.537 761.75 427.525 690.122 476.775C618.496 526.023 519.518 556.5 410.166 556.5C300.814 556.5 201.836 526.023 130.21 476.775C58.5816 427.525 14.3477 359.537 14.3477 284.5C14.3477 209.463 58.5816 141.475 130.21 92.2254C201.836 42.9769 300.814 12.5 410.166 12.5C519.518 12.5 618.496 42.9769 690.122 92.2254C761.75 141.475 805.984 209.463 805.984 284.5Z" stroke="#5E5E5E"/>
<path d="M395.757 12.8828C-16.7795 42.8666 73.2953 559.647 395.757 555.678" stroke="#5E5E5E"/>
<path d="M410.165 12.8828C822.701 42.8666 732.627 559.647 410.165 555.678" stroke="#5E5E5E"/>
<path d="M398.454 13.0488C293.49 76.4756 250.668 438.94 398.454 556.39" stroke="#5E5E5E"/>
<path d="M174.178 71.0859C284.666 86.0778 608.206 86.2542 672.578 81.6685" stroke="#5E5E5E"/>
<path d="M142.348 480.277C260.025 495.282 604.614 495.459 673.174 490.869" stroke="#5E5E5E"/>
<path d="M52.2812 173.383C212.823 188.388 682.93 188.564 776.462 183.975" stroke="#5E5E5E"/>
<path d="M40.2715 377.979C203.475 392.984 681.378 393.16 776.462 388.57" stroke="#5E5E5E"/>
<path d="M13.8477 275.68C189.565 290.685 704.109 290.861 806.484 286.272" stroke="#5E5E5E"/>
<path d="M409.992 13.0488C514.955 76.4756 557.778 438.94 409.992 556.39" stroke="#5E5E5E"/>
<rect x="60.2012" y="32.1797" width="233.916" height="133.953" rx="7" fill="#AB8636"/>
<path d="M59.7422 13C59.7422 9.68629 62.4285 7 65.7422 7H287.913C291.227 7 293.913 9.68629 293.913 13V33.058H59.7422V13Z" fill="#CA2E33"/>
<rect x="72.1992" y="63.625" width="65.0215" height="101.509" rx="5" fill="#CA2E33" stroke="#AC1015" stroke-width="2"/>
<rect x="78.752" y="70.3867" width="14.3904" height="17.9149" rx="2" fill="#F5EAB8"/>
<rect x="78.752" y="89.1172" width="14.3904" height="21.1721" rx="2" fill="#F5EAB8"/>
<rect x="78.752" y="111.916" width="14.3904" height="21.1721" rx="2" fill="#F5EAB8"/>
<rect x="111.463" y="70.3867" width="15.6986" height="17.9149" rx="2" fill="#F5EAB8"/>
<rect x="111.463" y="89.1172" width="15.6986" height="21.1721" rx="2" fill="#F5EAB8"/>
<rect x="111.463" y="111.916" width="15.6986" height="21.1721" rx="2" fill="#F5EAB8"/>
<rect x="94.459" y="70.3867" width="15.6986" height="17.9149" rx="2" fill="#F5EAB8"/>
<rect x="94.459" y="89.1172" width="15.6986" height="21.1721" rx="2" fill="#F5EAB8"/>
<rect x="94.459" y="111.916" width="15.6986" height="21.1721" rx="2" fill="#F5EAB8"/>
<rect x="150.201" y="64.75" width="125.696" height="56.6604" rx="6.5" fill="#F5EAB8" stroke="#8D6818" stroke-width="3"/>
<rect x="78.752" y="140.014" width="48.3764" height="21.7658" rx="5" fill="#A2060B"/>
<rect x="81.793" y="142.516" width="42.6146" height="16.6197" rx="5" fill="#AC1015"/>
<rect x="130.805" y="102.77" width="2.61644" height="22.8008" rx="1.30822" fill="#A2060B"/>
<path d="M46.5898 41.2441H303.472V50.3445C303.472 53.1059 301.234 55.3445 298.472 55.3445H51.5898C48.8284 55.3445 46.5898 53.1059 46.5898 50.3445V41.2441Z" fill="#CA2E33"/>
<path d="M303.719 41.3287H46L60.3904 33.1855H294.117L303.719 41.3287Z" fill="#A2060B"/>
<path d="M267.771 66.6309L182.15 66.6309C197.844 94.6126 252.898 111.629 273.737 115.759V72.8279C273.737 69.3934 271.447 66.6309 267.771 66.6309Z" fill="#E1D6A4"/>
<path d="M124.455 70.3869L115.384 70.3868C115.133 80.0606 119.163 83.9301 126.974 84.8975V72.8053C126.974 70.8409 125.269 70.2295 124.455 70.3869Z" fill="#EBE0AE"/>
<path d="M124.455 112.008L115.384 112.008C115.133 121.682 119.163 125.551 126.974 126.519V114.426C126.974 112.462 125.269 111.851 124.455 112.008Z" fill="#EBE0AE"/>
<path d="M124.455 110.047L115.384 110.047C115.133 100.373 119.163 96.5035 126.974 95.5361V107.628C126.974 109.593 125.269 110.204 124.455 110.047Z" fill="#EBE0AE"/>
<path d="M107.66 71.1329L98.5892 71.1329C98.3377 80.8067 102.368 84.6762 110.179 85.6436V73.5514C110.179 71.587 108.474 70.9755 107.66 71.1329Z" fill="#EBE0AE"/>
<path d="M107.66 112.348L98.5892 112.348C98.3377 122.022 102.368 125.891 110.179 126.858V114.766C110.179 112.802 108.474 112.19 107.66 112.348Z" fill="#EBE0AE"/>
<path d="M107.66 109.662L98.5892 109.662C98.3377 99.9882 102.368 96.1187 110.179 95.1514V107.244C110.179 109.208 108.474 109.819 107.66 109.662Z" fill="#EBE0AE"/>
<path d="M90.7106 70.3869L81.64 70.3868C81.3885 80.0606 85.4191 83.9301 93.2302 84.8975V72.8053C93.2302 70.8409 91.5245 70.2295 90.7106 70.3869Z" fill="#EBE0AE"/>
<path d="M90.7106 112.008L81.64 112.008C81.3885 121.682 85.4191 125.551 93.2302 126.519V114.426C93.2302 112.462 91.5245 111.851 90.7106 112.008Z" fill="#EBE0AE"/>
<path d="M90.7106 110.047L81.64 110.047C81.3885 100.373 85.4191 96.5035 93.2302 95.5361V107.628C93.2302 109.593 91.5245 110.204 90.7106 110.047Z" fill="#EBE0AE"/>
<rect x="177.162" y="99.9004" width="75.0253" height="20.6469" rx="3" fill="#CA2E33"/>
<rect x="180.041" y="105.705" width="69.0372" height="13.0595" rx="3" fill="#AC1015"/>
<path d="M282.295 9.17578H182.812C237.703 10.1922 271.871 21.0482 286.232 28.3333C288.385 29.4253 291.156 27.9038 291.156 25.49V16.4311C291.156 12.1257 285.809 9.888 282.876 9.23609C282.685 9.19374 282.491 9.17578 282.295 9.17578Z" fill="#B61A1F"/>
<path d="M71.9918 31.1836L171.475 31.1836C116.585 30.1671 82.4159 19.3111 68.0552 12.0261C65.9026 10.934 63.1315 12.4556 63.1315 14.8694L63.1315 23.9283C63.1315 28.2337 68.4776 30.4714 71.4112 31.1233C71.6018 31.1656 71.7965 31.1836 71.9918 31.1836Z" fill="#DE4247"/>
<rect x="543.977" y="86.2363" width="197.279" height="112.973" rx="7" fill="#AB8636"/>
<path d="M543.59 71C543.59 67.6863 546.276 65 549.59 65H735.083C738.397 65 741.083 67.6863 741.083 71V86.9766H543.59V71Z" fill="#CA2E33"/>
<rect x="554.252" y="112.912" width="54.5242" height="85.2964" rx="5" fill="#CA2E33" stroke="#AC1015" stroke-width="2"/>
<rect x="559.623" y="118.459" width="12.1365" height="15.1089" rx="2" fill="#F5EAB8"/>
<rect x="559.623" y="134.254" width="12.1365" height="17.856" rx="2" fill="#F5EAB8"/>
<rect x="559.623" y="153.484" width="12.1365" height="17.856" rx="2" fill="#F5EAB8"/>
<rect x="587.209" y="118.459" width="13.2398" height="15.1089" rx="2" fill="#F5EAB8"/>
<rect x="587.209" y="134.254" width="13.2398" height="17.856" rx="2" fill="#F5EAB8"/>
<rect x="587.209" y="153.484" width="13.2398" height="17.856" rx="2" fill="#F5EAB8"/>
<rect x="572.869" y="118.459" width="13.2398" height="15.1089" rx="2" fill="#F5EAB8"/>
<rect x="572.869" y="134.254" width="13.2398" height="17.856" rx="2" fill="#F5EAB8"/>
<rect x="572.869" y="153.482" width="13.2398" height="17.856" rx="2" fill="#F5EAB8"/>
<rect x="620.115" y="113.941" width="105.539" height="47.316" rx="6.5" fill="#F5EAB8" stroke="#8D6818" stroke-width="3"/>
<rect x="559.623" y="177.18" width="40.7994" height="18.3567" rx="5" fill="#A2060B"/>
<rect x="562.188" y="179.289" width="35.94" height="14.0166" rx="5" fill="#AC1015"/>
<rect x="603.521" y="145.77" width="2.20663" height="19.2296" rx="1.10332" fill="#A2060B"/>
<path d="M532.498 93.8809H749.146V100.773C749.146 103.534 746.907 105.773 744.146 105.773H537.498C534.737 105.773 532.498 103.534 532.498 100.773V93.8809Z" fill="#CA2E33"/>
<path d="M749.353 93.9497H532L544.136 87.082H741.255L749.353 93.9497Z" fill="#A2060B"/>
<path d="M719.036 115.291L646.826 115.291C660.061 138.89 706.493 153.242 724.068 156.724V120.517C724.068 117.621 722.137 115.291 719.036 115.291Z" fill="#E1D6A4"/>
<path d="M598.167 118.457L590.517 118.457C590.305 126.616 593.704 129.879 600.292 130.695V120.497C600.292 118.84 598.853 118.325 598.167 118.457Z" fill="#EBE0AE"/>
<path d="M598.167 153.559L590.517 153.559C590.305 161.718 593.704 164.981 600.292 165.797V155.599C600.292 153.942 598.853 153.426 598.167 153.559Z" fill="#EBE0AE"/>
<path d="M598.167 151.908L590.517 151.908C590.305 143.749 593.704 140.486 600.292 139.67V149.868C600.292 151.525 598.853 152.041 598.167 151.908Z" fill="#EBE0AE"/>
<path d="M584.003 119.09L576.353 119.09C576.141 127.249 579.54 130.512 586.128 131.328V121.13C586.128 119.473 584.689 118.957 584.003 119.09Z" fill="#EBE0AE"/>
<path d="M584.003 153.848L576.353 153.848C576.141 162.007 579.54 165.27 586.128 166.086V155.888C586.128 154.231 584.689 153.715 584.003 153.848Z" fill="#EBE0AE"/>
<path d="M584.003 151.582L576.353 151.582C576.141 143.423 579.54 140.16 586.128 139.344V149.542C586.128 151.199 584.689 151.714 584.003 151.582Z" fill="#EBE0AE"/>
<path d="M569.708 118.457L562.058 118.457C561.846 126.616 565.245 129.879 571.833 130.695V120.497C571.833 118.84 570.395 118.325 569.708 118.457Z" fill="#EBE0AE"/>
<path d="M569.708 153.559L562.058 153.559C561.846 161.718 565.245 164.981 571.833 165.797V155.599C571.833 153.942 570.395 153.426 569.708 153.559Z" fill="#EBE0AE"/>
<path d="M569.708 151.908L562.058 151.908C561.846 143.749 565.245 140.486 571.833 139.67V149.868C571.833 151.525 570.395 152.041 569.708 151.908Z" fill="#EBE0AE"/>
<rect x="642.619" y="143" width="63.2743" height="17.4131" rx="3" fill="#CA2E33"/>
<rect x="645.047" y="147.895" width="58.2241" height="11.014" rx="3" fill="#AC1015"/>
<path d="M731.24 66.8359H647.385C692.705 67.6752 721.275 76.4676 733.82 82.6016C735.989 83.6619 738.758 82.1165 738.758 79.7028V72.9548C738.758 69.3452 734.303 67.4589 731.82 66.8967C731.629 66.8535 731.435 66.8359 731.24 66.8359Z" fill="#B61A1F"/>
<path d="M553.967 85.3965L637.822 85.3965C592.502 84.5573 563.932 75.7648 551.387 69.6308C549.218 68.5705 546.449 70.1159 546.449 72.5297L546.449 79.2776C546.449 82.8872 550.904 84.7735 553.387 85.3357C553.578 85.3789 553.772 85.3965 553.967 85.3965Z" fill="#DE4247"/>
<path d="M188.998 152.529C198.273 155.319 201.741 162.675 202.477 166.901C202.565 167.41 202.986 167.804 203.503 167.804H245.088C245.58 167.804 246.002 167.438 246.258 167.018C247.837 164.427 254.729 160.597 260.039 158.713C260.836 158.43 260.874 157.597 260.035 157.49C257.594 157.179 253.622 157.405 250.117 158.525C249.394 158.756 248.819 158.225 249.269 157.615C250.764 155.589 254.29 152.716 257.509 150.81C258.386 150.291 258.178 148.782 257.161 148.709C250.839 148.253 246.084 150.024 241.942 152.474C241.315 152.846 240.564 152.459 240.726 151.748C241.363 148.949 244.101 144.814 247.486 141.95C248.269 141.287 247.849 139.942 246.843 140.141C242.42 141.017 237.797 143.576 234.016 147.048C233.45 147.567 232.527 147.324 232.393 146.568C231.444 141.2 232.921 135.292 234.098 130.37C234.313 129.468 233.335 128.864 232.678 129.518C228.405 133.773 225.189 140.343 223.828 145.473C223.565 146.465 221.899 146.731 221.365 145.853C216.187 137.334 209.548 135.408 205.383 135.617C204.535 135.66 204.323 136.703 204.969 137.255C207.74 139.621 211.374 143.811 212.608 148.941C212.836 149.887 211.649 150.379 210.932 149.72C208.687 147.656 206.398 146.715 204.671 146.367C203.848 146.201 203.442 147.141 203.94 147.817C204.781 148.959 205.707 150.486 206.338 152.199C206.666 153.091 205.581 153.7 204.788 153.177C199.483 149.679 192.375 149.908 188.825 151.122C188.046 151.389 188.209 152.291 188.998 152.529Z" fill="#2A2A2A"/>
<path d="M139.997 152.529C149.325 155.318 152.813 162.676 153.553 166.902C153.642 167.411 154.062 167.804 154.579 167.804H196.411C196.903 167.804 197.325 167.439 197.582 167.019C199.168 164.429 206.101 160.597 211.441 158.713C212.241 158.431 212.279 157.597 211.437 157.49C208.98 157.179 204.98 157.405 201.452 158.529C200.73 158.759 200.157 158.228 200.608 157.619C202.109 155.593 205.655 152.719 208.894 150.812C209.774 150.294 209.566 148.782 208.547 148.709C202.184 148.253 197.399 150.026 193.232 152.481C192.605 152.85 191.856 152.463 192.018 151.754C192.656 148.956 195.409 144.819 198.814 141.953C199.6 141.292 199.181 139.942 198.172 140.141C193.721 141.017 189.066 143.58 185.261 147.057C184.695 147.574 183.775 147.331 183.64 146.577C182.683 141.204 184.171 135.289 185.355 130.363C185.572 129.462 184.595 128.856 183.936 129.508C179.628 133.768 176.386 140.356 175.02 145.493C174.756 146.484 173.095 146.75 172.561 145.874C167.351 137.337 160.667 135.408 156.475 135.617C155.625 135.66 155.413 136.706 156.062 137.257C158.851 139.626 162.508 143.82 163.745 148.955C163.972 149.9 162.789 150.391 162.072 149.735C159.808 147.66 157.498 146.715 155.757 146.366C154.933 146.201 154.526 147.144 155.026 147.82C155.874 148.964 156.805 150.494 157.439 152.209C157.768 153.1 156.687 153.709 155.894 153.188C150.557 149.679 143.398 149.907 139.824 151.122C139.043 151.387 139.206 152.292 139.997 152.529Z" fill="#181818"/>
<path d="M238.833 152.529C248 155.319 251.429 162.674 252.157 166.9C252.245 167.41 252.666 167.804 253.183 167.804H294.274C294.767 167.804 295.188 167.437 295.443 167.015C297.006 164.425 303.818 160.596 309.066 158.713C309.859 158.428 309.897 157.598 309.062 157.49C306.654 157.18 302.738 157.404 299.277 158.518C298.554 158.751 297.975 158.22 298.423 157.607C299.905 155.58 303.39 152.71 306.57 150.806C307.443 150.284 307.234 148.783 306.22 148.709C299.98 148.254 295.285 150.017 291.195 152.462C290.567 152.838 289.812 152.45 289.974 151.736C290.609 148.936 293.317 144.804 296.662 141.944C297.44 141.279 297.019 139.94 296.015 140.142C291.652 141.017 287.092 143.568 283.358 147.029C282.792 147.554 281.862 147.31 281.73 146.55C280.8 141.192 282.254 135.298 283.415 130.385C283.629 129.481 282.647 128.88 281.993 129.54C277.791 133.784 274.625 140.317 273.276 145.432C273.014 146.428 271.337 146.693 270.805 145.811C265.689 137.328 259.141 135.409 255.031 135.617C254.186 135.66 253.975 136.697 254.615 137.25C257.351 139.611 260.94 143.792 262.167 148.913C262.394 149.862 261.201 150.353 260.485 149.69C258.277 147.649 256.03 146.715 254.332 146.368C253.512 146.2 253.106 147.134 253.598 147.81C254.428 148.948 255.341 150.47 255.966 152.177C256.294 153.072 255.202 153.681 254.408 153.154C249.166 149.679 242.16 149.911 238.658 151.123C237.884 151.391 238.048 152.29 238.833 152.529Z" fill="#181818"/>
<path d="M185.079 155.231C192.494 157.712 195.107 164.066 195.541 167.443C195.571 167.676 195.666 167.893 195.839 168.051C202.526 174.137 225.434 174.114 229.934 167.982C230.02 167.865 230.065 167.728 230.11 167.589C230.772 165.508 236.471 162.1 240.947 160.383C241.724 160.085 241.754 159.289 240.926 159.206C239.054 159.02 236.262 159.21 233.721 159.995C232.991 160.22 232.429 159.697 232.895 159.092C234.089 157.542 236.48 155.498 238.772 154.011C239.618 153.463 239.391 151.97 238.384 151.922C233.799 151.707 230.266 153.044 227.174 154.902C226.54 155.284 225.791 154.894 225.983 154.179C226.567 152 228.474 148.992 230.851 146.749C231.59 146.051 231.145 144.743 230.16 144.99C226.942 145.798 223.632 147.733 220.855 150.314C220.282 150.846 219.337 150.599 219.224 149.825C218.615 145.649 219.634 141.112 220.522 137.242C220.731 136.333 219.752 135.753 219.124 136.444C216.115 139.758 213.81 144.541 212.677 148.501C212.391 149.498 210.631 149.76 210.08 148.881C206.174 142.646 201.355 141.041 198.148 141.084C197.312 141.095 197.093 142.108 197.708 142.674C199.767 144.569 202.322 147.709 203.385 151.532C203.648 152.479 202.448 152.979 201.703 152.338C200.232 151.07 198.768 150.405 197.579 150.098C196.778 149.89 196.364 150.794 196.828 151.48C197.359 152.264 197.914 153.236 198.35 154.314C198.709 155.203 197.61 155.823 196.793 155.323C192.791 152.874 187.716 152.984 184.93 153.859C184.157 154.102 184.311 154.975 185.079 155.231Z" fill="#484848"/>
<path d="M136.085 155.231C143.523 157.701 146.164 164.012 146.618 167.4C146.652 167.659 146.775 167.901 146.976 168.068C158.052 177.236 174.389 174.62 181.16 168.03C181.311 167.883 181.396 167.691 181.472 167.495C182.276 165.407 187.912 162.075 192.353 160.383C193.133 160.086 193.162 159.288 192.332 159.206C190.443 159.019 187.625 159.21 185.062 159.999C184.333 160.224 183.773 159.7 184.24 159.097C185.44 157.547 187.849 155.503 190.159 154.014C191.007 153.467 190.781 151.969 189.772 151.922C185.147 151.706 181.586 153.048 178.469 154.91C177.835 155.289 177.089 154.899 177.28 154.186C177.866 152.009 179.786 148.999 182.18 146.753C182.923 146.057 182.479 144.744 181.491 144.99C178.245 145.799 174.905 147.739 172.105 150.325C171.532 150.855 170.591 150.608 170.477 149.837C169.859 145.654 170.889 141.108 171.785 137.233C171.995 136.325 171.017 135.743 170.388 136.43C167.344 139.752 165.014 144.556 163.874 148.527C163.588 149.523 161.835 149.784 161.283 148.908C157.346 142.65 152.483 141.041 149.248 141.084C148.41 141.095 148.191 142.112 148.809 142.677C150.886 144.576 153.461 147.721 154.528 151.55C154.792 152.495 153.596 152.996 152.851 152.356C151.361 151.075 149.876 150.405 148.673 150.097C147.869 149.891 147.455 150.798 147.922 151.484C148.458 152.272 149.019 153.246 149.458 154.328C149.818 155.215 148.723 155.835 147.906 155.336C143.873 152.873 138.749 152.982 135.937 153.859C135.161 154.101 135.314 154.975 136.085 155.231Z" fill="#484848"/>
<path d="M233.283 155.23C240.816 157.679 243.532 163.905 244.029 167.313C244.074 167.623 244.238 167.9 244.509 168.058C253.159 173.1 272.342 174.07 279.297 168.033C279.466 167.886 279.561 167.683 279.645 167.475C280.495 165.386 286.228 162.07 290.749 160.383C291.537 160.089 291.566 159.287 290.728 159.206C288.789 159.018 285.891 159.213 283.263 160.012C282.536 160.233 281.982 159.709 282.453 159.112C283.672 157.564 286.134 155.515 288.496 154.022C289.355 153.48 289.128 151.969 288.114 151.922C283.371 151.705 279.723 153.059 276.531 154.934C275.898 155.305 275.159 154.915 275.351 154.208C275.94 152.033 277.899 149.018 280.347 146.766C281.099 146.074 280.658 144.746 279.664 144.988C276.331 145.8 272.902 147.755 270.033 150.36C269.46 150.88 268.531 150.634 268.414 149.87C267.771 145.669 268.832 141.097 269.751 137.206C269.964 136.301 268.993 135.713 268.356 136.39C265.209 139.734 262.804 144.602 261.643 148.604C261.355 149.593 259.624 149.857 259.07 148.988C255.04 142.663 250.045 141.041 246.727 141.084C245.882 141.095 245.662 142.123 246.291 142.687C248.42 144.596 251.057 147.757 252.135 151.603C252.399 152.543 251.216 153.045 250.473 152.411C248.925 151.091 247.38 150.407 246.132 150.095C245.321 149.892 244.907 150.811 245.383 151.497C245.935 152.292 246.511 153.277 246.959 154.369C247.321 155.25 246.24 155.871 245.424 155.377C241.297 152.873 236.025 152.977 233.137 153.858C232.353 154.097 232.504 154.977 233.283 155.23Z" fill="#484848"/>
<path d="M652.901 187.984C660.399 190.372 663.28 196.336 663.943 199.873C664.038 200.381 664.462 200.774 664.979 200.774H699.782C700.274 200.774 700.691 200.407 700.965 199.998C702.388 197.868 707.846 194.817 712.2 193.221C712.995 192.929 713.023 192.121 712.181 192.039C710.168 191.841 707.137 192.04 704.398 192.87C703.672 193.09 703.122 192.566 703.592 191.971C704.847 190.385 707.424 188.27 709.889 186.74C710.755 186.203 710.531 184.684 709.512 184.635C704.57 184.399 700.78 185.793 697.464 187.722C696.833 188.088 696.097 187.699 696.286 186.994C696.884 184.77 698.928 181.665 701.482 179.359C702.244 178.672 701.806 177.334 700.807 177.569C697.333 178.389 693.753 180.401 690.768 183.087C690.197 183.601 689.275 183.356 689.154 182.597C688.471 178.291 689.585 173.598 690.539 169.614C690.754 168.712 689.786 168.118 689.143 168.786C685.842 172.217 683.326 177.258 682.134 181.369C681.848 182.355 680.136 182.621 679.583 181.755C675.402 175.216 670.194 173.561 666.755 173.617C665.906 173.631 665.686 174.667 666.323 175.23C668.536 177.182 671.291 180.434 672.39 184.392C672.651 185.329 671.474 185.83 670.734 185.198C669.095 183.798 667.454 183.083 666.14 182.765C665.323 182.568 664.909 183.496 665.393 184.182C665.978 185.01 666.59 186.043 667.06 187.189C667.42 188.069 666.346 188.689 665.534 188.195C661.253 185.589 655.743 185.699 652.753 186.609C651.965 186.849 652.116 187.734 652.901 187.984Z" fill="#2A2A2A"/>
<path d="M611.577 187.984C619.118 190.372 622.017 196.337 622.683 199.874C622.779 200.382 623.202 200.774 623.719 200.774H658.73C659.222 200.774 659.64 200.408 659.914 199.999C661.344 197.869 666.834 194.817 671.214 193.221C672.01 192.93 672.039 192.121 671.195 192.039C669.168 191.841 666.114 192.041 663.357 192.874C662.632 193.093 662.083 192.568 662.554 191.975C663.814 190.389 666.407 188.273 668.886 186.743C669.755 186.206 669.531 184.683 668.511 184.635C663.536 184.399 659.721 185.796 656.383 187.728C655.753 188.092 655.019 187.703 655.208 187C655.807 184.776 657.862 181.67 660.431 179.363C661.196 178.676 660.758 177.334 659.758 177.569C656.26 178.389 652.654 180.405 649.65 183.096C649.079 183.607 648.16 183.363 648.039 182.606C647.348 178.295 648.471 173.595 649.431 169.607C649.648 168.706 648.681 168.11 648.036 168.776C644.706 172.213 642.168 177.27 640.971 181.389C640.685 182.374 638.979 182.64 638.425 181.776C634.218 175.22 628.972 173.56 625.51 173.617C624.659 173.631 624.44 174.671 625.08 175.232C627.307 177.187 630.079 180.443 631.182 184.405C631.442 185.342 630.268 185.843 629.529 185.212C627.874 183.802 626.216 183.083 624.889 182.765C624.071 182.568 623.657 183.499 624.144 184.185C624.733 185.016 625.35 186.051 625.822 187.2C626.182 188.078 625.112 188.698 624.3 188.205C619.993 185.589 614.441 185.698 611.43 186.609C610.639 186.848 610.79 187.735 611.577 187.984Z" fill="#181818"/>
<path d="M694.927 187.984C702.338 190.372 705.187 196.335 705.842 199.872C705.937 200.381 706.361 200.774 706.878 200.774H741.263C741.756 200.774 742.173 200.406 742.445 199.995C743.855 197.865 749.249 194.816 753.552 193.22C754.342 192.927 754.371 192.122 753.533 192.039C751.548 191.842 748.562 192.039 745.86 192.864C745.133 193.086 744.578 192.561 745.047 191.963C746.291 190.376 748.839 188.263 751.273 186.736C752.134 186.196 751.909 184.684 750.894 184.635C746.019 184.4 742.277 185.787 739.003 187.709C738.372 188.08 737.632 187.69 737.821 186.983C738.416 184.757 740.439 181.654 742.963 179.352C743.719 178.662 743.28 177.332 742.284 177.57C738.859 178.388 735.329 180.392 732.383 183.068C731.811 183.587 730.883 183.342 730.764 182.579C730.096 178.283 731.192 173.603 732.132 169.628C732.346 168.724 731.374 168.134 730.735 168.808C727.493 172.227 725.019 177.233 723.839 181.328C723.553 182.318 721.829 182.582 721.277 181.712C717.149 175.21 712.015 173.561 708.623 173.617C707.778 173.631 707.558 174.661 708.19 175.224C710.373 177.171 713.093 180.415 714.186 184.364C714.446 185.304 713.263 185.805 712.522 185.169C710.916 183.79 709.308 183.083 708.019 182.767C707.206 182.567 706.792 183.489 707.271 184.175C707.847 184.999 708.451 186.027 708.915 187.168C709.274 188.051 708.193 188.67 707.38 188.173C703.152 185.589 697.725 185.702 694.778 186.609C693.994 186.851 694.146 187.733 694.927 187.984Z" fill="#181818"/>
<path d="M649.581 190.269C655.577 192.412 657.731 197.596 658.112 200.414C658.143 200.647 658.238 200.863 658.413 201.02C664.096 206.105 683.271 206.082 687.105 200.951C687.192 200.835 687.236 200.698 687.284 200.56C687.875 198.848 692.414 196.103 696.116 194.631C696.889 194.324 696.907 193.553 696.077 193.496C694.577 193.393 692.507 193.554 690.575 194.111C689.841 194.323 689.304 193.807 689.789 193.217C690.753 192.046 692.435 190.596 694.119 189.447C694.951 188.879 694.707 187.378 693.699 187.362C690.203 187.309 687.443 188.338 685.014 189.764C684.376 190.139 683.644 189.747 683.863 189.04C684.385 187.357 685.762 185.168 687.491 183.415C688.205 182.691 687.741 181.395 686.766 181.684C684.307 182.413 681.814 183.896 679.675 185.833C679.095 186.358 678.153 186.109 678.055 185.333C677.643 182.038 678.388 178.5 679.091 175.418C679.299 174.508 678.333 173.942 677.723 174.648C675.471 177.256 673.715 180.817 672.748 183.903C672.438 184.893 670.622 185.157 670.045 184.295C666.945 179.661 663.244 178.312 660.64 178.241C659.805 178.219 659.578 179.223 660.182 179.8C661.784 181.33 663.667 183.703 664.589 186.566C664.891 187.501 663.7 188.013 662.925 187.409C661.94 186.641 660.975 186.182 660.142 185.927C659.351 185.684 658.931 186.574 659.379 187.27C659.699 187.769 660.023 188.343 660.305 188.968C660.699 189.842 659.611 190.476 658.772 190.013C655.602 188.265 651.759 188.298 649.458 188.928C648.677 189.142 648.818 189.996 649.581 190.269Z" fill="#484848"/>
<path d="M608.263 190.269C614.272 192.401 616.45 197.543 616.85 200.37C616.887 200.629 617.009 200.871 617.211 201.037C626.531 208.704 640.233 206.521 645.955 200.999C646.106 200.853 646.191 200.66 646.272 200.467C646.996 198.75 651.469 196.077 655.131 194.631C655.907 194.325 655.925 193.553 655.092 193.496C653.578 193.392 651.487 193.555 649.537 194.115C648.804 194.326 648.269 193.81 648.755 193.222C649.724 192.052 651.418 190.601 653.115 189.451C653.951 188.884 653.707 187.377 652.698 187.362C649.17 187.308 646.387 188.342 643.937 189.772C643.299 190.144 642.569 189.753 642.789 189.048C643.312 187.365 644.698 185.175 646.44 183.42C647.157 182.697 646.694 181.396 645.717 181.683C643.235 182.414 640.717 183.902 638.56 185.845C637.98 186.367 637.042 186.118 636.943 185.344C636.524 182.043 637.278 178.496 637.988 175.408C638.196 174.5 637.232 173.931 636.62 174.634C634.339 177.251 632.562 180.831 631.588 183.929C631.278 184.917 629.47 185.182 628.893 184.323C625.767 179.666 622.029 178.312 619.402 178.241C618.565 178.219 618.337 179.227 618.945 179.804C620.56 181.337 622.459 183.715 623.385 186.584C623.687 187.518 622.501 188.029 621.726 187.427C620.726 186.648 619.744 186.183 618.898 185.926C618.104 185.684 617.684 186.579 618.135 187.275C618.459 187.777 618.786 188.354 619.071 188.982C619.466 189.854 618.383 190.488 617.544 190.026C614.348 188.265 610.465 188.296 608.141 188.928C607.357 189.141 607.498 189.997 608.263 190.269Z" fill="#484848"/>
<path d="M690.242 190.268C696.317 192.377 698.559 197.437 699 200.282C699.049 200.592 699.213 200.87 699.484 201.027C706.795 205.235 722.834 206.038 728.715 201.002C728.885 200.856 728.98 200.651 729.071 200.446C729.837 198.729 734.383 196.072 738.107 194.632C738.892 194.328 738.909 193.552 738.07 193.496C736.512 193.392 734.358 193.557 732.354 194.127C731.623 194.335 731.095 193.819 731.585 193.238C732.569 192.067 734.301 190.613 736.037 189.46C736.883 188.898 736.639 187.377 735.624 187.362C732.001 187.308 729.148 188.353 726.636 189.795C726.001 190.16 725.278 189.769 725.498 189.069C726.025 187.389 727.439 185.195 729.218 183.435C729.945 182.715 729.484 181.399 728.501 181.682C725.949 182.416 723.36 183.918 721.146 185.879C720.568 186.392 719.64 186.144 719.539 185.378C719.1 182.058 719.878 178.486 720.607 175.381C720.82 174.477 719.861 173.9 719.241 174.593C716.874 177.235 715.036 180.874 714.041 184.006C713.73 184.988 711.946 185.255 711.367 184.402C708.163 179.681 704.317 178.312 701.619 178.241C700.774 178.219 700.546 179.239 701.164 179.814C702.822 181.358 704.768 183.75 705.705 186.636C706.007 187.565 704.833 188.077 704.062 187.479C703.013 186.666 701.981 186.185 701.097 185.923C700.296 185.686 699.876 186.592 700.336 187.29C700.671 187.798 701.008 188.384 701.3 189.022C701.697 189.889 700.628 190.522 699.792 190.064C696.516 188.265 692.512 188.291 690.122 188.927C689.33 189.138 689.468 189.999 690.242 190.268Z" fill="#484848"/>
<mask id="mask0_567_26452" style="mask-type:alpha" maskUnits="userSpaceOnUse" x="10" y="7" width="803" height="534">
<path fill-rule="evenodd" clip-rule="evenodd" d="M60.4293 201.056C97.3911 116.673 166.831 41.3776 262.366 12.9389C345.883 -11.9224 423.584 48.0831 508.836 67.5752C596.405 87.5971 703.831 63.946 761.085 126.966C822.416 194.475 825.675 296.187 790.343 377.436C757.687 452.532 671.768 492.643 588.883 522.965C518.933 548.554 446.594 534.392 371.215 530.764C259.424 525.383 122.826 573.966 50.3183 497.043C-23.3779 418.86 18.6254 296.494 60.4293 201.056Z" fill="#2A2A2A"/>
</mask>
<g mask="url(#mask0_567_26452)">
<rect x="129.617" y="292.094" width="528.299" height="209.905" rx="10" fill="#AC1015"/>
<rect x="293.414" y="315.605" width="200.695" height="186.396" fill="#CA2E33"/>
<rect width="101" height="140" transform="matrix(-1 0 0 1 293 362)" fill="#A2060B"/>
<rect width="99" height="140" transform="matrix(-1 0 0 1 593 362)" fill="#A2060B"/>
<rect x="154" y="358" width="103" height="103" rx="10" fill="#AB8636"/>
<rect x="530" y="358" width="103" height="103" rx="10" fill="#AB8636"/>
<rect x="163" y="365.566" width="25" height="40.5258" rx="2" fill="#F5EAB8"/>
<rect x="192" y="365.566" width="25" height="40.5258" rx="2" fill="#F5EAB8"/>
<rect x="221" y="365.566" width="25" height="40.5258" rx="2" fill="#F5EAB8"/>
<rect x="163" y="411.322" width="25" height="40.5258" rx="2" fill="#F5EAB8"/>
<rect x="192" y="411.322" width="25" height="40.5258" rx="2" fill="#F5EAB8"/>
<rect x="221" y="411.322" width="25" height="40.5258" rx="2" fill="#F5EAB8"/>
<path d="M183.656 365.619L168.019 365.619C167.585 387.372 174.534 396.073 188 398.248V371.058C188 366.64 185.059 365.265 183.656 365.619Z" fill="#EBE0AE"/>
<path d="M212.656 365.619L197.019 365.619C196.585 387.372 203.534 396.073 217 398.248V371.058C217 366.64 214.059 365.265 212.656 365.619Z" fill="#EBE0AE"/>
<path d="M241.656 365.619L226.019 365.619C225.585 387.372 232.534 396.073 246 398.248V371.058C246 366.64 243.059 365.265 241.656 365.619Z" fill="#EBE0AE"/>
<path d="M183.656 411.375L168.019 411.375C167.585 433.128 174.534 441.829 188 444.004V416.814C188 412.396 185.059 411.021 183.656 411.375Z" fill="#EBE0AE"/>
<path d="M212.656 411.375L197.019 411.375C196.585 433.128 203.534 441.829 217 444.004V416.814C217 412.396 214.059 411.021 212.656 411.375Z" fill="#EBE0AE"/>
<path d="M241.656 411.375L226.019 411.375C225.585 433.128 232.534 441.829 246 444.004V416.814C246 412.396 243.059 411.021 241.656 411.375Z" fill="#EBE0AE"/>
<rect x="539" y="365.566" width="25" height="40.5258" rx="2" fill="#F5EAB8"/>
<rect x="568" y="365.566" width="25" height="40.5258" rx="2" fill="#F5EAB8"/>
<rect x="597" y="365.566" width="25" height="40.5258" rx="2" fill="#F5EAB8"/>
<rect x="539" y="411.322" width="25" height="40.5258" rx="2" fill="#F5EAB8"/>
<rect x="568" y="411.322" width="25" height="40.5258" rx="2" fill="#F5EAB8"/>
<rect x="597" y="411.322" width="25" height="40.5258" rx="2" fill="#F5EAB8"/>
<path d="M559.656 365.619L544.019 365.619C543.585 387.372 550.534 396.073 564 398.248V371.058C564 366.64 561.059 365.265 559.656 365.619Z" fill="#EBE0AE"/>
<path d="M588.656 365.619L573.019 365.619C572.585 387.372 579.534 396.073 593 398.248V371.058C593 366.64 590.059 365.265 588.656 365.619Z" fill="#EBE0AE"/>
<path d="M617.656 365.619L602.019 365.619C601.585 387.372 608.534 396.073 622 398.248V371.058C622 366.64 619.059 365.265 617.656 365.619Z" fill="#EBE0AE"/>
<path d="M559.656 411.375L544.019 411.375C543.585 433.128 550.534 441.829 564 444.004V416.814C564 412.396 561.059 411.021 559.656 411.375Z" fill="#EBE0AE"/>
<path d="M588.656 411.375L573.019 411.375C572.585 433.128 579.534 441.829 593 444.004V416.814C593 412.396 590.059 411.021 588.656 411.375Z" fill="#EBE0AE"/>
<path d="M617.656 411.375L602.019 411.375C601.585 433.128 608.534 441.829 622 444.004V416.814C622 412.396 619.059 411.021 617.656 411.375Z" fill="#EBE0AE"/>
<rect x="138.469" y="255.152" width="504.688" height="60.4527" fill="#AB8636"/>
<rect x="138" y="289" width="505" height="27" fill="#977222"/>
<rect x="106" y="248.434" width="66.4063" height="73.8867" rx="10" fill="#F5EAB8"/>
<path d="M157 253H119C138.895 254.332 152.771 269.203 160.84 281.829C162.617 284.608 168 283.338 168 280.04V264.868C168 257.589 165.5 253 157 253Z" fill="#E1D6A4"/>
<path d="M124 316.5L162 316.5C142.105 315.168 128.229 300.297 120.16 287.671C118.383 284.892 113 286.162 113 289.46L113 304.632C113 311.911 115.5 316.5 124 316.5Z" fill="#FFFECC"/>
<rect x="616.594" y="248.434" width="66.4063" height="73.8867" rx="10" fill="#F5EAB8"/>
<path d="M666 253H628C647.895 254.332 661.771 269.203 669.84 281.829C671.617 284.608 677 283.338 677 280.04V264.868C677 257.589 674.5 253 666 253Z" fill="#E1D6A4"/>
<path d="M633 316.5L671 316.5C651.105 315.168 637.229 300.297 629.16 287.671C627.383 284.892 622 286.162 622 289.46L622 304.632C622 311.911 624.5 316.5 633 316.5Z" fill="#FFFECC"/>
<path d="M254 316H535V343C535 353.493 526.493 362 516 362H273C262.507 362 254 353.493 254 343V316Z" fill="#8E0000" fill-opacity="0.5"/>
<rect x="262.426" y="235" width="264.15" height="114.188" rx="19" fill="#F5EAB8"/>
<rect x="285" y="246.379" width="219" height="91.0346" rx="19" fill="#D7CC9A"/>
<rect x="298" y="255" width="193" height="74" rx="19" fill="#EBE0AE"/>
<path d="M333.436 280.315C334.314 279.345 335.666 278.886 336.908 279.298C338.777 279.919 339.527 282.147 338.231 283.63C335.807 286.4 332.828 288.94 329.871 290.888C328.726 291.643 327.291 291.417 326.416 290.361C325.212 288.907 325.522 286.446 327.128 285.452C329.507 283.98 331.723 282.207 333.436 280.315ZM350.016 284.027C348.556 282.995 348.43 280.843 349.804 279.699C350.666 278.982 351.887 278.881 352.839 279.473C355.752 281.285 359.051 283.565 361.551 285.639C362.859 286.724 362.79 288.678 361.514 289.8C360.289 290.878 358.417 290.773 357.204 289.68C355.197 287.871 352.569 285.832 350.016 284.027ZM346.769 293.301C345.372 291.942 343.022 291.968 341.657 293.359C337.844 297.247 332.376 301.197 326.624 304.072C325.374 304.696 323.912 304.218 323.172 303.034C322.232 301.528 322.72 299.318 324.306 298.52C330.647 295.329 336.455 290.58 339.893 286.21C340.502 285.436 341.415 284.947 342.4 284.947H345.549C346.457 284.947 347.311 285.363 347.907 286.049C352.212 291.007 357.895 295.024 363.779 297.631C365.603 298.44 366.266 300.919 365.212 302.613C364.457 303.825 362.96 304.301 361.683 303.662C356.411 301.022 350.761 297.184 346.769 293.301ZM329.912 301.14C329.912 299.483 331.255 298.14 332.912 298.14H355.351C357.008 298.14 358.351 299.483 358.351 301.14V312.594C358.351 314.251 357.008 315.594 355.351 315.594H355.243C353.586 315.594 352.243 314.251 352.243 312.594V306.467C352.243 304.81 350.899 303.467 349.243 303.467H338.72C337.063 303.467 335.72 304.81 335.72 306.467V312.741C335.72 314.345 334.42 315.645 332.816 315.645C331.212 315.645 329.912 314.345 329.912 312.741V301.14ZM332.616 311.56C332.616 310.089 333.808 308.896 335.28 308.896H352.633C354.104 308.896 355.297 310.089 355.297 311.56C355.297 313.031 354.104 314.224 352.633 314.224H335.28C333.808 314.224 332.616 313.031 332.616 311.56ZM340.727 271C340.727 269.343 342.07 268 343.727 268H343.935C345.592 268 346.935 269.343 346.935 271V272.205C346.935 273.862 345.592 275.205 343.935 275.205H343.727C342.07 275.205 340.727 273.862 340.727 272.205V271ZM322.502 275.059C322.502 273.402 323.845 272.059 325.502 272.059H362.46C364.117 272.059 365.46 273.402 365.46 275.059V280.019C365.46 281.676 364.117 283.019 362.46 283.019H362.042C360.529 283.019 359.302 281.792 359.302 280.279C359.302 278.766 358.075 277.539 356.562 277.539H331.1C329.587 277.539 328.36 278.766 328.36 280.279C328.36 281.792 327.133 283.019 325.62 283.019H325.431C323.813 283.019 322.502 281.708 322.502 280.09V275.059Z" fill="#343434"/>
<path d="M385.258 282.765C384.39 282.765 383.685 283.47 383.685 284.338C383.685 285.207 384.39 285.911 385.258 285.911H403.191C404.06 285.911 404.764 285.207 404.764 284.338C404.764 283.47 404.06 282.765 403.191 282.765H385.258ZM385.258 275.053C384.39 275.053 383.685 275.757 383.685 276.626C383.685 277.495 384.39 278.199 385.258 278.199H403.191C404.06 278.199 404.764 277.495 404.764 276.626C404.764 275.757 404.06 275.053 403.191 275.053H385.258ZM377.777 273.182C377.777 271.525 379.12 270.182 380.777 270.182H407.872C409.529 270.182 410.872 271.525 410.872 273.182V287.833C410.872 289.49 409.529 290.833 407.872 290.833H380.777C379.12 290.833 377.777 289.49 377.777 287.833V273.182ZM380.881 296.541C380.881 295.07 382.074 293.877 383.545 293.877H407.507C408.979 293.877 410.171 295.07 410.171 296.541C410.171 298.012 408.979 299.205 407.507 299.205H383.545C382.074 299.205 380.881 298.012 380.881 296.541ZM408.819 294.74C408.819 294.264 409.206 293.877 409.682 293.877H412.529C413.829 293.877 414.929 294.986 414.677 296.262C413.626 307.323 412.474 311.941 410.872 313.717C409.621 314.985 408.369 315.442 406.717 315.594C405.659 315.753 403.988 315.787 402.087 315.746C401.161 315.726 400.431 315.089 400.25 314.18C399.952 312.682 401.19 310.738 402.717 310.765C403.209 310.774 403.619 310.774 403.913 310.774C404.764 310.774 405.215 310.672 405.765 310.114C406.867 309.049 407.968 304.786 408.819 294.74ZM382.653 290.178C383.453 289.029 384.892 288.456 386.223 288.89C388.007 289.471 388.796 291.554 387.702 293.078C384.586 297.418 380.553 301.306 376.512 304.165C375.474 304.9 374.148 304.781 373.254 303.877C371.922 302.528 372.068 299.99 373.637 298.926C377.138 296.551 380.34 293.502 382.653 290.178ZM387.647 297.887C388.392 296.687 389.83 296.056 391.181 296.468C392.91 296.995 393.741 298.962 392.771 300.487C389.512 305.612 385.038 310.076 380.445 313.293C379.397 314.028 378.065 313.899 377.172 312.982C375.871 311.647 376.027 309.176 377.577 308.142C381.589 305.465 385.173 301.876 387.647 297.887ZM398.188 298.61C398.758 297.218 400.234 296.383 401.695 296.737C403.342 297.136 404.297 298.868 403.64 300.43C401.311 305.971 397.982 310.894 394.274 314.461C393.329 315.369 391.929 315.386 390.915 314.556C389.535 313.425 389.412 311.118 390.7 309.882C393.826 306.884 396.415 302.939 398.188 298.61Z" fill="#343434"/>
<path d="M449.975 270.829C449.975 269.267 451.242 268 452.804 268C454.367 268 455.633 269.267 455.633 270.829V300.994C455.633 302.556 454.367 303.822 452.804 303.822C451.242 303.822 449.975 302.556 449.975 300.994V270.829ZM436.267 291.051C435.651 289.581 436.334 287.89 437.798 287.26L458.488 278.355C459.923 277.737 461.588 278.404 462.201 279.842C462.806 281.265 462.154 282.91 460.738 283.532L440.114 292.588C438.627 293.241 436.894 292.548 436.267 291.051ZM440.112 275.776C440.112 274.2 441.39 272.922 442.966 272.922C444.542 272.922 445.82 274.2 445.82 275.776V305.801C445.82 308.795 446.27 309.201 449.375 309.201C450.877 309.201 457.536 309.201 459.088 309.201C460.999 309.201 461.825 308.663 462.286 306.586C462.644 304.967 464.592 303.968 466.155 304.521C467.204 304.892 467.922 305.894 467.751 306.993C466.864 312.683 464.882 314.63 459.589 314.63C457.936 314.63 450.426 314.63 448.874 314.63C442.015 314.63 440.112 312.803 440.112 305.751V275.776ZM459.939 277.981C459.939 277.934 459.901 277.894 459.853 277.894C459.77 277.894 459.736 277.788 459.803 277.739L461.384 276.595C461.576 276.456 461.825 276.421 462.049 276.501L465.031 277.581C465.524 277.759 465.802 278.28 465.677 278.788C465.657 278.869 465.647 278.952 465.647 279.035C465.646 288.653 465.546 294.749 465.346 296.82C465.146 299.154 464.295 300.372 462.743 301.032C461.779 301.503 460.505 301.662 459.289 301.715C458.287 301.759 457.445 300.996 457.25 300.012C457.183 299.672 457.107 299.326 457.024 298.986C456.766 297.933 457.603 296.719 458.687 296.719C459.288 296.719 459.589 296.567 459.739 295.653C459.939 294.641 459.939 289.136 459.939 277.981ZM420.786 282.638C420.786 281.055 422.069 279.772 423.653 279.772H434.441C436.025 279.772 437.308 281.055 437.308 282.638C437.308 284.222 436.025 285.505 434.441 285.505H423.653C422.069 285.505 420.786 284.222 420.786 282.638ZM426.594 271.514C426.594 269.966 427.849 268.71 429.397 268.71C430.946 268.71 432.201 269.966 432.201 271.514V299.547C432.201 301.096 430.946 302.351 429.397 302.351C427.849 302.351 426.594 301.096 426.594 299.547V271.514ZM421.214 305.262C420.595 303.694 421.388 301.923 422.957 301.306C426.102 300.07 429.947 298.462 433.814 296.809C435.411 296.127 437.242 297.03 437.665 298.714C437.984 299.983 437.388 301.305 436.221 301.896C432.558 303.75 428.776 305.569 425.36 307.163C423.802 307.89 421.958 307.147 421.326 305.547L421.214 305.262Z" fill="#343434"/>
<path d="M342 387.736C342 382.213 346.477 377.736 352 377.736H438.25C443.773 377.736 448.25 382.213 448.25 387.736V502H342V387.736Z" fill="#F5EAB8"/>
<path d="M424 378H438C443.523 378 448 382.477 448 388V502H424V378Z" fill="#EBE0AE"/>
<path d="M362 387C362 382.029 366.029 378 371 378H395V502H362V387Z" fill="#EBE0AE"/>
<path d="M395 378.379V501.845" stroke="#AC1015"/>
<rect x="383" y="447" width="6" height="21" rx="2" fill="#AC1015"/>
<rect x="400" y="447" width="6" height="21" rx="2" fill="#AC1015"/>
<path d="M210.967 486.59C190.346 464.023 152.607 485.406 131.036 508.294C126.633 512.966 130.205 520 136.625 520H321.378C325.024 520 328.364 517.493 328.515 513.85C329.883 480.714 265.942 474.896 234.995 490.752C228.562 494.049 215.843 491.926 210.967 486.59Z" fill="#3E3E3E"/>
<path d="M572.43 486.59C551.809 464.023 514.07 485.406 492.499 508.294C488.096 512.966 491.668 520 498.087 520H682.84C686.487 520 689.827 517.493 689.978 513.85C691.345 480.714 627.405 474.896 596.458 490.752C590.025 494.049 577.306 491.926 572.43 486.59Z" fill="#141414"/>
<path d="M210.347 489.929C229.476 471.317 263.474 488.782 283.835 508.288C288.552 512.807 285.065 520 278.533 520H105.841C102.243 520 99.0413 517.571 99.0023 513.974C98.9432 508.509 100.327 501.147 105.619 494.806C113.56 485.294 161.916 477.335 187.847 492.681C193.915 496.272 205.293 494.846 210.347 489.929Z" fill="#141414"/>
<path d="M571.812 489.929C590.941 471.317 624.939 488.782 645.3 508.288C650.017 512.807 646.53 520 639.998 520H467.306C463.708 520 460.506 517.571 460.467 513.974C460.408 508.508 461.792 501.146 467.084 494.806C475.025 485.294 523.381 477.335 549.311 492.68C555.38 496.272 566.757 494.846 571.812 489.929Z" fill="#3E3E3E"/>
</g>
</svg>
