<svg width="520" height="451" viewBox="0 0 520 451" fill="none" xmlns="http://www.w3.org/2000/svg">
<path d="M4.90847 94.1063C5.98636 85.7535 13.0987 79.5 21.5207 79.5H185.534C202.103 79.5 215.534 92.9315 215.534 109.5V376.5C215.534 393.069 202.103 406.5 185.534 406.5H44.791C35.4021 406.5 27.791 398.889 27.791 389.5C27.791 380.111 35.4021 372.5 44.791 372.5H142.304C158.873 372.5 172.304 359.069 172.304 342.5V143C172.304 126.431 158.873 113 142.304 113H21.5207C11.4189 113 3.61559 104.125 4.90847 94.1063ZM0 101.115C0 89.1775 9.67746 79.5 21.6152 79.5C33.5529 79.5 43.2304 89.1775 43.2304 101.115V424.885C43.2304 436.823 33.5529 446.5 21.6152 446.5C9.67746 446.5 0 436.823 0 424.885V101.115ZM24.7031 235.25C24.7031 225.999 32.2023 218.5 41.4531 218.5H178.404C187.655 218.5 195.154 225.999 195.154 235.25C195.154 244.501 187.655 252 178.404 252H41.4531C32.2023 252 24.7031 244.501 24.7031 235.25ZM89.3383 19.2507C92.6316 7.48301 104.043 -0.567579 116.128 1.24427C130.629 3.41844 139.285 18.5279 133.415 31.9653C124.696 51.9262 114.835 72.9211 106.61 89.0472C102.804 96.5107 94.4548 100.368 86.2431 98.7059C74.284 96.2854 67.545 83.4183 71.8488 72.0008C78.0722 55.4908 84.6308 36.0719 89.3383 19.2507ZM303.23 95.5C303.23 85.835 311.065 78 320.73 78H478.886C487.044 78 494.119 83.6363 495.943 91.5874C498.457 102.547 490.131 113 478.886 113H320.73C311.065 113 303.23 105.165 303.23 95.5ZM475.057 84.8327C472.015 82.7587 473.483 78 477.165 78H507.043C514.199 78 520 83.8025 520 90.9587C520 93.4951 520 95.8706 520 97.5C510.119 327 501.473 404.5 476.77 429C463.183 443.5 448.979 448 427.363 449.5C408.505 451.296 377.193 450.673 345.954 449.44C339.846 449.199 335.078 445.412 333.48 439.512C330.605 428.901 338.409 413.568 349.393 414.035C377.297 415.221 400.687 415.5 411.306 415.5C423.658 415.5 431.069 414 437.862 407.5C458.177 389.557 468.06 307.029 476.687 88.1073C476.738 86.8191 476.123 85.5589 475.057 84.8327ZM310.267 16.5283C313.821 5.53672 324.901 -1.33672 336.247 0.832272C349.281 3.32391 357.294 16.5917 352.948 29.1304C332.286 88.7532 303.314 146.007 269.91 187.818C263.807 195.457 253.782 197.352 245.32 192.453C234.041 185.925 229.857 169.549 237.885 159.283C268.129 120.615 293.174 69.3884 310.267 16.5283ZM305.356 227.302C296.756 217.649 299.694 202.351 311.373 196.808C318.704 193.328 327.442 194.842 333.081 200.679C358.916 227.419 387.157 259.322 406.869 284.826C414.783 295.065 411.007 309.652 399.459 315.495C389.415 320.577 377.155 317.079 370.676 307.874C353.831 283.936 329.075 253.924 305.356 227.302Z" fill="#141414"/>
</svg>
