<svg width="1221" height="1183" viewBox="0 0 1221 1183" fill="none" xmlns="http://www.w3.org/2000/svg">
<path d="M95.4892 48.3764C80.2123 28.663 94.2623 0 119.202 0H446.104C469.723 0 484.079 26.0298 471.477 46.0065L450.199 79.7354C444.704 88.4459 435.125 93.7288 424.826 93.7288H145.34C136.064 93.7288 127.309 89.4375 121.627 82.1052L95.4892 48.3764ZM130.635 343.322C130.635 326.754 144.066 313.322 160.635 313.322H414.05C430.619 313.322 444.05 326.753 444.05 343.322V377.051C444.05 393.619 430.619 407.051 414.05 407.051H160.635C144.066 407.051 130.635 393.619 130.635 377.051V343.322ZM652.994 489.271C652.994 472.703 666.425 459.271 682.994 459.271H1161.11C1187.94 459.271 1201.28 491.802 1182.17 510.637L1147.95 544.366C1142.34 549.899 1134.77 553 1126.89 553H682.994C666.425 553 652.994 539.569 652.994 523V489.271ZM127.956 664.678C127.956 648.109 141.388 634.678 157.956 634.678H411.371C427.94 634.678 441.371 648.109 441.371 664.678V699.746C441.371 716.314 427.94 729.746 411.371 729.746H157.956C141.388 729.746 127.956 716.314 127.956 699.746V664.678ZM89.1142 30C89.1142 13.4314 102.546 0 119.114 0H151.531C168.1 0 181.531 13.4315 181.531 30V482.034C181.531 678.715 169.657 952.559 88.8825 1149.31C81.3945 1167.55 57.8554 1172.95 40.9682 1162.77C33.9765 1158.56 26.6763 1154.43 19.5366 1150.66C4.00936 1142.44 -3.33198 1123.29 3.55705 1107.13C83.0868 920.577 89.1142 668.767 89.1142 482.034V30ZM385.117 30C385.117 13.4315 398.549 0 415.117 0H448.874C465.443 0 478.874 13.4315 478.874 30V1063.15C478.874 1116.71 466.82 1147.51 433.335 1164.92C401.831 1179.45 354.98 1183.03 278.898 1182.59C264.4 1182.5 252.142 1171.91 248.71 1157.83C246.918 1150.47 244.818 1142.63 242.486 1134.77C235.986 1112.85 252.443 1087.83 275.3 1088.07C315.875 1088.49 348.129 1088.22 359.669 1087.25C378.421 1085.92 385.117 1080.56 385.117 1061.81V30ZM1069.54 34.0169C1069.54 17.4484 1082.97 4.01695 1099.54 4.01695H1135.98C1152.55 4.01695 1165.98 17.4484 1165.98 34.0169V263.78C1165.98 313.322 1155.26 340.102 1112.4 354.831C1074.36 368.326 1014.95 369.456 926.964 369.551C912.561 369.566 900.247 359.273 895.855 345.556C894.098 340.068 892.137 334.536 890.047 329.051C882.026 308.006 896.921 284.303 919.442 284.535C978.21 285.143 1025.87 284.919 1042.75 283.864C1064.18 283.864 1069.54 278.509 1069.54 262.441V34.0169ZM1112.4 476.355C1112.4 466.92 1120.05 459.271 1129.49 459.271H1129.81H1139.57C1142.87 459.271 1146.14 459.813 1149.25 460.875L1178.69 470.908C1192.89 475.748 1201.36 490.382 1198.22 505.052C1131.02 819.095 975.689 1034.54 784.236 1158.96C769.846 1168.31 750.579 1162.95 740.612 1148.98C736.75 1143.57 732.606 1138.08 728.341 1132.75C715.165 1116.26 718.623 1089.94 736.485 1078.7C910.187 969.408 1058.08 752.437 1112.08 479.654C1112.29 478.57 1112.4 477.46 1112.4 476.355ZM774.742 524.382C790.465 520.19 806.629 529.314 811.569 544.819C885.156 775.794 1021.67 979.177 1203.68 1085.32C1222.58 1096.34 1226.36 1124 1212.08 1140.58C1206.26 1147.34 1200.62 1154.3 1195.47 1161.04C1185.93 1173.48 1168.7 1177.95 1155.25 1169.9C958.207 1052.02 814.516 829.548 731.666 567.752C726.57 551.652 736.109 534.681 752.426 530.331L774.742 524.382ZM596.74 34.017C596.74 17.4484 610.171 4.01695 626.74 4.01695H1126.87C1145.3 4.01695 1159.37 20.4728 1156.51 38.6754L1151.21 72.4042C1148.92 86.9951 1136.34 97.7458 1121.57 97.7458H721.836C705.267 97.7458 691.836 111.177 691.836 127.746V1152.32C691.836 1168.89 678.404 1182.32 661.836 1182.32H626.74C610.171 1182.32 596.74 1168.89 596.74 1152.32V34.017Z" fill="#2E2E2E"/>
</svg>
