<svg width="615" height="808" viewBox="0 0 615 808" fill="none" xmlns="http://www.w3.org/2000/svg">
<path fill-rule="evenodd" clip-rule="evenodd" d="M91.2802 22.3295C165.594 -32.2585 273.549 25.724 365.409 63.5412C456.579 101.074 566.896 135.612 604.718 233.702C641.434 328.927 560.916 408.651 533.531 499.565C508.703 581.991 520.726 688.566 454.122 733.668C383.885 781.229 286.361 760.959 202.355 723.824C121.096 687.904 42.9775 625.506 9.69683 537.212C-21.008 455.752 29.8709 382.106 42.7983 300.52C58.1456 203.661 18.7539 75.6048 91.2802 22.3295Z" fill="#2A2A2A"/>
<path d="M310.973 44.2703C314.808 31.5824 328.343 23.8964 341.204 27.103L548.714 78.841C561.575 82.0476 568.892 94.9327 565.057 107.621L470.828 419.353C466.993 432.041 453.458 439.727 440.597 436.52L233.087 384.782C220.226 381.575 212.909 368.69 216.744 356.002L310.973 44.2703Z" fill="#E1D6A4"/>
<path d="M377.029 291.596C370.333 289.927 366.109 283.317 367.406 276.54L379.381 213.959L397.428 141.575C399.165 134.608 406.22 130.369 413.187 132.106L419.979 133.799C426.945 135.536 431.185 142.592 429.448 149.558L411.4 221.942L392.594 282.82C390.557 289.413 383.724 293.265 377.029 291.596ZM376.286 306.561C383.253 308.298 387.492 315.353 385.755 322.32L384.352 327.947C382.615 334.914 375.56 339.153 368.593 337.416L362.965 336.013C355.999 334.276 351.76 327.221 353.497 320.254L354.9 314.627C356.637 307.66 363.692 303.421 370.659 305.158L376.286 306.561Z" fill="#CA2E33"/>
<path d="M236.219 514.684L260.958 545.622C265.703 551.555 272.887 555.009 280.484 555.009H450.918C464.725 555.009 475.918 566.202 475.918 580.009V782.297C475.918 796.104 464.725 807.297 450.918 807.297H100.918C87.1109 807.297 75.918 796.104 75.918 782.297V530.297C75.918 516.49 87.1109 505.297 100.918 505.297H216.694C224.291 505.297 231.475 508.751 236.219 514.684Z" fill="#AC1015"/>
<rect width="258.296" height="375.607" rx="24" transform="matrix(0.906308 -0.422618 0.494534 0.869158 17.918 276.457)" fill="#F5EAB8"/>
<path d="M395.418 246.297L418.701 143.464C419.096 141.717 420.837 140.624 422.582 141.027C424.393 141.445 425.479 143.3 424.959 145.084L395.418 246.297Z" fill="#B61A1F"/>
<path d="M393.418 177.297L379.028 277.78C378.757 279.675 376.927 280.934 375.06 280.51C373.317 280.114 372.213 278.393 372.58 276.643L393.418 177.297Z" fill="#DE4247"/>
<path d="M160.418 526.797L163.918 533.297L173.918 557.797L253.418 579.297L270.418 571.797C263.085 563.797 246.718 545.797 239.918 537.797C233.118 529.797 223.418 527.13 219.418 526.797H160.418Z" fill="#E1D6A4"/>
<path d="M236.178 541.767L260.999 569.93C265.745 575.315 272.577 578.4 279.755 578.4H475.918V782.297C475.918 796.104 464.725 807.297 450.918 807.297H100.918C87.1109 807.297 75.918 796.104 75.918 782.297V533.297H217.423C224.601 533.297 231.432 536.382 236.178 541.767Z" fill="#CA2E33"/>
<path d="M87.918 672.375L87.9331 672.959C90.294 756.915 171.511 787.219 211.918 791.875C188.418 792.208 136.418 792.675 116.418 791.875C96.418 791.075 90.7513 776.208 90.418 768.875L87.9331 672.959C87.9276 672.764 87.9226 672.57 87.918 672.375Z" fill="#DE4247"/>
<path d="M249.707 448.065C243.924 450.761 236.929 449.468 233.997 443.801C233.638 443.107 233.286 442.39 232.941 441.649C229.729 434.762 227.755 428.4 227.02 422.564C226.285 416.727 226.123 411.176 226.536 405.908C226.863 400.459 227.59 395.155 228.715 389.996C229.756 384.656 230.398 379.17 230.641 373.54C230.884 367.91 230.512 361.905 229.523 355.525C228.449 348.964 226.053 341.695 222.334 333.72C219.122 326.832 215.523 322.662 211.536 321.211C207.646 319.495 203.345 319.735 198.632 321.933C193.919 324.13 190.879 327.313 189.513 331.481C188.243 335.383 189.214 340.778 192.426 347.666L195.469 354.192C199.11 362 195.732 371.282 187.923 374.923C180.115 378.564 170.833 375.186 167.192 367.377L165.037 362.755C157.852 347.348 155.983 333.876 159.43 322.338C162.974 310.534 172.087 301.209 186.769 294.363C201.451 287.517 214.362 286.572 225.5 291.529C236.735 296.22 245.945 306.27 253.13 321.677C257.018 330.015 259.493 337.688 260.554 344.696C261.712 351.438 262.072 357.89 261.635 364.052C261.38 370.13 260.683 375.971 259.546 381.577C258.324 387.002 257.283 392.342 256.424 397.598C255.746 402.769 255.557 408.043 255.858 413.42C256.339 418.712 257.933 424.258 260.637 430.058C263.181 435.515 261.443 442.592 255.987 445.137L249.707 448.065ZM259.287 459.817C267.246 456.106 276.706 459.549 280.417 467.508C284.128 475.466 280.685 484.927 272.727 488.638C264.768 492.349 255.308 488.906 251.597 480.947C247.886 472.988 251.329 463.528 259.287 459.817Z" fill="#AB8636"/>
<path d="M250.918 331.297C247.718 307.91 230.583 296.555 222.416 293.801C217.918 292.284 208.917 294.437 212.918 296.979C239.92 308.418 233.417 316.044 250.918 331.297Z" fill="#977222"/>
<path d="M238.946 384.348C225.872 402.53 230.245 421.535 234.065 428.764C236.169 432.746 243.769 437.145 242.676 432.782C231.569 407.274 241.025 406.274 238.946 384.348Z" fill="#BF9A4A"/>
<mask id="mask0_567_25776" style="mask-type:luminance" maskUnits="userSpaceOnUse" x="61" y="263" width="52" height="49">
<path d="M97.1637 297.189L94.2665 281.129L111.24 273.215L112.319 279.199L100.113 284.89L102.467 285.114L104.064 293.971L97.1637 297.189ZM65.7037 311.859L61.0188 285.884L109.456 263.297L110.535 269.281L91.0757 278.355L89.1256 274.173L89.9693 278.866L93.5771 298.861L86.677 302.079L83.0752 282.086L77.3559 284.753L79.7095 284.977L83.0964 303.753L76.1923 306.973L72.5845 286.978L66.8652 289.645L69.2188 289.868L72.6057 308.645L65.7056 311.863L65.7037 311.859Z" fill="white"/>
</mask>
<g mask="url(#mask0_567_25776)">
<path d="M109.456 263.297L54.918 288.729L65.7037 311.859L120.242 286.427L109.456 263.297Z" fill="#AB8636"/>
</g>
<mask id="mask1_567_25776" style="mask-type:luminance" maskUnits="userSpaceOnUse" x="325" y="51" width="66" height="34">
<path d="M359.448 82.9327L367.551 68.7682L385.64 73.6153L382.621 78.893L369.612 75.4074L371.271 77.0917L366.801 84.9032L359.448 82.9327ZM325.918 73.9485L339.026 51.0391L390.649 64.8715L387.629 70.1492L366.89 64.5922L368.084 60.135L365.714 64.2724L355.625 81.9084L348.271 79.938L358.363 62.3074L352.267 60.6741L353.927 62.3584L344.452 78.9192L337.093 76.9476L347.182 59.3115L341.087 57.6783L342.746 59.3626L333.271 75.9233L325.917 73.9528L325.918 73.9485Z" fill="white"/>
</mask>
<g mask="url(#mask1_567_25776)">
<path d="M390.649 64.8715L332.523 49.2969L325.918 73.9485L384.043 89.5232L390.649 64.8715Z" fill="#CA2E33"/>
</g>
<path d="M143.118 638.075C143.118 636.032 144.775 634.375 146.818 634.375C148.861 634.375 150.518 636.032 150.518 638.075V722.575C150.518 724.618 148.861 726.275 146.818 726.275C144.775 726.275 143.118 724.618 143.118 722.575V638.075ZM133.806 656.783C133.996 655.105 135.536 653.899 137.203 654.162C138.686 654.396 139.751 655.718 139.617 657.213C139.011 663.953 137.613 672.249 135.746 678.598C135.273 680.208 133.543 681.043 131.955 680.504C130.299 679.943 129.446 678.116 129.962 676.446C131.729 670.723 133.077 663.204 133.806 656.783ZM152.085 655.604C151.363 654.061 152.042 652.211 153.61 651.543C155.027 650.94 156.672 651.523 157.356 652.904C159.567 657.371 161.733 662.42 163.065 666.293C163.537 667.666 162.885 669.15 161.591 669.808C159.827 670.705 157.665 669.711 157.045 667.832C155.819 664.115 153.967 659.626 152.085 655.604ZM164.418 653.925C164.418 651.964 166.007 650.375 167.968 650.375H196.918C206.307 650.375 213.918 657.986 213.918 667.375V680.675C213.918 682.718 212.261 684.375 210.218 684.375C208.175 684.375 206.518 682.718 206.518 680.675V670.925C206.518 663.497 200.496 657.475 193.068 657.475H167.968C166.007 657.475 164.418 655.886 164.418 653.925ZM159.118 683.975C159.118 681.987 160.73 680.375 162.718 680.375H218.918C220.906 680.375 222.518 681.987 222.518 683.975C222.518 685.963 220.906 687.575 218.918 687.575H162.718C160.73 687.575 159.118 685.963 159.118 683.975ZM189.562 682.535C191.334 682.164 193.081 683.242 193.627 684.969C198.058 698.968 206.29 711.002 218.21 717.423C220.49 718.652 221.147 722.08 219.639 724.185C218.621 725.607 216.796 726.161 215.242 725.357C201.219 718.105 192.27 704.108 187.012 686.757C186.442 684.876 187.638 682.937 189.562 682.535ZM184.018 638.125C184.018 636.054 185.697 634.375 187.768 634.375C189.839 634.375 191.518 636.054 191.518 638.125V667.775C191.518 686.742 189.177 709.922 163.653 725.265C162.192 726.143 160.42 725.836 159.307 724.545C157.816 722.818 158.055 719.852 160.018 718.688C183.124 704.99 184.018 684.326 184.018 667.775V638.125Z" fill="white"/>
<path d="M241.568 673.875C247.45 673.875 252.218 678.643 252.218 684.525V705.625C252.218 707.641 250.584 709.275 248.568 709.275C246.552 709.275 244.918 707.641 244.918 705.625V687.875C244.918 684.009 241.784 680.875 237.918 680.875H234.418C232.485 680.875 230.918 679.308 230.918 677.375C230.918 675.442 232.485 673.875 234.418 673.875H241.568ZM248.133 705.975C250.677 705.975 252.972 707.351 254.743 709.177C259.784 714.374 267.628 716.854 277.318 717.275C286.738 717.621 304.823 717.444 317.177 716.873C319.605 716.76 321.372 719.281 320.707 721.619C320.275 723.135 318.97 724.318 317.394 724.364C305.966 724.702 287.558 724.844 277.318 724.475C268.398 724.132 261.361 722.376 255.755 718.756C251.525 716.024 245.777 715.395 241.941 718.657C240.483 719.897 239.001 721.14 237.494 722.39C235.502 724.042 232.499 723.42 231.305 721.123C230.345 719.275 230.932 717.004 232.637 715.806C236.069 713.394 239.819 710.567 243.327 707.707C244.687 706.6 246.38 705.975 248.133 705.975ZM235.757 644.083C233.932 642.679 233.809 639.909 235.592 638.451C236.741 637.51 238.368 637.407 239.592 638.249C244.443 641.588 249.498 645.911 252.924 649.76C254.234 651.231 253.945 653.449 252.43 654.707C250.713 656.133 248.121 655.766 246.649 654.089C243.779 650.821 239.767 647.169 235.757 644.083ZM275.368 665.675C271.861 665.675 269.018 668.518 269.018 672.025C269.018 675.532 271.861 678.375 275.368 678.375H302.368C305.875 678.375 308.718 675.532 308.718 672.025C308.718 668.518 305.875 665.675 302.368 665.675H275.368ZM262.018 672.025C262.018 665.149 267.592 659.575 274.468 659.575H303.568C310.444 659.575 316.018 665.149 316.018 672.025C316.018 678.901 310.444 684.475 303.568 684.475H274.468C267.592 684.475 262.018 678.901 262.018 672.025ZM257.918 648.125C257.918 646.33 259.373 644.875 261.168 644.875H317.268C319.063 644.875 320.518 646.33 320.518 648.125C320.518 649.92 319.063 651.375 317.268 651.375H261.168C259.373 651.375 257.918 649.92 257.918 648.125ZM284.818 638.175C284.818 636.187 286.43 634.575 288.418 634.575C290.406 634.575 292.018 636.187 292.018 638.175V709.875C292.018 711.863 290.406 713.475 288.418 713.475C286.43 713.475 284.818 711.863 284.818 709.875V638.175ZM280.978 684.165C281.789 682.979 283.297 682.449 284.639 682.961C286.318 683.602 287.046 685.583 286.079 687.099C280.461 695.904 271.763 704.199 263.303 709.238C261.98 710.026 260.326 709.605 259.368 708.401C258.004 706.686 258.406 703.803 260.318 702.733C268.17 698.337 276.073 691.338 280.978 684.165ZM291.583 683.087C292.875 682.502 294.393 682.934 295.256 684.059C300.548 690.96 308.821 697.862 316.783 702.236C318.757 703.321 319.136 706.188 317.703 707.925C316.643 709.209 314.851 709.651 313.434 708.779C305.212 703.716 296.306 695.44 290.408 687.258C289.37 685.817 289.965 683.82 291.583 683.087Z" fill="white"/>
<path d="M389.618 637.925C389.618 635.964 391.207 634.375 393.168 634.375C395.129 634.375 396.718 635.964 396.718 637.925V700.525C396.718 702.486 395.129 704.075 393.168 704.075C391.207 704.075 389.618 702.486 389.618 700.525V637.925ZM359.588 679.02C358.78 677.181 359.634 675.037 361.485 674.257L408.837 654.315C410.601 653.572 412.634 654.384 413.401 656.137C414.181 657.92 413.357 659.997 411.566 660.759L364.29 680.882C362.477 681.654 360.38 680.824 359.588 679.02ZM368.918 647.375C368.918 645.387 370.53 643.775 372.518 643.775C374.506 643.775 376.118 645.387 376.118 647.375V710.675C376.118 716.175 377.318 717.375 384.018 717.375C387.318 717.375 404.118 717.375 408.118 717.375C413.078 717.375 414.575 715.467 415.342 708.028C415.563 705.881 418.124 704.6 420.16 705.316C421.514 705.793 422.429 707.064 422.273 708.491C420.981 720.316 418.251 724.175 408.418 724.175C405.718 724.175 386.318 724.175 383.818 724.175C372.318 724.175 368.918 721.475 368.918 710.575V647.375ZM410.718 653.975C410.718 653.683 410.823 653.401 411.013 653.179L411.292 652.854C411.507 652.604 411.772 652.401 412.069 652.259L412.493 652.057C413.414 651.616 414.46 651.51 415.451 651.758L415.591 651.793C415.808 651.848 416.019 651.926 416.22 652.026C417.26 652.546 417.918 653.611 417.918 654.775C417.918 673.575 417.618 688.575 416.918 692.475C416.318 696.475 414.418 698.375 411.518 699.075C409.495 699.599 406.743 699.731 404.355 699.764C403.069 699.782 401.992 698.857 401.722 697.599C401.301 695.637 402.844 693.355 404.852 693.369C405.789 693.375 406.579 693.375 407.018 693.375C408.518 693.375 409.518 692.975 410.018 690.675C410.618 688.075 410.718 673.875 410.718 653.975ZM330.218 662.025C330.218 660.064 331.807 658.475 333.768 658.475H358.468C360.429 658.475 362.018 660.064 362.018 662.025C362.018 663.986 360.429 665.575 358.468 665.575H333.768C331.807 665.575 330.218 663.986 330.218 662.025ZM343.118 639.125C343.118 637.164 344.707 635.575 346.668 635.575C348.629 635.575 350.218 637.164 350.218 639.125V696.925C350.218 698.886 348.629 700.475 346.668 700.475C344.707 700.475 343.118 698.886 343.118 696.925V639.125ZM330.827 706.797C330.001 704.76 331.021 702.445 333.069 701.647C339.986 698.955 348.895 695.211 357.852 691.386C359.82 690.546 362.072 691.678 362.569 693.759C362.948 695.343 362.168 696.976 360.696 697.672C352.186 701.693 343.449 705.651 335.961 708.905C333.962 709.774 331.646 708.817 330.827 706.797Z" fill="white"/>
<path d="M226.418 204.103L183.918 226.603C227.118 226.603 268.918 251.27 284.418 263.604L257.918 210.603C251.518 197.803 234.251 200.937 226.418 204.103Z" fill="#E1D6A4"/>
<path d="M521.052 91.9218L474.521 79.7805C506.361 108.978 520.497 155.409 523.585 174.975L539.875 118.002C543.809 104.243 528.965 94.8822 521.052 91.9218Z" fill="#CDC290"/>
</svg>
