<svg width="1016" height="385" viewBox="0 0 1016 385" fill="none" xmlns="http://www.w3.org/2000/svg">
<path d="M13.8379 259.305V332.965C13.8379 335.727 16.0765 337.965 18.8379 337.965H23.094C25.8554 337.965 28.094 335.727 28.094 332.965V318.307C28.094 315.546 30.3326 313.307 33.094 313.307H980.629C983.39 313.307 985.629 311.069 985.629 308.307V259.305C985.629 256.543 983.39 254.305 980.629 254.305H18.8379C16.0765 254.305 13.8379 256.543 13.8379 259.305Z" fill="#161616"/>
<path d="M176.239 321.136C176.448 323.47 174.524 325.498 172 325.498H171.761H171.521H171.281H171.042H170.802H170.563H170.323H170.084H169.844H169.605H169.365H169.126H168.886H168.646H168.407H168.167H167.928H167.688H167.449H167.209H166.969H166.73H166.49H166.251H166.011H165.772H165.532H165.292H165.053H164.813H164.574H164.334H164.095H163.855H163.615H163.376H163.136H162.897H162.657H162.417H162.178H161.938H161.699H161.459H161.219H160.98H160.74H160.501H160.261H160.021H159.782H159.542H159.302H159.063H158.823H158.584H158.344H158.104H157.865H157.625H157.385H157.146H156.906H156.667H156.427H156.187H155.948H155.708H155.468H155.229H154.989H154.749H154.51H154.27H154.03H153.791H153.551H153.311H153.072H152.832H152.592H152.353H152.113H151.873H151.634H151.394H151.154H150.914H150.675H150.435H150.195H149.956H149.716H149.476H149.237H148.997H148.757H148.517H148.278H148.038H147.798H147.559H147.319H147.079H146.839H146.6H146.36H146.12H145.88H145.641H145.401H145.161H144.922H144.682H144.442H144.202H143.963H143.723H143.483H143.243H143.003H142.764H142.524H142.284H142.044H141.805H141.565H141.325H141.085H140.845H140.606H140.366H140.126H139.886H139.647H139.407H139.167H138.927H138.687H138.448H138.208H137.968H137.728H137.488H137.248H137.009H136.769H136.529H136.289H136.049H135.809H135.57H135.33H135.09H134.85H134.61H134.37H134.13H133.891H133.651H133.411H133.171H132.931H132.691H132.451H132.212H131.972H131.732H131.492H131.252H131.012H130.772H130.532H130.292H130.053H129.813H129.573H129.333H129.093H128.853H128.613H128.373H128.133H127.893H127.653H127.413H127.173H126.934H126.694H126.454H126.214H125.974H125.734H125.494H125.254H125.014H124.774H124.534H124.294H124.054H123.814H123.574H123.334H123.094H122.854H122.614H122.374H122.134H121.894H121.654H121.414H121.174H120.934H120.694H120.454H120.214H119.974H119.734H119.494H119.254H119.014H118.774H118.534H118.294H118.054H117.814H117.574H117.334H117.093H116.853H116.613H116.373H116.133H115.893H115.653H115.413H115.173H114.933H114.693H114.453H114.213H113.972H113.732H113.492H113.252H113.012H112.772H112.532H112.292H112.051H111.811H111.571H111.331H111.091H110.851H110.611H110.37H110.13H109.89H109.65H109.41H109.17H108.929H108.689H108.449H108.209H107.969H107.729H107.488H107.248H107.008H106.768H106.528H106.287H106.047H105.807H105.567H105.326H105.086H104.846H104.606H104.365H104.125H103.885H103.645H103.404H103.164H102.924H102.684H102.443H102.203H101.963H101.723H101.482H101.242H101.002H100.761H100.521H100.281H100.041H99.8002H99.5599H99.3196H99.0793H98.839H98.5986H98.3583H98.118H97.8776H97.6373H97.3969H97.1566H96.9162H96.6759H96.4355H96.1951H95.9548H95.7144H95.474H95.2336H94.9933H94.7529H94.5125H94.2721H94.0317H93.7913H93.5509H93.3105H93.07H92.8296H92.5892H92.3488H92.1083H91.8679H91.6275H91.387H91.1466H90.9061H90.6657H90.4252H90.1847H89.9443H89.7038H89.4633H89.2228H88.9824H88.7419H88.5014H88.2609H88.0204H87.7799H87.5394H87.2989H87.0583H86.8178H86.5773H86.3368H86.0962H85.8557H85.6152H85.3746H85.1341H84.8935H84.653H84.4124H84.1718H83.9313H83.6907H83.4501H83.2095H82.9689H82.7283H82.4877H82.2471H82.0065H81.7659H81.5253H81.2847H81.0441H80.8035H80.5628H80.3222H80.0816H79.8409H79.6003H79.3596H79.1189H78.8783H78.6376H78.397H78.1563H77.9156H77.6749H77.4342H77.1935H76.9529H76.7122H76.4714H76.2307H75.99H75.7493H75.5086H75.2679H75.0271H74.7864H74.5457H74.3049H74.0642H73.8234H73.5826H73.3419H73.1011H72.8603H72.6196H72.3788H72.138H71.8972H71.6564H71.4156H71.1748H70.934H70.6932H70.4524H70.2116H69.9707H69.7299H69.4891H69.2482H69.0074H68.7665H68.5257H68.2848H68.0439H67.8031H67.5622H67.3213H67.0804H66.8396H66.5987H66.3578H66.1169H65.876H65.635H65.3941H65.1532H64.9123H64.6713H64.4304H64.1895H63.9485H63.7076H63.4666H63.2257H62.9847H62.7437H62.5028H62.2618H62.0208H61.7798H61.5388H61.2978H61.0568H60.8158H60.5748H60.3338H60.0927H59.8517H59.6107H59.3696H59.1286H58.8875H58.6465H58.4054H58.1644H57.9233H57.6822H57.4412H57.2001H56.959H56.7179H56.4768H56.2357H55.9946H55.7535H55.5123H55.2712H55.0301H54.789H54.5478H54.3067H54.0655H53.8244H53.5832H53.342H53.1009H52.8597H52.6185H52.3773H52.1361H51.895H51.6537H51.4125H51.1713H50.9301H50.6889H50.4477H50.2064H49.9652H49.724H49.4827H49.2414H49.0002C46.4763 325.498 44.5521 323.47 44.7607 321.136C47.7466 287.717 76.0311 261.498 110.5 261.498C144.969 261.498 173.253 287.717 176.239 321.136Z" fill="#6D6D6D" stroke="#6D6D6D" stroke-width="3"/>
<path d="M321.241 321.134C321.448 323.47 319.523 325.498 317 325.498H316.762H316.525H316.287H316.05H315.812H315.574H315.337H315.099H314.862H314.624H314.386H314.149H313.911H313.674H313.436H313.198H312.961H312.723H312.486H312.248H312.01H311.773H311.535H311.298H311.06H310.822H310.585H310.347H310.109H309.872H309.634H309.396H309.159H308.921H308.684H308.446H308.208H307.971H307.733H307.495H307.258H307.02H306.782H306.545H306.307H306.069H305.832H305.594H305.356H305.119H304.881H304.643H304.406H304.168H303.93H303.693H303.455H303.217H302.98H302.742H302.504H302.267H302.029H301.791H301.553H301.316H301.078H300.84H300.603H300.365H300.127H299.89H299.652H299.414H299.176H298.939H298.701H298.463H298.225H297.988H297.75H297.512H297.275H297.037H296.799H296.561H296.324H296.086H295.848H295.61H295.373H295.135H294.897H294.659H294.422H294.184H293.946H293.708H293.471H293.233H292.995H292.757H292.519H292.282H292.044H291.806H291.568H291.331H291.093H290.855H290.617H290.379H290.142H289.904H289.666H289.428H289.19H288.953H288.715H288.477H288.239H288.001H287.764H287.526H287.288H287.05H286.812H286.574H286.337H286.099H285.861H285.623H285.385H285.147H284.91H284.672H284.434H284.196H283.958H283.72H283.482H283.244H283.007H282.769H282.531H282.293H282.055H281.817H281.579H281.341H281.104H280.866H280.628H280.39H280.152H279.914H279.676H279.438H279.2H278.962H278.725H278.487H278.249H278.011H277.773H277.535H277.297H277.059H276.821H276.583H276.345H276.107H275.869H275.631H275.393H275.156H274.918H274.68H274.442H274.204H273.966H273.728H273.49H273.252H273.014H272.776H272.538H272.3H272.062H271.824H271.586H271.348H271.11H270.872H270.634H270.396H270.158H269.92H269.682H269.444H269.206H268.968H268.73H268.492H268.254H268.016H267.778H267.539H267.301H267.063H266.825H266.587H266.349H266.111H265.873H265.635H265.397H265.159H264.921H264.683H264.445H264.207H263.968H263.73H263.492H263.254H263.016H262.778H262.54H262.302H262.064H261.825H261.587H261.349H261.111H260.873H260.635H260.397H260.159H259.92H259.682H259.444H259.206H258.968H258.73H258.491H258.253H258.015H257.777H257.539H257.301H257.062H256.824H256.586H256.348H256.11H255.871H255.633H255.395H255.157H254.919H254.68H254.442H254.204H253.966H253.727H253.489H253.251H253.013H252.775H252.536H252.298H252.06H251.821H251.583H251.345H251.107H250.868H250.63H250.392H250.154H249.915H249.677H249.439H249.2H248.962H248.724H248.485H248.247H248.009H247.771H247.532H247.294H247.056H246.817H246.579H246.341H246.102H245.864H245.626H245.387H245.149H244.91H244.672H244.434H244.195H243.957H243.719H243.48H243.242H243.003H242.765H242.527H242.288H242.05H241.811H241.573H241.335H241.096H240.858H240.619H240.381H240.142H239.904H239.665H239.427H239.189H238.95H238.712H238.473H238.235H237.996H237.758H237.519H237.281H237.042H236.804H236.565H236.327H236.088H235.85H235.611H235.373H235.134H234.896H234.657H234.419H234.18H233.942H233.703H233.465H233.226H232.987H232.749H232.51H232.272H232.033H231.795H231.556H231.317H231.079H230.84H230.602H230.363H230.124H229.886H229.647H229.409H229.17H228.931H228.693H228.454H228.215H227.977H227.738H227.499H227.261H227.022H226.783H226.545H226.306H226.067H225.829H225.59H225.351H225.113H224.874H224.635H224.397H224.158H223.919H223.68H223.442H223.203H222.964H222.726H222.487H222.248H222.009H221.771H221.532H221.293H221.054H220.815H220.577H220.338H220.099H219.86H219.622H219.383H219.144H218.905H218.666H218.427H218.189H217.95H217.711H217.472H217.233H216.994H216.756H216.517H216.278H216.039H215.8H215.561H215.322H215.084H214.845H214.606H214.367H214.128H213.889H213.65H213.411H213.172H212.933H212.694H212.456H212.217H211.978H211.739H211.5H211.261H211.022H210.783H210.544H210.305H210.066H209.827H209.588H209.349H209.11H208.871H208.632H208.393H208.154H207.915H207.676H207.437H207.198H206.959H206.72H206.481H206.242H206.003H205.763H205.524H205.285H205.046H204.807H204.568H204.329H204.09H203.851H203.612H203.373H203.133H202.894H202.655H202.416H202.177H201.938H201.699H201.459H201.22H200.981H200.742H200.503H200.264H200.024H199.785H199.546H199.307H199.068H198.828H198.589H198.35H198.111H197.871H197.632H197.393H197.154H196.914H196.675H196.436H196.197H195.957H195.718H195.479H195.239H195C192.477 325.498 190.552 323.47 190.759 321.135C193.723 287.708 221.802 261.498 256 261.498C290.198 261.498 318.277 287.708 321.241 321.134Z" fill="#6D6D6D" stroke="#6D6D6D" stroke-width="3"/>
<path d="M2 279.998H17C18.1046 279.998 19 280.893 19 281.998V310.998C19 312.103 18.1046 312.998 17 312.998H2C0.895431 312.998 0 312.103 0 310.998V281.998C0 280.893 0.895431 279.998 2 279.998Z" fill="#CA2E33"/>
<path d="M5 285.998H14C15.1046 285.998 16 286.893 16 287.998V305.998C16 307.103 15.1046 307.998 14 307.998H5C3.89543 307.998 3 307.103 3 305.998V287.998C3 286.893 3.89543 285.998 5 285.998Z" fill="#E84C51"/>
<circle cx="110.731" cy="327.313" r="55.186" fill="#131313" stroke="#131313" stroke-width="3"/>
<circle cx="110.731" cy="327.313" r="39.2431" fill="#C9C9C9" stroke="#C9C9C9" stroke-width="3"/>
<circle cx="110.73" cy="327.314" r="26.843" fill="#131313" stroke="#131313" stroke-width="3"/>
<circle cx="110.732" cy="327.314" r="16.2144" fill="#EBEBEB" stroke="white" stroke-width="3"/>
<circle cx="256.11" cy="327.313" r="55.1859" fill="#131313" stroke="#131313" stroke-width="3"/>
<circle cx="256.108" cy="327.313" r="39.243" fill="#C9C9C9" stroke="#C9C9C9" stroke-width="3"/>
<circle cx="256.109" cy="327.314" r="26.8429" fill="#131313" stroke="#131313" stroke-width="3"/>
<circle cx="256.111" cy="327.312" r="16.2143" fill="#EBEBEB" stroke="white" stroke-width="3"/>
<rect x="360" y="280.998" width="204.286" height="52.5837" rx="5" fill="#6D6D6D"/>
<rect x="360" y="296.264" width="204.286" height="18.6587" fill="#AB8636"/>
<path d="M362.621 298.082V297.961C362.621 297.961 362.616 298.003 362.621 298.082V309.776C362.621 314.124 374.899 313.129 402.271 313.129H525C525 313.129 438.372 312.746 402.271 309.776C364.483 306.667 362.686 299.129 362.621 298.082Z" fill="#8D6818"/>
<path d="M561.664 313.105L561.664 313.227C561.664 313.227 561.669 313.185 561.664 313.105L561.664 301.411C561.664 297.064 549.386 298.058 522.014 298.058L399.285 298.058C399.285 298.058 485.914 298.441 522.014 301.411C559.802 304.52 561.599 312.058 561.664 313.105Z" fill="#8D6818"/>
<path d="M483.551 282.68V331.078" stroke="#272727" stroke-width="6" stroke-linecap="square" stroke-linejoin="round"/>
<path d="M479 282.68V331.078" stroke="#454545" stroke-width="6" stroke-linecap="square" stroke-linejoin="round"/>
<path d="M524.551 282.68V331.078" stroke="#272727" stroke-width="6" stroke-linecap="square" stroke-linejoin="round"/>
<path d="M520 282.68V331.078" stroke="#454545" stroke-width="6" stroke-linecap="square" stroke-linejoin="round"/>
<path d="M923.241 321.134C923.448 323.47 921.523 325.498 919 325.498H918.762H918.525H918.287H918.05H917.812H917.574H917.337H917.099H916.862H916.624H916.386H916.149H915.911H915.674H915.436H915.198H914.961H914.723H914.486H914.248H914.01H913.773H913.535H913.298H913.06H912.822H912.585H912.347H912.109H911.872H911.634H911.396H911.159H910.921H910.684H910.446H910.208H909.971H909.733H909.495H909.258H909.02H908.782H908.545H908.307H908.069H907.832H907.594H907.356H907.119H906.881H906.643H906.406H906.168H905.93H905.693H905.455H905.217H904.98H904.742H904.504H904.267H904.029H903.791H903.553H903.316H903.078H902.84H902.603H902.365H902.127H901.89H901.652H901.414H901.176H900.939H900.701H900.463H900.225H899.988H899.75H899.512H899.275H899.037H898.799H898.561H898.324H898.086H897.848H897.61H897.373H897.135H896.897H896.659H896.422H896.184H895.946H895.708H895.471H895.233H894.995H894.757H894.519H894.282H894.044H893.806H893.568H893.331H893.093H892.855H892.617H892.379H892.142H891.904H891.666H891.428H891.19H890.953H890.715H890.477H890.239H890.001H889.764H889.526H889.288H889.05H888.812H888.574H888.337H888.099H887.861H887.623H887.385H887.147H886.91H886.672H886.434H886.196H885.958H885.72H885.482H885.244H885.007H884.769H884.531H884.293H884.055H883.817H883.579H883.341H883.104H882.866H882.628H882.39H882.152H881.914H881.676H881.438H881.2H880.962H880.725H880.487H880.249H880.011H879.773H879.535H879.297H879.059H878.821H878.583H878.345H878.107H877.869H877.631H877.393H877.156H876.918H876.68H876.442H876.204H875.966H875.728H875.49H875.252H875.014H874.776H874.538H874.3H874.062H873.824H873.586H873.348H873.11H872.872H872.634H872.396H872.158H871.92H871.682H871.444H871.206H870.968H870.73H870.492H870.254H870.016H869.778H869.539H869.301H869.063H868.825H868.587H868.349H868.111H867.873H867.635H867.397H867.159H866.921H866.683H866.445H866.207H865.968H865.73H865.492H865.254H865.016H864.778H864.54H864.302H864.064H863.825H863.587H863.349H863.111H862.873H862.635H862.397H862.159H861.92H861.682H861.444H861.206H860.968H860.73H860.491H860.253H860.015H859.777H859.539H859.301H859.062H858.824H858.586H858.348H858.11H857.871H857.633H857.395H857.157H856.919H856.68H856.442H856.204H855.966H855.727H855.489H855.251H855.013H854.775H854.536H854.298H854.06H853.821H853.583H853.345H853.107H852.868H852.63H852.392H852.154H851.915H851.677H851.439H851.2H850.962H850.724H850.485H850.247H850.009H849.771H849.532H849.294H849.056H848.817H848.579H848.341H848.102H847.864H847.626H847.387H847.149H846.91H846.672H846.434H846.195H845.957H845.719H845.48H845.242H845.003H844.765H844.527H844.288H844.05H843.811H843.573H843.335H843.096H842.858H842.619H842.381H842.142H841.904H841.665H841.427H841.189H840.95H840.712H840.473H840.235H839.996H839.758H839.519H839.281H839.042H838.804H838.565H838.327H838.088H837.85H837.611H837.373H837.134H836.896H836.657H836.419H836.18H835.942H835.703H835.465H835.226H834.987H834.749H834.51H834.272H834.033H833.795H833.556H833.317H833.079H832.84H832.602H832.363H832.124H831.886H831.647H831.409H831.17H830.931H830.693H830.454H830.215H829.977H829.738H829.499H829.261H829.022H828.783H828.545H828.306H828.067H827.829H827.59H827.351H827.113H826.874H826.635H826.397H826.158H825.919H825.68H825.442H825.203H824.964H824.726H824.487H824.248H824.009H823.771H823.532H823.293H823.054H822.815H822.577H822.338H822.099H821.86H821.622H821.383H821.144H820.905H820.666H820.427H820.189H819.95H819.711H819.472H819.233H818.994H818.756H818.517H818.278H818.039H817.8H817.561H817.322H817.084H816.845H816.606H816.367H816.128H815.889H815.65H815.411H815.172H814.933H814.694H814.456H814.217H813.978H813.739H813.5H813.261H813.022H812.783H812.544H812.305H812.066H811.827H811.588H811.349H811.11H810.871H810.632H810.393H810.154H809.915H809.676H809.437H809.198H808.959H808.72H808.481H808.242H808.003H807.763H807.524H807.285H807.046H806.807H806.568H806.329H806.09H805.851H805.612H805.373H805.133H804.894H804.655H804.416H804.177H803.938H803.699H803.459H803.22H802.981H802.742H802.503H802.264H802.024H801.785H801.546H801.307H801.068H800.828H800.589H800.35H800.111H799.871H799.632H799.393H799.154H798.914H798.675H798.436H798.197H797.957H797.718H797.479H797.239H797C794.477 325.498 792.552 323.47 792.759 321.135C795.723 287.708 823.802 261.498 858 261.498C892.198 261.498 920.277 287.708 923.241 321.134Z" fill="#6D6D6D" stroke="#6D6D6D" stroke-width="3"/>
<path d="M732.239 321.136C732.448 323.47 730.524 325.498 728 325.498H727.761H727.521H727.281H727.042H726.802H726.563H726.323H726.084H725.844H725.605H725.365H725.126H724.886H724.646H724.407H724.167H723.928H723.688H723.449H723.209H722.969H722.73H722.49H722.251H722.011H721.772H721.532H721.292H721.053H720.813H720.574H720.334H720.095H719.855H719.615H719.376H719.136H718.897H718.657H718.417H718.178H717.938H717.699H717.459H717.219H716.98H716.74H716.501H716.261H716.021H715.782H715.542H715.302H715.063H714.823H714.584H714.344H714.104H713.865H713.625H713.385H713.146H712.906H712.667H712.427H712.187H711.948H711.708H711.468H711.229H710.989H710.749H710.51H710.27H710.03H709.791H709.551H709.311H709.072H708.832H708.592H708.353H708.113H707.873H707.634H707.394H707.154H706.914H706.675H706.435H706.195H705.956H705.716H705.476H705.237H704.997H704.757H704.517H704.278H704.038H703.798H703.559H703.319H703.079H702.839H702.6H702.36H702.12H701.88H701.641H701.401H701.161H700.922H700.682H700.442H700.202H699.963H699.723H699.483H699.243H699.003H698.764H698.524H698.284H698.044H697.805H697.565H697.325H697.085H696.845H696.606H696.366H696.126H695.886H695.647H695.407H695.167H694.927H694.687H694.448H694.208H693.968H693.728H693.488H693.248H693.009H692.769H692.529H692.289H692.049H691.809H691.57H691.33H691.09H690.85H690.61H690.37H690.13H689.891H689.651H689.411H689.171H688.931H688.691H688.451H688.212H687.972H687.732H687.492H687.252H687.012H686.772H686.532H686.292H686.053H685.813H685.573H685.333H685.093H684.853H684.613H684.373H684.133H683.893H683.653H683.413H683.173H682.934H682.694H682.454H682.214H681.974H681.734H681.494H681.254H681.014H680.774H680.534H680.294H680.054H679.814H679.574H679.334H679.094H678.854H678.614H678.374H678.134H677.894H677.654H677.414H677.174H676.934H676.694H676.454H676.214H675.974H675.734H675.494H675.254H675.014H674.774H674.534H674.294H674.054H673.814H673.574H673.334H673.093H672.853H672.613H672.373H672.133H671.893H671.653H671.413H671.173H670.933H670.693H670.453H670.213H669.972H669.732H669.492H669.252H669.012H668.772H668.532H668.292H668.051H667.811H667.571H667.331H667.091H666.851H666.611H666.37H666.13H665.89H665.65H665.41H665.17H664.929H664.689H664.449H664.209H663.969H663.729H663.488H663.248H663.008H662.768H662.528H662.287H662.047H661.807H661.567H661.326H661.086H660.846H660.606H660.365H660.125H659.885H659.645H659.404H659.164H658.924H658.684H658.443H658.203H657.963H657.723H657.482H657.242H657.002H656.761H656.521H656.281H656.041H655.8H655.56H655.32H655.079H654.839H654.599H654.358H654.118H653.878H653.637H653.397H653.157H652.916H652.676H652.436H652.195H651.955H651.714H651.474H651.234H650.993H650.753H650.512H650.272H650.032H649.791H649.551H649.31H649.07H648.83H648.589H648.349H648.108H647.868H647.627H647.387H647.147H646.906H646.666H646.425H646.185H645.944H645.704H645.463H645.223H644.982H644.742H644.501H644.261H644.02H643.78H643.539H643.299H643.058H642.818H642.577H642.337H642.096H641.856H641.615H641.375H641.134H640.894H640.653H640.412H640.172H639.931H639.691H639.45H639.21H638.969H638.728H638.488H638.247H638.007H637.766H637.525H637.285H637.044H636.803H636.563H636.322H636.082H635.841H635.6H635.36H635.119H634.878H634.638H634.397H634.156H633.916H633.675H633.434H633.194H632.953H632.712H632.471H632.231H631.99H631.749H631.509H631.268H631.027H630.786H630.546H630.305H630.064H629.823H629.583H629.342H629.101H628.86H628.62H628.379H628.138H627.897H627.656H627.416H627.175H626.934H626.693H626.452H626.212H625.971H625.73H625.489H625.248H625.007H624.767H624.526H624.285H624.044H623.803H623.562H623.321H623.08H622.84H622.599H622.358H622.117H621.876H621.635H621.394H621.153H620.912H620.671H620.43H620.189H619.949H619.708H619.467H619.226H618.985H618.744H618.503H618.262H618.021H617.78H617.539H617.298H617.057H616.816H616.575H616.334H616.093H615.852H615.611H615.37H615.129H614.888H614.646H614.405H614.164H613.923H613.682H613.441H613.2H612.959H612.718H612.477H612.236H611.995H611.753H611.512H611.271H611.03H610.789H610.548H610.307H610.066H609.824H609.583H609.342H609.101H608.86H608.619H608.377H608.136H607.895H607.654H607.413H607.171H606.93H606.689H606.448H606.206H605.965H605.724H605.483H605.241H605C602.476 325.498 600.552 323.47 600.761 321.136C603.747 287.717 632.031 261.498 666.5 261.498C700.969 261.498 729.253 287.717 732.239 321.136Z" fill="#6D6D6D" stroke="#6D6D6D" stroke-width="3"/>
<circle cx="858.102" cy="327.313" r="55.186" fill="#131313" stroke="#131313" stroke-width="3"/>
<circle cx="858.102" cy="327.313" r="39.2431" fill="#C9C9C9" stroke="#C9C9C9" stroke-width="3"/>
<circle cx="858.103" cy="327.314" r="26.843" fill="#131313" stroke="#131313" stroke-width="3"/>
<circle cx="858.101" cy="327.312" r="16.2144" fill="#EBEBEB" stroke="white" stroke-width="3"/>
<circle cx="666.73" cy="327.442" r="55.294" fill="#131313" stroke="#131313" stroke-width="3"/>
<circle cx="666.729" cy="327.442" r="39.3207" fill="#C9C9C9" stroke="#C9C9C9" stroke-width="3"/>
<circle cx="666.727" cy="327.442" r="26.897" fill="#131313" stroke="#131313" stroke-width="3"/>
<circle cx="666.731" cy="327.441" r="16.2481" fill="#EBEBEB" stroke="white" stroke-width="3"/>
<path d="M761 259.711C714 258.347 720.501 238.999 754.999 241.562H786.152H889.126L946.009 277.022L947.467 357.999C938.133 358.222 934.049 353.251 934.049 348.225C934.049 329.238 929.09 259.711 861.121 259.711C832.048 259.804 768.702 259.934 761 259.711Z" fill="#161616"/>
<path d="M1014.11 198.386C1014.13 220.819 1015.5 272.518 1015.5 300.998C1008.02 300.998 985.26 300.929 979.502 300.998C975.846 301.042 965.107 301.015 950.072 301.003C943.411 300.997 937.559 296.802 934.538 290.865C922.037 266.3 903.082 254.882 895.401 253.354C883.427 250.971 868.765 250.453 862.779 250.453H769.282C760.998 250.453 754.286 243.751 754.286 235.467C754.284 178.324 754.286 36.9388 754.287 32.3186C754.287 28.0632 758.354 22.998 762.631 22.998C808.529 26.0429 948.099 12.6129 971.55 68.3053C994.87 123.689 1007.02 165.83 1014 197.331C1014.07 197.684 1014.11 198.024 1014.11 198.386Z" fill="#CA2E33"/>
<path d="M925.84 179.489L835 151.998C905 173.598 934.452 219.832 935.785 239.498V192.889C935.785 186.719 931.746 181.276 925.84 179.489Z" fill="#D4383D"/>
<path d="M820.03 131.701C819.714 118.838 819.408 106.931 819.153 97.2503C819.119 95.9712 817.795 96.1586 817.796 97.4382C817.809 110.896 818.59 122.174 820.03 131.701C820.803 163.111 821.633 200.218 821.907 224.519C821.994 232.25 828.267 238.476 835.996 238.238C876.268 236.995 918.923 233.548 940.41 280.998C900.77 160.138 833.133 218.381 820.03 131.701Z" fill="#C02429"/>
<path d="M773.996 129.039C773.996 128.464 774.462 127.998 775.037 127.998C775.612 127.998 776.079 128.464 776.079 129.039V153.473C776.079 154.048 775.612 154.514 775.037 154.514C774.462 154.514 773.996 154.048 773.996 153.473V129.039ZM771.377 134.446C771.43 133.972 771.865 133.632 772.336 133.708C772.751 133.775 773.049 134.146 773.013 134.565C772.843 136.515 772.449 138.922 771.921 140.761C771.789 141.221 771.294 141.46 770.841 141.303C770.381 141.143 770.143 140.634 770.285 140.167C770.788 138.507 771.172 136.314 771.377 134.446ZM776.507 134.096C776.309 133.663 776.498 133.148 776.934 132.958C777.339 132.781 777.812 132.949 778.004 133.347C778.631 134.645 779.244 136.113 779.618 137.233C779.746 137.616 779.566 138.028 779.207 138.215C778.708 138.476 778.09 138.193 777.917 137.657C777.569 136.575 777.042 135.265 776.507 134.096ZM779.99 133.639C779.99 133.073 780.449 132.615 781.015 132.615H789.016C791.725 132.615 793.921 134.811 793.921 137.52V141.383C793.921 141.958 793.454 142.425 792.879 142.425C792.304 142.425 791.838 141.958 791.838 141.383V138.544C791.838 136.401 790.101 134.663 787.957 134.663H781.015C780.449 134.663 779.99 134.205 779.99 133.639ZM778.499 142.309C778.499 141.735 778.964 141.27 779.538 141.27H795.302C795.876 141.27 796.341 141.735 796.341 142.309C796.341 142.883 795.876 143.348 795.302 143.348H779.538C778.964 143.348 778.499 142.883 778.499 142.309ZM787.056 141.896C787.559 141.788 788.056 142.095 788.208 142.587C789.455 146.632 791.774 150.11 795.134 151.963C795.78 152.319 795.969 153.286 795.546 153.889C795.252 154.308 794.714 154.474 794.263 154.233C790.326 152.132 787.814 148.088 786.339 143.08C786.184 142.552 786.518 142.011 787.056 141.896ZM785.506 129.053C785.506 128.471 785.979 127.998 786.561 127.998C787.144 127.998 787.617 128.471 787.617 129.053V137.635C787.617 143.101 786.96 149.779 779.802 154.206C779.379 154.467 778.856 154.374 778.535 153.995C778.118 153.501 778.188 152.667 778.741 152.332C785.254 148.38 785.506 142.413 785.506 137.635V129.053Z" fill="#E1D6A4"/>
<path d="M773.56 175.75C775.215 175.75 776.557 177.092 776.557 178.747V184.937C776.557 185.504 776.097 185.964 775.53 185.964C774.963 185.964 774.503 185.504 774.503 184.937V179.739C774.503 178.651 773.621 177.769 772.533 177.769H771.573C771.015 177.769 770.563 177.317 770.563 176.76C770.563 176.202 771.015 175.75 771.573 175.75H773.56ZM775.41 185.012C776.123 185.012 776.765 185.401 777.254 185.92C778.672 187.43 780.885 188.15 783.621 188.272C786.264 188.371 791.333 188.321 794.809 188.157C795.508 188.124 796.02 188.845 795.833 189.519C795.71 189.959 795.332 190.304 794.876 190.318C791.658 190.415 786.495 190.456 783.621 190.349C781.111 190.25 779.13 189.744 777.553 188.7C776.367 187.914 774.736 187.737 773.664 188.672C773.264 189.02 772.857 189.37 772.444 189.721C771.873 190.208 770.999 190.028 770.66 189.358C770.395 188.836 770.559 188.199 771.034 187.857C772.005 187.158 773.066 186.338 774.059 185.508C774.439 185.191 774.916 185.012 775.41 185.012ZM771.908 167.141C771.398 166.739 771.363 165.961 771.86 165.544C772.193 165.265 772.67 165.234 773.024 165.485C774.393 166.453 775.816 167.704 776.776 168.815C777.135 169.23 777.054 169.847 776.636 170.203C776.147 170.62 775.396 170.514 774.977 170.026C774.166 169.082 773.036 168.029 771.908 167.141ZM783.117 173.384C782.105 173.384 781.285 174.204 781.285 175.216C781.285 176.228 782.105 177.048 783.117 177.048H790.625C791.637 177.048 792.457 176.228 792.457 175.216C792.457 174.204 791.637 173.384 790.625 173.384H783.117ZM779.315 175.216C779.315 173.232 780.923 171.624 782.907 171.624H790.919C792.903 171.624 794.512 173.232 794.512 175.216C794.512 177.2 792.903 178.808 790.919 178.808H782.907C780.923 178.808 779.315 177.2 779.315 175.216ZM778.161 168.32C778.161 167.802 778.581 167.382 779.099 167.382H794.84C795.358 167.382 795.778 167.802 795.778 168.32C795.778 168.838 795.358 169.258 794.84 169.258H779.099C778.581 169.258 778.161 168.838 778.161 168.32ZM785.731 165.424C785.731 164.864 786.185 164.411 786.744 164.411C787.304 164.411 787.758 164.864 787.758 165.424V186.162C787.758 186.722 787.304 187.176 786.744 187.176C786.185 187.176 785.731 186.722 785.731 186.162V165.424ZM784.648 178.723C784.877 178.38 785.311 178.227 785.696 178.377C786.163 178.56 786.367 179.112 786.102 179.539C784.527 182.08 782.083 184.477 779.702 185.938C779.318 186.173 778.831 186.047 778.554 185.692C778.171 185.202 778.288 184.39 778.828 184.081C781.039 182.814 783.265 180.794 784.648 178.723ZM787.62 178.415C787.99 178.243 788.429 178.368 788.674 178.695C790.165 180.687 792.495 182.678 794.736 183.938C795.293 184.251 795.404 185.058 795.002 185.555C794.696 185.932 794.168 186.064 793.758 185.804C791.444 184.337 788.941 181.947 787.288 179.587C787.003 179.18 787.169 178.624 787.62 178.415Z" fill="#E1D6A4"/>
<path d="M787.082 201.707C787.082 201.155 787.529 200.708 788.081 200.708C788.633 200.708 789.08 201.155 789.08 201.707V219.819C789.08 220.371 788.633 220.818 788.081 220.818C787.529 220.818 787.082 220.371 787.082 219.819V201.707ZM778.624 213.572C778.399 213.048 778.641 212.441 779.164 212.215L792.459 206.475C792.97 206.254 793.564 206.491 793.782 207.003C793.999 207.511 793.766 208.099 793.26 208.32L779.987 214.112C779.462 214.341 778.85 214.099 778.624 213.572ZM781.257 204.433C781.257 203.873 781.71 203.42 782.27 203.42C782.829 203.42 783.283 203.873 783.283 204.433V222.722C783.283 224.309 783.621 224.656 785.506 224.656C786.435 224.656 791.163 224.656 792.288 224.656C793.688 224.656 794.108 224.102 794.323 221.94C794.384 221.333 795.113 220.974 795.687 221.18C796.064 221.315 796.317 221.669 796.275 222.067C795.912 225.499 795.147 226.618 792.373 226.618C791.613 226.618 786.153 226.618 785.45 226.618C782.214 226.618 781.257 225.839 781.257 222.694V204.433ZM793.02 206.432C793.02 206.394 792.989 206.363 792.952 206.363C792.888 206.363 792.859 206.284 792.907 206.243L793.273 205.93C793.498 205.735 793.813 205.68 794.091 205.787L794.788 206.057C794.985 206.134 795.099 206.342 795.055 206.55C795.049 206.579 795.046 206.609 795.046 206.639C795.046 212.042 794.961 216.349 794.765 217.471C794.596 218.625 794.061 219.174 793.245 219.376C792.682 219.525 791.917 219.564 791.25 219.574C790.877 219.58 790.564 219.309 790.487 218.943C790.368 218.377 790.814 217.725 791.393 217.729C791.646 217.731 791.859 217.731 791.979 217.731C792.401 217.731 792.682 217.616 792.823 216.952C792.991 216.205 793.02 212.137 793.02 206.432ZM770.366 208.686C770.366 208.12 770.824 207.661 771.39 207.661H778.291C778.856 207.661 779.315 208.12 779.315 208.686C779.315 209.251 778.856 209.71 778.291 209.71H771.39C770.824 209.71 770.366 209.251 770.366 208.686ZM773.996 202.053C773.996 201.501 774.443 201.054 774.995 201.054C775.547 201.054 775.994 201.501 775.994 202.053V218.78C775.994 219.332 775.547 219.779 774.995 219.779C774.443 219.779 773.996 219.332 773.996 218.78V202.053ZM770.53 221.585C770.3 221.005 770.589 220.349 771.169 220.117C773.107 219.344 775.6 218.27 778.108 217.172C778.677 216.923 779.333 217.251 779.473 217.856C779.578 218.306 779.358 218.769 778.942 218.971C776.561 220.125 774.117 221.26 772.018 222.196C771.439 222.454 770.763 222.175 770.53 221.585Z" fill="#E1D6A4"/>
<path d="M1009.02 357.998H945.48C943.628 327.437 942.711 315.103 934 300.998H1014.09C1015.05 323.053 1015.05 342.714 1014.97 352.126C1014.94 355.392 1012.28 357.998 1009.02 357.998Z" fill="#161616"/>
<path d="M980.157 87.5368C922.673 79.6059 819.378 77.5645 819.378 77.5645L827.305 119.024C829.488 130.441 837.69 139.776 848.731 143.41L1013.95 197.792C1013.95 197.792 1002 143.498 980.157 87.5368Z" fill="#E1D6A4"/>
<path d="M981.5 90.9978C976 90.9978 929.285 87.998 918.285 85.998C919.785 97.998 926.785 116.498 929.787 129.998C942.693 136.155 980 140.998 996.5 134.498C996.5 134.498 993.5 123.998 981.5 90.9978Z" fill="#F5EAB8"/>
<path d="M937.285 172.497L912.286 85.9973C851.886 81.5973 850.285 138.497 903.287 160.997L937.285 172.497Z" fill="#F5EAB8"/>
<path d="M818.5 75.498L824 75.998C825.333 85.1647 828.502 111.998 830.502 120.998C832.169 128.498 838.502 135.998 846.502 139.998L1013 193.998L1014.5 199.998C963.167 182.998 857.635 149.357 845.002 144.498C832.002 139.498 827.002 128.998 825.502 121.498L818.5 75.498Z" fill="#C9A454"/>
<path d="M1003.71 93.0859L758.923 69.7269C752.015 69.0677 746.843 63.1008 747.173 56.1693L747.454 50.2712C747.916 40.5774 748.447 29.4243 748.891 20.0864C749.485 7.61388 757.336 2.26911 764.325 2.60171C793.971 4.01286 868.2 15.2853 916.8 23.6566C961.119 31.2902 975.78 44.86 1003.71 93.0859Z" fill="#B7181B"/>
<path d="M914.171 28.3288C953.732 36.2023 975.157 59.9821 980.924 70.8878C913.274 23.8487 769.526 42.8436 763.628 27.2643C759.125 15.368 766.283 6.95329 777.015 8.21069C806.25 11.6361 874.609 20.4552 914.171 28.3288Z" fill="#CF3033"/>
<rect x="832.002" y="205.998" width="33" height="12" rx="6" fill="#8F0A0A"/>
<rect x="832" y="203.998" width="33" height="9" rx="4.5" fill="#AD1414"/>
<rect x="953" y="309.998" width="50" height="14" rx="3" fill="#2A2A2A"/>
<rect x="957" y="311.998" width="42" height="10" rx="3" fill="#202020"/>
<rect x="953" y="328.998" width="50" height="21" rx="4" fill="#2A2A2A"/>
<path d="M913 81.998L940.147 171.399C941.474 175.771 942.22 180.299 942.364 184.866L946 299.998" stroke="#B7181B" stroke-width="3"/>
<path d="M916.285 85.498L912.785 84.998L938.502 170.498L942.502 171.998L916.285 85.498Z" fill="#CDC290"/>
<path d="M943.502 177.498L939.502 175.998L938.502 170.498L942.502 171.498L943.502 177.498Z" fill="#C9A454"/>
<path d="M973.495 241.635L1014.3 252.056L1015 287.998L971.846 257.504C971.315 257.129 971 256.52 971 255.871V243.573C971 242.268 972.23 241.312 973.495 241.635Z" fill="#BA1E23"/>
<path d="M984.506 248.65L1014.97 256.586L1015.5 284.498L982.833 260.951C982.311 260.575 982.002 259.971 982.002 259.329V250.586C982.002 249.277 983.239 248.32 984.506 248.65Z" fill="#E1D6A4"/>
<path d="M991.999 252.285L1012.59 257.586L1013 278.998L988.261 261.372C987.471 260.81 987.002 259.899 987.002 258.929V256.158C987.002 253.545 989.468 251.633 991.999 252.285Z" fill="#FFFFD6"/>
<path d="M997.223 256.588L1012.71 260.704L1013 275.998L998.605 265.416C996.34 263.751 995.002 261.107 995.002 258.296C995.002 257.136 996.101 256.29 997.223 256.588Z" fill="#F5EAB8"/>
<path d="M994.39 203.133L994.632 208.386C994.695 209.739 993.422 210.762 992.114 210.409L975.824 206.021C974.305 205.612 973.831 203.689 974.987 202.621L979.555 198.4C980.071 197.923 980.799 197.752 981.474 197.949L992.954 201.305C993.774 201.545 994.351 202.28 994.39 203.133Z" fill="#484848"/>
<path d="M990.611 203.736L990.659 204.766C990.721 206.115 989.454 207.137 988.148 206.791L981.802 205.109C980.272 204.703 979.797 202.764 980.967 201.697L981.934 200.816C982.448 200.348 983.167 200.18 983.835 200.372L989.166 201.906C989.99 202.144 990.572 202.88 990.611 203.736Z" fill="#2A2A2A"/>
<rect x="955.002" y="114.998" width="23.8238" height="57.6204" rx="8" fill="#484848"/>
<path d="M966.002 116.998H969.002C973.42 116.998 977.002 120.58 977.002 124.998V162.998C977.002 167.416 973.42 170.998 969.002 170.998H966.002V116.998Z" fill="#2A2A2A"/>
<rect x="974.002" y="147.998" width="17" height="13" rx="2" fill="#484848"/>
<rect x="989.002" y="148.998" width="55" height="6" transform="rotate(90 989.002 148.998)" fill="#484848"/>
<rect x="988.002" y="152.998" width="51" height="2" transform="rotate(90 988.002 152.998)" fill="#2A2A2A"/>
<path d="M1013.55 226.259C994.639 219.97 990.908 238.889 1014 245.998C1014 240.803 1014.04 236.648 1013.55 226.259Z" fill="#161616"/>
<path d="M1013.5 242.374C989 232.65 1001.5 231.15 1013.5 239.15C1013.56 240.223 1013.6 241.056 1013.64 241.692C1013.73 242.91 1013.82 245.072 1013.64 241.692C1013.57 240.889 1013.5 240.496 1013.5 242.374Z" fill="#343434"/>
<path d="M1013.5 236.374C989 226.65 1001.5 225.15 1013.5 233.15C1013.56 234.223 1013.6 235.056 1013.64 235.692C1013.73 236.91 1013.82 239.072 1013.64 235.692C1013.57 234.889 1013.5 234.496 1013.5 236.374Z" fill="#343434"/>
<path d="M813 73.998L813 249.998" stroke="#B7181B" stroke-width="3"/>
<path d="M806.353 54.7481C804.882 51.1391 807.922 47.3089 811.771 47.923L994.303 77.0459L999.849 85.9279L814.654 75.1101L806.353 54.7481Z" fill="#A40508"/>
<rect x="957" y="332.998" width="42" height="14" rx="3" fill="#202020"/>
<path d="M814.886 64.8545C814.668 64.1607 815.239 63.4734 815.961 63.5618L997.226 85.7618C1001.08 86.234 1003.83 89.738 1003.37 93.5953C1002.9 97.4657 999.385 100.224 995.515 99.7514L819.082 78.1951L814.886 64.8545Z" fill="#AB8636"/>
<rect x="19.1426" width="717.485" height="256.522" rx="10" fill="#AB8636"/>
<rect x="37.9805" y="14.4043" width="679.81" height="227.712" rx="10" fill="#F5EAB8"/>
<path d="M51.0085 197.026L51.0085 198.381C51.0085 198.381 50.994 197.912 51.0085 197.026L51.0085 66.548C51.0085 17.8221 51.0085 29.136 166.639 29.136L524.543 29.1361C524.543 29.1361 271.915 33.4073 166.639 66.548C56.4396 101.239 51.1998 185.347 51.0085 197.026Z" fill="#FFFECC"/>
<path d="M636.231 92.8858H652.252L629.812 176.451H645.126L667.566 92.8858H683.57L687.318 78.9642H639.98L636.231 92.8858ZM607.407 92.8858C612.836 92.8858 614.374 95.9461 612.518 102.916L609.936 112.521C607.849 120.322 603.694 122.834 597.982 122.834H591.987L600.033 92.8858H607.407ZM609.883 176.451C609.317 172.825 610.113 169.34 611.386 164.617L615.418 149.581C618.141 139.409 617.628 132.033 610.82 128.831C618.495 125.629 623.464 119.084 626.152 109.054L628.203 101.394C632.235 86.3584 627.407 78.9642 611.527 78.9642H588.415L562.226 176.469H577.54L588.203 136.773H593.49C600.458 136.773 602.615 140.117 600.192 149.174L596.072 164.493C593.932 172.435 594.092 173.957 594.251 176.469H609.847L609.883 176.451ZM512.164 153.048C507.973 168.65 513.791 177.565 528.84 177.565C543.888 177.565 554.481 168.65 558.672 153.048L572.288 102.35C576.479 86.7475 570.661 77.832 555.612 77.832C540.564 77.832 529.972 86.7475 525.781 102.35L512.164 153.048ZM541.36 101.377C543.234 94.4071 547.001 91.7714 551.881 91.7714C556.762 91.7714 559.114 94.4248 557.239 101.377L543.093 154.021C541.218 160.99 537.452 163.626 532.571 163.626C527.69 163.626 525.339 160.973 527.213 154.021L541.36 101.377ZM496.992 92.8858H522.191L525.94 78.9642H485.427L459.238 176.469H474.552L485.356 136.207H505.126L508.875 122.286H489.105L496.992 92.9035V92.8858ZM432.766 176.451H448.08L474.287 78.9642H458.973L432.784 176.469L432.766 176.451ZM419.291 92.8858H445.746L449.494 78.9642H407.726L381.537 176.469H423.305L427.054 162.547H400.6L408.274 133.996H429.3L433.049 120.075H412.023L419.327 92.9212L419.291 92.8858ZM353.562 78.9642H332.254L306.064 176.469H319.433L337.948 107.515L330.839 176.469H345.322L374.694 106.542L355.914 176.469H370.397L396.586 78.9642H375.277L346.241 148.183L353.562 78.9642Z" fill="#343434"/>
<mask id="mask0_567_25167" style="mask-type:luminance" maskUnits="userSpaceOnUse" x="68" y="77" width="241" height="101">
<path d="M206.967 177.848L223.572 115.846H298.302L292.113 138.949H238.373L246.507 143.654L237.347 177.848H206.967ZM68.4531 177.848L95.3142 77.5664H308.576L302.387 100.669H216.711V82.5372L211.848 100.651L191.176 177.848H160.796L181.485 100.669H156.304L164.439 105.374L145.022 177.866H114.624L135.296 100.669H110.115L118.25 105.374L98.8332 177.866H68.4531V177.848Z" fill="white"/>
</mask>
<g mask="url(#mask0_567_25167)">
<path d="M308.576 77.5664H68.4531V177.848H308.576V77.5664Z" fill="#343434"/>
</g>
<path d="M708.753 65.116V63.7617C708.753 63.7617 708.768 64.2308 708.753 65.116V195.595C708.753 244.32 708.753 233.007 593.123 233.007H235.219C235.219 233.007 487.847 228.735 593.123 195.595C703.322 160.904 708.562 76.7953 708.753 65.116Z" fill="#B9AE7C" fill-opacity="0.4"/>
</svg>
