<svg width="5760" height="643" viewBox="0 0 5760 643" fill="none" xmlns="http://www.w3.org/2000/svg">
<path d="M1462 372.024C1608.61 409.557 1668 558.323 1920 460.38V642.069H0V460.38C353.5 295.801 404.843 414.207 635 314.779C810 239.179 934.5 339.046 1068.5 383.224C1202.5 427.402 1249.19 317.543 1462 372.024Z" fill="#202020"/>
<path d="M541 454.207C337 414.657 104 672.062 0 555.059V642.069H1920V555.009C1791.5 401.497 1728.5 365.549 1614.5 365.549C1415.3 365.549 1076.5 518.805 943.5 531C781.423 545.861 727.153 490.297 541 454.207Z" fill="#525252"/>
<path d="M1678.91 5.04883L1670.54 642.332H1692.87L1678.91 5.04883Z" fill="#202020"/>
<path d="M1670.42 40.643L1648.56 147.593C1647.08 154.816 1654.44 160.653 1661.14 157.57L1678.63 149.516C1680.95 148.449 1683.61 148.416 1685.96 149.425L1699.7 155.341C1706.47 158.256 1713.68 152.244 1712.03 145.061L1688.01 40.4314C1685.84 31.001 1672.36 31.1633 1670.42 40.643Z" fill="#202020"/>
<path d="M1675.53 161.237L1644.82 178.044C1642.16 179.503 1640.41 182.21 1640.17 185.24L1638.36 208.576C1637.79 215.872 1645.7 220.76 1651.97 216.984L1675.84 202.611C1678.22 201.179 1681.13 200.925 1683.72 201.924L1710.47 212.232C1716.7 214.633 1723.28 209.655 1722.67 203.008L1720.91 183.995C1720.63 180.867 1718.73 178.115 1715.9 176.736L1683.8 161.046C1681.17 159.763 1678.09 159.834 1675.53 161.237Z" fill="#202020"/>
<path d="M1674.53 212.514L1633.99 233.681C1630.64 235.429 1628.43 238.773 1628.12 242.537L1625.7 272.146C1624.98 280.976 1634.46 286.992 1642.14 282.579L1674.89 263.77C1677.72 262.149 1681.11 261.862 1684.17 262.984L1720.57 276.365C1728.18 279.162 1736.1 273.049 1735.31 264.982L1732.99 240.979C1732.62 237.103 1730.22 233.714 1726.69 232.068L1684.27 212.295C1681.17 210.848 1677.57 210.929 1674.53 212.514Z" fill="#202020"/>
<path d="M1674 276.224L1619.93 300.277C1615.65 302.183 1612.72 306.248 1612.28 310.915L1609.22 342.87C1608.25 352.988 1618.74 360.254 1627.87 355.787L1674.35 333.044C1677.33 331.581 1680.77 331.32 1683.95 332.315L1734.95 348.288C1743.91 351.096 1752.81 343.754 1751.75 334.415L1748.88 309.144C1748.34 304.379 1745.22 300.299 1740.76 298.529L1684.08 276.019C1680.83 274.728 1677.2 274.802 1674 276.224Z" fill="#202020"/>
<path d="M1671.66 347.506L1607.2 372.432C1600.58 374.99 1595.94 381.021 1595.16 388.072L1592.56 411.726C1590.97 426.166 1605.51 436.978 1618.88 431.292L1672.08 408.665C1676.01 406.994 1680.38 406.695 1684.5 407.817L1743.47 423.869C1756.56 427.432 1769.06 416.526 1767.31 403.075L1765.09 386.151C1764.16 379.006 1759.27 373.003 1752.45 370.652L1684.71 347.268C1680.47 345.803 1675.85 345.888 1671.66 347.506Z" fill="#202020"/>
<path d="M1671.08 419.532L1591.33 449.698C1584.31 452.352 1579.37 458.71 1578.53 466.165L1574.8 499.248C1573.1 514.396 1588.29 525.808 1602.36 519.952L1671.51 491.183C1675.57 489.491 1680.08 489.189 1684.34 490.321L1760.07 510.487C1773.84 514.155 1786.92 502.644 1785.04 488.514L1781.75 463.877C1780.74 456.331 1775.54 450.011 1768.32 447.575L1684.56 419.29C1680.17 417.809 1675.41 417.895 1671.08 419.532Z" fill="#202020"/>
<path d="M763.152 136.656L760.673 342.603C760.653 344.274 762.002 345.639 763.673 345.639H764.283C765.964 345.639 767.316 344.259 767.283 342.579L763.152 136.656Z" fill="#202020"/>
<path d="M761.115 144.617L755.757 172.464C755.445 174.084 757.118 175.363 758.6 174.638L762.953 172.509C763.491 172.246 764.119 172.238 764.664 172.487L768.138 174.076C769.635 174.761 771.273 173.445 770.925 171.835L765.033 144.573C764.574 142.444 761.526 142.479 761.115 144.617Z" fill="#202020"/>
<path d="M762.164 176.882L754.798 180.85C754.2 181.172 753.806 181.775 753.752 182.453L753.304 188.12C753.176 189.736 754.923 190.825 756.317 189.999L762.232 186.494C762.756 186.184 763.392 186.129 763.961 186.344L770.541 188.84C771.925 189.364 773.379 188.257 773.241 186.783L772.808 182.161C772.742 181.462 772.316 180.849 771.683 180.545L763.979 176.84C763.402 176.563 762.727 176.578 762.164 176.882Z" fill="#202020"/>
<path d="M762.259 190.442L752.068 195.808C751.462 196.127 751.062 196.734 751.006 197.417L750.308 206.045C750.178 207.653 751.908 208.745 753.304 207.937L762.326 202.712C762.842 202.413 763.464 202.36 764.023 202.567L773.838 206.205C775.222 206.718 776.665 205.607 776.524 204.139L775.843 197.032C775.775 196.329 775.342 195.713 774.702 195.413L764.042 190.402C763.474 190.135 762.814 190.15 762.259 190.442Z" fill="#202020"/>
<path d="M762.131 207.015L749.067 212.605C748.062 213.035 747.37 213.978 747.262 215.066L746.524 222.469C746.293 224.787 748.679 226.473 750.787 225.48L762.206 220.106C762.876 219.79 763.64 219.734 764.349 219.948L776.832 223.708C778.9 224.331 780.93 222.629 780.676 220.484L779.988 214.654C779.858 213.545 779.122 212.601 778.08 212.203L764.381 206.97C763.654 206.692 762.847 206.708 762.131 207.015Z" fill="#202020"/>
<path d="M762.426 225.404L745.548 231.238C744.466 231.612 743.691 232.569 743.55 233.706L742.609 241.34C742.333 243.583 744.541 245.314 746.653 244.512L762.483 238.493C763.05 238.278 763.669 238.239 764.258 238.383L781.276 242.523C783.342 243.026 785.261 241.279 784.954 239.174L784.091 233.272C783.924 232.127 783.113 231.18 782.007 230.839L764.291 225.373C763.682 225.185 763.029 225.196 762.426 225.404Z" fill="#202020"/>
<path d="M762.536 243.949L741.892 251.055C740.809 251.428 740.032 252.385 739.892 253.523L738.611 263.866C738.333 266.108 740.538 267.84 742.651 267.041L762.593 259.49C763.158 259.276 763.774 259.238 764.361 259.38L785.661 264.541C787.727 265.042 789.644 263.294 789.335 261.19L788.134 253.004C787.966 251.858 787.154 250.912 786.047 250.572L764.394 243.918C763.787 243.731 763.137 243.742 762.536 243.949Z" fill="#202020"/>
<path d="M855.25 303.948L850.069 533.932C850.031 535.615 851.385 537 853.068 537H860.885C862.586 537 863.947 535.587 863.883 533.887L855.25 303.948Z" fill="#525252"/>
<path d="M850.59 276.84L842.436 322.644C841.852 325.924 845.298 328.438 848.243 326.882L853.892 323.896C855.027 323.296 856.382 323.278 857.534 323.847L861.711 325.912C864.687 327.383 868.057 324.797 867.406 321.542L858.45 276.757C857.584 272.423 851.365 272.488 850.59 276.84Z" fill="#525252"/>
<path d="M853.105 327.585L841.691 334.987C840.828 335.547 840.214 336.417 839.976 337.417L837.953 345.918C837.172 349.201 840.556 351.916 843.591 350.443L853.469 345.649C854.542 345.128 855.792 345.114 856.877 345.609L865.824 349.694C868.596 350.96 871.709 348.783 871.473 345.745L870.816 337.315C870.714 336.002 869.972 334.824 868.833 334.164L857.286 327.479C855.984 326.725 854.368 326.766 853.105 327.585Z" fill="#525252"/>
<path d="M851.588 349.252L837.071 358.143C835.623 359.03 834.618 360.489 834.307 362.159L832.687 370.841C831.782 375.688 836.785 379.496 841.215 377.335L852.075 372.037C853.647 371.271 855.475 371.228 857.081 371.92L867.823 376.552C871.981 378.345 876.551 375.062 876.179 370.55L875.47 361.95C875.304 359.94 874.139 358.147 872.369 357.179L857.6 349.104C855.714 348.072 853.421 348.129 851.588 349.252Z" fill="#525252"/>
<path d="M851.741 376.759L831.751 387.511C830.188 388.351 829.078 389.84 828.718 391.577L826.322 403.138C825.34 407.875 830.081 411.767 834.536 409.88L852.214 402.396C853.635 401.794 855.234 401.764 856.678 402.31L874.002 408.87C878.154 410.442 882.516 407.118 882.101 402.698L881.032 391.314C880.835 389.218 879.553 387.378 877.655 386.466L857.18 376.635C855.451 375.804 853.43 375.851 851.741 376.759Z" fill="#525252"/>
<path d="M852.042 407.501L826.108 418.661C824.102 419.524 822.724 421.408 822.508 423.581L821.045 438.359C820.585 443.001 825.366 446.369 829.583 444.374L852.194 433.671C853.54 433.034 855.075 432.92 856.5 433.352L881.234 440.844C885.371 442.098 889.436 438.696 888.932 434.403L887.566 422.759C887.306 420.545 885.839 418.657 883.758 417.858L856.565 407.412C855.104 406.85 853.481 406.883 852.042 407.501Z" fill="#525252"/>
<path d="M851.966 439.777L819.731 453.16C817.697 454.005 816.288 455.897 816.063 458.089L814.07 477.513C813.596 482.127 818.312 485.51 822.531 483.584L852.111 470.074C853.422 469.476 854.904 469.369 856.287 469.773L888.261 479.119C892.397 480.328 896.421 476.913 895.901 472.635L894.013 457.118C893.742 454.889 892.248 452.997 890.142 452.217L856.352 439.692C854.932 439.166 853.365 439.196 851.966 439.777Z" fill="#525252"/>
<path d="M332.125 51L319.071 611.93C319.032 613.614 320.386 615 322.071 615H350.881C352.584 615 353.945 613.585 353.879 611.884L332.125 51Z" fill="#525252"/>
<path d="M326.075 44.9682L307.897 139.171C307.116 143.219 311.292 146.419 314.998 144.613L331.18 136.722C332.522 136.067 334.087 136.047 335.446 136.667L348.926 142.814C352.671 144.522 356.759 141.227 355.887 137.206L335.871 44.8564C334.719 39.5403 327.106 39.6272 326.075 44.9682Z" fill="#525252"/>
<path d="M330.982 146.366L306.903 160.273C305.47 161.1 304.539 162.584 304.418 164.234L302.732 187.075C302.43 191.175 306.93 193.868 310.4 191.663L331.171 178.468C332.536 177.6 334.237 177.447 335.735 178.056L358.423 187.281C361.886 188.689 365.613 185.938 365.287 182.214L363.628 163.235C363.478 161.526 362.463 160.013 360.938 159.226L335.774 146.252C334.261 145.472 332.456 145.515 330.982 146.366Z" fill="#525252"/>
<path d="M328.562 190.242L299.657 206.085C296.993 207.545 295.246 210.251 295.01 213.28L293.355 234.566C292.788 241.864 300.707 246.751 306.975 242.971L328.878 229.765C331.26 228.329 334.171 228.075 336.765 229.076L361.467 238.608C367.696 241.011 374.282 236.034 373.669 229.385L372.076 212.099C371.788 208.972 369.891 206.221 367.07 204.841L336.844 190.051C334.216 188.765 331.127 188.836 328.562 190.242Z" fill="#525252"/>
<path d="M328.368 236.888L288.64 255.542C285.425 257.051 283.252 260.152 282.931 263.69L280.648 288.846C279.934 296.707 288.183 302.257 295.196 298.635L328.652 281.355C331.041 280.121 333.827 279.901 336.38 280.745L373.258 292.936C380.163 295.218 387.117 289.602 386.34 282.371L384.182 262.317C383.793 258.696 381.465 255.572 378.106 254.164L336.484 236.717C333.876 235.624 330.927 235.686 328.368 236.888Z" fill="#525252"/>
<path d="M328.485 291.628L279.231 310.963C275.074 312.595 272.167 316.399 271.685 320.838L269.223 343.523C268.231 352.665 277.468 359.48 285.91 355.835L328.753 337.335C331.264 336.251 334.07 336.057 336.706 336.785L383.598 349.744C391.865 352.029 399.791 345.153 398.696 336.646L396.476 319.387C395.896 314.885 392.826 311.095 388.542 309.594L336.838 291.474C334.125 290.523 331.161 290.578 328.485 291.628Z" fill="#525252"/>
<path d="M328.275 343.582L267.333 367.137C263.154 368.752 260.222 372.561 259.731 377.015L256.247 408.619C255.242 417.738 264.427 424.567 272.87 420.977L328.537 397.309C331.018 396.254 333.782 396.066 336.383 396.774L396.616 413.163C404.883 415.413 412.776 408.524 411.666 400.03L408.432 375.281C407.842 370.768 404.75 366.976 400.447 365.492L336.515 343.431C333.837 342.507 330.918 342.56 328.275 343.582Z" fill="#525252"/>
<path d="M3382 372.024C3528.61 409.557 3588 558.323 3840 460.38V642.069H1920V460.38C2273.5 295.801 2324.84 414.207 2555 314.779C2730 239.179 2854.5 339.046 2988.5 383.224C3122.5 427.402 3169.19 317.543 3382 372.024Z" fill="#202020"/>
<path d="M2461 454.207C2257 414.657 2024 672.062 1920 555.059V642.069H3840V555.009C3711.5 401.497 3648.5 365.549 3534.5 365.549C3335.3 365.549 2996.5 518.805 2863.5 531C2701.42 545.861 2647.15 490.297 2461 454.207Z" fill="#525252"/>
<path d="M3598.91 5.04883L3590.54 642.332H3612.87L3598.91 5.04883Z" fill="#202020"/>
<path d="M3590.42 40.643L3568.56 147.593C3567.08 154.816 3574.44 160.653 3581.14 157.57L3598.63 149.516C3600.95 148.449 3603.61 148.416 3605.96 149.425L3619.7 155.341C3626.47 158.256 3633.68 152.244 3632.03 145.061L3608.01 40.4314C3605.84 31.001 3592.36 31.1633 3590.42 40.643Z" fill="#202020"/>
<path d="M3595.53 161.237L3564.82 178.044C3562.16 179.503 3560.41 182.21 3560.17 185.24L3558.36 208.576C3557.79 215.872 3565.7 220.76 3571.97 216.984L3595.84 202.611C3598.22 201.179 3601.13 200.925 3603.72 201.924L3630.47 212.232C3636.7 214.633 3643.28 209.655 3642.67 203.008L3640.91 183.995C3640.63 180.867 3638.73 178.115 3635.9 176.736L3603.8 161.046C3601.17 159.763 3598.09 159.834 3595.53 161.237Z" fill="#202020"/>
<path d="M3594.53 212.514L3553.99 233.681C3550.64 235.429 3548.43 238.773 3548.12 242.537L3545.7 272.146C3544.98 280.976 3554.46 286.992 3562.14 282.579L3594.89 263.77C3597.72 262.149 3601.11 261.862 3604.17 262.984L3640.57 276.365C3648.18 279.162 3656.1 273.049 3655.31 264.982L3652.99 240.979C3652.62 237.103 3650.22 233.714 3646.69 232.068L3604.27 212.295C3601.17 210.848 3597.57 210.929 3594.53 212.514Z" fill="#202020"/>
<path d="M3594 276.224L3539.93 300.277C3535.65 302.183 3532.72 306.248 3532.28 310.915L3529.22 342.87C3528.25 352.988 3538.74 360.254 3547.87 355.787L3594.35 333.044C3597.33 331.581 3600.77 331.32 3603.95 332.315L3654.95 348.288C3663.91 351.096 3672.81 343.754 3671.75 334.415L3668.88 309.144C3668.34 304.379 3665.22 300.299 3660.76 298.529L3604.08 276.019C3600.83 274.728 3597.2 274.802 3594 276.224Z" fill="#202020"/>
<path d="M3591.66 347.506L3527.2 372.432C3520.58 374.99 3515.94 381.021 3515.16 388.072L3512.56 411.726C3510.97 426.166 3525.51 436.978 3538.88 431.292L3592.08 408.665C3596.01 406.994 3600.38 406.695 3604.5 407.817L3663.47 423.869C3676.56 427.432 3689.06 416.526 3687.31 403.075L3685.09 386.151C3684.16 379.006 3679.27 373.003 3672.45 370.652L3604.71 347.268C3600.47 345.803 3595.85 345.888 3591.66 347.506Z" fill="#202020"/>
<path d="M3591.08 419.532L3511.33 449.698C3504.31 452.352 3499.37 458.71 3498.53 466.165L3494.8 499.248C3493.1 514.396 3508.29 525.808 3522.36 519.952L3591.51 491.183C3595.57 489.491 3600.08 489.189 3604.34 490.321L3680.07 510.487C3693.84 514.155 3706.92 502.644 3705.04 488.514L3701.75 463.877C3700.74 456.331 3695.54 450.011 3688.32 447.575L3604.56 419.29C3600.17 417.809 3595.41 417.895 3591.08 419.532Z" fill="#202020"/>
<path d="M2683.15 136.656L2680.67 342.603C2680.65 344.274 2682 345.639 2683.67 345.639H2684.28C2685.96 345.639 2687.32 344.259 2687.28 342.579L2683.15 136.656Z" fill="#202020"/>
<path d="M2681.11 144.617L2675.76 172.464C2675.45 174.084 2677.12 175.363 2678.6 174.638L2682.95 172.509C2683.49 172.246 2684.12 172.238 2684.66 172.487L2688.14 174.076C2689.64 174.761 2691.27 173.445 2690.92 171.835L2685.03 144.573C2684.57 142.444 2681.53 142.479 2681.11 144.617Z" fill="#202020"/>
<path d="M2682.16 176.882L2674.8 180.85C2674.2 181.172 2673.81 181.775 2673.75 182.453L2673.3 188.12C2673.18 189.736 2674.92 190.825 2676.32 189.999L2682.23 186.494C2682.76 186.184 2683.39 186.129 2683.96 186.344L2690.54 188.84C2691.92 189.364 2693.38 188.257 2693.24 186.783L2692.81 182.161C2692.74 181.462 2692.32 180.849 2691.68 180.545L2683.98 176.84C2683.4 176.563 2682.73 176.578 2682.16 176.882Z" fill="#202020"/>
<path d="M2682.26 190.442L2672.07 195.808C2671.46 196.127 2671.06 196.734 2671.01 197.417L2670.31 206.045C2670.18 207.653 2671.91 208.745 2673.3 207.937L2682.33 202.712C2682.84 202.413 2683.46 202.36 2684.02 202.567L2693.84 206.205C2695.22 206.718 2696.67 205.607 2696.52 204.139L2695.84 197.032C2695.78 196.329 2695.34 195.713 2694.7 195.413L2684.04 190.402C2683.47 190.135 2682.81 190.15 2682.26 190.442Z" fill="#202020"/>
<path d="M2682.13 207.015L2669.07 212.605C2668.06 213.035 2667.37 213.978 2667.26 215.066L2666.52 222.469C2666.29 224.787 2668.68 226.473 2670.79 225.48L2682.21 220.106C2682.88 219.79 2683.64 219.734 2684.35 219.948L2696.83 223.708C2698.9 224.331 2700.93 222.629 2700.68 220.484L2699.99 214.654C2699.86 213.545 2699.12 212.601 2698.08 212.203L2684.38 206.97C2683.65 206.692 2682.85 206.708 2682.13 207.015Z" fill="#202020"/>
<path d="M2682.43 225.404L2665.55 231.238C2664.47 231.612 2663.69 232.569 2663.55 233.706L2662.61 241.34C2662.33 243.583 2664.54 245.314 2666.65 244.512L2682.48 238.493C2683.05 238.278 2683.67 238.239 2684.26 238.383L2701.28 242.523C2703.34 243.026 2705.26 241.279 2704.95 239.174L2704.09 233.272C2703.92 232.127 2703.11 231.18 2702.01 230.839L2684.29 225.373C2683.68 225.185 2683.03 225.196 2682.43 225.404Z" fill="#202020"/>
<path d="M2682.54 243.949L2661.89 251.055C2660.81 251.428 2660.03 252.385 2659.89 253.523L2658.61 263.866C2658.33 266.108 2660.54 267.84 2662.65 267.041L2682.59 259.49C2683.16 259.276 2683.77 259.238 2684.36 259.38L2705.66 264.541C2707.73 265.042 2709.64 263.294 2709.34 261.19L2708.13 253.004C2707.97 251.858 2707.15 250.912 2706.05 250.572L2684.39 243.918C2683.79 243.731 2683.14 243.742 2682.54 243.949Z" fill="#202020"/>
<path d="M2775.25 303.948L2770.07 533.932C2770.03 535.615 2771.39 537 2773.07 537H2780.89C2782.59 537 2783.95 535.587 2783.88 533.887L2775.25 303.948Z" fill="#525252"/>
<path d="M2770.59 276.84L2762.44 322.644C2761.85 325.924 2765.3 328.438 2768.24 326.882L2773.89 323.896C2775.03 323.296 2776.38 323.278 2777.53 323.847L2781.71 325.912C2784.69 327.383 2788.06 324.797 2787.41 321.542L2778.45 276.757C2777.58 272.423 2771.36 272.488 2770.59 276.84Z" fill="#525252"/>
<path d="M2773.11 327.585L2761.69 334.987C2760.83 335.547 2760.21 336.417 2759.98 337.417L2757.95 345.918C2757.17 349.201 2760.56 351.916 2763.59 350.443L2773.47 345.649C2774.54 345.128 2775.79 345.114 2776.88 345.609L2785.82 349.694C2788.6 350.96 2791.71 348.783 2791.47 345.745L2790.82 337.315C2790.71 336.002 2789.97 334.824 2788.83 334.164L2777.29 327.479C2775.98 326.725 2774.37 326.766 2773.11 327.585Z" fill="#525252"/>
<path d="M2771.59 349.252L2757.07 358.143C2755.62 359.03 2754.62 360.489 2754.31 362.159L2752.69 370.841C2751.78 375.688 2756.78 379.496 2761.22 377.335L2772.07 372.037C2773.65 371.271 2775.47 371.228 2777.08 371.92L2787.82 376.552C2791.98 378.345 2796.55 375.062 2796.18 370.55L2795.47 361.95C2795.3 359.94 2794.14 358.147 2792.37 357.179L2777.6 349.104C2775.71 348.072 2773.42 348.129 2771.59 349.252Z" fill="#525252"/>
<path d="M2771.74 376.759L2751.75 387.511C2750.19 388.351 2749.08 389.84 2748.72 391.577L2746.32 403.138C2745.34 407.875 2750.08 411.767 2754.54 409.88L2772.21 402.396C2773.64 401.794 2775.23 401.764 2776.68 402.31L2794 408.87C2798.15 410.442 2802.52 407.118 2802.1 402.698L2801.03 391.314C2800.83 389.218 2799.55 387.378 2797.65 386.466L2777.18 376.635C2775.45 375.804 2773.43 375.851 2771.74 376.759Z" fill="#525252"/>
<path d="M2772.04 407.501L2746.11 418.661C2744.1 419.524 2742.72 421.408 2742.51 423.581L2741.04 438.359C2740.59 443.001 2745.37 446.369 2749.58 444.374L2772.19 433.671C2773.54 433.034 2775.08 432.92 2776.5 433.352L2801.23 440.844C2805.37 442.098 2809.44 438.696 2808.93 434.403L2807.57 422.759C2807.31 420.545 2805.84 418.657 2803.76 417.858L2776.57 407.412C2775.1 406.85 2773.48 406.883 2772.04 407.501Z" fill="#525252"/>
<path d="M2771.97 439.777L2739.73 453.16C2737.7 454.005 2736.29 455.897 2736.06 458.089L2734.07 477.513C2733.6 482.127 2738.31 485.51 2742.53 483.584L2772.11 470.074C2773.42 469.476 2774.9 469.369 2776.29 469.773L2808.26 479.119C2812.4 480.328 2816.42 476.913 2815.9 472.635L2814.01 457.118C2813.74 454.889 2812.25 452.997 2810.14 452.217L2776.35 439.692C2774.93 439.166 2773.37 439.196 2771.97 439.777Z" fill="#525252"/>
<path d="M2252.12 51L2239.07 611.93C2239.03 613.614 2240.39 615 2242.07 615H2270.88C2272.58 615 2273.95 613.585 2273.88 611.884L2252.12 51Z" fill="#525252"/>
<path d="M2246.07 44.9682L2227.9 139.171C2227.12 143.219 2231.29 146.419 2235 144.613L2251.18 136.722C2252.52 136.067 2254.09 136.047 2255.45 136.667L2268.93 142.814C2272.67 144.522 2276.76 141.227 2275.89 137.206L2255.87 44.8564C2254.72 39.5403 2247.11 39.6272 2246.07 44.9682Z" fill="#525252"/>
<path d="M2250.98 146.366L2226.9 160.273C2225.47 161.1 2224.54 162.584 2224.42 164.234L2222.73 187.075C2222.43 191.175 2226.93 193.868 2230.4 191.663L2251.17 178.468C2252.54 177.6 2254.24 177.447 2255.74 178.056L2278.42 187.281C2281.89 188.689 2285.61 185.938 2285.29 182.214L2283.63 163.235C2283.48 161.526 2282.46 160.013 2280.94 159.226L2255.77 146.252C2254.26 145.472 2252.46 145.515 2250.98 146.366Z" fill="#525252"/>
<path d="M2248.56 190.242L2219.66 206.085C2216.99 207.545 2215.25 210.251 2215.01 213.28L2213.36 234.566C2212.79 241.864 2220.71 246.751 2226.98 242.971L2248.88 229.765C2251.26 228.329 2254.17 228.075 2256.77 229.076L2281.47 238.608C2287.7 241.011 2294.28 236.034 2293.67 229.385L2292.08 212.099C2291.79 208.972 2289.89 206.221 2287.07 204.841L2256.84 190.051C2254.22 188.765 2251.13 188.836 2248.56 190.242Z" fill="#525252"/>
<path d="M2248.37 236.888L2208.64 255.542C2205.42 257.051 2203.25 260.152 2202.93 263.69L2200.65 288.846C2199.93 296.707 2208.18 302.257 2215.2 298.635L2248.65 281.355C2251.04 280.121 2253.83 279.901 2256.38 280.745L2293.26 292.936C2300.16 295.218 2307.12 289.602 2306.34 282.371L2304.18 262.317C2303.79 258.696 2301.47 255.572 2298.11 254.164L2256.48 236.717C2253.88 235.624 2250.93 235.686 2248.37 236.888Z" fill="#525252"/>
<path d="M2248.48 291.628L2199.23 310.963C2195.07 312.595 2192.17 316.399 2191.69 320.838L2189.22 343.523C2188.23 352.665 2197.47 359.48 2205.91 355.835L2248.75 337.335C2251.26 336.251 2254.07 336.057 2256.71 336.785L2303.6 349.744C2311.87 352.029 2319.79 345.153 2318.7 336.646L2316.48 319.387C2315.9 314.885 2312.83 311.095 2308.54 309.594L2256.84 291.474C2254.12 290.523 2251.16 290.578 2248.48 291.628Z" fill="#525252"/>
<path d="M2248.27 343.582L2187.33 367.137C2183.15 368.752 2180.22 372.561 2179.73 377.015L2176.25 408.619C2175.24 417.738 2184.43 424.567 2192.87 420.977L2248.54 397.309C2251.02 396.254 2253.78 396.066 2256.38 396.774L2316.62 413.163C2324.88 415.413 2332.78 408.524 2331.67 400.03L2328.43 375.281C2327.84 370.768 2324.75 366.976 2320.45 365.492L2256.52 343.431C2253.84 342.507 2250.92 342.56 2248.27 343.582Z" fill="#525252"/>
<path d="M5302 372.024C5448.61 409.557 5508 558.323 5760 460.38V642.069H3840V460.38C4193.5 295.801 4244.84 414.207 4475 314.779C4650 239.179 4774.5 339.046 4908.5 383.224C5042.5 427.402 5089.19 317.543 5302 372.024Z" fill="#202020"/>
<path d="M4381 454.207C4177 414.657 3944 672.062 3840 555.059V642.069H5760V555.009C5631.5 401.497 5568.5 365.549 5454.5 365.549C5255.3 365.549 4916.5 518.805 4783.5 531C4621.42 545.861 4567.15 490.297 4381 454.207Z" fill="#525252"/>
<path d="M5518.91 5.04883L5510.54 642.332H5532.87L5518.91 5.04883Z" fill="#202020"/>
<path d="M5510.42 40.643L5488.56 147.593C5487.08 154.816 5494.44 160.653 5501.14 157.57L5518.63 149.516C5520.95 148.449 5523.61 148.416 5525.96 149.425L5539.7 155.341C5546.47 158.256 5553.68 152.244 5552.03 145.061L5528.01 40.4314C5525.84 31.001 5512.36 31.1633 5510.42 40.643Z" fill="#202020"/>
<path d="M5515.53 161.237L5484.82 178.044C5482.16 179.503 5480.41 182.21 5480.17 185.24L5478.36 208.576C5477.79 215.872 5485.7 220.76 5491.97 216.984L5515.84 202.611C5518.22 201.179 5521.13 200.925 5523.72 201.924L5550.47 212.232C5556.7 214.633 5563.28 209.655 5562.67 203.008L5560.91 183.995C5560.63 180.867 5558.73 178.115 5555.9 176.736L5523.8 161.046C5521.17 159.763 5518.09 159.834 5515.53 161.237Z" fill="#202020"/>
<path d="M5514.53 212.514L5473.99 233.681C5470.64 235.429 5468.43 238.773 5468.12 242.537L5465.7 272.146C5464.98 280.976 5474.46 286.992 5482.14 282.579L5514.89 263.77C5517.72 262.149 5521.11 261.862 5524.17 262.984L5560.57 276.365C5568.18 279.162 5576.1 273.049 5575.31 264.982L5572.99 240.979C5572.62 237.103 5570.22 233.714 5566.69 232.068L5524.27 212.295C5521.17 210.848 5517.57 210.929 5514.53 212.514Z" fill="#202020"/>
<path d="M5514 276.224L5459.93 300.277C5455.65 302.183 5452.72 306.248 5452.28 310.915L5449.22 342.87C5448.25 352.988 5458.74 360.254 5467.87 355.787L5514.35 333.044C5517.33 331.581 5520.77 331.32 5523.95 332.315L5574.95 348.288C5583.91 351.096 5592.81 343.754 5591.75 334.415L5588.88 309.144C5588.34 304.379 5585.22 300.299 5580.76 298.529L5524.08 276.019C5520.83 274.728 5517.2 274.802 5514 276.224Z" fill="#202020"/>
<path d="M5511.66 347.506L5447.2 372.432C5440.58 374.99 5435.94 381.021 5435.16 388.072L5432.56 411.726C5430.97 426.166 5445.51 436.978 5458.88 431.292L5512.08 408.665C5516.01 406.994 5520.38 406.695 5524.5 407.817L5583.47 423.869C5596.56 427.432 5609.06 416.526 5607.31 403.075L5605.09 386.151C5604.16 379.006 5599.27 373.003 5592.45 370.652L5524.71 347.268C5520.47 345.803 5515.85 345.888 5511.66 347.506Z" fill="#202020"/>
<path d="M5511.08 419.532L5431.33 449.698C5424.31 452.352 5419.37 458.71 5418.53 466.165L5414.8 499.248C5413.1 514.396 5428.29 525.808 5442.36 519.952L5511.51 491.183C5515.57 489.491 5520.08 489.189 5524.34 490.321L5600.07 510.487C5613.84 514.155 5626.92 502.644 5625.04 488.514L5621.75 463.877C5620.74 456.331 5615.54 450.011 5608.32 447.575L5524.56 419.29C5520.17 417.809 5515.41 417.895 5511.08 419.532Z" fill="#202020"/>
<path d="M4603.15 136.656L4600.67 342.603C4600.65 344.274 4602 345.639 4603.67 345.639H4604.28C4605.96 345.639 4607.32 344.259 4607.28 342.579L4603.15 136.656Z" fill="#202020"/>
<path d="M4601.11 144.617L4595.76 172.464C4595.45 174.084 4597.12 175.363 4598.6 174.638L4602.95 172.509C4603.49 172.246 4604.12 172.238 4604.66 172.487L4608.14 174.076C4609.64 174.761 4611.27 173.445 4610.92 171.835L4605.03 144.573C4604.57 142.444 4601.53 142.479 4601.11 144.617Z" fill="#202020"/>
<path d="M4602.16 176.882L4594.8 180.85C4594.2 181.172 4593.81 181.775 4593.75 182.453L4593.3 188.12C4593.18 189.736 4594.92 190.825 4596.32 189.999L4602.23 186.494C4602.76 186.184 4603.39 186.129 4603.96 186.344L4610.54 188.84C4611.92 189.364 4613.38 188.257 4613.24 186.783L4612.81 182.161C4612.74 181.462 4612.32 180.849 4611.68 180.545L4603.98 176.84C4603.4 176.563 4602.73 176.578 4602.16 176.882Z" fill="#202020"/>
<path d="M4602.26 190.442L4592.07 195.808C4591.46 196.127 4591.06 196.734 4591.01 197.417L4590.31 206.045C4590.18 207.653 4591.91 208.745 4593.3 207.937L4602.33 202.712C4602.84 202.413 4603.46 202.36 4604.02 202.567L4613.84 206.205C4615.22 206.718 4616.67 205.607 4616.52 204.139L4615.84 197.032C4615.78 196.329 4615.34 195.713 4614.7 195.413L4604.04 190.402C4603.47 190.135 4602.81 190.15 4602.26 190.442Z" fill="#202020"/>
<path d="M4602.13 207.015L4589.07 212.605C4588.06 213.035 4587.37 213.978 4587.26 215.066L4586.52 222.469C4586.29 224.787 4588.68 226.473 4590.79 225.48L4602.21 220.106C4602.88 219.79 4603.64 219.734 4604.35 219.948L4616.83 223.708C4618.9 224.331 4620.93 222.629 4620.68 220.484L4619.99 214.654C4619.86 213.545 4619.12 212.601 4618.08 212.203L4604.38 206.97C4603.65 206.692 4602.85 206.708 4602.13 207.015Z" fill="#202020"/>
<path d="M4602.43 225.404L4585.55 231.238C4584.47 231.612 4583.69 232.569 4583.55 233.706L4582.61 241.34C4582.33 243.583 4584.54 245.314 4586.65 244.512L4602.48 238.493C4603.05 238.278 4603.67 238.239 4604.26 238.383L4621.28 242.523C4623.34 243.026 4625.26 241.279 4624.95 239.174L4624.09 233.272C4623.92 232.127 4623.11 231.18 4622.01 230.839L4604.29 225.373C4603.68 225.185 4603.03 225.196 4602.43 225.404Z" fill="#202020"/>
<path d="M4602.54 243.949L4581.89 251.055C4580.81 251.428 4580.03 252.385 4579.89 253.523L4578.61 263.866C4578.33 266.108 4580.54 267.84 4582.65 267.041L4602.59 259.49C4603.16 259.276 4603.77 259.238 4604.36 259.38L4625.66 264.541C4627.73 265.042 4629.64 263.294 4629.34 261.19L4628.13 253.004C4627.97 251.858 4627.15 250.912 4626.05 250.572L4604.39 243.918C4603.79 243.731 4603.14 243.742 4602.54 243.949Z" fill="#202020"/>
<path d="M4695.25 303.948L4690.07 533.932C4690.03 535.615 4691.39 537 4693.07 537H4700.89C4702.59 537 4703.95 535.587 4703.88 533.887L4695.25 303.948Z" fill="#525252"/>
<path d="M4690.59 276.84L4682.44 322.644C4681.85 325.924 4685.3 328.438 4688.24 326.882L4693.89 323.896C4695.03 323.296 4696.38 323.278 4697.53 323.847L4701.71 325.912C4704.69 327.383 4708.06 324.797 4707.41 321.542L4698.45 276.757C4697.58 272.423 4691.36 272.488 4690.59 276.84Z" fill="#525252"/>
<path d="M4693.11 327.585L4681.69 334.987C4680.83 335.547 4680.21 336.417 4679.98 337.417L4677.95 345.918C4677.17 349.201 4680.56 351.916 4683.59 350.443L4693.47 345.649C4694.54 345.128 4695.79 345.114 4696.88 345.609L4705.82 349.694C4708.6 350.96 4711.71 348.783 4711.47 345.745L4710.82 337.315C4710.71 336.002 4709.97 334.824 4708.83 334.164L4697.29 327.479C4695.98 326.725 4694.37 326.766 4693.11 327.585Z" fill="#525252"/>
<path d="M4691.59 349.252L4677.07 358.143C4675.62 359.03 4674.62 360.489 4674.31 362.159L4672.69 370.841C4671.78 375.688 4676.78 379.496 4681.22 377.335L4692.07 372.037C4693.65 371.271 4695.47 371.228 4697.08 371.92L4707.82 376.552C4711.98 378.345 4716.55 375.062 4716.18 370.55L4715.47 361.95C4715.3 359.94 4714.14 358.147 4712.37 357.179L4697.6 349.104C4695.71 348.072 4693.42 348.129 4691.59 349.252Z" fill="#525252"/>
<path d="M4691.74 376.759L4671.75 387.511C4670.19 388.351 4669.08 389.84 4668.72 391.577L4666.32 403.138C4665.34 407.875 4670.08 411.767 4674.54 409.88L4692.21 402.396C4693.64 401.794 4695.23 401.764 4696.68 402.31L4714 408.87C4718.15 410.442 4722.52 407.118 4722.1 402.698L4721.03 391.314C4720.83 389.218 4719.55 387.378 4717.65 386.466L4697.18 376.635C4695.45 375.804 4693.43 375.851 4691.74 376.759Z" fill="#525252"/>
<path d="M4692.04 407.501L4666.11 418.661C4664.1 419.524 4662.72 421.408 4662.51 423.581L4661.04 438.359C4660.59 443.001 4665.37 446.369 4669.58 444.374L4692.19 433.671C4693.54 433.034 4695.08 432.92 4696.5 433.352L4721.23 440.844C4725.37 442.098 4729.44 438.696 4728.93 434.403L4727.57 422.759C4727.31 420.545 4725.84 418.657 4723.76 417.858L4696.57 407.412C4695.1 406.85 4693.48 406.883 4692.04 407.501Z" fill="#525252"/>
<path d="M4691.97 439.777L4659.73 453.16C4657.7 454.005 4656.29 455.897 4656.06 458.089L4654.07 477.513C4653.6 482.127 4658.31 485.51 4662.53 483.584L4692.11 470.074C4693.42 469.476 4694.9 469.369 4696.29 469.773L4728.26 479.119C4732.4 480.328 4736.42 476.913 4735.9 472.635L4734.01 457.118C4733.74 454.889 4732.25 452.997 4730.14 452.217L4696.35 439.692C4694.93 439.166 4693.37 439.196 4691.97 439.777Z" fill="#525252"/>
<path d="M4172.12 51L4159.07 611.93C4159.03 613.614 4160.39 615 4162.07 615H4190.88C4192.58 615 4193.95 613.585 4193.88 611.884L4172.12 51Z" fill="#525252"/>
<path d="M4166.07 44.9682L4147.9 139.171C4147.12 143.219 4151.29 146.419 4155 144.613L4171.18 136.722C4172.52 136.067 4174.09 136.047 4175.45 136.667L4188.93 142.814C4192.67 144.522 4196.76 141.227 4195.89 137.206L4175.87 44.8564C4174.72 39.5403 4167.11 39.6272 4166.07 44.9682Z" fill="#525252"/>
<path d="M4170.98 146.366L4146.9 160.273C4145.47 161.1 4144.54 162.584 4144.42 164.234L4142.73 187.075C4142.43 191.175 4146.93 193.868 4150.4 191.663L4171.17 178.468C4172.54 177.6 4174.24 177.447 4175.74 178.056L4198.42 187.281C4201.89 188.689 4205.61 185.938 4205.29 182.214L4203.63 163.235C4203.48 161.526 4202.46 160.013 4200.94 159.226L4175.77 146.252C4174.26 145.472 4172.46 145.515 4170.98 146.366Z" fill="#525252"/>
<path d="M4168.56 190.242L4139.66 206.085C4136.99 207.545 4135.25 210.251 4135.01 213.28L4133.36 234.566C4132.79 241.864 4140.71 246.751 4146.98 242.971L4168.88 229.765C4171.26 228.329 4174.17 228.075 4176.77 229.076L4201.47 238.608C4207.7 241.011 4214.28 236.034 4213.67 229.385L4212.08 212.099C4211.79 208.972 4209.89 206.221 4207.07 204.841L4176.84 190.051C4174.22 188.765 4171.13 188.836 4168.56 190.242Z" fill="#525252"/>
<path d="M4168.37 236.888L4128.64 255.542C4125.42 257.051 4123.25 260.152 4122.93 263.69L4120.65 288.846C4119.93 296.707 4128.18 302.257 4135.2 298.635L4168.65 281.355C4171.04 280.121 4173.83 279.901 4176.38 280.745L4213.26 292.936C4220.16 295.218 4227.12 289.602 4226.34 282.371L4224.18 262.317C4223.79 258.696 4221.47 255.572 4218.11 254.164L4176.48 236.717C4173.88 235.624 4170.93 235.686 4168.37 236.888Z" fill="#525252"/>
<path d="M4168.48 291.628L4119.23 310.963C4115.07 312.595 4112.17 316.399 4111.69 320.838L4109.22 343.523C4108.23 352.665 4117.47 359.48 4125.91 355.835L4168.75 337.335C4171.26 336.251 4174.07 336.057 4176.71 336.785L4223.6 349.744C4231.87 352.029 4239.79 345.153 4238.7 336.646L4236.48 319.387C4235.9 314.885 4232.83 311.095 4228.54 309.594L4176.84 291.474C4174.12 290.523 4171.16 290.578 4168.48 291.628Z" fill="#525252"/>
<path d="M4168.27 343.582L4107.33 367.137C4103.15 368.752 4100.22 372.561 4099.73 377.015L4096.25 408.619C4095.24 417.738 4104.43 424.567 4112.87 420.977L4168.54 397.309C4171.02 396.254 4173.78 396.066 4176.38 396.774L4236.62 413.163C4244.88 415.413 4252.78 408.524 4251.67 400.03L4248.43 375.281C4247.84 370.768 4244.75 366.976 4240.45 365.492L4176.52 343.431C4173.84 342.507 4170.92 342.56 4168.27 343.582Z" fill="#525252"/>
</svg>
