<svg width="916" height="481" viewBox="0 0 916 481" fill="none" xmlns="http://www.w3.org/2000/svg">
<g clip-path="url(#clip0_567_25600)">
<path d="M1 481V360L184.5 207L289 300L474.5 143.5L591 212.5L793.5 41.5V481H1Z" fill="url(#paint0_linear_567_25600)"/>
<path d="M72.3903 425.918C72.3903 439.167 125.508 449.907 191.032 449.907C254.462 449.907 309.674 438.888 309.674 427.053V397.3L72 396.037L72.3903 425.918Z" fill="#F5EAB8"/>
<path d="M141.127 418.074C136.778 418.074 108.506 414.81 96.0781 411.137C96.0781 411.137 96.0784 430.726 96.0781 440.112C105.01 442.561 131.419 447.687 141.127 447.687V418.074Z" fill="#F5F4C2"/>
<path d="M237.444 418.483C233.172 418.892 206.375 420.932 192.393 420.524C192.393 420.524 192.394 440.572 192.394 449.907C202.102 449.907 227.809 449.128 237.444 447.867L237.444 418.483Z" fill="#F5F4C2"/>
<path d="M309.673 397.67C309.674 402.159 298.024 407.873 288.703 410.321C288.703 410.321 288.702 430.369 288.702 439.705C303.461 435.624 308.898 431.135 309.674 427.87C309.674 419.299 309.673 397.67 309.673 397.67Z" fill="#F5F4C2"/>
<path d="M72.7734 427.869C148.503 455.212 288.7 427.869 309.671 401.75V427.869C300.35 454.395 99.1817 459.701 72.7734 427.869Z" fill="#AB8636" fill-opacity="0.35"/>
<path d="M92.9727 409.914L96.0795 411.138V440.303L92.9727 439.428V409.914Z" fill="#D3AE5E"/>
<path d="M141.129 417.258L144.236 418.507V447.971L141.129 447.69V417.258Z" fill="#D3AE5E"/>
<path d="M189.285 418.891L192.392 420.153V449.907H189.285V418.891Z" fill="#D3AE5E"/>
<path d="M237.441 415.625L240.548 416.92V447.724L237.441 448V415.625Z" fill="#D3AE5E"/>
<path d="M285.598 407.465L288.705 408.78V439.887L285.598 440.706V407.465Z" fill="#D3AE5E"/>
<ellipse cx="190.837" cy="397.262" rx="118.837" ry="23.262" fill="#AB8636"/>
<ellipse cx="190.063" cy="397.261" rx="105.633" ry="17.5485" fill="#F5EAB8"/>
<path d="M289.87 399.71C282.879 405.832 217.635 411.137 196.664 413.585C251.422 404.199 262.685 399.71 273.947 391.139C280.238 386.352 295.08 395.147 289.87 399.71Z" fill="#E1D6A4"/>
<path d="M93.4613 393.609C100.562 387.629 165.89 383.635 186.902 381.609C131.983 389.893 120.641 394.155 109.225 402.498C102.848 407.158 88.1689 398.066 93.4613 393.609Z" fill="#FFFECC"/>
<path d="M368.254 425.744C368.254 438.993 421.371 449.733 486.896 449.733C550.325 449.733 605.538 438.714 605.538 426.879V397.126L367.863 395.863L368.254 425.744Z" fill="#F5EAB8"/>
<path d="M436.991 417.903C432.641 417.903 404.369 414.638 391.941 410.965C391.941 410.965 391.942 430.554 391.941 439.94C400.874 442.389 427.282 447.516 436.991 447.516V417.903Z" fill="#F5F4C2"/>
<path d="M533.307 418.31C529.035 418.718 502.238 420.758 488.256 420.35C488.256 420.35 488.257 440.398 488.257 449.734C497.966 449.734 523.672 448.954 533.307 447.693L533.307 418.31Z" fill="#F5F4C2"/>
<path d="M605.54 397.496C605.542 401.985 593.891 407.699 584.571 410.147C584.571 410.147 584.569 430.195 584.569 439.531C599.328 435.45 604.765 430.961 605.542 427.696C605.542 419.126 605.54 397.496 605.54 397.496Z" fill="#F5F4C2"/>
<path d="M368.641 427.697C444.37 455.04 584.567 427.697 605.538 401.578V427.697C596.218 454.224 395.049 459.529 368.641 427.697Z" fill="#AB8636" fill-opacity="0.35"/>
<path d="M388.836 409.738L391.943 410.963V440.127L388.836 439.252V409.738Z" fill="#D3AE5E"/>
<path d="M436.992 417.086L440.099 418.336V447.799L436.992 447.518V417.086Z" fill="#D3AE5E"/>
<path d="M485.148 418.719L488.255 419.981V449.735H485.148V418.719Z" fill="#D3AE5E"/>
<path d="M533.305 415.453L536.412 416.748V447.552L533.305 447.828V415.453Z" fill="#D3AE5E"/>
<path d="M581.461 407.289L584.568 408.605V439.711L581.461 440.53V407.289Z" fill="#D3AE5E"/>
<ellipse cx="486.7" cy="397.088" rx="118.837" ry="23.262" fill="#AB8636"/>
<ellipse cx="485.926" cy="397.088" rx="105.633" ry="17.5485" fill="#F5EAB8"/>
<path d="M585.729 399.538C578.739 405.66 513.495 410.965 492.523 413.413C547.282 404.027 558.544 399.538 569.806 390.967C576.097 386.18 590.939 394.975 585.729 399.538Z" fill="#E1D6A4"/>
<path d="M389.325 393.435C396.425 387.455 461.754 383.462 482.766 381.435C427.847 389.719 416.505 393.981 405.088 402.324C398.712 406.984 384.032 397.893 389.325 393.435Z" fill="#FFFECC"/>
<path d="M375.246 389.832C375.246 403.081 428.364 413.821 493.888 413.821C557.317 413.821 612.53 402.802 612.53 390.967V361.214L374.855 359.951L375.246 389.832Z" fill="#F5EAB8"/>
<path d="M443.983 381.989C439.633 381.989 411.361 378.724 398.934 375.051C398.934 375.051 398.934 394.64 398.934 404.026C407.866 406.475 434.274 411.601 443.983 411.601V381.989Z" fill="#F5F4C2"/>
<path d="M540.299 382.398C536.027 382.806 509.231 384.846 495.248 384.438C495.248 384.438 495.249 404.486 495.249 413.821C504.958 413.821 530.665 413.042 540.299 411.781L540.299 382.398Z" fill="#F5F4C2"/>
<path d="M612.528 361.586C612.53 366.075 600.879 371.789 591.559 374.237C591.559 374.237 591.558 394.285 591.558 403.621C606.316 399.54 611.753 395.051 612.53 391.786C612.53 383.215 612.528 361.586 612.528 361.586Z" fill="#F5F4C2"/>
<path d="M375.629 391.783C451.358 419.126 591.555 391.783 612.526 365.664V391.783C603.206 418.31 402.037 423.615 375.629 391.783Z" fill="#AB8636" fill-opacity="0.35"/>
<path d="M395.828 373.828L398.935 375.052V404.217L395.828 403.342V373.828Z" fill="#D3AE5E"/>
<path d="M443.984 381.174L447.091 382.423V411.887L443.984 411.606V381.174Z" fill="#D3AE5E"/>
<path d="M492.141 382.805L495.247 384.067V413.821H492.141V382.805Z" fill="#D3AE5E"/>
<path d="M540.297 379.543L543.404 380.838V411.642L540.297 411.918V379.543Z" fill="#D3AE5E"/>
<path d="M588.453 371.379L591.56 372.695V403.801L588.453 404.62V371.379Z" fill="#D3AE5E"/>
<ellipse cx="493.693" cy="361.176" rx="118.837" ry="23.262" fill="#AB8636"/>
<ellipse cx="492.918" cy="361.177" rx="105.633" ry="17.5485" fill="#F5EAB8"/>
<path d="M592.725 363.624C585.735 369.746 520.491 375.051 499.52 377.499C554.278 368.113 565.54 363.624 576.803 355.053C583.093 350.266 597.935 359.061 592.725 363.624Z" fill="#E1D6A4"/>
<path d="M396.321 357.523C403.421 351.543 468.75 347.55 489.762 345.523C434.843 353.807 423.501 358.069 412.084 366.412C405.708 371.072 391.028 361.98 396.321 357.523Z" fill="#FFFECC"/>
<path d="M350.39 353.918C350.39 367.167 403.508 377.907 469.032 377.907C532.462 377.907 587.674 366.888 587.674 355.053V325.3L350 324.037L350.39 353.918Z" fill="#F5EAB8"/>
<path d="M419.127 346.074C414.778 346.074 386.506 342.81 374.078 339.137C374.078 339.137 374.078 358.726 374.078 368.112C383.01 370.561 409.419 375.687 419.127 375.687V346.074Z" fill="#F5F4C2"/>
<path d="M515.444 346.483C511.172 346.892 484.375 348.932 470.393 348.524C470.393 348.524 470.394 368.572 470.394 377.907C480.102 377.907 505.809 377.128 515.444 375.867L515.444 346.483Z" fill="#F5F4C2"/>
<path d="M587.673 325.67C587.674 330.159 576.024 335.873 566.703 338.321C566.703 338.321 566.702 358.369 566.702 367.705C581.461 363.624 586.898 359.135 587.674 355.87C587.674 347.299 587.673 325.67 587.673 325.67Z" fill="#F5F4C2"/>
<path d="M350.773 355.869C426.503 383.212 566.7 355.869 587.671 329.75V355.869C578.35 382.395 377.182 387.701 350.773 355.869Z" fill="#AB8636" fill-opacity="0.35"/>
<path d="M370.973 337.914L374.08 339.138V368.303L370.973 367.428V337.914Z" fill="#D3AE5E"/>
<path d="M419.129 345.258L422.236 346.507V375.971L419.129 375.69V345.258Z" fill="#D3AE5E"/>
<path d="M467.285 346.891L470.392 348.153V377.907H467.285V346.891Z" fill="#D3AE5E"/>
<path d="M515.441 343.625L518.548 344.92V375.724L515.441 376V343.625Z" fill="#D3AE5E"/>
<path d="M563.598 335.465L566.705 336.78V367.887L563.598 368.706V335.465Z" fill="#D3AE5E"/>
<ellipse cx="468.837" cy="325.262" rx="118.837" ry="23.262" fill="#AB8636"/>
<ellipse cx="468.063" cy="325.261" rx="105.633" ry="17.5485" fill="#F5EAB8"/>
<path d="M567.87 327.71C560.879 333.832 495.635 339.137 474.664 341.585C529.422 332.199 540.685 327.71 551.947 319.139C558.238 314.352 573.08 323.147 567.87 327.71Z" fill="#E1D6A4"/>
<path d="M371.461 321.609C378.562 315.629 443.89 311.635 464.902 309.609C409.983 317.893 398.641 322.155 387.225 330.498C380.848 335.158 366.169 326.066 371.461 321.609Z" fill="#FFFECC"/>
<path d="M665.82 426.035C665.82 439.284 718.938 450.024 784.462 450.024C847.892 450.024 903.104 439.005 903.104 427.17V397.417L665.43 396.154L665.82 426.035Z" fill="#F5EAB8"/>
<path d="M734.557 418.192C730.208 418.192 701.935 414.927 689.508 411.254C689.508 411.254 689.508 430.843 689.508 440.229C698.44 442.678 724.848 447.805 734.557 447.805V418.192Z" fill="#F5F4C2"/>
<path d="M830.873 418.601C826.601 419.009 799.805 421.049 785.822 420.641C785.822 420.641 785.823 440.689 785.823 450.025C795.532 450.025 821.239 449.245 830.873 447.984L830.873 418.601Z" fill="#F5F4C2"/>
<path d="M903.107 397.787C903.108 402.276 891.457 407.99 882.137 410.438C882.137 410.438 882.136 430.486 882.136 439.822C896.894 435.741 902.331 431.252 903.108 427.987C903.108 419.417 903.107 397.787 903.107 397.787Z" fill="#F5F4C2"/>
<path d="M666.207 427.988C741.937 455.331 882.133 427.988 903.105 401.869V427.988C893.784 454.515 692.615 459.82 666.207 427.988Z" fill="#AB8636" fill-opacity="0.35"/>
<path d="M686.402 410.031L689.509 411.256V440.42L686.402 439.545V410.031Z" fill="#D3AE5E"/>
<path d="M734.559 417.375L737.665 418.625V448.088L734.559 447.807V417.375Z" fill="#D3AE5E"/>
<path d="M782.715 419.008L785.822 420.27V450.024H782.715V419.008Z" fill="#D3AE5E"/>
<path d="M830.871 415.744L833.978 417.039V447.843L830.871 448.119V415.744Z" fill="#D3AE5E"/>
<path d="M879.027 407.582L882.134 408.898V440.004L879.027 440.823V407.582Z" fill="#D3AE5E"/>
<ellipse cx="784.267" cy="397.379" rx="118.837" ry="23.262" fill="#AB8636"/>
<ellipse cx="783.492" cy="397.379" rx="105.633" ry="17.5485" fill="#F5EAB8"/>
<path d="M883.295 399.827C876.305 405.949 811.061 411.254 790.09 413.702C844.848 404.316 856.11 399.827 867.373 391.256C873.664 386.469 888.506 395.264 883.295 399.827Z" fill="#E1D6A4"/>
<path d="M686.891 393.724C693.992 387.744 759.32 383.751 780.332 381.724C725.413 390.008 714.071 394.271 702.655 402.613C696.278 407.273 681.599 398.182 686.891 393.724Z" fill="#FFFECC"/>
<path d="M653.39 390.121C653.39 403.37 706.508 414.11 772.032 414.11C835.462 414.11 890.674 403.091 890.674 391.256V361.503L653 360.24L653.39 390.121Z" fill="#F5EAB8"/>
<path d="M722.127 382.278C717.778 382.278 689.506 379.013 677.078 375.34C677.078 375.34 677.078 394.929 677.078 404.315C686.01 406.764 712.419 411.891 722.127 411.891V382.278Z" fill="#F5F4C2"/>
<path d="M818.444 382.687C814.172 383.095 787.375 385.135 773.393 384.727C773.393 384.727 773.394 404.775 773.394 414.111C783.102 414.111 808.809 413.331 818.444 412.07L818.444 382.687Z" fill="#F5F4C2"/>
<path d="M890.677 361.871C890.678 366.36 879.028 372.074 869.707 374.522C869.707 374.522 869.706 394.57 869.706 403.906C884.465 399.825 889.902 395.336 890.678 392.071C890.678 383.501 890.677 361.871 890.677 361.871Z" fill="#F5F4C2"/>
<path d="M653.777 392.072C729.507 419.415 869.704 392.072 890.675 365.953V392.072C881.354 418.599 680.186 423.904 653.777 392.072Z" fill="#AB8636" fill-opacity="0.35"/>
<path d="M673.973 374.117L677.08 375.342V404.506L673.973 403.631V374.117Z" fill="#D3AE5E"/>
<path d="M722.129 381.461L725.236 382.711V412.174L722.129 411.893V381.461Z" fill="#D3AE5E"/>
<path d="M770.285 383.094L773.392 384.356V414.11H770.285V383.094Z" fill="#D3AE5E"/>
<path d="M818.441 379.828L821.548 381.123V411.927L818.441 412.203V379.828Z" fill="#D3AE5E"/>
<path d="M866.598 371.668L869.705 372.984V404.09L866.598 404.909V371.668Z" fill="#D3AE5E"/>
<ellipse cx="771.837" cy="361.465" rx="118.837" ry="23.262" fill="#AB8636"/>
<ellipse cx="771.063" cy="361.465" rx="105.633" ry="17.5485" fill="#F5EAB8"/>
<path d="M870.866 363.913C863.875 370.035 798.631 375.34 777.66 377.788C832.418 368.402 843.681 363.913 854.943 355.342C861.234 350.555 876.076 359.35 870.866 363.913Z" fill="#E1D6A4"/>
<path d="M674.461 357.81C681.562 351.83 746.89 347.837 767.902 345.81C712.983 354.094 701.641 358.356 690.225 366.699C683.848 371.359 669.169 362.268 674.461 357.81Z" fill="#FFFECC"/>
<path d="M665.82 354.209C665.82 367.458 718.938 378.198 784.462 378.198C847.892 378.198 903.104 367.179 903.104 355.344V325.591L665.43 324.328L665.82 354.209Z" fill="#F5EAB8"/>
<path d="M734.557 346.367C730.208 346.367 701.935 343.103 689.508 339.43C689.508 339.43 689.508 359.019 689.508 368.405C698.44 370.854 724.848 375.98 734.557 375.98V346.367Z" fill="#F5F4C2"/>
<path d="M830.873 346.774C826.601 347.183 799.805 349.223 785.822 348.815C785.822 348.815 785.823 368.863 785.823 378.198C795.532 378.198 821.239 377.419 830.873 376.158L830.873 346.774Z" fill="#F5F4C2"/>
<path d="M903.103 325.961C903.104 330.45 891.453 336.164 882.133 338.612C882.133 338.612 882.132 358.66 882.132 367.996C896.89 363.915 902.327 359.426 903.104 356.161C903.104 347.59 903.103 325.961 903.103 325.961Z" fill="#F5F4C2"/>
<path d="M666.203 356.162C741.933 383.505 882.129 356.162 903.101 330.043V356.162C893.78 382.688 692.611 387.994 666.203 356.162Z" fill="#AB8636" fill-opacity="0.35"/>
<path d="M686.402 338.203L689.509 339.427V368.592L686.402 367.717V338.203Z" fill="#D3AE5E"/>
<path d="M734.559 345.551L737.665 346.8V376.264L734.559 375.983V345.551Z" fill="#D3AE5E"/>
<path d="M782.715 347.184L785.822 348.445V378.2H782.715V347.184Z" fill="#D3AE5E"/>
<path d="M830.871 343.918L833.978 345.213V376.017L830.871 376.293V343.918Z" fill="#D3AE5E"/>
<path d="M879.027 335.756L882.134 337.071V368.178L879.027 368.997V335.756Z" fill="#D3AE5E"/>
<ellipse cx="784.267" cy="325.553" rx="118.837" ry="23.262" fill="#AB8636"/>
<ellipse cx="783.492" cy="325.552" rx="105.633" ry="17.5485" fill="#F5EAB8"/>
<path d="M883.299 328.003C876.309 334.125 811.065 339.43 790.094 341.878C844.852 332.492 856.114 328.003 867.377 319.432C873.668 314.645 888.51 323.44 883.299 328.003Z" fill="#E1D6A4"/>
<path d="M686.891 321.9C693.992 315.92 759.32 311.926 780.332 309.9C725.413 318.184 714.071 322.446 702.655 330.789C696.278 335.449 681.599 326.357 686.891 321.9Z" fill="#FFFECC"/>
<path d="M672.031 320.744C672.031 333.993 725.149 344.733 790.673 344.733C854.102 344.733 909.315 333.714 909.315 321.879V292.126L671.641 290.863L672.031 320.744Z" fill="#F5EAB8"/>
<path d="M740.768 312.903C736.419 312.903 708.146 309.638 695.719 305.965C695.719 305.965 695.719 325.554 695.719 334.94C704.651 337.389 731.059 342.516 740.768 342.516V312.903Z" fill="#F5F4C2"/>
<path d="M837.084 313.31C832.812 313.718 806.016 315.758 792.033 315.35C792.033 315.35 792.034 335.398 792.034 344.734C801.743 344.734 827.45 343.954 837.084 342.693L837.084 313.31Z" fill="#F5F4C2"/>
<path d="M909.314 292.496C909.315 296.985 897.664 302.699 888.344 305.147C888.344 305.147 888.343 325.195 888.343 334.531C903.101 330.45 908.538 325.961 909.315 322.696C909.315 314.126 909.314 292.496 909.314 292.496Z" fill="#F5F4C2"/>
<path d="M672.414 322.697C748.144 350.04 888.34 322.697 909.312 296.578V322.697C899.991 349.224 698.822 354.529 672.414 322.697Z" fill="#AB8636" fill-opacity="0.35"/>
<path d="M692.613 304.738L695.72 305.963V335.127L692.613 334.252V304.738Z" fill="#D3AE5E"/>
<path d="M740.77 312.086L743.876 313.336V342.799L740.77 342.518V312.086Z" fill="#D3AE5E"/>
<path d="M788.926 313.719L792.033 314.981V344.735H788.926V313.719Z" fill="#D3AE5E"/>
<path d="M837.082 310.453L840.189 311.748V342.552L837.082 342.828V310.453Z" fill="#D3AE5E"/>
<path d="M885.238 302.291L888.345 303.607V334.713L885.238 335.532V302.291Z" fill="#D3AE5E"/>
<ellipse cx="790.478" cy="292.088" rx="118.837" ry="23.262" fill="#AB8636"/>
<ellipse cx="789.703" cy="292.088" rx="105.633" ry="17.5485" fill="#F5EAB8"/>
<path d="M889.51 294.538C882.52 300.66 817.276 305.965 796.305 308.413C851.063 299.027 862.325 294.538 873.588 285.967C879.879 281.18 894.721 289.975 889.51 294.538Z" fill="#E1D6A4"/>
<path d="M693.106 288.435C700.206 282.455 765.535 278.462 786.547 276.435C731.628 284.719 720.286 288.981 708.87 297.324C702.493 301.984 687.813 292.893 693.106 288.435Z" fill="#FFFECC"/>
<path d="M659.605 284.832C659.605 298.081 712.723 308.821 778.247 308.821C841.677 308.821 896.889 297.802 896.889 285.967V256.214L659.215 254.951L659.605 284.832Z" fill="#F5EAB8"/>
<path d="M728.342 276.989C723.993 276.989 695.72 273.724 683.293 270.051C683.293 270.051 683.293 289.64 683.293 299.026C692.225 301.475 718.633 306.601 728.342 306.601V276.989Z" fill="#F5F4C2"/>
<path d="M824.658 277.398C820.387 277.806 793.59 279.846 779.607 279.438C779.607 279.438 779.608 299.486 779.608 308.821C789.317 308.821 815.024 308.042 824.658 306.781L824.658 277.398Z" fill="#F5F4C2"/>
<path d="M896.892 256.586C896.893 261.075 885.242 266.789 875.922 269.237C875.922 269.237 875.921 289.285 875.921 298.621C890.679 294.54 896.116 290.051 896.893 286.786C896.893 278.215 896.892 256.586 896.892 256.586Z" fill="#F5F4C2"/>
<path d="M659.988 286.783C735.718 314.126 875.915 286.783 896.886 260.664V286.783C887.565 313.31 686.397 318.615 659.988 286.783Z" fill="#AB8636" fill-opacity="0.35"/>
<path d="M680.188 268.828L683.294 270.052V299.217L680.188 298.342V268.828Z" fill="#D3AE5E"/>
<path d="M728.344 276.172L731.451 277.421V306.885L728.344 306.604V276.172Z" fill="#D3AE5E"/>
<path d="M776.5 277.805L779.607 279.067V308.821H776.5V277.805Z" fill="#D3AE5E"/>
<path d="M824.656 274.543L827.763 275.838V306.642L824.656 306.918V274.543Z" fill="#D3AE5E"/>
<path d="M872.812 266.379L875.919 267.695V298.801L872.812 299.62V266.379Z" fill="#D3AE5E"/>
<ellipse cx="778.052" cy="256.176" rx="118.837" ry="23.262" fill="#AB8636"/>
<ellipse cx="777.278" cy="256.177" rx="105.633" ry="17.5485" fill="#F5EAB8"/>
<path d="M877.081 258.624C870.09 264.746 804.846 270.051 783.875 272.499C838.633 263.113 849.896 258.624 861.158 250.053C867.449 245.266 882.291 254.061 877.081 258.624Z" fill="#E1D6A4"/>
<path d="M680.676 252.523C687.777 246.543 753.105 242.55 774.117 240.523C719.198 248.807 707.856 253.069 696.44 261.412C690.063 266.072 675.384 256.98 680.676 252.523Z" fill="#FFFECC"/>
<path d="M678.246 248.918C678.246 262.167 731.364 272.907 796.888 272.907C860.317 272.907 915.53 261.888 915.53 250.053V220.3L677.855 219.037L678.246 248.918Z" fill="#F5EAB8"/>
<path d="M746.983 241.074C742.633 241.074 714.361 237.81 701.934 234.137C701.934 234.137 701.934 253.726 701.934 263.112C710.866 265.561 737.274 270.687 746.983 270.687V241.074Z" fill="#F5F4C2"/>
<path d="M843.299 241.483C839.027 241.892 812.231 243.932 798.248 243.524C798.248 243.524 798.249 263.572 798.249 272.907C807.958 272.907 833.665 272.128 843.299 270.867L843.299 241.483Z" fill="#F5F4C2"/>
<path d="M915.528 220.67C915.53 225.159 903.879 230.873 894.559 233.321C894.559 233.321 894.558 253.369 894.558 262.705C909.316 258.624 914.753 254.135 915.53 250.87C915.53 242.299 915.528 220.67 915.528 220.67Z" fill="#F5F4C2"/>
<path d="M678.629 250.871C754.358 278.214 894.555 250.871 915.526 224.752V250.871C906.206 277.397 705.037 282.703 678.629 250.871Z" fill="#AB8636" fill-opacity="0.35"/>
<path d="M698.828 232.914L701.935 234.138V263.303L698.828 262.428V232.914Z" fill="#D3AE5E"/>
<path d="M746.984 240.258L750.091 241.507V270.971L746.984 270.69V240.258Z" fill="#D3AE5E"/>
<path d="M795.141 241.891L798.247 243.153V272.907H795.141V241.891Z" fill="#D3AE5E"/>
<path d="M843.297 238.627L846.404 239.922V270.726L843.297 271.002V238.627Z" fill="#D3AE5E"/>
<path d="M891.453 230.465L894.56 231.78V262.887L891.453 263.706V230.465Z" fill="#D3AE5E"/>
<ellipse cx="796.693" cy="220.262" rx="118.837" ry="23.262" fill="#AB8636"/>
<ellipse cx="795.918" cy="220.263" rx="105.633" ry="17.5485" fill="#F5EAB8"/>
<path d="M895.725 222.71C888.735 228.832 823.491 234.137 802.52 236.585C857.278 227.199 868.54 222.71 879.803 214.139C886.093 209.352 900.935 218.147 895.725 222.71Z" fill="#E1D6A4"/>
<path d="M699.321 216.609C706.421 210.629 771.75 206.635 792.762 204.609C737.843 212.893 726.501 217.155 715.084 225.498C708.708 230.158 694.028 221.066 699.321 216.609Z" fill="#FFFECC"/>
<path d="M10 363L177.692 212.361C182.89 207.692 190.847 207.966 195.711 212.981L275.419 295.154C280.231 300.114 288.082 300.443 293.291 295.904L467.02 144.518C471.437 140.669 477.883 140.25 482.761 143.495L578.628 207.264C583.321 210.385 589.491 210.127 593.907 206.624L794.5 47.5" stroke="#DE4247" stroke-width="19" stroke-linecap="round" stroke-linejoin="round"/>
<path d="M803 51C804.901 49.099 804.5 40.5 803.5 36.5L800.5 44C800.667 47 801.4 52.6 803 51Z" fill="#DE4247"/>
<path d="M1.00086 352.499C0.0658082 354.835 0.00343893 361.098 0.816244 365.174C0.913601 365.662 1.34996 365.999 1.8477 365.999C2.4728 365.999 2.96889 365.474 2.92934 364.85C2.57034 359.186 1.87893 350.306 1.00086 352.499Z" fill="#DE4247"/>
<path d="M10 355L177.692 204.361C182.89 199.692 190.847 199.966 195.711 204.981L275.46 287.196C280.255 292.139 288.072 292.485 293.285 287.985L466.638 138.354C471.003 134.587 477.328 134.145 482.175 137.268L578.673 199.456C583.353 202.472 589.433 202.173 593.795 198.713L794.5 39.5" stroke="#CA2E33" stroke-width="19" stroke-linecap="round" stroke-linejoin="round"/>
<circle cx="187" cy="203" r="21" fill="#AB8636"/>
<circle cx="187" cy="203" r="15" fill="#D3AE5E"/>
<circle cx="475" cy="134" r="21" fill="#AB8636"/>
<circle cx="475" cy="134" r="15" fill="#D3AE5E"/>
<path d="M790.147 8.78116C791.045 6.01723 794.955 6.01722 795.853 8.78115L800.409 22.8024C800.811 24.0385 801.962 24.8754 803.262 24.8754H818.005C820.911 24.8754 822.119 28.5942 819.768 30.3024L807.841 38.9681C806.79 39.732 806.35 41.0861 806.751 42.3222L811.307 56.3435C812.205 59.1074 809.042 61.4058 806.691 59.6976L794.763 51.0319C793.712 50.268 792.288 50.268 791.237 51.0319L779.309 59.6976C776.958 61.4058 773.795 59.1074 774.693 56.3435L779.249 42.3222C779.65 41.0861 779.21 39.732 778.159 38.9681L766.232 30.3024C763.881 28.5942 765.089 24.8754 767.995 24.8754H782.738C784.038 24.8754 785.189 24.0385 785.591 22.8024L790.147 8.78116Z" fill="url(#paint1_linear_567_25600)"/>
<path d="M793 51L793 196" stroke="#D3AE5E" stroke-width="2" stroke-linecap="round" stroke-linejoin="round" stroke-dasharray="20 10"/>
</g>
<defs>
<linearGradient id="paint0_linear_567_25600" x1="406.25" y1="45" x2="406.25" y2="481" gradientUnits="userSpaceOnUse">
<stop stop-color="#CA2E33"/>
<stop offset="1" stop-color="#CA2E33" stop-opacity="0"/>
</linearGradient>
<linearGradient id="paint1_linear_567_25600" x1="793" y1="0" x2="793" y2="72" gradientUnits="userSpaceOnUse">
<stop stop-color="#AB8636"/>
<stop offset="1" stop-color="#F5EAB8"/>
</linearGradient>
<clipPath id="clip0_567_25600">
<rect width="916" height="481" fill="white"/>
</clipPath>
</defs>
</svg>
