<svg width="480" height="471" viewBox="0 0 480 471" fill="none" xmlns="http://www.w3.org/2000/svg">
<path d="M45.6005 32.8583C32.3365 21.6567 40.2578 0 57.6189 0H165.15C180.763 0 189.448 18.0555 179.703 30.2538C176.168 34.6781 170.813 37.2542 165.15 37.2542H57.6189C53.2194 37.2542 48.9618 35.697 45.6005 32.8583ZM50.8058 143.163C50.8058 132.875 59.1454 124.536 69.4329 124.536H156.546C166.833 124.536 175.173 132.875 175.173 143.163C175.173 153.45 166.833 161.79 156.546 161.79H69.4329C59.1454 161.79 50.8058 153.45 50.8058 143.163ZM258.084 201.173C258.084 190.885 266.424 182.546 276.711 182.546H443.367C460.02 182.546 468.304 202.729 456.454 214.428C452.968 217.87 448.266 219.8 443.367 219.8H276.711C266.424 219.8 258.084 211.46 258.084 201.173ZM49.7428 271.158C49.7428 260.723 58.2016 252.264 68.636 252.264H155.217C165.651 252.264 174.11 260.723 174.11 271.158C174.11 281.592 165.651 290.051 155.217 290.051H68.636C58.2016 290.051 49.7428 281.592 49.7428 271.158ZM34.3298 18.3362C34.3298 8.20938 42.5392 0 52.666 0C62.7928 0 71.0021 8.20939 71.0021 18.3362V191.593C71.0021 268.132 66.4851 374.072 36.2134 451.868C32.3983 461.673 19.7706 464.629 10.6015 459.47C2.4465 454.882 -1.44799 444.641 2.07437 435.973C32.0243 362.264 34.3298 264.462 34.3298 191.593V18.3362ZM151.788 18.6019C151.788 8.32837 160.116 0 170.39 0C180.663 0 188.991 8.32837 188.991 18.6019V422.569C188.991 443.858 184.208 456.098 170.921 463.017C158.861 468.591 141.133 470.111 112.792 470.054C105.214 470.038 99.0471 465.613 97.1789 458.268C94.2351 446.695 102.657 432.453 114.598 432.525C127.648 432.605 137.734 432.479 141.689 432.149C149.13 431.617 151.788 429.488 151.788 422.037V18.6019ZM423.376 20.73C423.376 10.1629 431.942 1.59661 442.509 1.59661C453.076 1.59661 461.643 10.1629 461.643 20.73V104.844C461.643 124.536 457.391 135.18 440.383 141.034C425.628 146.277 402.772 146.824 369.145 146.881C362.069 146.893 356.025 141.878 353.739 135.181C350.165 124.717 357.409 113.042 368.466 113.138C389.628 113.322 406.497 113.218 412.746 112.827C421.25 112.827 423.376 110.698 423.376 104.312V20.73ZM440.383 189.337C440.383 185.586 443.424 182.546 447.174 182.546H447.292H449.188C451.804 182.546 454.402 182.977 456.878 183.822C468.135 187.665 474.878 199.267 472.182 210.853C444.762 328.661 385.617 410.41 313.018 458.769C305.804 463.575 296.246 461.191 291.071 454.237C284.72 445.702 286.262 432.061 295.15 426.215C362.369 382.009 419.238 297 440.255 190.646C440.34 190.216 440.383 189.776 440.383 189.337ZM302.07 209.58C310.714 207.272 319.594 212.293 322.38 220.794C351.105 308.456 402.67 385.649 470.99 428C480.982 434.194 482.637 449.713 475.332 458.924C470.089 465.535 461.202 467.396 454.028 462.953C378.672 416.285 323.331 330.75 290.727 230.117C287.869 221.295 293.111 211.972 302.07 209.58ZM235.762 31.5966C235.762 15.0281 249.193 1.59661 265.762 1.59661H438.27C449.709 1.59661 458.445 11.8109 456.672 23.1115C455.25 32.1732 447.442 38.8508 438.27 38.8508H303.497C286.929 38.8508 273.497 52.2823 273.497 68.8508V451.068C273.497 461.488 265.05 469.936 254.63 469.936C244.209 469.936 235.762 461.488 235.762 451.068V31.5966Z" fill="#202020"/>
</svg>
