<svg width="908" height="615" viewBox="0 0 908 615" fill="none" xmlns="http://www.w3.org/2000/svg">
<path fill-rule="evenodd" clip-rule="evenodd" d="M196.21 312.725C198.373 245.385 196.442 174.623 233.245 118.189C270.681 60.7837 330.916 15.0619 398.338 2.7762C462.111 -8.84452 517.501 45.4283 581.658 54.7011C650.666 64.6751 725.853 24.578 786.554 58.8864C850.241 94.883 896.805 165.256 905.722 237.866C914.424 308.732 873.852 376.265 832.692 434.605C798.534 483.02 743.519 507.565 693.281 538.979C648.613 566.91 606.627 598.663 554.843 608.345C499.762 618.644 444.222 611.961 390.64 595.563C328.188 576.45 257.787 559.934 220.789 506.112C183.217 451.456 194.082 379.015 196.21 312.725Z" fill="#2A2A2A"/>
<rect x="10.7891" y="101.031" width="806.423" height="398.156" fill="#DF4043"/>
<g style="mix-blend-mode:lighten">
<rect x="48.5488" y="122.766" width="8.0912" height="354.685" fill="#F35457"/>
<rect x="81.8125" y="122.766" width="8.0912" height="354.685" fill="#F35457"/>
<rect x="115.076" y="122.766" width="8.0912" height="354.685" fill="#F35457"/>
<rect x="148.34" y="122.766" width="8.0912" height="354.685" fill="#F35457"/>
<rect x="181.604" y="122.766" width="8.0912" height="354.685" fill="#F35457"/>
<rect x="214.867" y="122.766" width="8.0912" height="354.685" fill="#F35457"/>
<rect x="248.133" y="122.766" width="8.0912" height="354.685" fill="#F35457"/>
<rect x="281.395" y="122.766" width="8.0912" height="354.685" fill="#F35457"/>
<rect x="314.66" y="122.766" width="8.0912" height="354.685" fill="#F35457"/>
<rect x="347.922" y="122.766" width="8.0912" height="354.685" fill="#F35457"/>
<rect x="381.188" y="122.766" width="8.0912" height="354.685" fill="#F35457"/>
<rect x="414.453" y="122.766" width="8.0912" height="354.685" fill="#F35457"/>
<rect x="447.715" y="122.766" width="8.0912" height="354.685" fill="#F35457"/>
<rect x="480.979" y="122.766" width="8.0912" height="354.685" fill="#F35457"/>
<rect x="514.242" y="122.766" width="8.0912" height="354.685" fill="#F35457"/>
<rect x="547.506" y="122.766" width="8.0912" height="354.685" fill="#F35457"/>
<rect x="580.771" y="122.766" width="8.0912" height="354.685" fill="#F35457"/>
<rect x="614.033" y="122.766" width="8.0912" height="354.685" fill="#F35457"/>
<rect x="647.297" y="122.766" width="8.0912" height="354.685" fill="#F35457"/>
<rect x="680.562" y="122.766" width="8.0912" height="354.685" fill="#F35457"/>
<rect x="713.826" y="122.766" width="8.0912" height="354.685" fill="#F35457"/>
<rect x="747.09" y="122.766" width="8.0912" height="354.685" fill="#F35457"/>
<rect x="56.6406" y="122.766" width="6.29316" height="354.685" fill="#FF686B"/>
<rect x="89.9062" y="122.766" width="6.29316" height="354.685" fill="#FF686B"/>
<rect x="123.168" y="122.766" width="6.29316" height="354.685" fill="#FF686B"/>
<rect x="156.432" y="122.766" width="6.29316" height="354.685" fill="#FF686B"/>
<rect x="189.695" y="122.766" width="6.29316" height="354.685" fill="#FF686B"/>
<rect x="222.959" y="122.766" width="6.29316" height="354.685" fill="#FF686B"/>
<rect x="256.225" y="122.766" width="6.29316" height="354.685" fill="#FF686B"/>
<rect x="289.488" y="122.766" width="6.29316" height="354.685" fill="#FF686B"/>
<rect x="322.75" y="122.766" width="6.29316" height="354.685" fill="#FF686B"/>
<rect x="356.016" y="122.766" width="6.29316" height="354.685" fill="#FF686B"/>
<rect x="389.279" y="122.766" width="6.29316" height="354.685" fill="#FF686B"/>
<rect x="422.543" y="122.766" width="6.29316" height="354.685" fill="#FF686B"/>
<rect x="455.807" y="122.766" width="6.29316" height="354.685" fill="#FF686B"/>
<rect x="489.07" y="122.766" width="6.29316" height="354.685" fill="#FF686B"/>
<rect x="522.336" y="122.766" width="6.29316" height="354.685" fill="#FF686B"/>
<rect x="555.598" y="122.766" width="6.29316" height="354.685" fill="#FF686B"/>
<rect x="588.861" y="122.766" width="6.29316" height="354.685" fill="#FF686B"/>
<rect x="622.125" y="122.766" width="6.29316" height="354.685" fill="#FF686B"/>
<rect x="655.389" y="122.766" width="6.29316" height="354.685" fill="#FF686B"/>
<rect x="688.652" y="122.766" width="6.29316" height="354.685" fill="#FF686B"/>
<rect x="721.918" y="122.766" width="6.29316" height="354.685" fill="#FF686B"/>
<rect x="755.18" y="122.766" width="6.29316" height="354.685" fill="#FF686B"/>
<rect x="62.9336" y="122.766" width="12.5863" height="354.685" fill="#DF4043"/>
<rect x="96.1973" y="122.766" width="12.5863" height="354.685" fill="#DF4043"/>
<rect x="129.461" y="122.766" width="12.5863" height="354.685" fill="#DF4043"/>
<rect x="162.725" y="122.766" width="12.5863" height="354.685" fill="#DF4043"/>
<rect x="195.988" y="122.766" width="12.5863" height="354.685" fill="#DF4043"/>
<rect x="229.254" y="122.766" width="12.5863" height="354.685" fill="#DF4043"/>
<rect x="262.516" y="122.766" width="12.5863" height="354.685" fill="#DF4043"/>
<rect x="295.779" y="122.766" width="12.5863" height="354.685" fill="#DF4043"/>
<rect x="329.045" y="122.766" width="12.5863" height="354.685" fill="#DF4043"/>
<rect x="362.307" y="122.766" width="12.5863" height="354.685" fill="#DF4043"/>
<rect x="395.57" y="122.766" width="12.5863" height="354.685" fill="#DF4043"/>
<rect x="428.836" y="122.766" width="12.5863" height="354.685" fill="#DF4043"/>
<rect x="462.098" y="122.766" width="12.5863" height="354.685" fill="#DF4043"/>
<rect x="495.363" y="122.766" width="12.5863" height="354.685" fill="#DF4043"/>
<rect x="528.627" y="122.766" width="12.5863" height="354.685" fill="#DF4043"/>
<rect x="561.891" y="122.766" width="12.5863" height="354.685" fill="#DF4043"/>
<rect x="595.154" y="122.766" width="12.5863" height="354.685" fill="#DF4043"/>
<rect x="628.418" y="122.766" width="12.5863" height="354.685" fill="#DF4043"/>
<rect x="661.684" y="122.766" width="12.5863" height="354.685" fill="#DF4043"/>
<rect x="694.945" y="122.766" width="12.5863" height="354.685" fill="#DF4043"/>
<rect x="728.209" y="122.766" width="12.5863" height="354.685" fill="#DF4043"/>
<rect x="761.475" y="122.766" width="12.5863" height="354.685" fill="#DF4043"/>
<rect x="75.5195" y="122.766" width="6.29316" height="354.685" fill="#C12225"/>
<rect x="108.783" y="122.766" width="6.29316" height="354.685" fill="#C12225"/>
<rect x="142.047" y="122.766" width="6.29316" height="354.685" fill="#C12225"/>
<rect x="175.312" y="122.766" width="6.29316" height="354.685" fill="#C12225"/>
<rect x="208.574" y="122.766" width="6.29316" height="354.685" fill="#C12225"/>
<rect x="241.838" y="122.766" width="6.29316" height="354.685" fill="#C12225"/>
<rect x="275.104" y="122.766" width="6.29316" height="354.685" fill="#C12225"/>
<rect x="308.367" y="122.766" width="6.29316" height="354.685" fill="#C12225"/>
<rect x="341.631" y="122.766" width="6.29316" height="354.685" fill="#C12225"/>
<rect x="374.895" y="122.766" width="6.29316" height="354.685" fill="#C12225"/>
<rect x="408.156" y="122.766" width="6.29316" height="354.685" fill="#C12225"/>
<rect x="441.422" y="122.766" width="6.29316" height="354.685" fill="#C12225"/>
<rect x="474.686" y="122.766" width="6.29316" height="354.685" fill="#C12225"/>
<rect x="507.949" y="122.766" width="6.29316" height="354.685" fill="#C12225"/>
<rect x="541.213" y="122.766" width="6.29316" height="354.685" fill="#C12225"/>
<rect x="574.477" y="122.766" width="6.29316" height="354.685" fill="#C12225"/>
<rect x="607.742" y="122.766" width="6.29316" height="354.685" fill="#C12225"/>
<rect x="641.004" y="122.766" width="6.29316" height="354.685" fill="#C12225"/>
<rect x="674.268" y="122.766" width="6.29316" height="354.685" fill="#C12225"/>
<rect x="707.533" y="122.766" width="6.29316" height="354.685" fill="#C12225"/>
<rect x="740.797" y="122.766" width="6.29316" height="354.685" fill="#C12225"/>
<rect x="774.061" y="122.766" width="6.29316" height="354.685" fill="#C12225"/>
</g>
<rect x="46.5508" y="120.326" width="735.795" height="359.564" rx="13.5" stroke="#A30407" stroke-width="5"/>
<rect y="92.1387" width="43.1531" height="28.6514" rx="11" fill="#A30407"/>
<rect y="479.426" width="43.1531" height="28.6514" rx="11" fill="#A30407"/>
<rect x="784.848" y="92.1387" width="43.1531" height="28.6514" rx="11" fill="#A30407"/>
<rect x="784.848" y="479.426" width="43.1531" height="28.6514" rx="11" fill="#A30407"/>
<ellipse cx="10.7887" cy="106.959" rx="5.39413" ry="5.92788" fill="#FF686B"/>
<ellipse cx="817.211" cy="106.959" rx="5.39413" ry="5.92788" fill="#FF686B"/>
<ellipse cx="10.7887" cy="494.246" rx="5.39413" ry="5.92788" fill="#FF686B"/>
<ellipse cx="817.211" cy="494.246" rx="5.39413" ry="5.92788" fill="#FF686B"/>
<rect x="124.965" y="414.676" width="239.14" height="122.509" rx="10" fill="#F5EAB8"/>
<rect x="112.379" y="391.953" width="264.313" height="39.5192" rx="10" fill="#AB8636"/>
<rect x="210.371" y="460.123" width="64.7296" height="20.7476" rx="10.3738" fill="#AB8636"/>
<path d="M333.988 528.787H232.848C322.75 526.021 350.17 508.04 357.362 472.473C357.212 483.999 357.362 506.064 357.362 515.45C357.362 525.824 349.271 528.787 333.988 528.787Z" fill="#D7CC9A"/>
<rect x="431.529" y="278.301" width="332.638" height="259.839" rx="14" fill="#F5EAB8"/>
<rect x="414.449" y="236.805" width="366.801" height="52.3629" rx="14" fill="#AB8636"/>
<path d="M709.328 236.805H767.25C774.982 236.805 781.25 243.073 781.25 250.805V275.168C781.25 282.9 774.982 289.168 767.25 289.168H709.328V236.805Z" fill="#8D6818"/>
<path d="M695.844 289.168H764.169V524.139C764.169 531.871 757.901 538.139 750.169 538.139H695.844V289.168Z" fill="#D7CC9A"/>
<path d="M101.127 175.039L108.327 177.339C101.727 186.139 91.5273 194.439 82.4273 199.739C81.3273 198.239 78.6273 195.239 77.0273 193.839C86.0273 189.339 95.4273 182.339 101.127 175.039ZM126.627 179.239L131.727 174.939C140.927 180.239 152.427 188.539 158.127 194.239L152.527 199.339C147.127 193.539 135.927 185.039 126.627 179.239ZM118.127 193.039C109.927 203.839 93.5273 216.639 76.8273 224.739C75.9273 222.939 74.0273 220.139 72.5273 218.539C89.4273 210.839 106.027 197.539 113.927 186.139H121.427C132.127 198.939 149.227 210.839 164.627 217.139C162.927 218.939 161.127 221.739 159.927 223.839C145.027 216.839 127.427 204.339 118.127 193.039ZM90.4273 212.639H145.827V245.839H138.227V219.339H97.7273V246.239H90.4273V212.639ZM93.9273 236.139H142.227V242.839H93.9273V236.139ZM113.927 154.139H121.627V167.239H113.927V154.139ZM76.2273 163.439H159.727V181.639H152.127V170.239H83.6273V181.639H76.2273V163.439Z" fill="black"/>
<path d="M193.927 180.939V190.839H243.327V180.939H193.927ZM193.927 165.039V174.939H243.327V165.039H193.927ZM186.527 158.839H250.927V197.139H186.527V158.839ZM192.127 205.739H252.127V212.439H192.127V205.739ZM250.227 205.739H257.827C257.827 205.739 257.627 208.039 257.427 209.039C255.527 231.539 253.627 240.239 250.527 243.439C248.627 245.339 246.627 246.039 243.727 246.139C241.127 246.439 236.327 246.339 231.327 246.039C231.127 244.139 230.427 241.339 229.227 239.539C234.127 240.039 238.827 240.039 240.627 240.039C242.327 240.039 243.327 239.939 244.227 238.939C246.627 236.739 248.527 228.239 250.227 206.939V205.739ZM199.727 194.039L206.927 196.339C199.727 208.039 188.427 218.739 177.727 225.639C176.527 224.239 173.627 221.439 171.827 220.239C182.827 214.139 193.427 204.439 199.727 194.039ZM210.627 207.739L217.727 209.939C210.327 224.039 198.227 236.239 186.127 244.139C184.927 242.739 182.027 240.039 180.327 238.739C192.727 231.839 204.027 220.439 210.627 207.739ZM231.327 208.239L238.427 209.939C233.227 225.139 224.327 238.239 214.127 246.739C212.827 245.439 209.827 243.139 208.127 242.039C218.427 234.339 226.727 222.039 231.327 208.239Z" fill="black"/>
<path d="M331.527 154.139H338.627V223.839H331.527V154.139ZM300.027 195.439L353.927 172.739L356.727 179.139L302.927 202.039L300.027 195.439ZM310.827 163.539H318.027V230.439C318.027 235.939 319.227 237.139 325.927 237.139C329.227 237.139 346.027 237.139 350.027 237.139C355.927 237.139 356.927 234.439 357.627 222.939C359.427 224.139 362.327 225.339 364.427 225.739C363.227 239.539 360.827 243.939 350.327 243.939C347.627 243.939 328.227 243.939 325.727 243.939C314.227 243.939 310.827 241.239 310.827 230.339V163.539ZM352.627 173.739H351.727L353.527 172.239L354.827 171.139L360.127 173.139L359.827 174.539C359.827 193.339 359.527 208.339 358.827 212.239C358.227 216.239 356.327 218.139 353.427 218.839C350.727 219.539 346.727 219.539 344.027 219.539C343.727 217.539 343.127 214.739 342.227 213.039C344.527 213.139 347.827 213.139 348.927 213.139C350.427 213.139 351.427 212.739 351.927 210.439C352.527 207.839 352.627 193.639 352.627 173.739ZM272.127 178.239H303.927V185.339H272.127V178.239ZM285.027 155.339H292.127V220.239H285.027V155.339ZM271.227 222.839C279.327 219.839 291.627 214.639 303.527 209.539L305.127 216.239C294.427 221.339 283.127 226.439 274.227 230.239L271.227 222.839Z" fill="black"/>
<path d="M147.858 510.507H163.002V512.163H147.858V510.507ZM148.626 505.563H162.282V507.171H148.626V505.563ZM154.29 506.307H156.09V509.907C156.09 512.907 155.274 516.843 149.226 519.555C148.986 519.171 148.434 518.547 148.026 518.235C153.858 515.883 154.29 512.355 154.29 509.883V506.307ZM156.594 511.563C157.506 514.923 159.618 517.155 163.05 518.139C162.642 518.499 162.138 519.195 161.898 519.675C158.274 518.403 156.09 515.811 155.034 511.899L156.594 511.563ZM146.49 510.459V518.955H144.738V512.139H141.378V510.459H146.49ZM146.49 518.163C147.618 519.939 149.754 520.755 152.514 520.875C155.13 520.971 160.53 520.899 163.362 520.707C163.17 521.139 162.858 522.003 162.786 522.555C160.146 522.651 155.178 522.699 152.514 522.603C149.394 522.483 147.234 521.643 145.698 519.747C144.546 520.779 143.322 521.811 142.026 522.867L141.066 521.019C142.218 520.251 143.634 519.195 144.858 518.163H146.49ZM141.642 502.659L142.962 501.579C144.546 502.587 146.37 504.147 147.186 505.323L145.77 506.499C145.002 505.347 143.202 503.715 141.642 502.659ZM159.138 500.979L160.962 501.603C160.146 502.971 159.162 504.555 158.37 505.563L156.906 505.011C157.65 503.931 158.634 502.203 159.138 500.979ZM149.562 501.699L151.098 501.075C152.058 502.227 152.994 503.811 153.33 504.915L151.698 505.635C151.386 504.555 150.498 502.899 149.562 501.699Z" fill="black"/>
<path d="M172.122 500.883L173.73 501.507C171.858 503.739 168.93 505.803 166.362 507.099C166.074 506.787 165.426 506.115 165.018 505.827C167.658 504.675 170.442 502.851 172.122 500.883ZM184.098 501.867L185.442 503.043C183.066 503.955 179.538 504.699 176.49 505.179C176.418 504.819 176.202 504.267 175.986 503.931C178.914 503.403 182.25 502.635 184.098 501.867ZM175.41 501.195H177.138V506.163C177.138 506.835 177.378 506.979 178.818 506.979C179.49 506.979 182.97 506.979 183.882 506.979C184.962 506.979 185.154 506.691 185.25 504.915C185.658 505.179 186.354 505.419 186.834 505.515C186.618 507.891 186.066 508.491 184.026 508.491C183.426 508.491 179.298 508.491 178.722 508.491C176.082 508.491 175.41 508.035 175.41 506.163V501.195ZM170.298 513.531V515.163H182.394V513.531H170.298ZM170.298 516.339V518.019H182.394V516.339H170.298ZM170.298 510.723V512.355H182.394V510.723H170.298ZM168.546 509.523H184.194V519.219H168.546V509.523ZM178.218 520.443L179.682 519.531C182.322 520.347 185.226 521.403 186.954 522.219L184.962 523.131C183.45 522.339 180.834 521.307 178.218 520.443ZM172.578 519.483L174.21 520.227C172.266 521.379 169.218 522.483 166.818 523.155C166.53 522.795 165.906 522.099 165.498 521.787C167.97 521.259 170.85 520.419 172.578 519.483ZM169.674 504.195L170.946 502.947L171.402 503.091V508.827H169.674V504.195Z" fill="black"/>
<path d="M470.597 325.759H474.297V371.709H470.597V325.759ZM466.097 335.409L468.947 335.859C468.697 339.909 467.747 345.659 466.447 349.309L463.497 348.309C464.797 344.959 465.747 339.459 466.097 335.409ZM474.397 334.959L477.097 333.809C478.647 336.759 480.297 340.609 480.947 342.909L478.097 344.359C477.547 341.959 475.897 337.959 474.397 334.959ZM481.247 333.759H505.997V350.759H502.297V337.309H481.247V333.759ZM478.597 348.759H510.297V352.359H478.597V348.759ZM495.397 349.509C497.747 358.159 502.897 365.559 510.747 368.459C509.847 369.259 508.647 370.859 508.047 371.909C499.747 368.309 494.747 360.259 492.047 350.209L495.397 349.509ZM491.047 325.759H494.797V342.459C494.797 352.259 493.547 364.309 479.547 371.959C479.047 371.159 477.797 369.809 476.947 369.059C490.547 362.259 491.047 351.209 491.047 342.459V325.759Z" fill="black"/>
<path d="M475.147 408.509V426.209H471.497V412.009H464.497V408.509H475.147ZM475.147 424.559C477.497 428.259 481.947 429.959 487.697 430.209C493.147 430.409 504.397 430.259 510.297 429.859C509.897 430.759 509.247 432.559 509.097 433.709C503.597 433.909 493.247 434.009 487.697 433.809C481.197 433.559 476.697 431.809 473.497 427.859C471.097 430.009 468.547 432.159 465.847 434.359L463.847 430.509C466.247 428.909 469.197 426.709 471.747 424.559H475.147ZM465.047 392.259L467.797 390.009C471.097 392.109 474.847 395.359 476.597 397.809L473.647 400.259C472.047 397.859 468.297 394.459 465.047 392.259ZM483.547 404.409V410.759H503.397V404.409H483.547ZM480.047 401.359H507.047V413.809H480.047V401.359ZM477.997 394.009H509.297V397.259H477.997V394.009ZM491.447 388.859H495.047V428.309H491.447V388.859ZM490.197 412.609L492.947 413.659C489.997 419.009 484.547 424.209 479.497 426.859C478.947 425.959 477.847 424.659 477.047 424.009C481.997 421.859 487.447 417.209 490.197 412.609ZM495.947 412.609C498.947 417.009 504.647 421.609 509.597 423.759C508.747 424.509 507.597 425.759 507.047 426.709C502.147 424.059 496.447 418.759 493.297 413.809L495.947 412.609Z" fill="black"/>
<path d="M493.847 451.759H497.397V486.609H493.847V451.759ZM478.097 472.409L505.047 461.059L506.447 464.259L479.547 475.709L478.097 472.409ZM483.497 456.459H487.097V489.909C487.097 492.659 487.697 493.259 491.047 493.259C492.697 493.259 501.097 493.259 503.097 493.259C506.047 493.259 506.547 491.909 506.897 486.159C507.797 486.759 509.247 487.359 510.297 487.559C509.697 494.459 508.497 496.659 503.247 496.659C501.897 496.659 492.197 496.659 490.947 496.659C485.197 496.659 483.497 495.309 483.497 489.859V456.459ZM504.397 461.559H503.947L504.847 460.809L505.497 460.259L508.147 461.259L507.997 461.959C507.997 471.359 507.847 478.859 507.497 480.809C507.197 482.809 506.247 483.759 504.797 484.109C503.447 484.459 501.447 484.459 500.097 484.459C499.947 483.459 499.647 482.059 499.197 481.209C500.347 481.259 501.997 481.259 502.547 481.259C503.297 481.259 503.797 481.059 504.047 479.909C504.347 478.609 504.397 471.509 504.397 461.559ZM464.147 463.809H480.047V467.359H464.147V463.809ZM470.597 452.359H474.147V484.809H470.597V452.359ZM463.697 486.109C467.747 484.609 473.897 482.009 479.847 479.459L480.647 482.809C475.297 485.359 469.647 487.909 465.197 489.809L463.697 486.109Z" fill="black"/>
</svg>
