<svg width="375" height="871" viewBox="0 0 375 871" fill="none" xmlns="http://www.w3.org/2000/svg">
<g clip-path="url(#clip0_2605_22791)">
<rect x="-527" width="1920" height="871" fill="#181818"/>
<path d="M-118 765.315C-304.578 725.452 -431.906 776.828 -527 821.916V871H1393V786.403C1255.5 704.175 1093.03 816.487 848.5 786.403C652.877 762.336 513.538 734.549 346.962 777.582C213 812.189 75.5 806.658 -118 765.315Z" fill="#484848"/>
<path d="M194.305 450.429L429.819 698" stroke="#F5EAB8" stroke-width="2"/>
<path d="M186.477 450.429L-49.0376 698" stroke="#F5EAB8" stroke-width="2"/>
<path d="M194.305 486.483L261.501 698" stroke="#F5EAB8" stroke-width="2"/>
<path d="M186.477 486.483L119.28 698" stroke="#F5EAB8" stroke-width="2"/>
<path d="M317.607 698L194.305 474.465" stroke="#F5EAB8" stroke-width="2"/>
<path d="M63.1741 698L186.477 474.465" stroke="#F5EAB8" stroke-width="2"/>
<path d="M194.305 462.447L373.713 698" stroke="#F5EAB8" stroke-width="2"/>
<path d="M186.477 462.447L7.06826 698" stroke="#F5EAB8" stroke-width="2"/>
<path d="M-536.129 746.341L-516.435 732.248C-515.73 731.743 -514.78 731.75 -514.083 732.265L-496.18 745.49C-495.491 745.999 -494.555 746.013 -493.851 745.525L-474.639 732.193C-473.954 731.717 -473.045 731.717 -472.359 732.193L-453.128 745.537C-452.434 746.019 -451.511 746.013 -450.824 745.521L-432.281 732.251C-431.573 731.745 -430.62 731.754 -429.923 732.273L-411.411 746.05C-410.702 746.577 -409.732 746.577 -409.023 746.05L-390.534 732.29C-389.826 731.763 -388.855 731.763 -388.146 732.29L-369.64 746.063C-368.94 746.584 -367.983 746.591 -367.275 746.081L-348.142 732.273C-347.426 731.756 -346.454 731.77 -345.754 732.309L-327.892 746.031C-327.191 746.57 -326.219 746.584 -325.503 746.067L-306.37 732.259C-305.663 731.749 -304.706 731.756 -304.006 732.277L-285.458 746.08C-284.769 746.593 -283.83 746.609 -283.124 746.119L-263.953 732.815C-263.249 732.327 -262.313 732.341 -261.624 732.85L-243.726 746.071C-243.027 746.588 -242.073 746.593 -241.368 746.084L-222.23 732.273C-221.514 731.756 -220.542 731.77 -219.842 732.309L-201.957 746.049C-201.267 746.579 -200.313 746.602 -199.598 746.106L-180.446 732.815C-179.743 732.327 -178.806 732.341 -178.118 732.85L-160.203 746.084C-159.511 746.594 -158.571 746.606 -157.867 746.113L-138.089 732.26C-137.363 731.751 -136.388 731.781 -135.694 732.334L-117.845 746.575C-117.135 747.141 -116.132 747.158 -115.403 746.616L-96.9572 732.888C-96.2485 732.36 -95.2777 732.36 -94.569 732.888L-76.0806 746.647C-75.3719 747.175 -74.4011 747.175 -73.6924 746.647L-55.1808 732.87C-54.4832 732.351 -53.53 732.342 -52.8228 732.848L-34.2795 746.118C-33.5921 746.61 -32.6697 746.617 -31.9753 746.135L-12.7622 732.802C-12.0678 732.321 -11.1454 732.327 -10.4581 732.819L8.12614 746.118C8.8135 746.61 9.73586 746.617 10.4303 746.135L29.6247 732.815C30.3282 732.327 31.2645 732.341 31.9533 732.85L49.8736 746.088C50.5624 746.596 51.4986 746.61 52.2021 746.122L71.3779 732.815C72.0814 732.327 73.0177 732.341 73.7065 732.85L91.6268 746.088C92.3156 746.596 93.2518 746.61 93.9553 746.122L113.184 732.778C113.862 732.308 114.758 732.302 115.442 732.763L135.355 746.175C136.039 746.635 136.935 746.629 137.612 746.159L156.86 732.802C157.555 732.321 158.477 732.327 159.164 732.819L177.708 746.089C178.415 746.595 179.368 746.586 180.066 746.067L198.577 732.29C199.286 731.763 200.257 731.763 200.965 732.29L219.454 746.05C220.163 746.577 221.133 746.577 221.842 746.05L240.308 732.307C241.027 731.772 242.015 731.781 242.725 732.329L261.178 746.591C261.898 747.148 262.904 747.148 263.624 746.591L282.078 732.329C282.787 731.781 283.775 731.772 284.495 732.307L302.978 746.063C303.678 746.584 304.635 746.591 305.343 746.081L324.495 732.259C325.202 731.749 326.159 731.756 326.859 732.277L345.366 746.05C346.075 746.577 347.045 746.577 347.754 746.05L366.242 732.29C366.951 731.763 367.922 731.763 368.631 732.29L387.119 746.05C387.828 746.577 388.799 746.577 389.507 746.05L407.977 732.304C408.694 731.77 409.68 731.778 410.389 732.323L429.414 746.939" stroke="#F5EAB8"/>
<path d="M430.286 696.741H-537C-539.761 696.741 -542 698.98 -542 701.741V726.401C-542 729.163 -539.761 731.401 -537 731.401H430.286C433.047 731.401 435.286 729.163 435.286 726.401V701.741C435.286 698.98 433.047 696.741 430.286 696.741Z" fill="#CA2E33"/>
<path d="M198.543 617.073V552.976L195.921 549.641V496.492L194.094 492.034V449.462H190.48H189.84H186.226V492.034L184.399 496.492V549.641L181.777 552.976V617.073L176.414 621.985V698.536C176.414 698.536 187.1 698.536 189.84 698.536C189.906 698.536 190.14 698.536 190.48 698.536C193.233 698.536 203.906 698.536 203.906 698.536V621.985L198.543 617.073Z" fill="#CA2E33"/>
<path d="M197.568 447.763H182.445V450.44H197.568V447.763Z" fill="#CA2E33"/>
<path d="M195.424 441.967H184.516V448.576H195.424V441.967Z" fill="#CA2E33"/>
<path d="M191.511 435H188.549V442.876H191.511V435Z" fill="#CA2E33"/>
<path d="M190.222 671.043C190.039 671.043 189.883 649.518 189.883 622.973C189.883 596.416 190.039 574.903 190.222 574.903C190.405 574.903 190.561 596.428 190.561 622.973C190.561 649.518 190.405 671.043 190.222 671.043Z" fill="#CA2E33"/>
<path d="M208.243 749.758H171.504C170.18 749.758 169.107 750.831 169.107 752.154C169.107 753.478 170.18 754.55 171.504 754.55H208.243C209.566 754.55 210.639 753.478 210.639 752.154C210.639 750.831 209.566 749.758 208.243 749.758Z" fill="#A22529"/>
<g opacity="0.2">
<path d="M208.248 749.758H171.51C170.186 749.758 169.113 750.831 169.113 752.154C169.113 753.478 170.186 754.55 171.51 754.55H208.248C209.572 754.55 210.645 753.478 210.645 752.154C210.645 750.831 209.572 749.758 208.248 749.758Z" fill="#A22529"/>
</g>
<path d="M199.054 759.666H182.012C180.355 759.666 179.012 761.009 179.012 762.666V818.552C179.012 820.209 180.355 821.552 182.012 821.552H199.054C200.711 821.552 202.054 820.209 202.054 818.552V762.666C202.054 761.009 200.711 759.666 199.054 759.666Z" fill="#CA2E33"/>
<path d="M204.213 821.552H177.984C176.328 821.552 174.984 822.895 174.984 824.552V833.3C174.984 834.957 176.328 836.3 177.984 836.3H204.213C205.869 836.3 207.213 834.957 207.213 833.3V824.552C207.213 822.895 205.869 821.552 204.213 821.552Z" fill="#CA2E33"/>
<path d="M208.295 836.289H173.416C171.759 836.289 170.416 837.632 170.416 839.289V865.069C170.416 866.726 171.759 868.069 173.416 868.069H208.295C209.952 868.069 211.295 866.726 211.295 865.069V839.289C211.295 837.632 209.952 836.289 208.295 836.289Z" fill="#CA2E33"/>
<path d="M182.158 616.663H198.468" stroke="#A22529" stroke-width="3"/>
<path d="M176.938 696.74H204.338" stroke="#A22529" stroke-width="3"/>
<path d="M184.766 549.734H196.509" stroke="#A22529" stroke-width="3"/>
<path d="M184.766 446.949H195.204" stroke="#A22529"/>
<path d="M186.072 450.534H193.901" stroke="#A22529"/>
<path d="M182.158 821.636H198.468" stroke="#A22529" stroke-width="3"/>
<path d="M176.938 836.575H204.338" stroke="#A22529" stroke-width="3"/>
<path d="M201.578 754.108H178.873C177.216 754.108 175.873 755.452 175.873 757.108V758.279C175.873 759.936 177.216 761.279 178.873 761.279H201.578C203.235 761.279 204.578 759.936 204.578 758.279V757.108C204.578 755.452 203.235 754.108 201.578 754.108Z" fill="#A22529"/>
<path d="M223.521 860.372H157.758C156.101 860.372 154.758 861.715 154.758 863.372V868.129C154.758 869.785 156.101 871.129 157.758 871.129H223.521C225.178 871.129 226.521 869.785 226.521 868.129V863.372C226.521 861.715 225.178 860.372 223.521 860.372Z" fill="#A22529"/>
<path d="M-538.738 725.426V747.329C-538.738 748.434 -537.843 749.329 -536.738 749.329H432.024" stroke="#CA2E33" stroke-width="5"/>
<path d="M-486.106 709.999C-36.8259 717.339 1306.09 704.569 1376.25 722.762C1377.8 723.166 1377.64 724 1376.03 724C1239.79 724.016 -383.459 724.999 -455.139 724.999C-527.39 724.999 -527.39 710.731 -486.106 709.999Z" fill="#A22529"/>
<path d="M388.749 399.578C387.254 394.977 384.716 393.345 381.358 390.676C378 388.008 373.099 385.822 367.454 385.418C361.809 385.015 355.557 386.786 353.714 389.914C352.904 382.868 351.186 375.636 345.117 369.521C339.048 363.405 327.721 358.595 315.582 359.027C304.139 359.436 294.345 364.369 288.904 370.233C283.462 376.09 281.59 382.817 279.805 389.393C275.472 386.298 266.316 387.274 261.781 390.273C257.246 393.272 254.403 399.012 256.971 404.179C271.668 416.296 362.842 414.132 379.283 408.362C384.813 406.421 390.243 404.179 388.749 399.578Z" fill="#525252"/>
</g>
<defs>
<clipPath id="clip0_2605_22791">
<rect width="375" height="871" fill="white"/>
</clipPath>
</defs>
</svg>
