<svg width="970" height="557" viewBox="0 0 970 557" fill="none" xmlns="http://www.w3.org/2000/svg">
<g clip-path="url(#clip0_594_11401)">
<path fill-rule="evenodd" clip-rule="evenodd" d="M910.742 361.605C876.698 441.012 762.388 480.478 659.827 516.519C567.274 549.045 468.704 565.629 367.608 552.474C255.6 537.899 131.516 513.735 77.049 440.685C23.1807 368.439 50.4703 275.013 107.996 204.291C154.886 146.645 263.934 149.138 342.42 114.438C424.316 78.2308 474.339 -1.74403 570.005 0.0290036C676.898 2.01011 767.669 59.0533 828.349 123.444C894.403 193.538 945.567 280.376 910.742 361.605Z" fill="#484848"/>
<path d="M93.4993 358.499C-18.5002 222.499 128.183 81.2965 234.001 61.4996C458.501 19.4994 870.002 344.499 930.002 78.4992" stroke="#5C5C5C" stroke-width="7" stroke-linecap="round" stroke-dasharray="25 15"/>
<circle cx="929.57" cy="79.5702" r="16.5702" fill="#5C5C5C"/>
<path d="M954.263 33.554C954.263 50.0666 940.646 67.8319 933.661 75.8586C931.496 78.3471 927.767 78.3471 925.602 75.8586C918.617 67.8319 905 50.0666 905 33.554C905 25.981 907.595 18.7182 912.214 13.3633C916.834 8.00836 923.099 5 929.631 5C936.164 5 942.429 8.00836 947.048 13.3633C951.668 18.7182 954.263 25.981 954.263 33.554Z" fill="#AB8636"/>
<path d="M930.209 71.2807C935.137 71.7735 942.749 54.2655 946.78 44.4126C943.345 48.1454 937.821 55.6072 929.763 60.0846C922.793 63.9573 925.73 70.8328 930.209 71.2807Z" fill="#C9A454"/>
<path d="M930.079 43.5148C935.52 43.5148 939.932 38.9032 939.932 33.2144C939.932 27.5257 935.52 22.9141 930.079 22.9141C924.638 22.9141 920.227 27.5257 920.227 33.2144C920.227 38.9032 924.638 43.5148 930.079 43.5148Z" fill="#343434"/>
<path d="M850.697 394.104V472.969C850.697 475.731 848.459 477.969 845.697 477.969H840.688C837.926 477.969 835.688 475.731 835.688 472.969V456.777C835.688 454.016 833.449 451.777 830.688 451.777H112.126C109.365 451.777 107.126 449.539 107.126 446.777V394.104C107.126 391.342 109.365 389.104 112.126 389.104H845.697C848.459 389.104 850.697 391.342 850.697 394.104Z" fill="#161616"/>
<path d="M691.032 463.033C690.831 465.373 692.758 467.401 695.281 467.401H695.526H695.771H696.016H696.261H696.506H696.751H696.996H697.241H697.486H697.731H697.976H698.221H698.466H698.711H698.956H699.202H699.447H699.692H699.937H700.182H700.427H700.672H700.917H701.162H701.407H701.652H701.897H702.143H702.388H702.633H702.878H703.123H703.368H703.613H703.858H704.103H704.348H704.594H704.839H705.084H705.329H705.574H705.819H706.064H706.309H706.555H706.8H707.045H707.29H707.535H707.78H708.025H708.27H708.516H708.761H709.006H709.251H709.496H709.741H709.987H710.232H710.477H710.722H710.967H711.212H711.457H711.703H711.948H712.193H712.438H712.683H712.928H713.174H713.419H713.664H713.909H714.154H714.4H714.645H714.89H715.135H715.38H715.626H715.871H716.116H716.361H716.606H716.852H717.097H717.342H717.587H717.832H718.078H718.323H718.568H718.813H719.059H719.304H719.549H719.794H720.04H720.285H720.53H720.775H721.021H721.266H721.511H721.756H722.002H722.247H722.492H722.737H722.983H723.228H723.473H723.718H723.964H724.209H724.454H724.699H724.945H725.19H725.435H725.681H725.926H726.171H726.417H726.662H726.907H727.152H727.398H727.643H727.888H728.134H728.379H728.624H728.87H729.115H729.36H729.606H729.851H730.096H730.342H730.587H730.832H731.078H731.323H731.568H731.814H732.059H732.304H732.55H732.795H733.041H733.286H733.531H733.777H734.022H734.267H734.513H734.758H735.004H735.249H735.494H735.74H735.985H736.231H736.476H736.721H736.967H737.212H737.458H737.703H737.949H738.194H738.439H738.685H738.93H739.176H739.421H739.667H739.912H740.157H740.403H740.648H740.894H741.139H741.385H741.63H741.876H742.121H742.367H742.612H742.858H743.103H743.349H743.594H743.84H744.085H744.331H744.576H744.822H745.067H745.313H745.558H745.804H746.049H746.295H746.54H746.786H747.031H747.277H747.522H747.768H748.013H748.259H748.505H748.75H748.996H749.241H749.487H749.732H749.978H750.223H750.469H750.715H750.96H751.206H751.451H751.697H751.943H752.188H752.434H752.679H752.925H753.171H753.416H753.662H753.907H754.153H754.399H754.644H754.89H755.136H755.381H755.627H755.873H756.118H756.364H756.61H756.855H757.101H757.347H757.592H757.838H758.084H758.329H758.575H758.821H759.066H759.312H759.558H759.803H760.049H760.295H760.541H760.786H761.032H761.278H761.523H761.769H762.015H762.261H762.506H762.752H762.998H763.244H763.489H763.735H763.981H764.227H764.472H764.718H764.964H765.21H765.456H765.701H765.947H766.193H766.439H766.685H766.93H767.176H767.422H767.668H767.914H768.16H768.405H768.651H768.897H769.143H769.389H769.635H769.88H770.126H770.372H770.618H770.864H771.11H771.356H771.602H771.847H772.093H772.339H772.585H772.831H773.077H773.323H773.569H773.815H774.061H774.306H774.552H774.798H775.044H775.29H775.536H775.782H776.028H776.274H776.52H776.766H777.012H777.258H777.504H777.75H777.996H778.242H778.488H778.734H778.98H779.226H779.472H779.718H779.964H780.21H780.456H780.702H780.948H781.194H781.44H781.686H781.932H782.178H782.424H782.67H782.916H783.162H783.409H783.655H783.901H784.147H784.393H784.639H784.885H785.131H785.377H785.623H785.87H786.116H786.362H786.608H786.854H787.1H787.346H787.593H787.839H788.085H788.331H788.577H788.823H789.07H789.316H789.562H789.808H790.054H790.3H790.547H790.793H791.039H791.285H791.532H791.778H792.024H792.27H792.516H792.763H793.009H793.255H793.501H793.748H793.994H794.24H794.487H794.733H794.979H795.225H795.472H795.718H795.964H796.211H796.457H796.703H796.95H797.196H797.442H797.689H797.935H798.181H798.428H798.674H798.92H799.167H799.413H799.659H799.906H800.152H800.399H800.645H800.891H801.138H801.384H801.631H801.877H802.123H802.37H802.616H802.863H803.109H803.356H803.602H803.849H804.095H804.341H804.588H804.834H805.081H805.327H805.574H805.82H806.067H806.313H806.56H806.806H807.053H807.299H807.546H807.793H808.039H808.286H808.532H808.779H809.025H809.272H809.518H809.765H810.012H810.258H810.505H810.751H810.998H811.245H811.491H811.738H811.984H812.231H812.478H812.724H812.971H813.218H813.464H813.711H813.958H814.204H814.451H814.698H814.944H815.191H815.438H815.684H815.931H816.178H816.424H816.671H816.918H817.165H817.411H817.658H817.905H818.152H818.398H818.645H818.892H819.139H819.385H819.632H819.879H820.126H820.373H820.619H820.866H821.113C823.635 467.401 825.563 465.373 825.362 463.033C822.389 428.548 793.453 401.484 758.197 401.484C722.941 401.484 694.005 428.548 691.032 463.033Z" fill="#6D6D6D" stroke="#6D6D6D" stroke-width="3"/>
<path d="M540.495 463.033C540.293 465.373 542.221 467.401 544.743 467.401H544.988H545.234H545.479H545.724H545.969H546.214H546.459H546.704H546.949H547.194H547.439H547.684H547.929H548.174H548.419H548.664H548.91H549.155H549.4H549.645H549.89H550.135H550.38H550.625H550.87H551.115H551.36H551.605H551.851H552.096H552.341H552.586H552.831H553.076H553.321H553.566H553.811H554.056H554.302H554.547H554.792H555.037H555.282H555.527H555.772H556.017H556.263H556.508H556.753H556.998H557.243H557.488H557.733H557.979H558.224H558.469H558.714H558.959H559.204H559.449H559.695H559.94H560.185H560.43H560.675H560.92H561.166H561.411H561.656H561.901H562.146H562.391H562.637H562.882H563.127H563.372H563.617H563.862H564.108H564.353H564.598H564.843H565.088H565.334H565.579H565.824H566.069H566.314H566.56H566.805H567.05H567.295H567.541H567.786H568.031H568.276H568.521H568.767H569.012H569.257H569.502H569.748H569.993H570.238H570.483H570.729H570.974H571.219H571.464H571.71H571.955H572.2H572.445H572.691H572.936H573.181H573.427H573.672H573.917H574.162H574.408H574.653H574.898H575.144H575.389H575.634H575.879H576.125H576.37H576.615H576.861H577.106H577.351H577.597H577.842H578.087H578.333H578.578H578.823H579.069H579.314H579.559H579.805H580.05H580.295H580.541H580.786H581.031H581.277H581.522H581.767H582.013H582.258H582.503H582.749H582.994H583.24H583.485H583.73H583.976H584.221H584.467H584.712H584.957H585.203H585.448H585.694H585.939H586.184H586.43H586.675H586.921H587.166H587.411H587.657H587.902H588.148H588.393H588.639H588.884H589.129H589.375H589.62H589.866H590.111H590.357H590.602H590.848H591.093H591.339H591.584H591.83H592.075H592.32H592.566H592.811H593.057H593.302H593.548H593.793H594.039H594.284H594.53H594.775H595.021H595.266H595.512H595.758H596.003H596.249H596.494H596.74H596.985H597.231H597.476H597.722H597.967H598.213H598.459H598.704H598.95H599.195H599.441H599.686H599.932H600.177H600.423H600.669H600.914H601.16H601.405H601.651H601.897H602.142H602.388H602.633H602.879H603.125H603.37H603.616H603.862H604.107H604.353H604.599H604.844H605.09H605.335H605.581H605.827H606.072H606.318H606.564H606.809H607.055H607.301H607.546H607.792H608.038H608.284H608.529H608.775H609.021H609.266H609.512H609.758H610.003H610.249H610.495H610.741H610.986H611.232H611.478H611.724H611.969H612.215H612.461H612.707H612.952H613.198H613.444H613.69H613.935H614.181H614.427H614.673H614.919H615.164H615.41H615.656H615.902H616.147H616.393H616.639H616.885H617.131H617.377H617.622H617.868H618.114H618.36H618.606H618.852H619.097H619.343H619.589H619.835H620.081H620.327H620.573H620.819H621.064H621.31H621.556H621.802H622.048H622.294H622.54H622.786H623.032H623.278H623.523H623.769H624.015H624.261H624.507H624.753H624.999H625.245H625.491H625.737H625.983H626.229H626.475H626.721H626.967H627.213H627.459H627.705H627.951H628.197H628.443H628.689H628.935H629.181H629.427H629.673H629.919H630.165H630.411H630.657H630.903H631.149H631.395H631.641H631.887H632.133H632.379H632.625H632.871H633.118H633.364H633.61H633.856H634.102H634.348H634.594H634.84H635.086H635.332H635.579H635.825H636.071H636.317H636.563H636.809H637.055H637.302H637.548H637.794H638.04H638.286H638.532H638.779H639.025H639.271H639.517H639.763H640.01H640.256H640.502H640.748H640.994H641.241H641.487H641.733H641.979H642.226H642.472H642.718H642.964H643.211H643.457H643.703H643.949H644.196H644.442H644.688H644.935H645.181H645.427H645.674H645.92H646.166H646.412H646.659H646.905H647.151H647.398H647.644H647.891H648.137H648.383H648.63H648.876H649.122H649.369H649.615H649.861H650.108H650.354H650.601H650.847H651.093H651.34H651.586H651.833H652.079H652.326H652.572H652.819H653.065H653.311H653.558H653.804H654.051H654.297H654.544H654.79H655.037H655.283H655.53H655.776H656.023H656.269H656.516H656.762H657.009H657.255H657.502H657.748H657.995H658.242H658.488H658.735H658.981H659.228H659.474H659.721H659.968H660.214H660.461H660.707H660.954H661.201H661.447H661.694H661.941H662.187H662.434H662.68H662.927H663.174H663.42H663.667H663.914H664.16H664.407H664.654H664.901H665.147H665.394H665.641H665.887H666.134H666.381H666.628H666.874H667.121H667.368H667.615H667.861H668.108H668.355H668.602H668.848H669.095H669.342H669.589H669.836H670.082H670.329H670.576C673.098 467.401 675.026 465.373 674.824 463.033C671.852 428.548 642.916 401.484 607.66 401.484C572.404 401.484 543.468 428.548 540.495 463.033Z" fill="#6D6D6D" stroke="#6D6D6D" stroke-width="3"/>
<path d="M154.22 463.033C154.018 465.373 155.946 467.401 158.468 467.401H158.713H158.958H159.203H159.448H159.693H159.938H160.183H160.428H160.674H160.919H161.164H161.409H161.654H161.899H162.144H162.389H162.634H162.879H163.124H163.369H163.614H163.86H164.105H164.35H164.595H164.84H165.085H165.33H165.575H165.82H166.065H166.31H166.556H166.801H167.046H167.291H167.536H167.781H168.026H168.271H168.516H168.762H169.007H169.252H169.497H169.742H169.987H170.232H170.477H170.723H170.968H171.213H171.458H171.703H171.948H172.193H172.439H172.684H172.929H173.174H173.419H173.664H173.909H174.155H174.4H174.645H174.89H175.135H175.38H175.626H175.871H176.116H176.361H176.606H176.852H177.097H177.342H177.587H177.832H178.077H178.323H178.568H178.813H179.058H179.303H179.549H179.794H180.039H180.284H180.53H180.775H181.02H181.265H181.51H181.756H182.001H182.246H182.491H182.737H182.982H183.227H183.472H183.718H183.963H184.208H184.453H184.699H184.944H185.189H185.434H185.68H185.925H186.17H186.415H186.661H186.906H187.151H187.396H187.642H187.887H188.132H188.378H188.623H188.868H189.113H189.359H189.604H189.849H190.095H190.34H190.585H190.831H191.076H191.321H191.567H191.812H192.057H192.302H192.548H192.793H193.038H193.284H193.529H193.775H194.02H194.265H194.511H194.756H195.001H195.247H195.492H195.737H195.983H196.228H196.473H196.719H196.964H197.21H197.455H197.7H197.946H198.191H198.437H198.682H198.927H199.173H199.418H199.664H199.909H200.154H200.4H200.645H200.891H201.136H201.381H201.627H201.872H202.118H202.363H202.609H202.854H203.1H203.345H203.59H203.836H204.081H204.327H204.572H204.818H205.063H205.309H205.554H205.8H206.045H206.291H206.536H206.782H207.027H207.273H207.518H207.764H208.009H208.255H208.5H208.746H208.991H209.237H209.482H209.728H209.973H210.219H210.464H210.71H210.955H211.201H211.446H211.692H211.938H212.183H212.429H212.674H212.92H213.165H213.411H213.657H213.902H214.148H214.393H214.639H214.884H215.13H215.376H215.621H215.867H216.112H216.358H216.604H216.849H217.095H217.341H217.586H217.832H218.077H218.323H218.569H218.814H219.06H219.306H219.551H219.797H220.043H220.288H220.534H220.78H221.025H221.271H221.517H221.762H222.008H222.254H222.5H222.745H222.991H223.237H223.482H223.728H223.974H224.219H224.465H224.711H224.957H225.202H225.448H225.694H225.94H226.185H226.431H226.677H226.923H227.168H227.414H227.66H227.906H228.152H228.397H228.643H228.889H229.135H229.381H229.626H229.872H230.118H230.364H230.61H230.855H231.101H231.347H231.593H231.839H232.085H232.33H232.576H232.822H233.068H233.314H233.56H233.806H234.051H234.297H234.543H234.789H235.035H235.281H235.527H235.773H236.018H236.264H236.51H236.756H237.002H237.248H237.494H237.74H237.986H238.232H238.478H238.724H238.97H239.216H239.462H239.707H239.953H240.199H240.445H240.691H240.937H241.183H241.429H241.675H241.921H242.167H242.413H242.659H242.905H243.151H243.397H243.643H243.889H244.135H244.382H244.628H244.874H245.12H245.366H245.612H245.858H246.104H246.35H246.596H246.842H247.088H247.334H247.58H247.827H248.073H248.319H248.565H248.811H249.057H249.303H249.549H249.795H250.042H250.288H250.534H250.78H251.026H251.272H251.519H251.765H252.011H252.257H252.503H252.749H252.996H253.242H253.488H253.734H253.98H254.227H254.473H254.719H254.965H255.212H255.458H255.704H255.95H256.196H256.443H256.689H256.935H257.182H257.428H257.674H257.92H258.167H258.413H258.659H258.906H259.152H259.398H259.644H259.891H260.137H260.383H260.63H260.876H261.122H261.369H261.615H261.861H262.108H262.354H262.601H262.847H263.093H263.34H263.586H263.832H264.079H264.325H264.572H264.818H265.065H265.311H265.557H265.804H266.05H266.297H266.543H266.79H267.036H267.282H267.529H267.775H268.022H268.268H268.515H268.761H269.008H269.254H269.501H269.747H269.994H270.24H270.487H270.733H270.98H271.227H271.473H271.72H271.966H272.213H272.459H272.706H272.952H273.199H273.446H273.692H273.939H274.185H274.432H274.679H274.925H275.172H275.419H275.665H275.912H276.158H276.405H276.652H276.898H277.145H277.392H277.638H277.885H278.132H278.378H278.625H278.872H279.119H279.365H279.612H279.859H280.105H280.352H280.599H280.846H281.092H281.339H281.586H281.833H282.079H282.326H282.573H282.82H283.067H283.313H283.56H283.807H284.054H284.301C286.823 467.401 288.751 465.373 288.549 463.033C285.576 428.548 256.64 401.484 221.384 401.484C186.129 401.484 157.192 428.548 154.22 463.033Z" fill="#6D6D6D" stroke="#6D6D6D" stroke-width="3"/>
<path d="M863.199 432.629H849.063C847.959 432.629 847.063 433.524 847.063 434.629V465.087C847.063 466.192 847.959 467.087 849.063 467.087H863.199C864.304 467.087 865.199 466.192 865.199 465.087V434.629C865.199 433.524 864.304 432.629 863.199 432.629Z" fill="#CA2E33"/>
<path d="M861.375 436.256H852.68C851.575 436.256 850.68 437.151 850.68 438.256V457.833C850.68 458.937 851.575 459.833 852.68 459.833H861.375C862.48 459.833 863.375 458.937 863.375 457.833V438.256C863.375 437.151 862.48 436.256 861.375 436.256Z" fill="#E84C51"/>
<circle cx="58.0348" cy="58.0348" r="56.5348" transform="matrix(-1 0 0 1 816.232 410.865)" fill="#131313" stroke="#131313" stroke-width="3"/>
<circle cx="41.7125" cy="41.7125" r="40.2125" transform="matrix(-1 0 0 1 799.914 427.188)" fill="#C9C9C9" stroke="#C9C9C9" stroke-width="3"/>
<circle cx="29.0174" cy="29.0174" r="27.5174" transform="matrix(-1 0 0 1 787.219 439.883)" fill="#131313" stroke="#131313" stroke-width="3"/>
<circle cx="18.1359" cy="18.1359" r="16.6359" transform="matrix(-1 0 0 1 776.34 450.764)" fill="#EBEBEB" stroke="white" stroke-width="3"/>
<circle cx="58.0348" cy="58.0348" r="56.5348" transform="matrix(-1 0 0 1 665.697 410.865)" fill="#131313" stroke="#131313" stroke-width="3"/>
<circle cx="41.7125" cy="41.7125" r="40.2125" transform="matrix(-1 0 0 1 649.379 427.188)" fill="#C9C9C9" stroke="#C9C9C9" stroke-width="3"/>
<circle cx="29.0174" cy="29.0174" r="27.5174" transform="matrix(-1 0 0 1 636.684 439.881)" fill="#131313" stroke="#131313" stroke-width="3"/>
<circle cx="18.1359" cy="18.1359" r="16.6359" transform="matrix(-1 0 0 1 625.805 450.764)" fill="#EBEBEB" stroke="white" stroke-width="3"/>
<circle cx="58.0348" cy="58.0348" r="56.5348" transform="matrix(-1 0 0 1 279.418 410.865)" fill="#131313" stroke="#131313" stroke-width="3"/>
<circle cx="41.7125" cy="41.7125" r="40.2125" transform="matrix(-1 0 0 1 263.1 427.186)" fill="#C9C9C9" stroke="#C9C9C9" stroke-width="3"/>
<circle cx="29.0174" cy="29.0174" r="27.5174" transform="matrix(-1 0 0 1 250.404 439.881)" fill="#131313" stroke="#131313" stroke-width="3"/>
<circle cx="18.1359" cy="18.1359" r="16.6359" transform="matrix(-1 0 0 1 239.525 450.764)" fill="#EBEBEB" stroke="white" stroke-width="3"/>
<rect width="141.46" height="56.2212" rx="5" transform="matrix(-1 0 0 1 478.906 410.865)" fill="#6D6D6D"/>
<rect width="141.46" height="19.9495" transform="matrix(-1 0 0 1 478.906 427.186)" fill="#AB8636"/>
<path d="M477.097 429.13V429C477.097 429 477.101 429.045 477.097 429.13V441.633C477.097 446.281 468.595 445.217 449.641 445.217H364.656C364.656 445.217 424.643 444.808 449.641 441.633C475.808 438.308 477.052 430.249 477.097 429.13Z" fill="#8D6818"/>
<path d="M339.254 445.194L339.254 445.324C339.254 445.324 339.251 445.279 339.254 445.194L339.254 432.692C339.254 428.043 347.757 429.107 366.711 429.107L451.695 429.107C451.695 429.107 391.709 429.516 366.711 432.692C340.544 436.016 339.3 444.075 339.254 445.194Z" fill="#8D6818"/>
<path d="M393.674 414.492V463.459" stroke="#131313" stroke-width="4" stroke-linecap="square" stroke-linejoin="round"/>
<path d="M364.656 414.492V463.459" stroke="#131313" stroke-width="4" stroke-linecap="square" stroke-linejoin="round"/>
<path d="M106.211 432.63V423.562V382.756L273.968 386.383H293.011H822.579H837.994C837.994 394.363 822.881 395.753 815.324 395.451C648.776 396.358 313.686 397.99 305.706 397.265C297.726 396.539 293.313 391.824 292.104 389.103H277.595C276.689 392.731 272.155 394.544 254.019 394.544C199.611 387.29 176.034 404.519 168.78 418.121C162.977 429.002 153.062 432.327 148.831 432.63H106.211Z" fill="#636363"/>
<path d="M161.232 418.769C176.649 397.806 199.585 390.774 212.616 388.32C226.085 385.784 241.478 386.508 248.213 386.508C258.786 386.508 273.501 387.403 281.316 387.935C284.223 388.133 286.693 385.862 286.694 382.949C286.696 336.778 286.695 239.549 286.695 234.326C286.694 229.797 285.734 226.174 280.922 226.174C252.06 227.986 187.987 232.152 174.133 234.326C160.279 236.5 149.761 244.291 146.233 247.914C143.813 250.4 98.5145 309.874 92.3573 329.44C86.5797 347.8 89.3859 392.586 91.8735 416.5C92.1364 419.027 94.2735 420.931 96.8142 420.931H157.06C158.716 420.931 160.25 420.103 161.232 418.769Z" fill="#DF4043"/>
<path d="M232.974 304.616C249.525 298.081 248.144 290.356 248.568 285.009V252.032C248.568 244.189 241.557 241.931 238.492 242.228C219.796 243.714 180.093 247.754 172.001 248.467C161.555 249.388 152.184 254.706 147.538 262.727C147.538 262.727 102.965 330.463 114.437 334.028C117.084 334.919 136.871 334.919 152.981 334.028C169.092 333.136 213.114 312.459 232.974 304.616Z" fill="#F58C8E" stroke="#9A282A" stroke-linecap="round" stroke-linejoin="round"/>
<path d="M161.573 307.492L167.127 249.457L164.35 251.271C160.956 276.056 154.254 324.358 154.254 333.789C163.321 331.069 213.267 312.63 239.492 301.144C216.661 303.865 173.606 311.119 168.978 312.026C165.236 312.759 161.573 311.119 161.573 307.492Z" fill="#901E20" stroke="#9A282A" stroke-linecap="round" stroke-linejoin="round"/>
<path d="M276.758 215.244V224.909L164.971 235.614L164.475 225.192L276.758 215.244Z" fill="#9A282A" stroke="#9A282A" stroke-width="3" stroke-linecap="round" stroke-linejoin="round"/>
<path d="M157.902 229.226L167.228 227.929L278.766 212.423C282.456 211.91 285.119 208.599 285.019 204.876C284.752 194.863 285.049 181.072 284.576 175.593C283.984 168.74 276.424 166.756 272.635 167.403C215.708 178.456 156.916 217.804 157.902 229.226Z" fill="#DF4043"/>
<path d="M92.7748 403.46L86.0645 403.692C84.9606 403.73 84.0347 402.866 83.9965 401.763L83.0683 374.948C83.0301 373.844 83.894 372.918 84.9979 372.88L91.7082 372.647C92.8121 372.609 93.738 373.473 93.7762 374.577L94.7045 401.392C94.7427 402.496 93.8787 403.422 92.7748 403.46Z" fill="#E1D6A4"/>
<path d="M90.6973 398.063L87.7853 398.164C86.6814 398.202 85.7555 397.338 85.7173 396.234L85.1674 380.349C85.1292 379.245 85.9932 378.32 87.0971 378.281L90.009 378.181C91.1129 378.142 92.0388 379.006 92.077 380.11L92.6269 395.995C92.6651 397.099 91.8012 398.025 90.6973 398.063Z" fill="#F5EAB8"/>
<path d="M164.079 242.789C175.903 239.892 233.118 235.266 236.848 234.966C236.98 234.956 237.109 234.951 237.242 234.952C254.279 235.043 257.928 246.586 257.617 252.369V315.072V372.776C257.617 375.537 255.38 377.776 252.618 377.776H213.654C182.038 377.776 161.965 395.433 153.437 408.403C152.452 409.9 150.813 410.869 149.021 410.869H106.353C104.116 410.869 102.143 409.387 101.739 407.187C99.2391 393.549 99.3144 366.511 100.138 349.207C100.397 343.766 100.572 332.885 106.038 321.133C120.504 290.037 131.739 274.235 139.76 261.948C144.623 254.498 151.856 245.784 164.079 242.789Z" stroke="#901E20" stroke-linecap="round" stroke-linejoin="round"/>
<rect width="34.4582" height="14.5087" rx="3.5" transform="matrix(-1 0 0 1 246.75 338.324)" fill="#131313"/>
<rect width="34.4582" height="12.6951" rx="3.5" transform="matrix(-1 0 0 1 246.75 336.51)" fill="#4F4F4F"/>
<rect width="19.9495" height="45.3397" rx="5.5" transform="matrix(-1 0 0 1 145.195 269.406)" fill="#131313"/>
<path d="M132.488 294.797C121.38 294.797 119.793 300.159 119.793 305.554C119.793 310.948 119.793 333.275 119.793 343.764" stroke="#4F4F4F" stroke-width="2" stroke-linecap="round" stroke-linejoin="round"/>
<rect width="14.5087" height="16.3223" rx="2" transform="matrix(-1 0 0 1 127.055 338.32)" fill="#131313"/>
<rect width="546.511" height="255.37" rx="10" transform="matrix(-1 0 0 1 842.137 135.75)" fill="#AB8636"/>
<path d="M310.239 187.424V185.982C310.239 185.982 310.224 186.482 310.239 187.424V326.344C310.239 378.223 310.239 366.177 433.351 366.177H814.41C814.41 366.177 545.438 361.629 433.351 326.344C316.022 289.409 310.443 199.859 310.239 187.424Z" fill="#C9A454"/>
<mask id="mask0_594_11401" style="mask-type:luminance" maskUnits="userSpaceOnUse" x="106" y="387" width="45" height="19">
<path d="M131.886 405.424L134.89 394.213H148.407L147.288 398.39H137.567L139.038 399.241L137.382 405.424H131.886ZM106.832 405.424L111.691 387.291H150.265L149.146 391.468H133.649V388.19L132.769 391.465L129.03 405.424H123.535L127.277 391.468H122.723L124.194 392.319L120.682 405.427H115.183L118.923 391.468H114.368L115.839 392.319L112.327 405.427H106.832V405.424Z" fill="white"/>
</mask>
<g mask="url(#mask0_594_11401)">
<path d="M150.265 387.291H106.832V405.424H150.265V387.291Z" fill="#020202"/>
</g>
<path d="M181.157 225.821C149.251 218.346 258.877 170.633 258.877 170.633C221.646 176.325 167.605 205.199 155.207 221.766C150.575 227.956 154.038 230.033 156.757 229.975C159.477 229.916 171.224 227.849 181.157 225.821Z" fill="#CB2C2F"/>
<path d="M141.574 285.731C142.48 276.663 139.76 273.943 137.947 273.036C135.226 271.676 130.693 273.943 135.226 275.756C139.76 277.57 139.76 280.29 141.574 285.731Z" fill="#A9A9A9"/>
<rect x="444" y="94.4297" width="331.697" height="450.571" rx="20" fill="#DF4043"/>
<rect x="466.055" y="129.834" width="287.598" height="390.175" rx="20" fill="#F5EAB8"/>
<path d="M753.248 499.643V285.029C594.696 299.928 523.584 447.911 507.848 520.04H730.811C751.752 520.04 754.494 506.442 753.248 499.643Z" fill="#F5F4C2"/>
<rect x="686.99" y="329.371" width="39.9075" height="27.4919" rx="8" fill="#D7CC9A"/>
<rect x="686.99" y="387.016" width="39.9075" height="27.4919" rx="8" fill="#D7CC9A"/>
<rect x="686.99" y="446.434" width="39.9075" height="27.4919" rx="8" fill="#D7CC9A"/>
<rect x="494.062" y="335.738" width="176.608" height="9.06901" rx="4.53451" fill="#343434"/>
<rect x="494.062" y="393.176" width="176.608" height="9.06901" rx="4.53451" fill="#343434"/>
<rect x="494.062" y="452.627" width="176.608" height="9.06901" rx="4.53451" fill="#343434"/>
<path d="M697.207 334.226L706.037 347.326L733.509 319.615" stroke="#CA2E33" stroke-width="7" stroke-linecap="round" stroke-linejoin="round"/>
<path d="M697.207 391.664L706.037 404.763L733.509 377.053" stroke="#CA2E33" stroke-width="7" stroke-linecap="round" stroke-linejoin="round"/>
<path d="M697.207 451.117L706.037 464.216L733.509 436.506" stroke="#CA2E33" stroke-width="7" stroke-linecap="round" stroke-linejoin="round"/>
<rect x="576.141" y="58" width="67.3994" height="36.3602" rx="14" fill="#720002"/>
<rect x="516.719" y="79.0898" width="185.98" height="31.6358" rx="14" fill="#A43234"/>
<rect x="521.156" y="79.2832" width="177.367" height="15.0762" rx="7.53809" fill="#861416"/>
<rect x="496.324" y="166.193" width="176.394" height="121.75" rx="16" fill="#CDC290"/>
<path d="M496.392 179.08L496.392 275.273C585.156 266.52 624.967 208.571 633.777 166.193L511.58 166.193C499.857 166.193 495.694 175.085 496.392 179.08Z" fill="#E1D6A4"/>
<mask id="mask1_594_11401" style="mask-type:luminance" maskUnits="userSpaceOnUse" x="517" y="198" width="136" height="57">
<path d="M595.547 254.525L604.89 219.651H646.938L643.456 232.645H613.218L617.795 235.292L612.641 254.525H595.547ZM517.609 254.525L532.723 198.119H652.719L649.237 211.114H601.029V200.915L598.293 211.104L586.662 254.525H569.568L581.209 211.114H567.041L571.618 213.76L560.693 254.535H543.589L555.22 211.114H541.051L545.628 213.76L534.703 254.535H517.609V254.525Z" fill="white"/>
</mask>
<g mask="url(#mask1_594_11401)">
<path d="M517.607 198.119H652.717V254.525H517.607V198.119Z" fill="#343434"/>
</g>
<path d="M577.023 79.2832L642.649 79.2832" stroke="#5E0000" stroke-width="3" stroke-linecap="round"/>
</g>
<defs>
<clipPath id="clip0_594_11401">
<rect width="970" height="557" fill="white"/>
</clipPath>
</defs>
</svg>
