<svg width="970" height="557" viewBox="0 0 970 557" fill="none" xmlns="http://www.w3.org/2000/svg">
<g clip-path="url(#clip0_594_11945)">
<path fill-rule="evenodd" clip-rule="evenodd" d="M943.237 189.768C923.047 102.196 757.168 82.6938 643.331 44.25C558.336 15.5464 473.107 -2.97361 378.846 -0.831959C266.502 1.72046 130.563 -6.86042 65.2436 57.3842C0.0453263 121.51 60.1096 208.036 89.0891 284.159C113.754 348.946 147.182 409.773 216.855 455.632C298.107 509.113 394.118 570.445 503.858 557.164C613.07 543.947 652.751 453.853 724.026 394.255C805.252 326.337 963.424 277.325 943.237 189.768Z" fill="#2A2A2A"/>
<rect x="422.41" y="201" width="21.7573" height="356.046" rx="10.8787" fill="#525252"/>
<rect x="99.3125" y="201" width="21.7573" height="356.046" rx="10.8787" fill="#525252"/>
<rect width="10.8787" height="93.7396" transform="translate(104.75 210.867)" fill="#525252"/>
<circle cx="109.75" cy="215.867" r="5" fill="#A0A0A0"/>
<circle cx="109.75" cy="241.867" r="5" fill="#A0A0A0"/>
<circle cx="109.75" cy="267.867" r="5" fill="#A0A0A0"/>
<circle cx="109.75" cy="293.867" r="5" fill="#A0A0A0"/>
<circle cx="109.75" cy="319.867" r="5" fill="#A0A0A0"/>
<rect width="10.8787" height="93.7396" transform="translate(104.75 453.439)" fill="#525252"/>
<circle cx="109.75" cy="458.439" r="5" fill="#A0A0A0"/>
<circle cx="109.75" cy="484.439" r="5" fill="#A0A0A0"/>
<circle cx="109.75" cy="510.439" r="5" fill="#A0A0A0"/>
<circle cx="109.75" cy="536.439" r="5" fill="#A0A0A0"/>
<rect width="10.8787" height="93.7396" transform="translate(427.848 210.867)" fill="#525252"/>
<circle cx="432.848" cy="215.867" r="5" fill="#A0A0A0"/>
<circle cx="432.848" cy="241.867" r="5" fill="#A0A0A0"/>
<circle cx="432.848" cy="267.867" r="5" fill="#A0A0A0"/>
<circle cx="432.848" cy="293.867" r="5" fill="#A0A0A0"/>
<circle cx="432.848" cy="319.867" r="5" fill="#A0A0A0"/>
<rect width="10.8787" height="93.7396" transform="translate(427.848 453.439)" fill="#525252"/>
<circle cx="432.848" cy="458.439" r="5" fill="#A0A0A0"/>
<circle cx="432.848" cy="484.439" r="5" fill="#A0A0A0"/>
<circle cx="432.848" cy="510.439" r="5" fill="#A0A0A0"/>
<circle cx="432.848" cy="536.439" r="5" fill="#A0A0A0"/>
<path d="M426.762 492L426.762 504.334L101.762 504.334L101.762 492L426.762 492Z" fill="#525252"/>
<path d="M427 368L427 383L102 383L102 368L427 368Z" fill="#525252"/>
<rect x="288.453" y="303.758" width="123.741" height="63.3917" rx="10" fill="#F5EAB8"/>
<rect x="281.941" y="292" width="136.767" height="20.4489" rx="10" fill="#AB8636"/>
<rect x="332.645" y="327.273" width="33.4939" height="10.7357" rx="5.36785" fill="#AB8636"/>
<path d="M396.616 362.804H344.281C390.801 361.372 404.989 352.068 408.711 333.664C408.633 339.628 408.711 351.046 408.711 355.902C408.711 361.27 404.524 362.804 396.616 362.804Z" fill="#D7CC9A"/>
<rect x="135.98" y="261.963" width="135.976" height="106.217" rx="5" fill="#F5EAB8"/>
<rect x="129" y="245" width="149.941" height="21.4049" rx="10.7025" fill="#AB8636"/>
<path d="M249.539 245H268.237C274.148 245 278.939 249.792 278.939 255.702C278.939 261.613 274.148 266.405 268.237 266.405H249.539V245Z" fill="#8D6818"/>
<path d="M244.023 266.404H271.954V363.179C271.954 365.94 269.715 368.179 266.954 368.179H244.023V266.404Z" fill="#D7CC9A"/>
<rect x="183.037" y="405.881" width="179.578" height="88.4877" rx="5" fill="#EBE0AE"/>
<path d="M323.289 451.339H326.373L322.054 467.421H325.001L329.32 451.339H332.4L333.122 448.659H324.011L323.289 451.339ZM317.742 451.339C318.787 451.339 319.083 451.928 318.726 453.269L318.229 455.118C317.827 456.619 317.027 457.102 315.928 457.102H314.774L316.323 451.339H317.742ZM318.218 467.421C318.11 466.724 318.263 466.053 318.508 465.144L319.284 462.25C319.808 460.292 319.709 458.873 318.399 458.257C319.876 457.64 320.832 456.381 321.35 454.45L321.744 452.976C322.52 450.082 321.591 448.659 318.535 448.659H314.087L309.047 467.425H311.994L314.046 459.785H315.064C316.405 459.785 316.82 460.429 316.353 462.172L315.561 465.12C315.149 466.649 315.179 466.941 315.21 467.425H318.212L318.218 467.421ZM299.412 462.917C298.605 465.92 299.725 467.636 302.621 467.636C305.517 467.636 307.556 465.92 308.362 462.917L310.983 453.16C311.79 450.157 310.67 448.441 307.774 448.441C304.877 448.441 302.839 450.157 302.032 453.16L299.412 462.917ZM305.031 452.973C305.391 451.631 306.116 451.124 307.056 451.124C307.995 451.124 308.448 451.635 308.087 452.973L305.364 463.105C305.003 464.446 304.279 464.953 303.339 464.953C302.4 464.953 301.947 464.443 302.308 463.105L305.031 452.973ZM296.492 451.339H301.341L302.063 448.659H294.266L289.226 467.425H292.173L294.252 459.676H298.057L298.779 456.997H294.974L296.492 451.342V451.339ZM284.131 467.421H287.078L292.122 448.659H289.175L284.134 467.425L284.131 467.421ZM281.538 451.339H286.629L287.35 448.659H279.312L274.271 467.425H282.31L283.032 464.746H277.94L279.417 459.251H283.464L284.185 456.571H280.139L281.544 451.345L281.538 451.339ZM268.887 448.659H264.786L259.746 467.425H262.319L265.882 454.154L264.514 467.425H267.301L272.954 453.967L269.34 467.425H272.127L277.168 448.659H273.067L267.478 461.981L268.887 448.659Z" fill="#343434"/>
<mask id="mask0_594_11945" style="mask-type:luminance" maskUnits="userSpaceOnUse" x="214" y="448" width="47" height="20">
<path d="M240.687 467.691L243.883 455.758H258.266L257.074 460.204H246.732L248.297 461.11L246.534 467.691H240.687ZM214.029 467.691L219.199 448.391H260.243L259.052 452.837H242.563V449.347L241.627 452.833L237.648 467.691H231.801L235.783 452.837H230.937L232.503 453.742L228.766 467.694H222.915L226.894 452.837H222.048L223.613 453.742L219.876 467.694H214.029V467.691Z" fill="white"/>
</mask>
<g mask="url(#mask0_594_11945)">
<path d="M260.243 448.391H214.029V467.691H260.243V448.391Z" fill="#343434"/>
</g>
<path d="M216.636 409.216H336.945C270.489 410.739 232.734 417.47 211.62 429.911C206.811 432.744 188.831 426.617 188.831 421.036C188.831 411.843 198.455 409.216 216.636 409.216Z" fill="#F5EAB8"/>
<path d="M183.987 406.298L193.095 394.021C194.038 392.75 195.527 392 197.11 392H347.893C349.434 392 350.889 392.71 351.836 393.925L361.44 406.241C362.977 408.211 361.573 411.086 359.075 411.086H186.396C183.931 411.086 182.518 408.278 183.987 406.298Z" fill="#C3B886"/>
<path d="M284.538 404.297L286.69 398.682C287.431 396.748 289.287 395.471 291.359 395.471H350.349C352.39 395.471 354.225 396.71 354.987 398.603L357.249 404.218C358.572 407.504 356.153 411.086 352.611 411.086H289.207C285.701 411.086 283.284 407.571 284.538 404.297Z" fill="#AFA472"/>
<path d="M198.464 409.107L239.59 409.82C216.8 409.213 206.594 408.768 201.424 405.567C197.95 403.416 191.733 402.169 189.588 405.646C187.669 408.758 192.159 409.107 198.464 409.107Z" fill="#D7CC9A"/>
<path d="M254.973 411.424L261.923 392H286.357L290.059 411.424H254.973Z" fill="#CA2E33"/>
<path d="M272.023 405.101L274.172 395.867C274.699 393.602 276.717 392 279.042 392H282.21C284.614 392 286.678 393.711 287.123 396.074L288.864 405.308C289.444 408.387 287.083 411.234 283.951 411.234H276.893C273.674 411.234 271.293 408.237 272.023 405.101Z" fill="#C02429"/>
<path d="M254.732 411.234H289.979V429.209C289.979 431.97 287.74 434.209 284.979 434.209H259.732C256.971 434.209 254.732 431.97 254.732 429.209V411.234Z" fill="#E84C51"/>
<path d="M270.658 411.086H289.744V428.642C289.744 431.403 287.505 433.642 284.744 433.642H275.658C272.897 433.642 270.658 431.403 270.658 428.642V411.086Z" fill="#DE4247"/>
<path d="M326.31 488.206H206C272.456 486.683 310.211 479.952 331.325 467.511C336.134 464.678 354.115 470.805 354.115 476.386C354.115 485.579 344.49 488.206 326.31 488.206Z" fill="#CDC290" fill-opacity="0.5"/>
<rect x="537.246" y="35" width="22.8749" height="511" rx="11.4375" fill="#525252"/>
<rect x="876.936" y="35" width="22.8749" height="511" rx="11.4375" fill="#525252"/>
<path d="M881.508 119.891L881.508 132.374L555.546 132.374L555.546 119.891L881.508 119.891Z" fill="#525252"/>
<path d="M881.508 367.898L881.508 380.382L555.546 380.382L555.546 367.898L881.508 367.898Z" fill="#525252"/>
<path d="M881.508 243.895L881.508 256.378L555.546 256.378L555.546 243.895L881.508 243.895Z" fill="#525252"/>
<path d="M881.508 491.902L881.508 504.386L555.546 504.386L555.546 491.902L881.508 491.902Z" fill="#525252"/>
<rect width="11.4376" height="94.8762" transform="translate(542.963 44.9883)" fill="#525252"/>
<circle cx="547.963" cy="49.9883" r="5" fill="#A0A0A0"/>
<circle cx="547.963" cy="75.9883" r="5" fill="#A0A0A0"/>
<circle cx="547.963" cy="101.988" r="5" fill="#A0A0A0"/>
<circle cx="547.963" cy="127.988" r="5" fill="#A0A0A0"/>
<circle cx="547.963" cy="153.988" r="5" fill="#A0A0A0"/>
<rect width="11.4376" height="94.8762" transform="translate(542.963 441.137)" fill="#525252"/>
<circle cx="547.963" cy="446.137" r="5" fill="#A0A0A0"/>
<circle cx="547.963" cy="472.137" r="5" fill="#A0A0A0"/>
<circle cx="547.963" cy="498.137" r="5" fill="#A0A0A0"/>
<circle cx="547.963" cy="524.137" r="5" fill="#A0A0A0"/>
<circle cx="547.963" cy="550.137" r="5" fill="#A0A0A0"/>
<rect width="11.4376" height="94.8762" transform="translate(882.648 44.9883)" fill="#525252"/>
<circle cx="887.648" cy="49.9883" r="5" fill="#A0A0A0"/>
<circle cx="887.648" cy="75.9883" r="5" fill="#A0A0A0"/>
<circle cx="887.648" cy="101.988" r="5" fill="#A0A0A0"/>
<circle cx="887.648" cy="127.988" r="5" fill="#A0A0A0"/>
<circle cx="887.648" cy="153.988" r="5" fill="#A0A0A0"/>
<rect width="11.4376" height="94.8762" transform="translate(882.648 441.137)" fill="#525252"/>
<circle cx="887.648" cy="446.137" r="5" fill="#A0A0A0"/>
<circle cx="887.648" cy="472.137" r="5" fill="#A0A0A0"/>
<circle cx="887.648" cy="498.137" r="5" fill="#A0A0A0"/>
<circle cx="887.648" cy="524.137" r="5" fill="#A0A0A0"/>
<circle cx="887.648" cy="550.137" r="5" fill="#A0A0A0"/>
<rect x="580.695" y="176.439" width="130.907" height="67.0624" rx="10" fill="#F5EAB8"/>
<rect x="573.809" y="164" width="144.686" height="21.633" rx="10" fill="#AB8636"/>
<rect x="627.449" y="201.316" width="35.4333" height="11.3573" rx="5.67867" fill="#AB8636"/>
<path d="M695.122 238.905H639.758C688.971 237.391 703.981 227.548 707.918 208.078C707.836 214.388 707.918 226.466 707.918 231.604C707.918 237.283 703.489 238.905 695.122 238.905Z" fill="#D7CC9A"/>
<rect x="738.656" y="154.209" width="113.898" height="88.971" rx="5" fill="#F5EAB8"/>
<path d="M812.674 221.014H814.49L811.946 230.489H813.682L816.227 221.014H818.041L818.467 219.435H813.099L812.674 221.014ZM809.405 221.014C810.021 221.014 810.195 221.361 809.985 222.151L809.692 223.24C809.456 224.125 808.984 224.409 808.337 224.409H807.657L808.569 221.014H809.405ZM809.686 230.489C809.622 230.078 809.712 229.683 809.857 229.147L810.314 227.442C810.623 226.289 810.564 225.452 809.792 225.089C810.663 224.726 811.226 223.984 811.531 222.847L811.763 221.978C812.221 220.273 811.673 219.435 809.873 219.435H807.252L804.282 230.491H806.019L807.228 225.99H807.827C808.617 225.99 808.862 226.369 808.587 227.396L808.12 229.133C807.878 230.034 807.896 230.206 807.914 230.491H809.682L809.686 230.489ZM798.606 227.835C798.131 229.604 798.79 230.615 800.497 230.615C802.203 230.615 803.404 229.604 803.879 227.835L805.423 222.087C805.899 220.318 805.239 219.307 803.532 219.307C801.826 219.307 800.625 220.318 800.15 222.087L798.606 227.835ZM801.916 221.976C802.129 221.186 802.556 220.887 803.109 220.887C803.663 220.887 803.93 221.188 803.717 221.976L802.113 227.946C801.9 228.736 801.473 229.035 800.92 229.035C800.366 229.035 800.1 228.734 800.312 227.946L801.916 221.976ZM796.886 221.014H799.743L800.168 219.435H795.574L792.605 230.491H794.341L795.566 225.926H797.808L798.233 224.347H795.991L796.886 221.016V221.014ZM789.603 230.489H791.339L794.311 219.435H792.575L789.605 230.491L789.603 230.489ZM788.075 221.014H791.075L791.5 219.435H786.764L783.794 230.491H788.53L788.955 228.912H785.956L786.826 225.675H789.21L789.635 224.097H787.251L788.079 221.018L788.075 221.014ZM780.622 219.435H778.206L775.236 230.491H776.752L778.852 222.672L778.045 230.491H779.688L783.018 222.562L780.889 230.491H782.531L785.501 219.435H783.084L779.792 227.284L780.622 219.435Z" fill="#343434"/>
<mask id="mask1_594_11945" style="mask-type:luminance" maskUnits="userSpaceOnUse" x="748" y="219" width="28" height="12">
<path d="M764.013 230.648L765.895 223.618H774.369L773.667 226.237H767.574L768.496 226.771L767.457 230.648H764.013ZM748.307 230.648L751.352 219.277H775.534L774.832 221.897H765.118V219.841L764.566 221.895L762.222 230.648H758.777L761.123 221.897H758.268L759.19 222.43L756.989 230.65H753.542L755.886 221.897H753.031L753.953 222.43L751.751 230.65H748.307V230.648Z" fill="white"/>
</mask>
<g mask="url(#mask1_594_11945)">
<path d="M775.534 219.277H748.307V230.648H775.534V219.277Z" fill="#343434"/>
</g>
<rect x="732.809" y="140" width="125.596" height="17.9295" rx="8.96476" fill="#AB8636"/>
<path d="M833.775 140H849.437C854.388 140 858.402 144.014 858.402 148.965C858.402 153.916 854.388 157.93 849.437 157.93H833.775V140Z" fill="#8D6818"/>
<path d="M829.156 157.93H852.552V238.179C852.552 240.941 850.313 243.179 847.552 243.179H829.156V157.93Z" fill="#D7CC9A"/>
<rect x="565.992" y="28.2656" width="120.378" height="89.3318" rx="5" fill="#F5EAB8"/>
<rect x="559.809" y="14" width="132.741" height="18.0022" rx="9.00111" fill="#AB8636"/>
<path d="M666.516 14H683.541C688.512 14 692.542 18.0299 692.542 23.0011C692.542 27.9723 688.512 32.0022 683.541 32.0022H666.516V14Z" fill="#8D6818"/>
<path d="M661.633 32.002H686.358V112.597C686.358 115.359 684.12 117.597 681.358 117.597H661.633V32.002Z" fill="#D7CC9A"/>
<rect x="616.77" y="283.338" width="204.656" height="85.0302" rx="5" fill="#EBE0AE"/>
<path d="M655.065 286.543H792.176C711.344 288.105 667.771 295.367 644.746 308.916C639.78 311.839 623.4 306.108 623.381 300.346C623.378 299.451 623.377 298.631 623.377 297.901C623.377 289.067 634.346 286.543 655.065 286.543Z" fill="#F5EAB8"/>
<path d="M618.191 283.358L628.451 271.697C629.4 270.618 630.768 270 632.205 270H805.248C806.642 270 807.972 270.582 808.919 271.605L819.738 283.303C821.515 285.224 820.152 288.34 817.536 288.34H620.444C617.862 288.34 616.486 285.296 618.191 283.358Z" fill="#C3B886"/>
<path d="M732.696 281.271L734.97 276.266C735.781 274.48 737.561 273.334 739.522 273.334H808.145C810.072 273.334 811.827 274.441 812.657 276.179L815.048 281.184C816.633 284.503 814.214 288.339 810.536 288.339H737.248C733.612 288.339 731.192 284.581 732.696 281.271Z" fill="#AFA472"/>
<path d="M634.357 286.438L681.227 287.122C654.471 286.521 642.934 286.086 637.213 282.75C633.454 280.558 627.217 279.137 624.607 282.619C624.482 282.786 624.36 282.951 624.242 283.112C622.055 286.102 627.172 286.438 634.357 286.438Z" fill="#D7CC9A"/>
<path d="M698.754 288.665L706.675 270H734.522L738.74 288.665H698.754Z" fill="#CA2E33"/>
<path d="M718.306 282.153L720.647 273.67C721.245 271.502 723.217 270 725.467 270H730.514C732.855 270 734.882 271.624 735.393 273.909L737.29 282.392C737.988 285.516 735.612 288.483 732.41 288.483H723.125C719.822 288.483 717.427 285.337 718.306 282.153Z" fill="#C02429"/>
<path d="M698.48 288.482H738.649V305.559C738.649 308.321 736.411 310.559 733.649 310.559H703.48C700.719 310.559 698.48 308.321 698.48 305.559V288.482Z" fill="#E84C51"/>
<path d="M716.629 288.34H738.38V305.014C738.38 307.776 736.141 310.014 733.38 310.014H721.629C718.867 310.014 716.629 307.776 716.629 305.014V288.34Z" fill="#DE4247"/>
<path d="M780.056 362.447H642.945C723.777 360.885 767.35 353.623 790.375 340.074C795.341 337.152 811.721 342.883 811.74 348.644C811.743 349.539 811.744 350.36 811.744 351.09C811.744 359.923 800.775 362.447 780.056 362.447Z" fill="#CDC290" fill-opacity="0.5"/>
<path d="M705.348 63.1152C705.348 54.831 712.063 48.1152 720.348 48.1152H847.054C856.443 48.1152 864.054 55.7264 864.054 65.1152V113.477C864.054 116.239 861.816 118.477 859.054 118.477H710.348C707.586 118.477 705.348 116.239 705.348 113.477V63.1152Z" fill="#EBE0AE"/>
<path d="M735.244 58.9895H841.465C747.047 60.6967 718.249 71.7938 710.696 93.7441C710.853 86.6306 710.696 73.0133 710.696 67.2209C710.696 60.8187 719.193 58.9895 735.244 58.9895Z" fill="#F5EAB8"/>
<path d="M707.649 57.0367L715.678 47.6963C716.058 47.2543 716.612 47 717.194 47H849.917C850.461 47 850.981 47.2211 851.358 47.6123L860.357 56.9527C861.581 58.223 860.681 60.3404 858.917 60.3404H709.165C707.455 60.3404 706.534 58.3334 707.649 57.0367Z" fill="#C3B886"/>
<path d="M851.871 58.9666H796.287C794.974 58.9666 794.089 57.6254 794.604 56.4184C796.763 51.3657 801.727 48.0879 807.222 48.0879H839.658C845.516 48.0879 850.828 51.5257 853.228 56.8695C853.67 57.8538 852.95 58.9666 851.871 58.9666Z" fill="#AFA472"/>
<path d="M719.202 58.914L755.512 59.4102C722.767 58.7217 719.447 58.3338 716.827 49.4824C714.868 52.4167 712.758 54.7222 711.365 56.5037C709.671 58.6707 713.635 58.914 719.202 58.914Z" fill="#D7CC9A"/>
<path d="M769.09 60.5275L775.227 47H796.799L800.067 60.5275H769.09Z" fill="#CA2E33"/>
<path d="M782.883 60.3951L786.835 47H796.797L799.998 60.3951H782.883Z" fill="#C02429"/>
<path d="M768.879 60.3945H799.998V72.3943C799.998 74.6034 798.207 76.3943 795.998 76.3943H772.879C770.67 76.3943 768.879 74.6034 768.879 72.3943V60.3945Z" fill="#E84C51"/>
<path d="M782.883 60.3945H799.998V72.0222C799.998 74.2313 798.207 76.0222 795.998 76.0222H786.883C784.674 76.0222 782.883 74.2313 782.883 72.0222V60.3945Z" fill="#DE4247"/>
<path d="M832.074 113.999H725.854C820.272 112.292 849.069 101.194 856.623 79.2441C856.465 86.3577 856.623 99.975 856.623 105.767C856.623 112.17 848.125 113.999 832.074 113.999Z" fill="#CDC290" fill-opacity="0.5"/>
<rect x="579.887" y="74.332" width="8.60526" height="8.87969" stroke="#121212"/>
<rect x="582.398" y="76.8516" width="3.56767" height="3.8421" fill="#121212"/>
<rect x="579.887" y="98.7578" width="8.60526" height="8.87969" stroke="#121212"/>
<rect x="582.398" y="101.277" width="3.56767" height="3.8421" fill="#121212"/>
<rect x="604.312" y="74.332" width="8.60526" height="8.87969" stroke="#121212"/>
<rect x="606.824" y="76.8516" width="3.56767" height="3.8421" fill="#121212"/>
<rect x="590.371" y="75.4785" width="1.64662" height="8.23308" fill="#121212"/>
<rect x="599.012" y="85.3594" width="1.64662" height="8.23308" transform="rotate(90 599.012 85.3594)" fill="#121212"/>
<rect x="599.832" y="86.457" width="1.64662" height="8.23308" fill="#121212"/>
<rect x="579.387" y="86.1816" width="1.64662" height="8.23308" fill="#121212"/>
<rect x="611.777" y="98.5312" width="1.64662" height="8.23308" transform="rotate(90 611.777 98.5312)" fill="#121212"/>
<rect x="590.371" y="95.7871" width="1.64662" height="8.23308" fill="#121212"/>
<rect x="613.422" y="94.416" width="1.64662" height="8.23308" transform="rotate(-180 613.422 94.416)" fill="#121212"/>
<rect x="592.016" y="75.4785" width="1.64662" height="2.74436" fill="#121212"/>
<rect x="599.012" y="87.0059" width="1.64662" height="2.74436" transform="rotate(90 599.012 87.0059)" fill="#121212"/>
<rect x="601.484" y="86.457" width="1.64662" height="2.74436" fill="#121212"/>
<rect x="581.031" y="86.1816" width="1.64662" height="2.74436" fill="#121212"/>
<rect x="611.777" y="100.18" width="1.64662" height="2.74436" transform="rotate(90 611.777 100.18)" fill="#121212"/>
<rect x="592.016" y="95.7871" width="1.64662" height="2.74436" fill="#121212"/>
<rect x="595.312" y="75.4785" width="1.64662" height="2.74436" fill="#121212"/>
<rect x="599.012" y="90.2988" width="1.64662" height="2.74436" transform="rotate(90 599.012 90.2988)" fill="#121212"/>
<rect x="604.773" y="86.457" width="1.64662" height="2.74436" fill="#121212"/>
<rect x="584.332" y="86.1816" width="1.64662" height="2.74436" fill="#121212"/>
<rect x="609.582" y="105.119" width="1.64662" height="2.74436" transform="rotate(90 609.582 105.119)" fill="#121212"/>
<rect x="595.035" y="105.393" width="1.64662" height="2.74436" transform="rotate(-90 595.035 105.393)" fill="#121212"/>
<rect x="594.211" y="73.832" width="1.64662" height="1.92105" fill="#121212"/>
<rect x="600.66" y="89.2012" width="1.64662" height="1.92105" transform="rotate(90 600.66 89.2012)" fill="#121212"/>
<rect x="603.68" y="84.8105" width="1.64662" height="1.92105" fill="#121212"/>
<rect x="583.23" y="84.5352" width="1.64662" height="1.92105" fill="#121212"/>
<rect x="579.387" y="95.5137" width="1.64662" height="1.92105" fill="#121212"/>
<rect x="613.422" y="102.375" width="1.64662" height="1.92105" transform="rotate(90 613.422 102.375)" fill="#121212"/>
<rect x="591.188" y="108.137" width="1.64662" height="1.92105" transform="rotate(-90 591.188 108.137)" fill="#121212"/>
<rect x="598.871" y="108.137" width="1.64662" height="1.92105" transform="rotate(-90 598.871 108.137)" fill="#121212"/>
<rect x="595.355" y="108.137" width="1.64662" height="1.92105" transform="rotate(-90 595.355 108.137)" fill="#121212"/>
<rect x="598.602" y="73.832" width="1.64662" height="1.92105" fill="#121212"/>
<rect x="600.66" y="93.5918" width="1.64662" height="1.92105" transform="rotate(90 600.66 93.5918)" fill="#121212"/>
<rect x="608.074" y="84.8105" width="1.64662" height="1.92105" fill="#121212"/>
<rect x="587.621" y="84.5352" width="1.64662" height="1.92105" fill="#121212"/>
<rect x="601.07" y="83.4375" width="1.64662" height="1.92105" fill="#121212"/>
<rect x="613.422" y="106.766" width="1.64662" height="1.92105" transform="rotate(90 613.422 106.766)" fill="#121212"/>
<rect x="591.188" y="103.746" width="1.64662" height="1.92105" transform="rotate(-90 591.188 103.746)" fill="#121212"/>
<rect x="596.957" y="75.4785" width="1.64662" height="1.92105" fill="#121212"/>
<rect x="599.012" y="91.9453" width="1.64662" height="1.92105" transform="rotate(90 599.012 91.9453)" fill="#121212"/>
<rect x="606.418" y="86.457" width="1.64662" height="1.92105" fill="#121212"/>
<rect x="585.977" y="86.1816" width="1.64662" height="1.92105" fill="#121212"/>
<rect x="611.777" y="105.119" width="1.64662" height="1.92105" transform="rotate(90 611.777 105.119)" fill="#121212"/>
<rect x="592.844" y="105.393" width="1.64662" height="1.92105" transform="rotate(-90 592.844 105.393)" fill="#121212"/>
<rect x="594.211" y="102.1" width="1.64662" height="1.92105" transform="rotate(-90 594.211 102.1)" fill="#121212"/>
<rect x="604.09" y="92.4941" width="1.64662" height="1.92105" transform="rotate(-90 604.09 92.4941)" fill="#121212"/>
<rect x="594.488" y="81.2422" width="1.64662" height="1.92105" transform="rotate(-90 594.488 81.2422)" fill="#121212"/>
<rect x="600.801" y="81.5156" width="1.64662" height="1.92105" transform="rotate(-90 600.801 81.5156)" fill="#121212"/>
<rect x="583.508" y="93.3184" width="1.64662" height="1.92105" transform="rotate(-90 583.508 93.3184)" fill="#121212"/>
<rect x="593.668" y="75.4785" width="1.64662" height="1.92105" fill="#121212"/>
<rect x="599.012" y="88.6523" width="1.64662" height="1.92105" transform="rotate(90 599.012 88.6523)" fill="#121212"/>
<rect x="603.129" y="86.457" width="1.64662" height="1.92105" fill="#121212"/>
<rect x="582.688" y="86.1816" width="1.64662" height="1.92105" fill="#121212"/>
<rect x="582.961" y="95.5137" width="1.64662" height="1.92105" fill="#121212"/>
<rect x="610.406" y="103.473" width="1.64662" height="1.92105" transform="rotate(90 610.406 103.473)" fill="#121212"/>
<rect x="595.312" y="97.1602" width="1.64662" height="1.92105" fill="#121212"/>
<rect x="594.211" y="107.041" width="1.64662" height="1.92105" transform="rotate(-90 594.211 107.041)" fill="#121212"/>
<rect x="613.422" y="98.2578" width="1.64662" height="1.92105" transform="rotate(90 613.422 98.2578)" fill="#121212"/>
<rect x="596.957" y="81.791" width="1.64662" height="2.74436" fill="#121212"/>
<rect x="592.703" y="91.9453" width="1.64662" height="2.74436" transform="rotate(90 592.703 91.9453)" fill="#121212"/>
<rect x="606.418" y="92.7695" width="1.64662" height="2.74436" fill="#121212"/>
<rect x="585.977" y="92.4941" width="1.64662" height="2.74436" fill="#121212"/>
<rect x="600.52" y="98.8066" width="1.64662" height="2.74436" fill="#121212"/>
<rect x="595.312" y="94.6895" width="1.64662" height="2.74436" fill="#121212"/>
<rect x="605.469" y="105.119" width="1.64662" height="2.74436" transform="rotate(90 605.469 105.119)" fill="#121212"/>
<rect x="596.957" y="102.1" width="1.64662" height="2.74436" fill="#121212"/>
<rect x="599.148" y="105.393" width="1.64662" height="2.74436" transform="rotate(-90 599.148 105.393)" fill="#121212"/>
<rect x="611.777" y="94.416" width="1.64662" height="2.74436" transform="rotate(-180 611.777 94.416)" fill="#121212"/>
<rect x="592.016" y="79.3203" width="1.64662" height="2.74436" fill="#121212"/>
<rect x="595.176" y="87.0059" width="1.64662" height="2.74436" transform="rotate(90 595.176 87.0059)" fill="#121212"/>
<rect x="601.484" y="90.2988" width="1.64662" height="2.74436" fill="#121212"/>
<rect x="581.031" y="90.0234" width="1.64662" height="2.74436" fill="#121212"/>
<rect x="607.938" y="100.18" width="1.64662" height="2.74436" transform="rotate(90 607.938 100.18)" fill="#121212"/>
<rect x="592.016" y="99.6289" width="1.64662" height="2.74436" fill="#121212"/>
<rect x="598.324" y="79.3203" width="1.64662" height="2.74436" fill="#121212"/>
<rect x="595.176" y="93.3184" width="1.64662" height="2.74436" transform="rotate(90 595.176 93.3184)" fill="#121212"/>
<rect x="603.539" y="95.7871" width="1.64662" height="2.74436" transform="rotate(90 603.539 95.7871)" fill="#121212"/>
<rect x="602.723" y="76.3027" width="1.64662" height="2.74436" transform="rotate(90 602.723 76.3027)" fill="#121212"/>
<rect x="591.742" y="88.1035" width="1.64662" height="2.74436" transform="rotate(90 591.742 88.1035)" fill="#121212"/>
<rect x="596.133" y="82.8887" width="1.64662" height="2.74436" transform="rotate(90 596.133 82.8887)" fill="#121212"/>
<rect x="608.48" y="96.3359" width="1.64662" height="2.74436" transform="rotate(90 608.48 96.3359)" fill="#121212"/>
<rect x="607.801" y="90.2988" width="1.64662" height="2.74436" fill="#121212"/>
<rect x="587.355" y="90.0234" width="1.64662" height="2.74436" fill="#121212"/>
<rect x="607.938" y="106.49" width="1.64662" height="2.74436" transform="rotate(90 607.938 106.49)" fill="#121212"/>
<rect x="596.41" y="101.277" width="1.64662" height="2.74436" transform="rotate(-90 596.41 101.277)" fill="#121212"/>
<rect x="611.777" y="90.5742" width="1.64662" height="2.74436" transform="rotate(-180 611.777 90.5742)" fill="#121212"/>
<path d="M322 0L322 118" stroke="#181818" stroke-width="6"/>
<ellipse cx="321.864" cy="159.547" rx="35.8996" ry="29.9163" fill="#707070"/>
<path d="M377.727 172.551C383.25 172.551 387.804 168.049 386.969 162.589C386.17 157.367 384.744 152.248 382.713 147.345C379.403 139.354 374.551 132.093 368.435 125.977C362.319 119.861 355.058 115.009 347.067 111.699C339.076 108.389 330.511 106.686 321.861 106.686C313.212 106.686 304.647 108.389 296.656 111.699C288.665 115.009 281.404 119.861 275.288 125.977C269.171 132.093 264.32 139.354 261.01 147.345C258.979 152.248 257.553 157.367 256.754 162.589C255.918 168.049 260.473 172.551 265.996 172.551L321.861 172.551H377.727Z" fill="#181818"/>
<path d="M430 3V50" stroke="#181818" stroke-width="6"/>
<ellipse cx="430.054" cy="81.6656" rx="21.7573" ry="18.4937" fill="#707070"/>
<path d="M465.307 84.9288C468.068 84.9288 470.339 82.6817 469.997 79.9416C469.551 76.3693 468.626 72.8653 467.243 69.5254C465.22 64.6419 462.255 60.2046 458.518 56.467C454.78 52.7293 450.343 49.7645 445.459 47.7417C440.576 45.7189 435.342 44.6777 430.056 44.6777C424.77 44.6777 419.536 45.7189 414.652 47.7417C409.769 49.7645 405.332 52.7293 401.594 56.467C397.856 60.2046 394.891 64.6419 392.869 69.5254C391.485 72.8653 390.561 76.3693 390.115 79.9416C389.773 82.6817 392.043 84.9288 394.805 84.9288L430.056 84.9288H465.307Z" fill="#181818"/>
<path d="M215 5V50" stroke="#181818" stroke-width="6"/>
<ellipse cx="214.656" cy="81.6656" rx="21.7573" ry="18.4937" fill="#707070"/>
<path d="M249.908 84.9288C252.67 84.9288 254.94 82.6817 254.598 79.9416C254.152 76.3693 253.228 72.8653 251.844 69.5254C249.822 64.6419 246.857 60.2046 243.119 56.467C239.381 52.7293 234.944 49.7645 230.061 47.7417C225.177 45.7189 219.943 44.6777 214.657 44.6777C209.371 44.6777 204.137 45.7189 199.254 47.7417C194.37 49.7645 189.933 52.7293 186.196 56.467C182.458 60.2046 179.493 64.6419 177.47 69.5254C176.087 72.8653 175.162 76.3693 174.716 79.9416C174.374 82.6817 176.645 84.9288 179.406 84.9288L214.657 84.9288H249.908Z" fill="#181818"/>
<path d="M121.549 401.947C121.549 405.355 121.549 407.163 121.549 408.119H72.1721C68.7636 408.119 66 405.355 66 401.947V374.172C66 370.764 68.7636 368 72.1721 368H121.549C121.549 369.632 121.549 370.764 121.549 374.172V401.947Z" fill="#C02429"/>
<path d="M83.1839 374.137L84.3196 374.686L85.2284 373.812L85.0571 375.062L86.1681 375.658L84.9275 375.88L84.7053 377.121L84.1097 376.01L82.8598 376.181L83.7332 375.272L83.1839 374.137ZM90.3821 378.675L89.8328 379.809L90.7062 380.719L89.4578 380.546L88.8622 381.659L88.64 380.417L87.3979 380.194L88.5104 379.599L88.3376 378.351L89.248 379.224L90.3821 378.675ZM88.9054 384.506L89.319 385.697L90.5796 385.723L89.5751 386.484L89.9408 387.692L88.9054 386.971L87.8701 387.692L88.2342 386.484L87.2297 385.723L88.4904 385.697L88.9054 384.506ZM83.1839 389.567L84.3196 390.116L85.2284 389.243L85.0571 390.493L86.1681 391.088L84.9275 391.31L84.7053 392.551L84.1097 391.44L82.8598 391.611L83.7332 390.703L83.1839 389.567ZM76.8019 377.182L78.2354 381.304L82.596 381.393L79.1195 384.029L80.3833 388.204L76.8019 385.712L73.2205 388.204L74.4843 384.029L71.0078 381.393L75.3684 381.304L76.8019 377.182Z" fill="#EBE0AE"/>
<path d="M102.716 399.23H93.9505V397.79L97.9105 394.082C98.7505 393.302 99.3685 392.63 99.7645 392.066C100.124 391.526 100.304 390.95 100.304 390.338C100.304 389.702 100.07 389.192 99.6025 388.808C99.1465 388.412 98.5465 388.214 97.8025 388.214C96.5545 388.214 95.3785 388.736 94.2745 389.78V387.71C95.3065 386.834 96.5485 386.396 98.0005 386.396C99.1885 386.396 100.196 386.738 101.024 387.422C101.864 388.106 102.284 389 102.284 390.104C102.284 390.956 102.074 391.73 101.654 392.426C101.21 393.134 100.502 393.95 99.5305 394.874L96.8125 397.466H102.716V399.23ZM108.101 399.464C106.613 399.464 105.359 399.146 104.339 398.51V396.584C105.371 397.328 106.589 397.7 107.993 397.7C108.821 397.7 109.535 397.472 110.135 397.016C110.735 396.548 111.035 395.924 111.035 395.144C111.035 394.412 110.771 393.824 110.243 393.38C109.715 392.924 109.007 392.696 108.119 392.696C107.543 392.696 107.009 392.792 106.517 392.984V391.634L109.901 388.358H104.807V386.63H112.529V388.124L109.307 391.22C110.315 391.328 111.191 391.736 111.935 392.444C112.667 393.14 113.033 394.04 113.033 395.144C113.033 396.44 112.559 397.484 111.611 398.276C110.675 399.068 109.505 399.464 108.101 399.464Z" fill="#F5EAB8"/>
<path d="M559.549 401.947C559.549 405.355 559.549 406.619 559.549 408.119H510.172C506.764 408.119 504 405.355 504 401.947V374.172C504 370.764 506.764 368 510.172 368H559.549C559.549 369.632 559.549 370.764 559.549 374.172V401.947Z" fill="#C02429"/>
<path d="M521.184 374.137L522.32 374.686L523.228 373.812L523.057 375.062L524.168 375.658L522.928 375.88L522.705 377.121L522.11 376.01L520.86 376.181L521.733 375.272L521.184 374.137ZM528.382 378.675L527.833 379.809L528.706 380.719L527.458 380.546L526.862 381.659L526.64 380.417L525.398 380.194L526.51 379.599L526.338 378.351L527.248 379.224L528.382 378.675ZM526.905 384.506L527.319 385.697L528.58 385.723L527.575 386.484L527.941 387.692L526.905 386.971L525.87 387.692L526.234 386.484L525.23 385.723L526.49 385.697L526.905 384.506ZM521.184 389.567L522.32 390.116L523.228 389.243L523.057 390.493L524.168 391.088L522.928 391.31L522.705 392.551L522.11 391.44L520.86 391.611L521.733 390.703L521.184 389.567ZM514.802 377.182L516.235 381.304L520.596 381.393L517.12 384.029L518.383 388.204L514.802 385.712L511.221 388.204L512.484 384.029L509.008 381.393L513.368 381.304L514.802 377.182Z" fill="#EBE0AE"/>
<path d="M540.716 399.23H531.95V397.79L535.91 394.082C536.75 393.302 537.368 392.63 537.764 392.066C538.124 391.526 538.304 390.95 538.304 390.338C538.304 389.702 538.07 389.192 537.602 388.808C537.146 388.412 536.546 388.214 535.802 388.214C534.554 388.214 533.378 388.736 532.274 389.78V387.71C533.306 386.834 534.548 386.396 536 386.396C537.188 386.396 538.196 386.738 539.024 387.422C539.864 388.106 540.284 389 540.284 390.104C540.284 390.956 540.074 391.73 539.654 392.426C539.21 393.134 538.502 393.95 537.53 394.874L534.812 397.466H540.716V399.23ZM550.285 399.23H548.341V395.936H541.807V394.424L548.341 386.63H550.285V394.244H552.247V395.936H550.285V399.23ZM548.341 389.168L544.057 394.244H548.341V389.168Z" fill="#F5EAB8"/>
<rect x="592.732" y="431.689" width="95.8575" height="60.6776" rx="5" fill="#F5EAB8"/>
<rect x="587.809" y="422" width="105.702" height="12.2278" rx="6.11391" fill="#AB8636"/>
<path d="M672.779 422H687.391C690.767 422 693.505 424.737 693.505 428.114C693.505 431.491 690.767 434.228 687.391 434.228H672.779V422Z" fill="#8D6818"/>
<path d="M668.893 434.229H688.582V487.368C688.582 490.13 686.343 492.368 683.582 492.368H668.893V434.229Z" fill="#D7CC9A"/>
<rect x="735.883" y="398.76" width="118.314" height="92.4202" rx="5" fill="#F5EAB8"/>
<rect x="747.346" y="441.295" width="9.86058" height="10.1709" stroke="#121212"/>
<rect x="750.252" y="444.209" width="4.03393" height="4.34423" fill="#121212"/>
<rect x="747.346" y="468.91" width="9.86058" height="10.1709" stroke="#121212"/>
<rect x="750.252" y="471.824" width="4.03393" height="4.34423" fill="#121212"/>
<rect x="774.967" y="441.293" width="9.86058" height="10.1709" stroke="#121212"/>
<rect x="777.873" y="444.207" width="4.03393" height="4.34423" fill="#121212"/>
<rect x="759.262" y="442.654" width="1.86181" height="9.30907" fill="#121212"/>
<rect x="769.035" y="453.826" width="1.86181" height="9.30907" transform="rotate(90 769.035 453.826)" fill="#121212"/>
<rect x="769.963" y="455.066" width="1.86181" height="9.30907" fill="#121212"/>
<rect x="746.846" y="454.758" width="1.86181" height="9.30907" fill="#121212"/>
<rect x="783.469" y="468.721" width="1.86181" height="9.30907" transform="rotate(90 783.469 468.721)" fill="#121212"/>
<rect x="759.262" y="465.619" width="1.86181" height="9.30907" fill="#121212"/>
<rect x="785.332" y="464.066" width="1.86181" height="9.30907" transform="rotate(-180 785.332 464.066)" fill="#121212"/>
<rect x="761.121" y="442.654" width="1.86181" height="3.10302" fill="#121212"/>
<rect x="769.035" y="455.688" width="1.86181" height="3.10302" transform="rotate(90 769.035 455.688)" fill="#121212"/>
<rect x="771.832" y="455.066" width="1.86181" height="3.10302" fill="#121212"/>
<rect x="748.705" y="454.758" width="1.86181" height="3.10302" fill="#121212"/>
<rect x="783.469" y="470.584" width="1.86181" height="3.10302" transform="rotate(90 783.469 470.584)" fill="#121212"/>
<rect x="761.121" y="465.619" width="1.86181" height="3.10302" fill="#121212"/>
<rect x="764.85" y="442.654" width="1.86181" height="3.10302" fill="#121212"/>
<rect x="769.035" y="459.412" width="1.86181" height="3.10302" transform="rotate(90 769.035 459.412)" fill="#121212"/>
<rect x="775.551" y="455.066" width="1.86181" height="3.10302" fill="#121212"/>
<rect x="752.434" y="454.758" width="1.86181" height="3.10302" fill="#121212"/>
<rect x="780.984" y="476.17" width="1.86181" height="3.10302" transform="rotate(90 780.984 476.17)" fill="#121212"/>
<rect x="764.537" y="476.479" width="1.86181" height="3.10302" transform="rotate(-90 764.537 476.479)" fill="#121212"/>
<rect x="763.605" y="440.793" width="1.86181" height="2.17212" fill="#121212"/>
<rect x="770.9" y="458.17" width="1.86181" height="2.17212" transform="rotate(90 770.9 458.17)" fill="#121212"/>
<rect x="774.312" y="453.205" width="1.86181" height="2.17212" fill="#121212"/>
<rect x="751.189" y="452.895" width="1.86181" height="2.17212" fill="#121212"/>
<rect x="746.846" y="465.307" width="1.86181" height="2.17212" fill="#121212"/>
<rect x="785.332" y="473.064" width="1.86181" height="2.17212" transform="rotate(90 785.332 473.064)" fill="#121212"/>
<rect x="760.189" y="479.582" width="1.86181" height="2.17212" transform="rotate(-90 760.189 479.582)" fill="#121212"/>
<rect x="768.877" y="479.582" width="1.86181" height="2.17212" transform="rotate(-90 768.877 479.582)" fill="#121212"/>
<rect x="764.898" y="479.582" width="1.86181" height="2.17212" transform="rotate(-90 764.898 479.582)" fill="#121212"/>
<rect x="768.568" y="440.793" width="1.86181" height="2.17212" fill="#121212"/>
<rect x="770.9" y="463.135" width="1.86181" height="2.17212" transform="rotate(90 770.9 463.135)" fill="#121212"/>
<rect x="779.281" y="453.205" width="1.86181" height="2.17212" fill="#121212"/>
<rect x="756.152" y="452.895" width="1.86181" height="2.17212" fill="#121212"/>
<rect x="771.363" y="451.654" width="1.86181" height="2.17212" fill="#121212"/>
<rect x="785.332" y="478.031" width="1.86181" height="2.17212" transform="rotate(90 785.332 478.031)" fill="#121212"/>
<rect x="760.189" y="474.617" width="1.86181" height="2.17212" transform="rotate(-90 760.189 474.617)" fill="#121212"/>
<rect x="766.709" y="442.654" width="1.86181" height="2.17212" fill="#121212"/>
<rect x="769.035" y="461.273" width="1.86181" height="2.17212" transform="rotate(90 769.035 461.273)" fill="#121212"/>
<rect x="777.408" y="455.066" width="1.86181" height="2.17212" fill="#121212"/>
<rect x="754.293" y="454.758" width="1.86181" height="2.17212" fill="#121212"/>
<rect x="783.469" y="476.17" width="1.86181" height="2.17212" transform="rotate(90 783.469 476.17)" fill="#121212"/>
<rect x="762.057" y="476.479" width="1.86181" height="2.17212" transform="rotate(-90 762.057 476.479)" fill="#121212"/>
<rect x="763.605" y="472.756" width="1.86181" height="2.17212" transform="rotate(-90 763.605 472.756)" fill="#121212"/>
<rect x="774.779" y="461.895" width="1.86181" height="2.17212" transform="rotate(-90 774.779 461.895)" fill="#121212"/>
<rect x="763.92" y="449.172" width="1.86181" height="2.17212" transform="rotate(-90 763.92 449.172)" fill="#121212"/>
<rect x="771.057" y="449.482" width="1.86181" height="2.17212" transform="rotate(-90 771.057 449.482)" fill="#121212"/>
<rect x="751.504" y="462.826" width="1.86181" height="2.17212" transform="rotate(-90 751.504 462.826)" fill="#121212"/>
<rect x="762.99" y="442.654" width="1.86181" height="2.17212" fill="#121212"/>
<rect x="769.035" y="457.549" width="1.86181" height="2.17212" transform="rotate(90 769.035 457.549)" fill="#121212"/>
<rect x="773.691" y="455.066" width="1.86181" height="2.17212" fill="#121212"/>
<rect x="750.574" y="454.758" width="1.86181" height="2.17212" fill="#121212"/>
<rect x="750.889" y="465.307" width="1.86181" height="2.17212" fill="#121212"/>
<rect x="781.916" y="474.307" width="1.86181" height="2.17212" transform="rotate(90 781.916 474.307)" fill="#121212"/>
<rect x="764.85" y="467.17" width="1.86181" height="2.17212" fill="#121212"/>
<rect x="763.605" y="478.342" width="1.86181" height="2.17212" transform="rotate(-90 763.605 478.342)" fill="#121212"/>
<rect x="785.332" y="468.41" width="1.86181" height="2.17212" transform="rotate(90 785.332 468.41)" fill="#121212"/>
<rect x="766.709" y="449.793" width="1.86181" height="3.10302" fill="#121212"/>
<rect x="761.9" y="461.273" width="1.86181" height="3.10302" transform="rotate(90 761.9 461.273)" fill="#121212"/>
<rect x="777.408" y="462.205" width="1.86181" height="3.10302" fill="#121212"/>
<rect x="754.293" y="461.895" width="1.86181" height="3.10302" fill="#121212"/>
<rect x="770.74" y="469.031" width="1.86181" height="3.10302" fill="#121212"/>
<rect x="764.85" y="464.377" width="1.86181" height="3.10302" fill="#121212"/>
<rect x="776.336" y="476.17" width="1.86181" height="3.10302" transform="rotate(90 776.336 476.17)" fill="#121212"/>
<rect x="766.709" y="472.756" width="1.86181" height="3.10302" fill="#121212"/>
<rect x="769.191" y="476.479" width="1.86181" height="3.10302" transform="rotate(-90 769.191 476.479)" fill="#121212"/>
<rect x="783.469" y="464.066" width="1.86181" height="3.10302" transform="rotate(-180 783.469 464.066)" fill="#121212"/>
<rect x="761.121" y="447" width="1.86181" height="3.10302" fill="#121212"/>
<rect x="764.697" y="455.688" width="1.86181" height="3.10302" transform="rotate(90 764.697 455.688)" fill="#121212"/>
<rect x="771.832" y="459.412" width="1.86181" height="3.10302" fill="#121212"/>
<rect x="748.705" y="459.102" width="1.86181" height="3.10302" fill="#121212"/>
<rect x="779.125" y="470.584" width="1.86181" height="3.10302" transform="rotate(90 779.125 470.584)" fill="#121212"/>
<rect x="761.121" y="469.963" width="1.86181" height="3.10302" fill="#121212"/>
<rect x="768.26" y="447" width="1.86181" height="3.10302" fill="#121212"/>
<rect x="764.697" y="462.826" width="1.86181" height="3.10302" transform="rotate(90 764.697 462.826)" fill="#121212"/>
<rect x="774.152" y="465.619" width="1.86181" height="3.10302" transform="rotate(90 774.152 465.619)" fill="#121212"/>
<rect x="773.229" y="443.586" width="1.86181" height="3.10302" transform="rotate(90 773.229 443.586)" fill="#121212"/>
<rect x="760.816" y="456.93" width="1.86181" height="3.10302" transform="rotate(90 760.816 456.93)" fill="#121212"/>
<rect x="765.777" y="451.033" width="1.86181" height="3.10302" transform="rotate(90 765.777 451.033)" fill="#121212"/>
<rect x="779.74" y="466.238" width="1.86181" height="3.10302" transform="rotate(90 779.74 466.238)" fill="#121212"/>
<rect x="778.969" y="459.412" width="1.86181" height="3.10302" fill="#121212"/>
<rect x="755.857" y="459.102" width="1.86181" height="3.10302" fill="#121212"/>
<rect x="779.125" y="477.721" width="1.86181" height="3.10302" transform="rotate(90 779.125 477.721)" fill="#121212"/>
<rect x="766.094" y="471.824" width="1.86181" height="3.10302" transform="rotate(-90 766.094 471.824)" fill="#121212"/>
<rect x="783.469" y="459.723" width="1.86181" height="3.10302" transform="rotate(-180 783.469 459.723)" fill="#121212"/>
<rect x="729.809" y="384" width="130.465" height="18.6246" rx="9.3123" fill="#AB8636"/>
<path d="M834.691 384H850.96C856.104 384 860.273 388.169 860.273 393.312C860.273 398.455 856.104 402.625 850.96 402.625H834.691V384Z" fill="#8D6818"/>
<path d="M829.891 402.625H854.193V486.18C854.193 488.941 851.954 491.18 849.193 491.18H829.891V402.625Z" fill="#D7CC9A"/>
</g>
<defs>
<clipPath id="clip0_594_11945">
<rect width="970" height="557" fill="white"/>
</clipPath>
</defs>
</svg>
