<svg width="970" height="557" viewBox="0 0 970 557" fill="none" xmlns="http://www.w3.org/2000/svg">
<g clip-path="url(#clip0_594_11580)">
<path fill-rule="evenodd" clip-rule="evenodd" d="M621.044 39.0137C723.679 64.9749 852.419 72.6281 898.549 152.835C947.483 237.916 906.139 343.524 840.444 420.481C779.533 491.833 672.839 515.99 570.443 537.187C470.465 557.883 366.829 573.292 273.041 537.936C170.216 499.174 53.7064 434.493 50.0681 341.019C46.5233 249.949 182.198 208.323 257.628 141.959C305.598 99.7536 339.427 46.9237 405.664 28.1609C476.408 8.12111 549.536 20.926 621.044 39.0137Z" fill="#2A2A2A"/>
<path d="M282.014 129.134L282.014 116.95C282.014 113.636 279.328 110.95 276.014 110.95L102.85 110.95C99.5365 110.95 96.8502 108.264 96.8502 104.95L96.8502 61.4104C96.8502 58.0967 99.5366 55.4104 102.85 55.4104L276.014 55.4104C279.328 55.4104 282.014 52.7241 282.014 49.4104L282.014 36.9416C282.014 32.0085 287.636 29.1832 291.595 32.1271L355.665 79.777C358.955 82.2241 358.876 87.1772 355.509 89.5179L291.439 134.06C287.461 136.826 282.014 133.979 282.014 129.134Z" fill="#3E3E3E"/>
<path d="M886.601 176.988C892.123 176.914 896.692 181.334 896.43 186.851C894.967 217.679 884.838 247.547 867.111 272.975C847.473 301.144 819.498 322.448 787.121 333.89C754.745 345.332 719.596 346.336 686.619 336.761C653.642 327.187 624.496 307.515 603.282 280.513C582.067 253.511 569.852 220.538 568.353 186.231C566.854 151.925 576.148 118.012 594.927 89.2634C613.706 60.5143 641.025 38.3757 673.042 25.9618C701.943 14.7556 733.359 11.9828 763.658 17.8571C769.08 18.9083 772.294 24.3935 770.914 29.7413L735.674 166.392C734.028 172.776 738.9 178.977 745.492 178.889L886.601 176.988Z" fill="#5A5A5A"/>
<path d="M914.145 155.569C919.666 155.436 924.066 150.847 923.597 145.344C920.859 113.201 908.702 82.4931 888.54 57.1215C868.378 31.7499 841.209 12.9711 810.515 3.04385C805.26 1.3443 799.796 4.59382 798.42 9.94234L763.277 146.475C761.624 152.9 766.57 159.125 773.203 158.965L914.145 155.569Z" fill="#DF4043"/>
<rect x="77.2148" y="149" width="483.694" height="322.199" rx="14" fill="#FFEA9A"/>
<path d="M77.2148 399.461H560.576V431.278C560.576 435.144 557.442 438.278 553.576 438.278H84.2148C80.3488 438.278 77.2148 435.144 77.2148 431.278V399.461Z" fill="#E1CC7C"/>
<rect x="91.0781" y="163.787" width="459.332" height="248.612" rx="14" fill="#181818"/>
<path d="M550.325 395.785V222.717C341.507 204.626 239.715 341.634 214.922 412.399H533.693C548.477 412.399 550.941 401.323 550.325 395.785Z" fill="#2C2C2C"/>
<rect x="250.799" y="471.199" width="138.327" height="57.5688" fill="#B9A454"/>
<rect x="250.963" y="471.549" width="137.707" height="24.9537" fill="#A59040"/>
<rect x="198.361" y="528.768" width="245.011" height="17.642" rx="8.82102" fill="#FFEA9A"/>
<rect x="269.451" y="451.217" width="99.8146" height="6.46947" rx="3.23473" fill="#8E0000"/>
<rect x="132.473" y="201" width="27.2542" height="174.076" rx="9" fill="#363636"/>
<rect x="132.473" y="230.014" width="27.2542" height="145.063" rx="9" fill="#DF4043"/>
<rect x="184.344" y="201" width="27.2542" height="174.076" rx="9" fill="#363636"/>
<rect x="184.344" y="310.896" width="27.2542" height="64.1794" rx="9" fill="#DF4043"/>
<rect x="236.213" y="201" width="27.2542" height="174.076" rx="9" fill="#363636"/>
<rect x="236.213" y="260.783" width="27.2542" height="114.292" rx="9" fill="#DF4043"/>
<rect x="288.088" y="201" width="27.2542" height="174.076" rx="9" fill="#363636"/>
<rect x="288.088" y="300.346" width="27.2542" height="74.7294" rx="9" fill="#DF4043"/>
<rect x="339.961" y="201" width="27.2542" height="174.076" rx="9" fill="#363636"/>
<rect x="339.961" y="244.078" width="27.2542" height="130.996" rx="9" fill="#DF4043"/>
<path d="M501.343 190.611H486.733C482.867 190.611 479.733 193.745 479.733 197.611V367.797C479.733 371.663 476.599 374.797 472.733 374.797H424.224C420.358 374.797 417.224 371.663 417.224 367.797V197.611C417.224 193.745 414.09 190.611 410.224 190.611H395.17C389.771 190.611 386.405 184.758 389.119 180.091L443.995 85.7553C446.739 81.0373 453.588 81.1359 456.195 85.931L507.492 180.267C510.029 184.931 506.652 190.611 501.343 190.611Z" fill="#AB8636"/>
<rect x="513" y="227.244" width="231" height="313.786" rx="18" fill="#DF4043"/>
<rect x="528.357" y="251.902" width="200.289" height="271.725" rx="15" fill="#F5EAB8"/>
<path d="M728.366 509.444V359.982C617.948 370.358 568.424 473.416 557.465 523.649H712.741C727.325 523.649 729.234 514.179 728.366 509.444Z" fill="#F5F4C2"/>
<rect x="682.229" y="390.863" width="27.7924" height="19.1459" rx="8" fill="#D7CC9A"/>
<rect x="682.229" y="431.008" width="27.7924" height="19.1459" rx="8" fill="#D7CC9A"/>
<rect x="682.229" y="472.387" width="27.7924" height="19.1459" rx="8" fill="#D7CC9A"/>
<rect x="547.871" y="395.299" width="122.993" height="6.31584" rx="3.15792" fill="#343434"/>
<rect x="547.871" y="435.299" width="122.993" height="6.31584" rx="3.15792" fill="#343434"/>
<rect x="547.871" y="476.703" width="122.993" height="6.31584" rx="3.15792" fill="#343434"/>
<path d="M689.342 394.246L695.491 403.368L714.623 384.07" stroke="#CA2E33" stroke-width="7" stroke-linecap="round" stroke-linejoin="round"/>
<path d="M689.342 434.246L695.491 443.368L714.623 424.07" stroke="#CA2E33" stroke-width="7" stroke-linecap="round" stroke-linejoin="round"/>
<path d="M689.342 475.65L695.491 484.773L714.623 465.475" stroke="#CA2E33" stroke-width="7" stroke-linecap="round" stroke-linejoin="round"/>
<rect x="605.033" y="201.875" width="46.9382" height="25.3219" rx="12.661" fill="#720002"/>
<rect x="563.645" y="216.562" width="129.52" height="22.0318" rx="11.0159" fill="#A43234"/>
<rect x="566.732" y="216.697" width="123.522" height="10.4993" rx="5.24967" fill="#861416"/>
<rect x="549.438" y="277.225" width="122.844" height="84.789" rx="16" fill="#AFA472"/>
<path d="M549.494 286.198L549.494 353.189C611.311 347.093 639.036 306.737 645.172 277.224L560.071 277.224C551.907 277.224 549.008 283.417 549.494 286.198Z" fill="#D7CC9A"/>
<path d="M605.641 216.697H651.344" stroke="#5E0000" stroke-width="3" stroke-linecap="round"/>
<mask id="mask0_594_11580" style="mask-type:luminance" maskUnits="userSpaceOnUse" x="801" y="82" width="83" height="35">
<path d="M849.13 116.986L854.825 95.7257H880.459L878.336 103.647H859.902L862.692 105.261L859.55 116.986H849.13ZM801.617 116.986L810.831 82.5996H883.983L881.86 90.5214H852.472V84.3041L850.804 90.5153L843.713 116.986H833.292L840.389 90.5214H831.751L834.542 92.1348L827.882 116.992H817.455L824.545 90.5214H815.908L818.698 92.1348L812.038 116.992H801.617V116.986Z" fill="white"/>
</mask>
<g mask="url(#mask0_594_11580)">
<path d="M801.617 82.5996H883.982V116.986H801.617V82.5996Z" fill="#720002"/>
</g>
</g>
<defs>
<clipPath id="clip0_594_11580">
<rect width="970" height="557" fill="white"/>
</clipPath>
</defs>
</svg>
