<svg width="970" height="557" viewBox="0 0 970 557" fill="none" xmlns="http://www.w3.org/2000/svg">
<path fill-rule="evenodd" clip-rule="evenodd" d="M59.3774 380.501C91.411 475.965 227.756 483.776 327.078 516.665C400.248 540.895 471.847 549.724 548.945 542.617C649.079 533.386 763.001 542.591 829.196 470.377C903.034 389.826 949.506 259.888 892.65 167.664C837.254 77.8085 694.525 113.207 590.053 82.4732C524.853 63.2931 470.947 17.0391 403.066 23.6391C322.952 31.4285 248.755 64.4038 194.294 120.952C123.082 194.893 27.2969 284.897 59.3774 380.501Z" fill="#2A2A2A"/>
<path d="M370.268 265.141C370.268 237.526 392.653 215.141 420.268 215.141H811.742C839.356 215.141 861.742 237.526 861.742 265.141V488.861C861.742 505.429 848.311 518.861 831.742 518.861H400.268C383.699 518.861 370.268 505.429 370.268 488.861V265.141Z" fill="#EBE0AE"/>
<path d="M462.854 262.078H791.793C499.403 269.448 410.224 317.349 386.833 412.098C387.32 381.392 386.833 322.612 386.833 297.609C386.833 269.974 413.148 262.078 462.854 262.078Z" fill="#F5EAB8"/>
<path d="M376.085 238.425L400.624 200.356C406.147 191.787 415.644 186.609 425.839 186.609H804.701C814.652 186.609 823.954 191.543 829.536 199.78L856.729 239.909C858.079 241.901 856.652 244.592 854.246 244.592H379.447C376.28 244.592 374.369 241.087 376.085 238.425Z" fill="#C3B886"/>
<path d="M644.16 239.489L653.103 208.333C656.794 195.471 668.557 186.609 681.938 186.609H820.122C833.352 186.609 845.021 195.277 848.843 207.943L858.735 240.726C859.316 242.652 857.874 244.592 855.863 244.592H648.005C645.345 244.592 643.426 242.045 644.16 239.489Z" fill="#AFA472"/>
<path d="M418.475 238.61L529.354 240.789C429.36 237.766 419.223 236.062 411.223 197.193C405.241 210.078 398.798 220.202 394.545 228.026C389.372 237.542 401.476 238.61 418.475 238.61Z" fill="#D7CC9A"/>
<path d="M565.385 244.593L587.485 173.725H646.854L661.103 244.593H565.385Z" fill="#CA2E33"/>
<path d="M625.209 244.593L633.497 173.725H655.76L661.103 244.593H625.209Z" fill="#C02429"/>
<path d="M565.385 244.592H661.103V305.584C661.103 316.63 652.148 325.584 641.103 325.584H585.385C574.339 325.584 565.385 316.63 565.385 305.584V244.592Z" fill="#E84C51"/>
<path d="M625.209 244.592H661.103V307.637C661.103 317.549 653.068 325.584 643.156 325.584C633.244 325.584 625.209 317.549 625.209 307.637V244.592Z" fill="#DE4247"/>
<path d="M485.313 414.811C485.313 412.602 487.104 410.811 489.313 410.811H514.538C516.747 410.811 518.538 412.602 518.538 414.811V435.986C518.538 438.195 516.747 439.986 514.538 439.986H512.138C509.929 439.986 508.138 438.195 508.138 435.986V423.83C508.138 421.621 506.347 419.83 504.138 419.83H499.345C497.136 419.83 495.345 421.621 495.345 423.83V437.735C495.345 439.944 493.554 441.735 491.345 441.735H489.313C487.104 441.735 485.313 439.944 485.313 437.735V414.811ZM496.265 387.016C496.265 384.807 498.056 383.016 500.265 383.016H502.941C505.15 383.016 506.941 384.807 506.941 387.016V410.768C506.941 412.977 505.15 414.768 502.941 414.768H500.265C498.056 414.768 496.265 412.977 496.265 410.768V387.016ZM486.417 383.794C486.417 381.585 488.208 379.794 490.417 379.794H513.249C515.458 379.794 517.249 381.585 517.249 383.794V384.722C517.249 386.931 515.458 388.722 513.249 388.722H490.417C488.208 388.722 486.417 386.931 486.417 384.722V383.794ZM482.091 398.98C482.091 396.771 483.882 394.98 486.091 394.98H516.471C518.68 394.98 520.471 396.771 520.471 398.98V400.092C520.471 402.301 518.68 404.092 516.471 404.092H486.091C483.882 404.092 482.091 402.301 482.091 400.092V398.98ZM521.483 392.354C521.483 390.145 523.274 388.354 525.483 388.354H555.678C557.887 388.354 559.678 390.145 559.678 392.354V394.11C559.678 396.319 557.887 398.11 555.678 398.11H525.483C523.274 398.11 521.483 396.319 521.483 394.11V392.354ZM522.587 363.638C522.587 361.429 524.378 359.638 526.587 359.638H553.285C555.494 359.638 557.285 361.429 557.285 363.638V365.118C557.285 367.327 555.494 369.118 553.285 369.118H526.587C524.378 369.118 522.587 367.327 522.587 365.118V363.638ZM488.994 432.574C488.994 430.365 490.785 428.574 492.994 428.574H509.384C511.593 428.574 513.384 430.365 513.384 432.574V433.501C513.384 435.71 511.593 437.501 509.384 437.501H492.994C490.785 437.501 488.994 435.71 488.994 433.501V432.574ZM536.853 399.165C536.853 396.955 538.644 395.165 540.853 395.165H543.713C545.923 395.165 547.713 396.955 547.713 399.165V430.507C547.713 435.845 546.793 438.79 543.112 440.446C540.179 441.8 536.325 442.171 531.299 442.261C529.271 442.297 527.561 440.764 527.048 438.802C526.957 438.451 526.859 438.098 526.756 437.743C525.929 434.893 528 431.767 530.967 431.784C532.828 431.795 534.338 431.795 535.012 431.795C536.393 431.703 536.853 431.427 536.853 430.23V399.165ZM553.052 361.267C553.052 360.367 553.78 359.638 554.68 359.638H555.428C555.622 359.638 555.816 359.615 556.004 359.568L556.199 359.519C557.3 359.244 558.467 359.449 559.408 360.085L561.766 361.677C563.571 362.896 564.077 365.341 562.796 367.104C558.648 372.811 553.299 378.531 547.753 382.806C546.001 384.157 543.464 383.654 541.951 382.04C541.878 381.962 541.805 381.885 541.731 381.807C539.965 379.948 540.129 376.899 542.038 375.187C546.54 371.149 550.717 366.002 552.867 362.012C552.991 361.783 553.052 361.527 553.052 361.267ZM556.365 389.764C556.365 388.985 556.996 388.354 557.775 388.354C557.878 388.354 557.98 388.343 558.081 388.32L558.734 388.175C559.295 388.05 559.877 388.048 560.44 388.169L563.357 388.794C565.536 389.261 566.916 391.419 566.384 393.583C565.016 399.139 563.406 404.839 561.908 409.391C561.289 411.275 559.344 412.355 557.402 411.956L555.738 411.613C553.415 411.135 552.012 408.752 552.637 406.464C553.996 401.492 555.431 395.275 556.344 390.04C556.358 389.959 556.365 389.877 556.365 389.795V389.764ZM530.907 381.155C528.417 379.929 527.706 376.627 529.588 374.588L530.514 373.585C531.619 372.387 533.343 371.974 534.851 372.594C541.215 375.212 548.529 378.978 553.637 382.565C555.458 383.843 555.612 386.392 554.125 388.048L552.319 390.06C550.808 391.743 548.192 391.845 546.391 390.475C542.28 387.348 536.509 383.911 530.907 381.155ZM494.704 358.289C495.346 356.944 496.681 356.049 498.171 356.049H500.867C501.426 356.049 501.879 356.502 501.879 357.061C501.879 357.621 502.333 358.074 502.892 358.074H503.49C504.379 358.074 505.101 358.795 505.101 359.685V360.55C505.101 360.978 504.99 361.398 504.778 361.77C501.417 367.66 496.704 375.387 489.632 382.605C487.936 384.337 485.088 384 483.453 382.21C483.399 382.152 483.346 382.094 483.293 382.036C481.459 380.053 481.345 376.642 483.235 374.712C488.318 369.522 492.153 363.635 494.704 358.289ZM497.738 359.961C497.738 357.8 499.489 356.049 501.649 356.049H504.053C504.969 356.049 505.859 356.362 506.564 356.947C511.188 360.788 516.458 365.755 519.994 369.948C521.188 371.364 521.086 373.419 519.872 374.817L518.161 376.789C516.415 378.8 513.203 378.592 511.573 376.486C508.294 372.25 503.845 367.292 499.946 364.163C499.708 363.972 499.413 363.872 499.107 363.872C498.351 363.872 497.738 363.259 497.738 362.502V359.961Z" fill="#343434"/>
<path d="M582.687 363.27C582.687 361.061 584.478 359.27 586.687 359.27H599.395C601.605 359.27 603.395 361.061 603.395 363.27V365.486C603.395 367.696 601.605 369.486 599.395 369.486H586.687C584.478 369.486 582.687 367.696 582.687 365.486V363.27ZM582.687 384.163C582.687 381.953 584.478 380.163 586.687 380.163H599.764C601.973 380.163 603.764 381.953 603.764 384.163V386.379C603.764 388.588 601.973 390.379 599.764 390.379H586.687C584.478 390.379 582.687 388.588 582.687 386.379V384.163ZM618.581 395.391C618.581 393.182 620.372 391.391 622.581 391.391H646.886C649.095 391.391 650.886 393.182 650.886 395.391V397.423C650.886 399.632 649.095 401.423 646.886 401.423H622.581C620.372 401.423 618.581 399.632 618.581 397.423V395.391ZM582.595 405.515C582.595 403.306 584.386 401.515 586.595 401.515H599.395C601.605 401.515 603.395 403.306 603.395 405.515V407.915C603.395 410.124 601.605 411.915 599.395 411.915H586.595C584.386 411.915 582.595 410.124 582.595 407.915V405.515ZM578.362 363.27C578.362 361.061 580.152 359.27 582.362 359.27H584.301C586.511 359.27 588.301 361.061 588.301 363.27V392.772C588.301 405.92 587.577 424.212 582.977 437.748C582.124 440.259 578.942 441.041 576.627 439.746C576.435 439.639 576.243 439.533 576.05 439.429C573.988 438.314 572.946 435.763 573.711 433.548C577.99 421.164 578.362 404.925 578.362 392.772V363.27ZM597.229 363.27C597.229 361.061 599.02 359.27 601.229 359.27H603.445C605.654 359.27 607.445 361.061 607.445 363.27V430.507C607.445 435.477 606.617 438.606 603.672 440.446C601.368 441.886 598.445 442.312 594.418 442.43C592.359 442.49 590.626 440.904 590.167 438.896C590.114 438.664 590.058 438.429 590 438.194C589.277 435.259 591.498 432.008 594.519 431.937C595.01 431.926 595.402 431.909 595.664 431.887C596.769 431.887 597.229 431.519 597.229 430.322V363.27ZM644.536 363.362C644.536 361.153 646.327 359.362 648.536 359.362H651.12C653.329 359.362 655.12 361.153 655.12 363.362V377.217C655.12 382.003 654.107 384.672 650.242 386.145C647.148 387.305 642.949 387.49 637.536 387.52C635.683 387.53 634.131 386.27 633.58 384.5C632.713 381.711 634.687 378.448 637.608 378.469C639.915 378.486 641.825 378.463 642.603 378.414C644.076 378.414 644.536 378.138 644.536 377.033V363.362ZM647.849 393.09C647.849 392.152 648.617 391.391 649.555 391.391C649.644 391.391 649.734 391.384 649.822 391.37L650.493 391.264C651.114 391.166 651.751 391.216 652.349 391.41L654.685 392.167C656.573 392.778 657.735 394.689 657.345 396.635C653.295 416.824 644.551 431.108 632.085 440.033C630.206 441.379 627.595 440.648 626.222 438.789C626.197 438.756 626.173 438.723 626.148 438.69C624.453 436.41 624.91 432.787 627.174 431.07C637.556 423.198 645.093 409.424 647.825 393.372C647.841 393.279 647.849 393.184 647.849 393.09ZM628.149 399.153C630.214 398.62 632.322 399.805 633.061 401.805C637.521 413.882 645.077 424.5 655.186 431.039C657.612 432.609 658.209 436.26 656.424 438.532C656.208 438.806 655.997 439.08 655.791 439.354C654.513 441.049 652.17 441.702 650.383 440.556C638.38 432.857 629.947 419.906 624.57 404.386C623.824 402.233 625.116 399.935 627.322 399.366L628.149 399.153ZM612.599 363.362C612.599 361.153 614.39 359.362 616.599 359.362H643.113C645.322 359.362 647.113 361.153 647.113 363.362V365.578C647.113 367.788 645.322 369.578 643.113 369.578H626.999C624.79 369.578 622.999 371.369 622.999 373.578V438.471C622.999 440.68 621.208 442.471 618.999 442.471H616.599C614.39 442.471 612.599 440.68 612.599 438.471V363.362Z" fill="#343434"/>
<path d="M675.184 374.959C675.184 372.75 676.975 370.959 679.184 370.959H699.439C701.648 370.959 703.439 372.75 703.439 374.959V428.992C703.439 431.201 701.648 432.992 699.439 432.992H679.184C676.975 432.992 675.184 431.201 675.184 428.992V427.236C675.184 425.027 676.975 423.236 679.184 423.236H689.407C691.616 423.236 693.407 421.445 693.407 419.236V384.623C693.407 382.414 691.616 380.623 689.407 380.623H679.184C676.975 380.623 675.184 378.832 675.184 376.623V374.959ZM668.741 374.959C668.741 372.75 670.532 370.959 672.741 370.959H674.773C676.982 370.959 678.773 372.75 678.773 374.959V435.802C678.773 438.011 676.982 439.802 674.773 439.802H672.741C670.532 439.802 668.741 438.011 668.741 435.802V374.959ZM674.724 399.533C674.724 397.324 676.515 395.533 678.724 395.533H694.285C696.494 395.533 698.285 397.324 698.285 399.533V401.104C698.285 403.314 696.494 405.104 694.285 405.104H678.724C676.515 405.104 674.724 403.314 674.724 401.104V399.533ZM681.312 360.146C681.635 357.876 683.717 356.234 685.986 356.563L689.113 357.016C691.586 357.375 693.131 359.89 692.311 362.251C691.133 365.647 689.945 368.948 688.853 371.753C688.156 373.545 686.249 374.527 684.371 374.116L682.872 373.788C680.64 373.3 679.269 371.046 679.754 368.814C680.356 366.04 680.907 362.983 681.312 360.146ZM715.588 374.315C715.588 372.106 717.379 370.315 719.588 370.315H738.462C740.672 370.315 742.462 372.106 742.462 374.315V376.347C742.462 378.556 740.672 380.347 738.462 380.347H719.588C717.379 380.347 715.588 378.556 715.588 376.347V374.315ZM738.689 372.432C738.689 371.262 739.637 370.315 740.806 370.315H744.905C747.114 370.315 748.923 372.106 748.856 374.314C748.844 374.69 748.83 375.026 748.813 375.285C747.617 416.701 746.512 431.335 742.739 436.213C740.162 439.802 737.585 440.815 733.811 441.367C731.055 441.802 726.985 441.837 722.771 441.697C720.829 441.633 719.321 440.361 718.87 438.47C718.124 435.348 720.451 431.201 723.659 431.313C726.215 431.402 728.287 431.427 729.485 431.427C731.326 431.427 732.338 431.059 733.535 429.77C736.48 426.641 737.677 410.811 738.689 372.432ZM714.864 359.899C715.455 357.779 717.594 356.455 719.737 356.958L722.447 357.595C724.639 358.109 725.98 360.333 725.341 362.492C722.234 373.003 717.828 383.415 713.091 391.202C711.843 393.254 709.016 393.594 707.068 392.19C706.536 391.806 705.988 391.421 705.442 391.048C703.418 389.66 702.888 386.803 704.221 384.743C708.585 377.997 712.323 369.019 714.864 359.899ZM713.663 400.395C712.417 398.455 713.052 395.864 715.062 394.731L716.866 393.713C718.651 392.707 720.907 393.21 722.082 394.888C725.346 399.553 728.999 404.947 731.593 409.29C732.676 411.104 732.037 413.414 730.232 414.511L727.947 415.9C725.884 417.154 723.171 416.315 722.02 414.193C719.74 409.987 716.589 404.95 713.663 400.395Z" fill="#343434"/>
<path d="M762.712 499.533H433.773C726.164 492.164 815.343 444.263 838.734 349.514C838.246 380.219 838.734 438.999 838.734 464.002C838.734 491.637 812.419 499.533 762.712 499.533Z" fill="#D7CC9A" fill-opacity="0.5"/>
<path d="M133.275 351.814C13.6276 201.795 298.956 111.254 327.012 84.9089C364.747 49.4748 320.106 9.89916 293.417 36.1295C266.728 62.3599 299.096 134.119 390.977 111.599C437.916 100.095 441.596 22.7843 491.801 14.5009C534.42 7.46918 566.561 25.2621 590.235 65.4095" stroke="#161616" stroke-width="5" stroke-linecap="round" stroke-linejoin="round" stroke-dasharray="25 15"/>
<rect x="296.641" y="149.795" width="73.6292" height="369.066" rx="12" fill="#CA2E33"/>
<path d="M338.979 149.795H358.271C364.898 149.795 370.271 155.168 370.271 161.795V506.861C370.271 513.488 364.898 518.861 358.271 518.861H338.979V149.795Z" fill="#B61A1F"/>
<rect x="306.764" y="162.68" width="53.3811" height="199.719" rx="7" fill="white" fill-opacity="0.6"/>
<rect x="313.209" y="175.422" width="40.496" height="4.40864" rx="2.20432" fill="#980A0A"/>
<rect x="313.209" y="345.422" width="40.496" height="4.40864" rx="2.20432" fill="#980A0A"/>
<circle cx="333.454" cy="448.913" r="26.6906" fill="#FF6A6F"/>
<circle cx="333.916" cy="448.453" r="21.6286" fill="#980A0A"/>
<rect x="164.406" y="148.875" width="73.6291" height="369.066" rx="12" transform="rotate(8.50819 164.406 148.875)" fill="#CA2E33"/>
<path d="M206.754 155.316L225.834 158.171C232.388 159.152 236.907 165.261 235.926 171.815L184.862 513.082C183.882 519.636 177.773 524.155 171.219 523.174L152.139 520.319L206.754 155.316Z" fill="#B61A1F"/>
<rect x="172.512" y="163.117" width="53.3811" height="199.719" rx="7" transform="rotate(8.50819 172.512 163.117)" fill="white" fill-opacity="0.6"/>
<rect x="176.998" y="176.672" width="40.496" height="4.40864" rx="2.20432" transform="rotate(8.50819 176.998 176.672)" fill="#980A0A"/>
<rect x="151.848" y="344.801" width="40.496" height="4.40864" rx="2.20432" transform="rotate(8.50819 151.848 344.801)" fill="#980A0A"/>
<circle cx="156.561" cy="450.148" r="26.6906" transform="rotate(8.50819 156.561 450.148)" fill="#FF6A6F"/>
<circle cx="157.083" cy="449.76" r="21.6286" transform="rotate(8.50819 157.083 449.76)" fill="#980A0A"/>
<rect x="296.641" y="149.795" width="369.066" height="61.6644" rx="11" transform="rotate(90 296.641 149.795)" fill="#AB8636"/>
<path d="M285.641 149.795C291.716 149.795 296.641 154.72 296.641 160.795L296.641 507.861C296.641 513.936 291.716 518.861 285.641 518.861L278.233 518.861L278.233 149.795L285.641 149.795Z" fill="#977222"/>
<path fill-rule="evenodd" clip-rule="evenodd" d="M287.442 185.088L287.442 248.876C287.442 251.085 285.651 252.876 283.442 252.876H249.105C246.896 252.876 245.105 251.085 245.105 248.876L245.105 185.088C245.105 182.879 246.896 181.088 249.105 181.088L253.389 181.088C255.229 181.088 256.15 182.008 256.15 182.929C256.15 196.734 276.398 197.194 276.398 182.929C276.398 181.912 277.222 181.088 278.239 181.088L279.159 181.088L283.442 181.088C285.651 181.088 287.442 182.879 287.442 185.088Z" fill="white"/>
<rect x="287.436" y="468.24" width="7.36292" height="42.3368" rx="3.68146" transform="rotate(90 287.436 468.24)" fill="#F5EAB8"/>
<rect x="278.172" y="212.381" width="4.78065" height="22.9471" rx="2.39032" transform="rotate(90 278.172 212.381)" fill="#B5B5B5"/>
<rect x="278.172" y="223.854" width="4.78065" height="22.9471" rx="2.39032" transform="rotate(90 278.172 223.854)" fill="#B5B5B5"/>
<rect x="278.172" y="235.328" width="4.78065" height="22.9471" rx="2.39032" transform="rotate(90 278.172 235.328)" fill="#B5B5B5"/>
<rect x="472.428" y="209.617" width="284.393" height="24.8498" rx="12.4249" fill="#AB8636" fill-opacity="0.4"/>
<rect x="475.082" y="82.3574" width="277.674" height="141.137" rx="9" fill="#F5EAB8"/>
<path d="M501.542 157.71H520.472V159.78H501.542V157.71ZM502.502 151.53H519.572V153.54H502.502V151.53ZM509.582 152.46H511.832V156.96C511.832 160.71 510.812 165.63 503.252 169.02C502.952 168.54 502.262 167.76 501.752 167.37C509.042 164.43 509.582 160.02 509.582 156.93V152.46ZM512.462 159.03C513.602 163.23 516.242 166.02 520.532 167.25C520.022 167.7 519.392 168.57 519.092 169.17C514.562 167.58 511.832 164.34 510.512 159.45L512.462 159.03ZM499.832 157.65V168.27H497.642V159.75H493.442V157.65H499.832ZM499.832 167.28C501.242 169.5 503.912 170.52 507.362 170.67C510.632 170.79 517.382 170.7 520.922 170.46C520.682 171 520.292 172.08 520.202 172.77C516.902 172.89 510.692 172.95 507.362 172.83C503.462 172.68 500.762 171.63 498.842 169.26C497.402 170.55 495.872 171.84 494.252 173.16L493.052 170.85C494.492 169.89 496.262 168.57 497.792 167.28H499.832ZM493.772 147.9L495.422 146.55C497.402 147.81 499.682 149.76 500.702 151.23L498.932 152.7C497.972 151.26 495.722 149.22 493.772 147.9ZM515.642 145.8L517.922 146.58C516.902 148.29 515.672 150.27 514.682 151.53L512.852 150.84C513.782 149.49 515.012 147.33 515.642 145.8ZM503.672 146.7L505.592 145.92C506.792 147.36 507.962 149.34 508.382 150.72L506.342 151.62C505.952 150.27 504.842 148.2 503.672 146.7ZM501.872 183.68L503.882 184.46C501.542 187.25 497.882 189.83 494.672 191.45C494.312 191.06 493.502 190.22 492.992 189.86C496.292 188.42 499.772 186.14 501.872 183.68ZM516.842 184.91L518.522 186.38C515.552 187.52 511.142 188.45 507.332 189.05C507.242 188.6 506.972 187.91 506.702 187.49C510.362 186.83 514.532 185.87 516.842 184.91ZM505.982 184.07H508.142V190.28C508.142 191.12 508.442 191.3 510.242 191.3C511.082 191.3 515.432 191.3 516.572 191.3C517.922 191.3 518.162 190.94 518.282 188.72C518.792 189.05 519.662 189.35 520.262 189.47C519.992 192.44 519.302 193.19 516.752 193.19C516.002 193.19 510.842 193.19 510.122 193.19C506.822 193.19 505.982 192.62 505.982 190.28V184.07ZM499.592 199.49V201.53H514.712V199.49H499.592ZM499.592 203V205.1H514.712V203H499.592ZM499.592 195.98V198.02H514.712V195.98H499.592ZM497.402 194.48H516.962V206.6H497.402V194.48ZM509.492 208.13L511.322 206.99C514.622 208.01 518.252 209.33 520.412 210.35L517.922 211.49C516.032 210.5 512.762 209.21 509.492 208.13ZM502.442 206.93L504.482 207.86C502.052 209.3 498.242 210.68 495.242 211.52C494.882 211.07 494.102 210.2 493.592 209.81C496.682 209.15 500.282 208.1 502.442 206.93ZM498.812 187.82L500.402 186.26L500.972 186.44V193.61H498.812V187.82Z" fill="black"/>
<rect x="460.467" y="62.3594" width="306.003" height="39.1403" rx="10" fill="#AB8636"/>
<rect x="460.467" y="87.5859" width="305.542" height="13.5834" rx="6.79168" fill="#977222"/>
<rect x="574.244" y="134.715" width="75.1599" height="23.9022" rx="11.9511" fill="#AB8636"/>
<path d="M717.795 213.821H600.357C704.746 210.634 736.585 189.919 744.936 148.943C744.762 162.222 744.936 187.642 744.936 198.455C744.936 210.406 735.541 213.821 717.795 213.821Z" fill="#E1D6A4"/>
</svg>
