<svg width="970" height="557" viewBox="0 0 970 557" fill="none" xmlns="http://www.w3.org/2000/svg">
<path fill-rule="evenodd" clip-rule="evenodd" d="M530.085 2.49142C647.988 -10.6191 772.995 29.1469 849.443 95.104C921.385 157.173 913.352 244.523 903.997 325.092C895.642 397.047 877.274 473.44 800.155 519.584C727.365 563.138 624.663 546.419 530.085 548.82C429.463 551.375 325.113 572.848 240.279 533.797C138.092 486.758 31.1903 411.938 44.0568 325.092C56.7001 239.753 208.527 214.793 296.158 156.628C376.947 103.004 421.5 14.5657 530.085 2.49142Z" fill="#2A2A2A"/>
<rect x="258.177" y="497.939" width="379.86" height="2.51009" rx="1.25504" fill="#0C0C0C"/>
<rect x="279.181" y="64.0039" width="347.223" height="306.197" rx="14" fill="#AB8636"/>
<rect x="296.19" y="76.0117" width="315.203" height="278.179" rx="14" fill="#7A0A0A"/>
<path d="M179.219 60.6447L259.827 73.3548C269.537 74.8857 276.694 83.2451 276.712 93.0745L277.15 334.984C277.168 344.876 269.952 353.295 260.173 354.79L179.126 367.182C167.017 369.033 156.104 359.662 156.104 347.412V80.4006C156.104 68.1127 167.081 58.7308 179.219 60.6447Z" fill="#AB8636"/>
<path d="M726.367 61.1447L645.759 73.8548C636.049 75.3857 628.892 83.7451 628.874 93.5745L628.435 335.484C628.418 345.376 635.634 353.795 645.413 355.29L726.459 367.682C738.569 369.533 749.482 360.162 749.482 347.912V80.9006C749.482 68.6127 738.505 59.2308 726.367 61.1447Z" fill="#AB8636"/>
<path d="M155.265 347.879C155.265 358.9 162.377 367.023 169.489 367.415L169.489 282.903C169.489 189.646 169.489 63.2334 169.489 60.3477C160.797 61.3496 155.266 69.1161 155.266 81.3865C155.266 93.4402 155.266 187.682 155.266 260.811L155.265 347.879Z" fill="#795404"/>
<path d="M749.316 351.055C749.316 362.045 743.041 367.024 736.766 367.415L736.766 283.103C736.766 189.974 736.766 63.6441 736.766 60.7656C744.435 61.7649 749.734 67.7728 749.734 80.0096C749.734 99.4927 749.316 339.565 749.316 351.055Z" fill="#795404"/>
<path d="M199.643 80.764L217.742 83.2937C225.4 84.364 229.649 92.8163 226.429 99.846C201.876 153.448 188.8 233.87 187.123 265.001L187.12 91.6583C187.12 84.9776 193.027 79.8392 199.643 80.764Z" fill="#BF9A4A"/>
<path d="M600.385 100.021L600.385 114.757C600.385 117.563 596.222 119.546 593.746 118.225C567.788 104.377 485.759 89.6395 463.297 89.0215L589.385 89.0215C595.46 89.0215 600.385 93.9463 600.385 100.021Z" fill="#982828"/>
<path d="M706.436 350.306L688.337 347.776C680.679 346.706 676.43 338.253 679.651 331.224C704.205 277.622 717.282 197.2 718.959 166.069L718.959 339.412C718.959 346.093 713.053 351.231 706.436 350.306Z" fill="#977222"/>
<rect x="277.182" y="84.5176" width="7.00451" height="28.018" rx="3.50225" fill="#F5EAB8"/>
<rect width="7.00451" height="28.018" rx="3.50225" transform="matrix(-1 0 0 1 629.4 84.5176)" fill="#F5EAB8"/>
<rect x="277.182" y="160.566" width="7.00451" height="28.018" rx="3.50225" fill="#F5EAB8"/>
<rect width="7.00451" height="28.018" rx="3.50225" transform="matrix(-1 0 0 1 629.4 160.566)" fill="#F5EAB8"/>
<rect x="277.182" y="238.617" width="7.00451" height="28.018" rx="3.50225" fill="#F5EAB8"/>
<rect width="7.00451" height="28.018" rx="3.50225" transform="matrix(-1 0 0 1 629.4 238.617)" fill="#F5EAB8"/>
<rect x="277.182" y="316.668" width="7.00451" height="28.018" rx="3.50225" fill="#F5EAB8"/>
<rect width="7.00451" height="28.018" rx="3.50225" transform="matrix(-1 0 0 1 629.4 316.668)" fill="#F5EAB8"/>
<path d="M277.672 75.5117V347.186" stroke="#F5EAB8" stroke-width="3" stroke-linecap="round"/>
<path d="M627.902 75.5117V347.186" stroke="#F5EAB8" stroke-width="3" stroke-linecap="round"/>
<rect x="295.188" y="370.201" width="314.202" height="30.0193" rx="5" fill="#181818"/>
<path d="M310.201 380.205C310.201 377.996 311.992 376.205 314.201 376.205H331.215C331.768 376.205 332.215 376.653 332.215 377.205V391.215C332.215 391.768 331.768 392.215 331.215 392.215H314.201C311.992 392.215 310.201 390.425 310.201 388.215V380.205Z" fill="#F5EAB8"/>
<path d="M522.337 380.205C522.337 377.996 524.128 376.205 526.337 376.205H543.351C543.903 376.205 544.351 376.653 544.351 377.205V391.215C544.351 391.768 543.903 392.215 543.351 392.215H526.337C524.128 392.215 522.337 390.425 522.337 388.215V380.205Z" fill="#F5EAB8"/>
<rect x="331.217" y="376.205" width="29.0187" height="16.0103" fill="#CA2E33"/>
<rect x="543.355" y="376.205" width="29.0187" height="16.0103" fill="#CA2E33"/>
<path d="M359.235 376.205H378.25C380.459 376.205 382.25 377.996 382.25 380.205V388.215C382.25 390.425 380.459 392.215 378.25 392.215H359.235V376.205Z" fill="white"/>
<path d="M571.371 376.205H590.386C592.595 376.205 594.386 377.996 594.386 380.205V388.215C594.386 390.425 592.595 392.215 590.386 392.215H571.371V376.205Z" fill="white"/>
<rect x="402.258" y="376.705" width="99.0637" height="16.0103" rx="5" fill="#F5EAB8"/>
<rect x="402.258" y="385.211" width="99.0637" height="8.00515" rx="4.00258" fill="#AB8636"/>
<rect x="294.188" y="400.221" width="315.203" height="14.009" rx="7.00451" fill="#8E1E1E"/>
<rect x="294.188" y="408.227" width="315.203" height="6.00386" rx="3.00193" fill="#700000"/>
<rect x="302.194" y="414.23" width="91.0586" height="22.0142" rx="5" fill="black"/>
<rect x="507.33" y="414.23" width="91.0586" height="22.0142" rx="5" fill="black"/>
<path d="M305.193 436.244H346.22V488.283C346.22 493.254 342.19 497.283 337.22 497.283H314.193C309.223 497.283 305.193 493.254 305.193 488.283V436.244Z" fill="#181818"/>
<path d="M331.217 436.244H346.226V489.779C346.226 493.923 342.866 497.283 338.722 497.283C334.577 497.283 331.217 493.923 331.217 489.779V436.244Z" fill="black"/>
<path d="M510.328 436.244H551.355V488.283C551.355 493.254 547.325 497.283 542.355 497.283H519.328C514.358 497.283 510.328 493.254 510.328 488.283V436.244Z" fill="#181818"/>
<path d="M349.226 436.244H390.252V488.283C390.252 493.254 386.223 497.283 381.252 497.283H358.226C353.255 497.283 349.226 493.254 349.226 488.283V436.244Z" fill="#181818"/>
<path d="M554.357 436.244H595.384V488.283C595.384 493.254 591.354 497.283 586.384 497.283H563.357C558.387 497.283 554.357 493.254 554.357 488.283V436.244Z" fill="#181818"/>
<rect x="476.816" y="162.709" width="95.9841" height="46.6084" rx="10" fill="#F5EAB8"/>
<rect x="471.759" y="154.062" width="106.088" height="15.035" rx="7.51748" fill="#AB8636"/>
<rect x="511.09" y="179.998" width="25.9807" height="7.89336" rx="3.94668" fill="#AB8636"/>
<path d="M560.702 206.12H520.107C556.192 205.068 567.197 198.227 570.084 184.695C570.024 189.081 570.084 197.475 570.084 201.046C570.084 204.993 566.837 206.12 560.702 206.12Z" fill="#D7CC9A"/>
<rect x="341.266" y="110.686" width="76.9543" height="35.8734" rx="10" fill="#F5EAB8"/>
<rect x="337.215" y="104.031" width="85.0547" height="11.5721" rx="5.78603" fill="#AB8636"/>
<rect x="368.749" y="123.992" width="20.8297" height="6.07534" rx="3.03767" fill="#AB8636"/>
<path d="M408.527 144.1H375.98C404.911 143.29 413.734 138.024 416.049 127.609C416.001 130.985 416.049 137.446 416.049 140.194C416.049 143.232 413.445 144.1 408.527 144.1Z" fill="#D7CC9A"/>
<path d="M458.473 230.162H598.218V340.237C598.218 347.969 591.95 354.237 584.218 354.237H472.473C464.741 354.237 458.473 347.969 458.473 340.237V230.162Z" fill="#F5EAB8"/>
<rect x="451.297" y="210.348" width="154.098" height="25.0038" rx="12.5019" fill="#AB8636"/>
<path d="M575.184 210.348H592.897C599.802 210.348 605.399 215.945 605.399 222.85C605.399 229.754 599.802 235.351 592.897 235.351H575.184V210.348Z" fill="#8D6818"/>
<path d="M569.516 235.352H598.22V340.237C598.22 347.969 591.952 354.237 584.22 354.237H569.516V235.352Z" fill="#D7CC9A"/>
<rect x="311.143" y="258.336" width="135.327" height="94.9016" rx="14" fill="#F5EAB8"/>
<rect x="304.198" y="243.18" width="149.225" height="19.1247" rx="9.56233" fill="#AB8636"/>
<path d="M424.169 243.18H443.866C449.148 243.18 453.429 247.461 453.429 252.742C453.429 258.023 449.148 262.304 443.866 262.304H424.169V243.18Z" fill="#8D6818"/>
<path d="M418.677 262.305H446.474V339.237C446.474 346.969 440.206 353.237 432.474 353.237H418.677V262.305Z" fill="#D7CC9A"/>
<rect x="327.69" y="160.268" width="104.239" height="82.7224" rx="14" fill="#F5EAB8"/>
<rect x="322.338" y="147.057" width="114.944" height="16.6703" rx="8.33515" fill="#AB8636"/>
<path d="M414.746 147.057H428.949C433.552 147.057 437.284 150.788 437.284 155.392C437.284 159.995 433.552 163.727 428.949 163.727H414.746V147.057Z" fill="#8D6818"/>
<path d="M410.516 163.727H431.927V228.989C431.927 236.721 425.659 242.989 417.927 242.989H410.516V163.727Z" fill="#D7CC9A"/>
<rect x="317.856" y="298.977" width="48.0309" height="5.00322" rx="2.50161" fill="#CA2E33"/>
<rect x="341.848" y="219.318" width="29.2844" height="14.2238" rx="5" fill="#343434"/>
<mask id="mask0_594_9862" style="mask-type:luminance" maskUnits="userSpaceOnUse" x="465" y="243" width="75" height="39">
<path d="M507.843 281.137L512.943 257.631H535.894L533.994 266.39H517.489L519.987 268.174L517.174 281.137H507.843ZM465.303 281.137L473.552 243.119H539.05L537.149 251.878H510.836V245.004L509.342 251.871L502.994 281.137H493.663L500.017 251.878H492.284L494.782 253.661L488.819 281.144H479.483L485.832 251.878H478.098L480.596 253.661L474.633 281.144H465.303V281.137Z" fill="white"/>
</mask>
<g mask="url(#mask0_594_9862)">
<path d="M539.05 243.119H465.303V281.137H539.05V243.119Z" fill="#020202"/>
</g>
<path d="M327.594 282.65H340.265V284.036H327.594V282.65ZM328.237 278.513H339.662V279.859H328.237V278.513ZM332.976 279.136H334.482V282.148C334.482 284.658 333.799 287.951 328.739 290.22C328.538 289.899 328.076 289.377 327.735 289.116C332.614 287.148 332.976 284.196 332.976 282.128V279.136ZM334.903 283.534C335.666 286.345 337.434 288.212 340.305 289.036C339.964 289.337 339.542 289.919 339.341 290.321C336.309 289.257 334.482 287.088 333.598 283.815L334.903 283.534ZM326.449 282.61V289.718H324.983V284.016H322.172V282.61H326.449ZM326.449 289.056C327.393 290.542 329.18 291.224 331.49 291.325C333.678 291.405 338.197 291.345 340.566 291.184C340.405 291.546 340.144 292.269 340.084 292.731C337.875 292.811 333.719 292.851 331.49 292.771C328.879 292.67 327.072 291.967 325.787 290.381C324.823 291.245 323.799 292.108 322.714 292.992L321.911 291.445C322.875 290.803 324.06 289.919 325.084 289.056H326.449ZM322.393 276.084L323.498 275.18C324.823 276.023 326.349 277.329 327.032 278.313L325.847 279.297C325.204 278.333 323.698 276.967 322.393 276.084ZM337.032 274.678L338.558 275.2C337.875 276.345 337.052 277.67 336.389 278.513L335.164 278.052C335.787 277.148 336.61 275.702 337.032 274.678ZM329.02 275.28L330.305 274.758C331.108 275.722 331.891 277.048 332.172 277.971L330.807 278.574C330.546 277.67 329.803 276.284 329.02 275.28Z" fill="black"/>
<path d="M347.896 274.598L349.241 275.12C347.675 276.987 345.225 278.714 343.076 279.799C342.835 279.538 342.293 278.975 341.952 278.734C344.161 277.77 346.49 276.244 347.896 274.598ZM357.916 275.421L359.04 276.405C357.052 277.168 354.101 277.79 351.55 278.192C351.49 277.891 351.309 277.429 351.129 277.148C353.578 276.706 356.37 276.064 357.916 275.421ZM350.647 274.859H352.092V279.015C352.092 279.578 352.293 279.698 353.498 279.698C354.06 279.698 356.972 279.698 357.735 279.698C358.639 279.698 358.799 279.457 358.88 277.971C359.221 278.192 359.803 278.393 360.205 278.473C360.024 280.461 359.562 280.963 357.856 280.963C357.354 280.963 353.9 280.963 353.418 280.963C351.209 280.963 350.647 280.582 350.647 279.015V274.859ZM346.369 285.18V286.546H356.49V285.18H346.369ZM346.369 287.53V288.935H356.49V287.53H346.369ZM346.369 282.831V284.196H356.49V282.831H346.369ZM344.904 281.827H357.996V289.939H344.904V281.827ZM352.996 290.963L354.221 290.2C356.43 290.883 358.86 291.767 360.305 292.449L358.639 293.212C357.374 292.55 355.185 291.686 352.996 290.963ZM348.277 290.16L349.643 290.783C348.016 291.747 345.466 292.67 343.458 293.233C343.217 292.931 342.695 292.349 342.353 292.088C344.422 291.646 346.831 290.943 348.277 290.16ZM345.847 277.369L346.912 276.325L347.293 276.445V281.244H345.847V277.369Z" fill="black"/>
<path d="M375.246 436.244H390.256V489.779C390.256 493.923 386.896 497.283 382.751 497.283C378.606 497.283 375.246 493.923 375.246 489.779V436.244Z" fill="black"/>
<path d="M536.348 436.244H551.357V489.779C551.357 493.923 547.997 497.283 543.852 497.283C539.708 497.283 536.348 493.923 536.348 489.779V436.244Z" fill="black"/>
<path d="M580.373 436.244H595.383V489.779C595.383 493.923 592.023 497.283 587.878 497.283C583.733 497.283 580.373 493.923 580.373 489.779V436.244Z" fill="black"/>
<path d="M403.763 414.27H498.309V422.514C498.309 428.589 493.385 433.514 487.309 433.514H414.763C408.688 433.514 403.763 428.589 403.763 422.514V414.27Z" fill="#0E0E0E"/>
<mask id="mask1_594_9862" style="mask-type:alpha" maskUnits="userSpaceOnUse" x="43" y="0" width="867" height="557">
<path fill-rule="evenodd" clip-rule="evenodd" d="M530.085 2.49142C647.988 -10.6191 772.995 29.1469 849.443 95.104C921.385 157.173 913.352 244.523 903.997 325.092C895.642 397.047 877.274 473.44 800.155 519.584C727.365 563.138 624.663 546.419 530.085 548.82C429.463 551.375 325.113 572.848 240.279 533.797C138.092 486.758 31.1903 411.938 44.0568 325.092C56.7001 239.753 208.527 214.793 296.158 156.628C376.947 103.004 421.501 14.5657 530.085 2.49142Z" fill="#2A2A2A"/>
</mask>
<g mask="url(#mask1_594_9862)">
<path d="M576.681 489.34C609.214 498.969 621.123 525.453 623.486 540.284C623.73 541.818 624.987 543 626.541 543H768.653C770.134 543 771.357 541.904 772.068 540.604C777.112 531.388 801.681 517.413 820.085 510.881C822.451 510.042 822.61 507.497 820.131 507.103C811.818 505.784 797.337 506.514 784.77 510.778C782.606 511.512 780.797 509.894 782.078 508.001C787.112 500.564 800.434 489.475 812.099 482.666C814.721 481.136 814.131 476.691 811.108 476.411C788.469 474.311 771.679 480.77 757.099 489.727C755.216 490.884 752.904 489.719 753.321 487.549C755.277 477.368 765.459 461.653 777.897 451.411C780.258 449.466 779.032 445.465 776.017 445.988C760.273 448.717 743.622 458.064 730.179 470.9C728.492 472.511 725.674 471.782 725.253 469.488C721.695 450.11 727.111 428.629 731.199 410.983C731.83 408.261 728.842 406.448 726.862 408.419C711.534 423.675 700.085 448.037 695.625 466.481C694.896 469.495 689.923 470.256 688.38 467.566C670.241 435.959 646.541 429.447 632.271 430.576C629.759 430.775 629.132 433.87 631.049 435.507C640.786 443.819 654.151 459.316 658.149 478.381C658.752 481.257 655.128 482.705 653.036 480.641C644.706 472.425 636.104 468.984 629.925 467.896C627.467 467.463 626.262 470.266 627.749 472.27C630.957 476.591 634.663 482.733 636.953 489.658C637.853 492.38 634.529 494.179 632.192 492.517C613.594 479.294 587.983 480.43 576.068 485.041C573.789 485.923 574.337 488.646 576.681 489.34Z" fill="#161616"/>
<path d="M559.665 513.62C585.066 521.596 594.644 542.285 596.729 554.287C596.994 555.818 598.262 557 599.816 557H714.74C716.221 557 717.477 555.892 718.252 554.63C722.749 547.309 741.498 536.602 756.093 531.237C758.451 530.37 758.564 527.914 756.07 527.61C749.37 526.794 738.737 527.436 729.258 530.47C727.082 531.166 725.357 529.575 726.715 527.738C730.896 522.082 740.271 514.237 748.946 508.899C751.532 507.307 750.891 502.821 747.86 502.619C730.773 501.478 717.832 506.372 706.547 513.166C704.655 514.305 702.39 513.139 702.901 510.991C704.769 503.143 712.107 491.783 721.195 483.757C723.489 481.731 722.203 477.752 719.21 478.396C707.251 480.97 694.807 488.054 684.548 497.623C682.844 499.213 680.033 498.478 679.654 496.179C677.226 481.425 680.994 465.272 684.178 451.621L684.33 450.972C684.964 448.252 682.014 446.471 680.08 448.485C668.668 460.371 660.032 478.32 656.187 492.612C655.382 495.606 650.267 496.387 648.66 493.736C634.506 470.394 616.583 464.917 605.145 465.385C602.625 465.488 601.975 468.568 603.865 470.237C611.409 476.9 621.157 488.487 624.691 502.66C625.402 505.511 621.808 506.99 619.637 505.011C613.74 499.635 607.78 497.079 603.181 496.065C600.743 495.527 599.514 498.293 600.961 500.328C603.163 503.427 605.551 507.483 607.253 512.024C608.259 514.708 604.97 516.542 602.568 514.978C588.056 505.524 568.957 506.105 559.16 509.433C556.844 510.22 557.332 512.887 559.665 513.62Z" fill="#484848"/>
</g>
</svg>
