<svg width="275" height="433" viewBox="0 0 275 433" fill="none" xmlns="http://www.w3.org/2000/svg">
<rect x="27.1094" y="125.703" width="247.375" height="280.268" rx="50" fill="#CA2E33"/>
<path d="M37.9031 104.725L62.3927 96.9552C66.5374 95.6403 67.1812 89.4817 63.4014 87.3059L29.2501 67.6467C25.3583 65.4063 20.9484 69.7272 22.5336 74.2275L32.1953 101.656C33.0728 104.147 35.5408 105.474 37.9031 104.725Z" fill="#CA2E33"/>
<path d="M98.8578 52.4425L84.7247 75.6505C82.3036 79.6262 76.7349 78.5568 76.0038 73.9756L69.3639 32.3726C68.605 27.6175 73.8117 24.2254 77.2271 27.2499L98 45.6448C99.8509 47.2838 100.22 50.2061 98.8578 52.4425Z" fill="#CA2E33"/>
<path d="M94.8597 50.6278L91.9415 55.4198C90.973 57.0101 88.7456 56.5823 88.4531 54.7498L87.0821 46.1596C86.7785 44.2576 88.8612 42.9007 90.2274 44.1105L94.5166 47.9087C95.2569 48.5643 95.4044 49.7332 94.8597 50.6278Z" fill="#DE4247"/>
<path d="M36.149 97.7499L33.9957 92.1855C33.3443 90.5022 35.0798 88.8854 36.7128 89.6542L44.1122 93.1376C45.6963 93.8834 45.6253 96.1606 43.9978 96.8062L38.7516 98.8872C37.7188 99.2969 36.55 98.7862 36.149 97.7499Z" fill="#DE4247"/>
<path d="M8.11124 32.8717L60.3758 77.8309C64.0086 80.9559 69.5634 77.1228 68.3464 72.3307L51.5387 6.15107C50.7411 3.01039 47.2959 1.60296 44.5006 3.27588L9.04379 24.4963C6.00822 26.3131 5.52561 30.6475 8.11124 32.8717Z" fill="#CA2E33"/>
<path d="M48.2926 13.1163L54.7549 37.5195C55.3331 39.7027 52.7053 41.2391 51.4108 39.4746L36.2974 18.8745C35.5019 17.7902 35.9213 16.1476 37.1292 15.6166L45.7802 11.8134C46.8259 11.3537 47.985 11.9548 48.2926 13.1163Z" fill="#DE4247"/>
<rect x="93.3281" y="106.809" width="115.312" height="63.7935" rx="9" fill="#F5EAB8"/>
<rect x="87.2578" y="97.7695" width="127.076" height="17.6913" rx="8.84565" fill="#AB8636"/>
<rect x="134.51" y="130.475" width="31.2122" height="10.8037" rx="5.40187" fill="#AB8636"/>
<path d="M194.117 166.229H145.348C188.698 164.788 201.92 155.425 205.388 136.904C205.316 142.906 205.388 154.396 205.388 159.283C205.388 164.685 201.486 166.229 194.117 166.229Z" fill="#EBE0AE"/>
<rect x="80.8828" y="184.871" width="139.825" height="90.6399" rx="9" fill="#F5EAB8"/>
<rect x="73.7031" y="168.533" width="154.186" height="20.4847" rx="10.2423" fill="#AB8636"/>
<path d="M197.656 170.395H218.756C223.8 170.395 227.889 174.483 227.889 179.527C227.889 184.571 223.8 188.66 218.756 188.66H197.656V170.395Z" fill="#A17C2C"/>
<path d="M191.988 188.66H220.709V261.509C220.709 269.241 214.441 275.509 206.709 275.509H191.988V188.66Z" fill="#EBE0AE"/>
<rect x="57.0449" y="297.281" width="187.019" height="135.304" rx="14" fill="#F5EAB8"/>
<rect x="47.4414" y="275.676" width="206.226" height="27.2666" rx="13.6333" fill="#AB8636"/>
<path d="M213.23 275.676H240.034C247.563 275.676 253.667 281.78 253.667 289.309C253.667 296.839 247.563 302.942 240.034 302.942H213.23V275.676Z" fill="#A17C2C"/>
<path d="M205.65 302.941H244.065V418.586C244.065 426.318 237.797 432.586 230.065 432.586H205.65V302.941Z" fill="#EBE0AE"/>
<path d="M107.666 154.486H116.219V155.514H107.666V154.486ZM108.1 151.417H115.812V152.415H108.1V151.417ZM111.299 151.879H112.315V154.113C112.315 155.976 111.854 158.419 108.439 160.102C108.303 159.864 107.991 159.477 107.761 159.283C111.055 157.823 111.299 155.633 111.299 154.098V151.879ZM112.6 155.141C113.115 157.227 114.308 158.613 116.246 159.223C116.016 159.447 115.731 159.879 115.595 160.177C113.549 159.387 112.315 157.778 111.719 155.35L112.6 155.141ZM106.893 154.456V159.73H105.904V155.499H104.006V154.456H106.893ZM106.893 159.238C107.53 160.341 108.737 160.847 110.296 160.922C111.773 160.981 114.823 160.937 116.422 160.817C116.314 161.086 116.138 161.622 116.097 161.965C114.606 162.024 111.8 162.054 110.296 161.994C108.533 161.92 107.313 161.398 106.446 160.222C105.795 160.862 105.104 161.503 104.372 162.158L103.83 161.011C104.481 160.534 105.28 159.879 105.972 159.238H106.893ZM104.155 149.614L104.901 148.944C105.795 149.569 106.825 150.538 107.286 151.268L106.487 151.998C106.053 151.283 105.036 150.27 104.155 149.614ZM114.037 148.571L115.067 148.959C114.606 149.808 114.05 150.791 113.603 151.417L112.776 151.074C113.196 150.404 113.752 149.331 114.037 148.571ZM108.628 149.018L109.496 148.631C110.038 149.346 110.567 150.329 110.756 151.015L109.835 151.462C109.658 150.791 109.157 149.763 108.628 149.018Z" fill="black"/>
<path d="M121.37 148.512L122.278 148.899C121.221 150.285 119.567 151.566 118.117 152.37C117.954 152.177 117.588 151.759 117.358 151.581C118.849 150.866 120.421 149.733 121.37 148.512ZM128.134 149.123L128.893 149.853C127.551 150.419 125.558 150.88 123.837 151.178C123.796 150.955 123.674 150.612 123.552 150.404C125.206 150.076 127.09 149.599 128.134 149.123ZM123.227 148.705H124.203V151.789C124.203 152.206 124.338 152.296 125.152 152.296C125.531 152.296 127.497 152.296 128.012 152.296C128.622 152.296 128.73 152.117 128.784 151.015C129.015 151.178 129.408 151.327 129.679 151.387C129.557 152.862 129.245 153.234 128.093 153.234C127.754 153.234 125.423 153.234 125.097 153.234C123.606 153.234 123.227 152.951 123.227 151.789V148.705ZM120.34 156.363V157.376H127.171V156.363H120.34ZM120.34 158.106V159.149H127.171V158.106H120.34ZM120.34 154.62V155.633H127.171V154.62H120.34ZM119.35 153.875H128.188V159.894H119.35V153.875ZM124.813 160.654L125.64 160.087C127.131 160.594 128.771 161.249 129.747 161.756L128.622 162.322C127.768 161.83 126.29 161.19 124.813 160.654ZM121.627 160.058L122.549 160.519C121.451 161.235 119.73 161.92 118.374 162.337C118.212 162.114 117.859 161.682 117.629 161.488C119.025 161.16 120.651 160.639 121.627 160.058ZM119.987 150.568L120.706 149.793L120.963 149.882V153.443H119.987V150.568Z" fill="black"/>
<path d="M112.2 218.927H114.206V246.309H112.2V218.927ZM109.76 224.677L111.305 224.946C111.17 227.359 110.655 230.786 109.95 232.961L108.35 232.365C109.055 230.368 109.57 227.091 109.76 224.677ZM114.26 224.409L115.724 223.724C116.565 225.482 117.459 227.776 117.812 229.147L116.266 230.011C115.968 228.581 115.074 226.197 114.26 224.409ZM117.974 223.694H131.394V233.825H129.387V225.81H117.974V223.694ZM116.538 232.633H133.725V234.778H116.538V232.633ZM125.646 233.08C126.92 238.235 129.713 242.644 133.969 244.373C133.481 244.849 132.83 245.803 132.505 246.428C128.005 244.283 125.294 239.486 123.83 233.497L125.646 233.08ZM123.288 218.927H125.321V228.879C125.321 234.719 124.643 241.899 117.053 246.458C116.781 245.982 116.104 245.177 115.643 244.73C123.017 240.678 123.288 234.093 123.288 228.879V218.927Z" fill="black"/>
<path d="M141.777 230.696V241.244H139.798V232.782H136.002V230.696H141.777ZM141.777 240.261C143.051 242.466 145.463 243.479 148.581 243.628C151.536 243.747 157.636 243.657 160.835 243.419C160.618 243.955 160.265 245.028 160.184 245.713C157.202 245.833 151.59 245.892 148.581 245.773C145.057 245.624 142.617 244.581 140.882 242.227C139.581 243.508 138.198 244.79 136.734 246.101L135.65 243.806C136.951 242.853 138.551 241.542 139.933 240.261H141.777ZM136.3 221.013L137.791 219.672C139.581 220.923 141.614 222.86 142.563 224.32L140.963 225.78C140.096 224.35 138.063 222.324 136.3 221.013ZM146.331 228.253V232.037H157.093V228.253H146.331ZM144.433 226.435H159.073V233.855H144.433V226.435ZM143.322 222.055H160.292V223.992H143.322V222.055ZM150.614 218.986H152.566V242.495H150.614V218.986ZM149.937 233.139L151.428 233.765C149.828 236.953 146.873 240.052 144.135 241.631C143.837 241.095 143.24 240.32 142.807 239.933C145.491 238.652 148.446 235.881 149.937 233.139ZM153.054 233.139C154.681 235.762 157.771 238.503 160.455 239.784C159.994 240.231 159.371 240.976 159.073 241.542C156.416 239.963 153.325 236.804 151.617 233.855L153.054 233.139Z" fill="black"/>
<path d="M179.025 218.927H180.95V239.695H179.025V218.927ZM170.486 231.233L185.098 224.469L185.857 226.376L171.272 233.199L170.486 231.233ZM173.413 221.728H175.365V241.661C175.365 243.3 175.691 243.657 177.507 243.657C178.402 243.657 182.956 243.657 184.04 243.657C185.64 243.657 185.911 242.853 186.101 239.426C186.589 239.784 187.375 240.142 187.944 240.261C187.619 244.373 186.968 245.684 184.122 245.684C183.39 245.684 178.131 245.684 177.453 245.684C174.335 245.684 173.413 244.879 173.413 241.631V221.728ZM184.745 224.767H184.501L184.989 224.32L185.342 223.992L186.779 224.588L186.697 225.005C186.697 230.607 186.616 235.076 186.426 236.238C186.263 237.43 185.748 237.996 184.962 238.205C184.23 238.413 183.146 238.413 182.414 238.413C182.333 237.817 182.17 236.983 181.926 236.477C182.549 236.506 183.444 236.506 183.742 236.506C184.149 236.506 184.42 236.387 184.556 235.702C184.718 234.927 184.745 230.696 184.745 224.767ZM162.922 226.108H171.543V228.223H162.922V226.108ZM166.419 219.284H168.344V238.622H166.419V219.284ZM162.678 239.397C164.874 238.503 168.208 236.953 171.434 235.434L171.868 237.43C168.968 238.95 165.904 240.469 163.491 241.602L162.678 239.397Z" fill="black"/>
<path d="M79.1601 317.626H81.1662V345.008H79.1601V317.626ZM76.7202 323.376L78.2655 323.644C78.1299 326.058 77.6149 329.484 76.91 331.66L75.3105 331.064C76.0154 329.067 76.5305 325.79 76.7202 323.376ZM81.2204 323.108L82.6844 322.423C83.5248 324.181 84.4194 326.475 84.7718 327.846L83.2266 328.71C82.9284 327.28 82.0337 324.896 81.2204 323.108ZM84.9345 322.393H98.3537V332.524H96.3476V324.509H84.9345V322.393ZM83.4977 331.332H100.685V333.477H83.4977V331.332ZM92.6065 331.779C93.8806 336.933 96.6729 341.343 100.929 343.071C100.441 343.548 99.7905 344.502 99.4652 345.127C94.965 342.982 92.2541 338.185 90.7901 332.196L92.6065 331.779ZM90.2479 317.626H92.2812V327.578C92.2812 333.418 91.6034 340.598 84.0127 345.157C83.7416 344.68 83.0639 343.876 82.603 343.429C89.9769 339.377 90.2479 332.792 90.2479 327.578V317.626Z" fill="black"/>
<path d="M81.6271 366.64V377.188H79.6481V368.726H75.8527V366.64H81.6271ZM81.6271 376.204C82.9012 378.409 85.314 379.422 88.4316 379.571C91.3866 379.691 97.4862 379.601 100.685 379.363C100.468 379.899 100.116 380.972 100.035 381.657C97.0525 381.776 91.4408 381.836 88.4316 381.717C84.9074 381.568 82.4675 380.525 80.7325 378.171C79.4312 379.452 78.0486 380.733 76.5847 382.044L75.5003 379.75C76.8016 378.797 78.401 377.486 79.7836 376.204H81.6271ZM76.1509 356.956L77.642 355.615C79.4312 356.867 81.4644 358.804 82.4133 360.264L80.8138 361.724C79.9463 360.293 77.9131 358.267 76.1509 356.956ZM86.1815 364.197V367.981H96.944V364.197H86.1815ZM84.2838 362.379H98.923V369.798H84.2838V362.379ZM83.1723 357.999H100.143V359.936H83.1723V357.999ZM90.4648 354.93H92.4167V378.439H90.4648V354.93ZM89.7871 369.083L91.2781 369.709C89.6786 372.897 86.7237 375.996 83.9856 377.575C83.6874 377.039 83.091 376.264 82.6573 375.877C85.3411 374.595 88.2961 371.824 89.7871 369.083ZM92.9047 369.083C94.5313 371.705 97.6218 374.446 100.306 375.728C99.8448 376.175 99.2212 376.92 98.923 377.486C96.2663 375.906 93.1758 372.748 91.4679 369.798L92.9047 369.083Z" fill="black"/>
<path d="M91.7661 392.115H93.6909V412.883H91.7661V392.115ZM83.2266 404.421L97.8386 397.657L98.5977 399.564L84.0127 406.388L83.2266 404.421ZM86.1544 394.916H88.1063V414.85C88.1063 416.488 88.4316 416.846 90.2479 416.846C91.1426 416.846 95.697 416.846 96.7814 416.846C98.3808 416.846 98.6519 416.042 98.8417 412.615C99.3297 412.973 100.116 413.33 100.685 413.449C100.36 417.561 99.7092 418.872 96.8627 418.872C96.1307 418.872 90.8715 418.872 90.1937 418.872C87.0761 418.872 86.1544 418.068 86.1544 414.82V394.916ZM97.4862 397.955H97.2422L97.7302 397.508L98.0826 397.181L99.5194 397.777L99.4381 398.194C99.4381 403.795 99.3568 408.265 99.167 409.427C99.0044 410.619 98.4893 411.185 97.7031 411.393C96.9711 411.602 95.8868 411.602 95.1548 411.602C95.0735 411.006 94.9108 410.172 94.6668 409.665C95.2903 409.695 96.185 409.695 96.4832 409.695C96.8898 409.695 97.1609 409.576 97.2965 408.891C97.4591 408.116 97.4862 403.885 97.4862 397.955ZM75.663 399.296H84.2838V401.412H75.663V399.296ZM79.1601 392.473H81.0849V411.811H79.1601V392.473ZM75.419 412.585C77.6149 411.691 80.9493 410.142 84.1754 408.622L84.6091 410.619C81.7084 412.138 78.645 413.658 76.2323 414.79L75.419 412.585Z" fill="black"/>
</svg>
