<svg width="24" height="24" viewBox="0 0 24 24" fill="none" xmlns="http://www.w3.org/2000/svg">
<path d="M4 4H20C21.1 4 22 4.9 22 6V18C22 19.1 21.1 20 20 20H4C2.9 20 2 19.1 2 18V6C2 4.9 2.9 4 4 4Z" fill="#CA2E33"/>
<path d="M22.7071 6.70715L23 6.41426V6.00004C23 5.00955 22.6582 4.20511 22.0152 3.66929C21.4043 3.1602 20.6485 3.00001 20 3.00004C16.6438 3.00021 14.0798 3.00014 11.457 3.00007C9.19662 3.00002 6.8925 2.99996 3.99997 3.00004C3.35141 3.00006 2.5957 3.16028 1.98482 3.66934C1.34185 4.20515 1 5.00957 1 6.00004V6.41425L1.29288 6.70714C3.51955 8.93386 7.88992 12.7635 10.0502 14.6376C11.1713 15.6102 12.8287 15.6102 13.9498 14.6376C16.1101 12.7635 20.4804 8.93386 22.7071 6.70715Z" fill="#E84C51" stroke="#181818" stroke-width="2"/>
</svg>
