<svg width="32" height="32" viewBox="0 0 32 32" fill="none" xmlns="http://www.w3.org/2000/svg">
<g clip-path="url(#clip0_770_82782)">
<path fill-rule="evenodd" clip-rule="evenodd" d="M32 15.587C32 24.1942 24.9666 31.1739 16.2912 31.1739C13.5358 31.1739 10.948 30.4708 8.6978 29.2345L0 31.9989L2.83481 23.6364C1.40399 21.2868 0.581269 18.5324 0.581269 15.5881C0.581269 6.97859 7.61463 1.34271e-07 16.2912 1.34271e-07C24.9678 -0.00111769 32 6.97747 32 15.587ZM16.2923 2.48157C9.00744 2.48157 3.08408 8.36022 3.08408 15.587C3.08408 18.4531 4.01747 21.109 5.59919 23.2709L3.9504 28.1368L9.02533 26.5249C11.1101 27.8931 13.6084 28.6912 16.2923 28.6912C23.5738 28.6912 29.4994 22.8126 29.4994 15.587C29.4983 8.3591 23.5738 2.48157 16.2923 2.48157ZM24.2244 19.1774C24.1272 19.0176 23.8701 18.9226 23.4866 18.7314C23.101 18.5403 21.2074 17.6158 20.8542 17.4884C20.502 17.361 20.2427 17.2972 19.9878 17.6795C19.7307 18.0618 18.993 18.9226 18.7672 19.1774C18.5436 19.4334 18.3189 19.4636 17.9344 19.2724C17.5487 19.0813 16.3068 18.6766 14.8369 17.3766C13.6934 16.3627 12.9198 15.113 12.694 14.7307C12.4705 14.3484 12.6717 14.1427 12.8628 13.9516C13.0361 13.7794 13.2485 13.5056 13.4407 13.2831C13.6341 13.0596 13.6978 12.8986 13.8264 12.6437C13.9549 12.3889 13.8912 12.1664 13.794 11.9753C13.699 11.7841 12.9277 9.90394 12.6068 9.13823C12.2883 8.37475 11.9663 8.4027 11.7405 8.4027C11.517 8.4027 11.1011 8.46977 11.1011 8.46977C11.1011 8.46977 10.3287 8.56478 9.97659 8.94708C9.62448 9.32937 8.62961 10.2538 8.62961 12.1329C8.62961 14.0131 10.0079 15.8306 10.2013 16.0844C10.3947 16.3404 12.8639 20.3243 16.7797 21.8535C20.6943 23.3827 20.6943 22.873 21.4008 22.8081C22.1061 22.7455 23.6789 21.8848 23.9997 20.9917C24.3205 20.1007 24.3205 19.335 24.2244 19.1774Z" fill="#AB8636"/>
</g>
<defs>
<clipPath id="clip0_770_82782">
<rect width="32" height="32" fill="white"/>
</clipPath>
</defs>
</svg>
