<svg width="48" height="48" viewBox="0 0 48 48" fill="none" xmlns="http://www.w3.org/2000/svg">
<rect width="48" height="48" rx="8" fill="#AB8636"/>
<g clip-path="url(#clip0_2550_2178)">
<path d="M41.0016 28.0009C41.0016 23.5827 36.5224 20.002 31.001 20.002C25.4795 20.002 21.0039 23.5827 21.0039 28.0009C21.0039 32.4192 25.4795 35.9999 31.001 35.9999C31.9098 35.9999 32.7717 35.87 33.612 35.6895L39.0036 37.9997L37.1391 34.2745C39.4725 32.809 41.0016 30.5566 41.0016 28.0009ZM28.004 27.4992C27.1745 27.4992 26.5037 26.8278 26.5037 25.9976C26.5037 25.171 27.1745 24.4996 28.004 24.4996C28.8299 24.4996 29.5043 25.171 29.5043 25.9976C29.5007 26.8278 28.8299 27.4992 28.004 27.4992ZM34.0015 27.4992C33.172 27.4992 32.5012 26.8278 32.5012 25.9976C32.5012 25.171 33.172 24.4996 34.0015 24.4996C34.831 24.4996 35.5018 25.171 35.5018 25.9976C35.5018 26.8278 34.831 27.4992 34.0015 27.4992Z" fill="white"/>
<path d="M30.9993 17.999C31.6051 17.999 32.1966 18.0531 32.7808 18.1217C31.7241 13.4978 26.8555 10 20.9986 10C14.37 10 9 14.476 9 20.0023C9 23.1861 10.796 26.0088 13.5838 27.8389L12.0006 31.0046L16.3102 29.1564C17.2335 29.4849 18.1928 29.7556 19.2206 29.882C19.08 29.2719 19.0006 28.6475 19.0006 28.0049C19.0006 22.4858 24.3815 17.999 30.9993 17.999ZM25.0018 14.5012C25.8312 14.5012 26.502 15.1726 26.502 16.0029C26.502 16.8295 25.8312 17.5009 25.0018 17.5009C24.1723 17.5009 23.5015 16.8295 23.5015 16.0029C23.5015 15.169 24.1723 14.5012 25.0018 14.5012ZM17.0027 17.4972C16.1768 17.4972 15.5024 16.8259 15.5024 15.9992C15.5024 15.169 16.1732 14.4976 17.0027 14.4976C17.8322 14.4976 18.503 15.169 18.503 15.9992C18.4994 16.8295 17.8286 17.4972 17.0027 17.4972Z" fill="white"/>
</g>
<defs>
<clipPath id="clip0_2550_2178">
<rect width="32" height="32" fill="white" transform="translate(9 8)"/>
</clipPath>
</defs>
</svg>
